<?xml version="1.0" encoding="utf-8"?><svg xmlns="http://www.w3.org/2000/svg" xmlns:xlink="http://www.w3.org/1999/xlink"><symbol viewBox="0 0 24 24" id="arrow" xmlns="http://www.w3.org/2000/svg"><path d="M9 18l6-6-6-6" stroke="#90A8BE" stroke-width="2" stroke-linecap="round" stroke-linejoin="round"/></symbol><symbol viewBox="0 0 8 14" id="arrowL" xmlns="http://www.w3.org/2000/svg"><path d="M7 1L1 7l6 6" stroke="#707E98" stroke-width="2" stroke-linecap="round" stroke-linejoin="round"/></symbol><symbol viewBox="0 0 24 24" id="arrowsR" xmlns="http://www.w3.org/2000/svg"><path d="M5 12h14m-6-6l6 6-6 6" stroke="#707E98" stroke-width="2" stroke-linecap="round" stroke-linejoin="round"/></symbol><symbol viewBox="0 0 24 24" id="calendarMonth" xmlns="http://www.w3.org/2000/svg"><path d="M9 11v2H7v-2h2zm4 0v2h-2v-2h2zm4 0v2h-2v-2h2zm2-7a2 2 0 012 2v14a2 2 0 01-2 2H5a2 2 0 01-2-2V6a2 2 0 012-2h1V2h2v2h8V2h2v2h1zm0 16V9H5v11h14zM9 15v2H7v-2h2zm4 0v2h-2v-2h2zm4 0v2h-2v-2h2z"/></symbol><symbol viewBox="0 0 32 32" id="clock" xmlns="http://www.w3.org/2000/svg"><path d="M16 0C7.178 0 0 7.178 0 16s7.178 16 16 16c8.823 0 16-7.178 16-16S24.823 0 16 0zm1.484 16c0 .53-.283 1.02-.742 1.285l-5.506 3.179a1.483 1.483 0 11-1.484-2.57l4.764-2.75v-8.68a1.484 1.484 0 012.968 0V16z"/></symbol><symbol viewBox="0 0 32 32" id="company" xmlns="http://www.w3.org/2000/svg"><path d="M15.996 15.126a4.263 4.263 0 004.268-4.264 4.258 4.258 0 00-4.268-4.265 4.26 4.26 0 00-4.257 4.265 4.262 4.262 0 004.257 4.264zm3.424.695h-6.837c-1.222 0-2.223 1.12-2.223 2.496v6.866c0 .075.038.143.043.221h11.193c.008-.078.04-.145.04-.221v-6.866c.004-1.375-.997-2.496-2.217-2.496zm8.056 1.34c1.9 0 3.423-1.528 3.423-3.416a3.415 3.415 0 00-3.423-3.42 3.414 3.414 0 00-3.41 3.42 3.41 3.41 0 003.41 3.416zm2.745.558h-5.477c-.984 0-1.787.898-1.787 2.003v5.502c0 .059.029.115.033.18h8.978c.005-.065.032-.121.032-.18v-5.502c.004-1.105-.798-2.003-1.779-2.003zM4.52 17.161a3.413 3.413 0 003.422-3.416 3.416 3.416 0 10-6.834 0 3.412 3.412 0 003.413 3.416zm2.745.558H1.78c-.98 0-1.781.898-1.781 2.003v5.502c0 .059.029.115.034.18h8.979c.004-.065.03-.121.03-.18v-5.502c.003-1.105-.8-2.003-1.778-2.003z"/></symbol><symbol viewBox="0 0 32 32" id="cross" xmlns="http://www.w3.org/2000/svg"><g clip-path="url(#gclip0)"><path d="M32 22.333H21.333V33H10.667V22.333H0V11.667h10.667V1h10.666v10.667H32v10.666z"/><path d="M0 16.131h12.68L15.395 14l2.415 4.262 2.415-1.894H32" stroke="#fff" stroke-width="2"/></g><defs><clipPath id="gclip0"><path d="M0 0h32v32H0z"/></clipPath></defs></symbol><symbol viewBox="0 0 14 14" id="crossM" xmlns="http://www.w3.org/2000/svg"><path d="M13.295 2.115a.997.997 0 10-1.41-1.41L7 5.59 2.115.705a.997.997 0 10-1.41 1.41L5.59 7 .705 11.885a.997.997 0 101.41 1.41L7 8.41l4.885 4.885a.997.997 0 101.41-1.41L8.41 7l4.885-4.885z"/></symbol><symbol viewBox="0 0 32 32" id="dnk" xmlns="http://www.w3.org/2000/svg"><g clip-path="url(#iclip0)"><path d="M16.529 23.584C14.302 21.121 12 18.575 12 16c0-.402.082-.843.23-1.31l5.122-.016c.5-.002.83-.538.589-.976a12.376 12.376 0 00-.935-1.425.666.666 0 00-.534-.263l-2.856.009c.341-.491.732-.997 1.173-1.514a.664.664 0 00-.016-.873l-.29-.321c-.202-.224-.405-.449-.606-.675a.67.67 0 00-1.008.01c-2.314 2.672-3.509 5.118-3.535 7.28 0 .026.01.049.01.074h-.01c0 3.34 2.282 6.105 4.659 8.752-1.322 1.562-3.002 3.99-3.285 6.523a.663.663 0 00.665.725h1.343a.657.657 0 00.657-.554c.035-.25.099-.511.177-.78h2.253a.667.667 0 00.554-1.038c-.306-.45-.67-.916-1.063-1.39a.658.658 0 00-.438-.221c.276-.416.589-.835.932-1.255 1.423 1.632 2.597 3.198 2.835 4.695.05.317.333.543.654.543h1.347c.393 0 .712-.34.664-.73-.342-2.8-2.585-5.28-4.76-7.686z"/><path d="M22.667 16c0-3.34-2.283-6.104-4.66-8.752 1.322-1.562 3.002-3.99 3.285-6.522A.663.663 0 0020.627 0h-1.343a.658.658 0 00-.657.554c-.035.25-.099.512-.177.78h-2.253a.667.667 0 00-.554 1.038c.306.45.67.917 1.063 1.39.11.131.27.202.438.222-.277.415-.589.834-.932 1.255-1.423-1.633-2.597-3.2-2.835-4.696A.657.657 0 0012.723 0h-1.347a.663.663 0 00-.665.73c.343 2.8 2.586 5.28 4.76 7.686C17.698 10.879 20 13.426 20 16c0 .402-.087.846-.24 1.319l-5.11.01c-.5 0-.831.538-.59.976.26.47.577.945.937 1.425a.665.665 0 00.533.264l2.822-.006c-.338.483-.722.98-1.157 1.49a.664.664 0 00.017.873l.305.338c.197.218.394.437.59.657a.67.67 0 001.008-.01c2.315-2.678 3.515-5.11 3.55-7.237.001-.034-.012-.065-.014-.1h.016V16z"/></g><defs><clipPath id="iclip0"><path d="M0 0h32v32H0z"/></clipPath></defs></symbol><symbol viewBox="0 0 32 32" id="dollars" xmlns="http://www.w3.org/2000/svg"><path d="M27.314 4.686A15.895 15.895 0 0016 0 15.895 15.895 0 004.686 4.686 15.895 15.895 0 000 16c0 4.274 1.664 8.292 4.686 11.314A15.895 15.895 0 0016 32c4.274 0 8.292-1.664 11.314-4.686A15.895 15.895 0 0032 16c0-4.274-1.664-8.292-4.686-11.314zm-10.31 18.276h-.067v2.076a.938.938 0 01-1.875 0v-2.076h-2.074a.938.938 0 010-1.875h4.016c1.144 0 2.075-.93 2.075-2.075 0-1.144-.93-2.075-2.075-2.075h-2.008a3.954 3.954 0 01-3.95-3.95 3.954 3.954 0 013.95-3.95h.066V6.964a.938.938 0 011.876 0v2.075h2.075a.938.938 0 010 1.875h-4.017c-1.144 0-2.075.93-2.075 2.075 0 1.144.93 2.075 2.075 2.075h2.008a3.955 3.955 0 013.95 3.95 3.955 3.955 0 01-3.95 3.95z"/></symbol><symbol viewBox="0 0 18 15" id="doneBtn" xmlns="http://www.w3.org/2000/svg"><path d="M17.75 2.205l-12 12-5.5-5.5 1.41-1.41 4.09 4.08L16.34.795l1.41 1.41z"/></symbol><symbol viewBox="0 0 32 32" id="drop" xmlns="http://www.w3.org/2000/svg"><path d="M14.105 26.947v-4.49H9.614v-4.492h4.491v-3.93h2.246V0S4 12.828 4 19.65C4 26.47 9.53 32 16.35 32v-5.053h-2.245z"/><path d="M16 0v14.035h2.246v3.93h4.49v4.491h-4.49v4.491H16V32c6.821 0 12.35-5.53 12.35-12.35C28.35 12.827 16 0 16 0z"/></symbol><symbol viewBox="0 0 17 16" id="experience" xmlns="http://www.w3.org/2000/svg"><path d="M7 .8h3.2a1.6 1.6 0 011.6 1.6V4H15a1.6 1.6 0 011.6 1.6v8.8A1.6 1.6 0 0115 16H2.2a1.6 1.6 0 01-1.6-1.6V5.6c0-.888.712-1.6 1.6-1.6h3.2V2.4c0-.888.712-1.6 1.6-1.6zM10.2 4V2.4H7V4h3.2z"/></symbol><symbol viewBox="0 0 24 24" id="fb" xmlns="http://www.w3.org/2000/svg"><path d="M5 3h14a2 2 0 012 2v14a2 2 0 01-2 2H5a2 2 0 01-2-2V5a2 2 0 012-2zm13 2h-2.5A3.5 3.5 0 0012 8.5V11h-2v3h2v7h3v-7h3v-3h-3V9a1 1 0 011-1h2V5z"/></symbol><symbol viewBox="0 0 25 24" id="instagram" xmlns="http://www.w3.org/2000/svg"><path d="M8.598 2h8.4c3.2 0 5.8 2.6 5.8 5.8v8.4a5.8 5.8 0 01-5.8 5.8h-8.4c-3.2 0-5.8-2.6-5.8-5.8V7.8a5.8 5.8 0 015.8-5.8zm9.45 3.5a1.25 1.25 0 110 2.5 1.25 1.25 0 010-2.5zM12.798 7a5 5 0 110 10 5 5 0 010-10zm0 2a3 3 0 100 6 3 3 0 000-6z"/><circle cx="18.298" cy="6.5" r="1.5"/><circle cx="12.798" cy="12" r="5"/><circle cx="12.798" cy="12" r="3"/></symbol><symbol viewBox="0 0 32 32" id="lib" xmlns="http://www.w3.org/2000/svg"><g clip-path="url(#pclip0)"><path d="M26.39 26.887c1.036-1.678 1.61-3.57 1.61-5.554 0-4.622-2.916-8.631-7.273-10.092a3.993 3.993 0 00-2.684-1.836l.624-1.247a.667.667 0 00-.299-.895l.597-1.193c.33.164.728.032.894-.298l1.404-2.807a.667.667 0 00-.298-.895l-4-2a.667.667 0 00-.895.299l-1.403 2.807a.667.667 0 00.298.894l-.597 1.193a.668.668 0 00-.894.298L8.07 16.37a.667.667 0 00.298.894l4 2a.668.668 0 00.895-.298l1.356-2.711a3.974 3.974 0 002.714 1.08c.876 0 1.68-.291 2.338-.77a5.293 5.293 0 012.995 4.77 5.34 5.34 0 01-5.333 5.333H12v-1.334h2A.666.666 0 1014 24H4.667a.666.666 0 100 1.333h2v1.334A2.67 2.67 0 004 29.333v2c0 .369.298.667.667.667h22.666a.666.666 0 00.667-.667v-2a2.669 2.669 0 00-1.61-2.446zm-9.057-12.22A1.335 1.335 0 0116 13.333a1.335 1.335 0 012.667 0c0 .735-.599 1.334-1.334 1.334z"/></g><defs><clipPath id="pclip0"><path d="M0 0h32v32H0z"/></clipPath></defs></symbol><symbol viewBox="0 0 32 32" id="like" xmlns="http://www.w3.org/2000/svg"><g clip-path="url(#qclip0)"><path d="M0 12v16a2 2 0 002 2h6V10H2a2 2 0 00-2 2zm28.307 0h-5.909a.983.983 0 01-.862-.493.984.984 0 01-.013-.992l2.083-3.751a2.974 2.974 0 00.13-2.65 2.975 2.975 0 00-2.025-1.717l-1.469-.367a.998.998 0 00-.985.3l-7.975 8.86A4.998 4.998 0 0010 14.535V25c0 2.757 2.243 5 5 5l9.948-.001a5.011 5.011 0 004.822-3.678l2.135-9.797A3.698 3.698 0 0028.306 12z"/></g><defs><clipPath id="qclip0"><path d="M0 0h32v32H0z"/></clipPath></defs></symbol><symbol viewBox="0 0 32 32" id="mail" xmlns="http://www.w3.org/2000/svg"><path d="M3.2 12.165L16 20.43l12.8-8.265L16 3.901 3.2 12.165zm28.8 0v16.53c0 .876-.337 1.717-.937 2.337-.6.62-1.414.968-2.263.968H3.2a3.15 3.15 0 01-2.263-.968A3.365 3.365 0 010 28.694V12.165C0 10.96.624 9.917 1.552 9.34L16 0l14.448 9.339A3.314 3.314 0 0132 12.165z"/></symbol><symbol viewBox="0 0 32 32" id="phone" xmlns="http://www.w3.org/2000/svg"><g clip-path="url(#sclip0)"><path d="M27.312 4.684c-6.25-6.247-16.38-6.246-22.627.004-6.248 6.249-6.246 16.38.003 22.627 6.25 6.247 16.38 6.246 22.627-.004a16 16 0 00-.003-22.627zm-3.08 17.603l-.003.003v-.006l-.81.806a4.266 4.266 0 01-4.027 1.151 14.18 14.18 0 01-4.117-1.845 19.031 19.031 0 01-3.248-2.619A19.176 19.176 0 019.6 16.834a14.934 14.934 0 01-1.824-3.69 4.267 4.267 0 011.067-4.358l.949-.949a.677.677 0 01.958-.002l.002.002 2.997 2.998a.677.677 0 010 .96l-1.76 1.76a1.435 1.435 0 00-.149 1.866 20.586 20.586 0 002.107 2.459 20.45 20.45 0 002.773 2.33c.573.4 1.35.333 1.845-.16l1.702-1.727a.677.677 0 01.96 0l3.002 3.008a.677.677 0 01.003.957z"/></g><defs><clipPath id="sclip0"><path d="M0 0h32v32H0z"/></clipPath></defs></symbol><symbol viewBox="0 0 24 24" id="phoneTalk" xmlns="http://www.w3.org/2000/svg"><path d="M15 12h2a5 5 0 00-5-5v2a3 3 0 013 3zm4 0h2c0-5-4.03-9-9-9v2c3.86 0 7 3.13 7 7zm1 3.5c-1.25 0-2.45-.2-3.57-.57-.35-.11-.74-.03-1.02.25l-2.2 2.2a15.097 15.097 0 01-6.59-6.59l2.2-2.2c.28-.28.36-.67.25-1.02A11.36 11.36 0 018.5 4a1 1 0 00-1-1H4a1 1 0 00-1 1 17 17 0 0017 17 1 1 0 001-1v-3.5a1 1 0 00-1-1z"/></symbol><symbol viewBox="0 0 23 32" id="pin" xmlns="http://www.w3.org/2000/svg"><path d="M11.2 15.2a4 4 0 110-8 4 4 0 010 8zm0-15.2A11.2 11.2 0 000 11.2C0 19.6 11.2 32 11.2 32s11.2-12.4 11.2-20.8A11.2 11.2 0 0011.2 0z"/></symbol><symbol viewBox="0 0 32 32" id="sale" xmlns="http://www.w3.org/2000/svg"><g clip-path="url(#vclip0)"><path d="M29.872 16.415a.938.938 0 010-.83l1.194-2.44a2.778 2.778 0 00-1.199-3.69l-2.4-1.274a.938.938 0 01-.488-.67l-.47-2.677a2.778 2.778 0 00-3.137-2.28l-2.691.38a.938.938 0 01-.788-.255L17.939.789a2.778 2.778 0 00-3.878 0l-1.954 1.89a.938.938 0 01-.788.256l-2.69-.38a2.778 2.778 0 00-3.139 2.28L5.02 7.51a.938.938 0 01-.486.67l-2.4 1.274a2.778 2.778 0 00-1.2 3.69l1.194 2.44a.938.938 0 010 .83L.934 18.856a2.778 2.778 0 001.199 3.69l2.4 1.273a.938.938 0 01.488.67l.47 2.677a2.776 2.776 0 003.137 2.28l2.691-.38a.938.938 0 01.788.256l1.954 1.89a2.78 2.78 0 003.878 0l1.954-1.89a.939.939 0 01.788-.257l2.69.381a2.778 2.778 0 003.139-2.28l.47-2.677a.938.938 0 01.486-.67l2.401-1.274a2.778 2.778 0 001.199-3.689l-1.194-2.441zM12.31 7.695a3.387 3.387 0 013.383 3.383 3.388 3.388 0 01-3.383 3.384 3.388 3.388 0 01-3.384-3.383 3.388 3.388 0 013.384-3.384zm-1.747 15.048a.92.92 0 01-1.305 0 .923.923 0 010-1.305l12.18-12.18a.923.923 0 111.306 1.304l-12.18 12.18zm9.13 1.563a3.388 3.388 0 01-3.384-3.384 3.388 3.388 0 013.383-3.384 3.388 3.388 0 013.384 3.384 3.388 3.388 0 01-3.384 3.383z"/><path d="M19.691 19.384a1.54 1.54 0 00-1.538 1.538c0 .848.69 1.538 1.538 1.538a1.54 1.54 0 001.538-1.538 1.54 1.54 0 00-1.538-1.538zM12.309 9.54a1.54 1.54 0 00-1.538 1.538c0 .848.69 1.538 1.538 1.538a1.54 1.54 0 001.538-1.538 1.54 1.54 0 00-1.538-1.538z"/></g><defs><clipPath id="vclip0"><path d="M0 0h32v32H0z"/></clipPath></defs></symbol><symbol viewBox="0 0 32 32" id="search" xmlns="http://www.w3.org/2000/svg"><g clip-path="url(#wclip0)"><path d="M21.688 3.75a3.754 3.754 0 00-3.75 3.75 3.754 3.754 0 003.75 3.75 3.754 3.754 0 003.75-3.75 3.754 3.754 0 00-3.75-3.75z"/><path d="M21.688 0C16 0 11.375 4.626 11.375 10.313c0 2.506.9 4.805 2.393 6.594l-3.457 3.455-.662-.663a.937.937 0 00-1.326 0l-7.5 7.5A2.811 2.811 0 104.8 31.176l7.5-7.5a.937.937 0 000-1.326l-.663-.663 3.457-3.455c.095.08.197.152.295.228.898.937 3.658 2.165 6.299 2.165C27.297 20.625 32 16.039 32 10.312 32 4.627 27.374 0 21.688 0zm6.253 15.926c-.817-2.695-3.296-4.676-6.253-4.676-2.958 0-5.436 1.98-6.253 4.676-1.343-1.495-2.185-3.45-2.185-5.614 0-4.652 3.785-8.437 8.438-8.437 4.652 0 8.437 3.785 8.437 8.438 0 2.163-.841 4.118-2.184 5.613z"/></g><defs><clipPath id="wclip0"><path d="M0 0h32v32H0z"/></clipPath></defs></symbol><symbol viewBox="0 0 14 14" id="searchForm" xmlns="http://www.w3.org/2000/svg"><path d="M5.125.25A4.875 4.875 0 0110 5.125a4.887 4.887 0 01-1.17 3.172l.203.203h.592l3.75 3.75-1.125 1.125-3.75-3.75v-.592l-.203-.203A4.887 4.887 0 015.125 10a4.875 4.875 0 110-9.75zm0 1.5A3.361 3.361 0 001.75 5.125C1.75 7 3.25 8.5 5.125 8.5S8.5 7 8.5 5.125 7 1.75 5.125 1.75z"/></symbol><symbol viewBox="0 0 25 24" id="twitter" xmlns="http://www.w3.org/2000/svg"><path d="M23.258 6c-.77.35-1.6.58-2.46.69.88-.53 1.56-1.37 1.88-2.38-.83.5-1.75.85-2.72 1.05-.79-.86-1.9-1.36-3.16-1.36-2.35 0-4.27 1.92-4.27 4.29 0 .34.04.67.11.98-3.56-.18-6.73-1.89-8.84-4.48-.37.63-.58 1.37-.58 2.15 0 1.49.75 2.81 1.91 3.56-.71 0-1.37-.2-1.95-.5v.03c0 2.08 1.48 3.82 3.44 4.21a4.22 4.22 0 01-1.93.07 4.28 4.28 0 004 2.98 8.521 8.521 0 01-5.33 1.84c-.34 0-.68-.02-1.02-.06 1.9 1.22 4.16 1.93 6.58 1.93 7.88 0 12.21-6.54 12.21-12.21 0-.19 0-.37-.01-.56.84-.6 1.56-1.36 2.14-2.23z"/></symbol><symbol viewBox="0 0 24 24" id="zoom" xmlns="http://www.w3.org/2000/svg"><path d="M16.667 14.667l6.666 6.666-2 2-6.666-6.666v-1.054l-.36-.373a8.628 8.628 0 01-5.64 2.093 8.667 8.667 0 118.666-8.666c0 2.146-.786 4.12-2.093 5.64l.373.36h1.054zm-8 0c3.333 0 6-2.667 6-6 0-3.334-2.667-6-6-6-3.334 0-6 2.666-6 6 0 3.333 2.666 6 6 6zM12 9.333H9.333V12H8V9.333H5.333V8H8V5.333h1.333V8H12v1.333z"/></symbol></svg>