<svg width="32" height="32" viewBox="0 0 32 32" fill="none" xmlns="http://www.w3.org/2000/svg">
<path d="M0 16C0 7.16344 7.16344 0 16 0C24.8366 0 32 7.16344 32 16C32 24.8366 24.8366 32 16 32C7.16344 32 0 24.8366 0 16Z" fill="#6AAF50"/>
<path d="M21.3112 18.6678C20.8383 18.3468 20.2169 18.3484 19.7457 18.6719L19.0673 19.1375C18.3115 19.6562 17.3065 19.628 16.5801 19.069C15.8955 18.5421 15.2421 17.9771 14.6216 17.3784C14.0228 16.7579 13.4579 16.1045 12.931 15.4199C12.3719 14.6935 12.3438 13.6885 12.8625 12.9327L13.3281 12.2543C13.6515 11.783 13.6532 11.1617 13.3322 10.6888L11.3901 7.82667C10.8536 7.03608 9.80932 6.7712 8.96221 7.21314L8.96169 7.21337C7.25054 8.10615 6.53264 10.1706 7.31665 11.9342C8.44515 14.473 9.96041 16.7952 11.7891 18.8288L13.1712 20.2109C15.2049 22.0395 17.5271 23.5548 20.0658 24.6834C21.8295 25.4674 23.8938 24.7495 24.7866 23.0383L24.7868 23.0378C25.2288 22.1907 24.964 21.1464 24.1733 20.6099L21.3112 18.6678Z" fill="white"/>
</svg>
