<svg width="32" height="32" viewBox="0 0 32 32" fill="none" xmlns="http://www.w3.org/2000/svg">
<path d="M0 16C0 7.16344 7.16344 0 16 0C24.8366 0 32 7.16344 32 16C32 24.8366 24.8366 32 16 32C7.16344 32 0 24.8366 0 16Z" fill="#6DC02D"/>
<path d="M20.0807 15.9688V8.67977C20.0807 8.46497 19.9954 8.25897 19.8435 8.10709C19.6916 7.9552 19.4856 7.86987 19.2708 7.86987H8.74215C8.52735 7.86987 8.32135 7.9552 8.16946 8.10709C8.01758 8.25897 7.93225 8.46497 7.93225 8.67977V20.0183L11.1718 16.7787H19.2708C19.4856 16.7787 19.6916 16.6934 19.8435 16.5415C19.9954 16.3896 20.0807 16.1836 20.0807 15.9688ZM23.3203 11.1095H21.7005V18.3985H11.1718V20.0183C11.1718 20.2331 11.2572 20.4391 11.409 20.591C11.5609 20.7429 11.7669 20.8282 11.9817 20.8282H20.8906L24.1302 24.0678V11.9194C24.1302 11.7046 24.0448 11.4986 23.893 11.3467C23.7411 11.1948 23.5351 11.1095 23.3203 11.1095Z" fill="white"/>
</svg>
