<svg width="32" height="32" viewBox="0 0 32 32" fill="none" xmlns="http://www.w3.org/2000/svg">
<path d="M0 16C0 7.16344 7.16344 0 16 0C24.8366 0 32 7.16344 32 16C32 24.8366 24.8366 32 16 32C7.16344 32 0 24.8366 0 16Z" fill="#7AA5DA"/>
<path d="M23.9823 8.34507C24.6202 8.0962 25.2796 8.65432 25.1395 9.32445L22.2789 22.9983C22.1453 23.6393 21.3921 23.9281 20.8642 23.5402L16.5458 20.3704L14.3446 22.6179C13.9578 23.0123 13.2909 22.8518 13.125 22.3259L11.5368 17.2846L7.27983 16.0272C6.72064 15.8623 6.68833 15.0844 7.23026 14.8722L23.9823 8.34507Z" fill="white"/>
<path d="M21.5426 11.0181C21.7538 10.8866 21.9703 11.1775 21.784 11.3424L14.0027 18.2229C13.9252 18.2919 13.8756 18.3867 13.8648 18.4901L13.5847 22.6835C13.5739 22.7708 13.4532 22.7826 13.4284 22.6986L12.1753 17.1961C12.1182 17.014 12.1926 16.8168 12.3542 16.7166L21.5426 11.0181Z" fill="#9EC2E5"/>
</svg>
