<svg width="32" height="32" viewBox="0 0 32 32" fill="none" xmlns="http://www.w3.org/2000/svg">
<path d="M0 16C0 7.16344 7.16344 0 16 0V0C24.8366 0 32 7.16344 32 16V16C32 24.8366 24.8366 32 16 32V32C7.16344 32 0 24.8366 0 16V16Z" fill="#6F3FAA"/>
<path d="M24.4642 11.2453L24.459 11.2241C24.0315 9.49583 22.1041 7.64133 20.3341 7.25552L20.3142 7.25139C17.4513 6.70527 14.5485 6.70527 11.6862 7.25139L11.6657 7.25552C9.8963 7.64133 7.96887 9.49595 7.5408 11.2241L7.53605 11.2453C7.00755 13.6588 7.00755 16.1066 7.53605 18.5201L7.5408 18.5413C7.95068 20.1958 9.73449 21.9651 11.4384 22.4517V24.381C11.4384 25.0793 12.2894 25.4222 12.7732 24.9183L14.7279 22.8865C15.1519 22.9101 15.5761 22.9234 16.0002 22.9234C17.4412 22.9234 18.883 22.7871 20.3141 22.5141L20.3341 22.51C22.1041 22.1241 24.0314 20.2695 24.4589 18.5413L24.4642 18.5202C24.9927 16.1066 24.9927 13.659 24.4642 11.2453ZM22.9173 18.1702C22.6319 19.2978 21.1685 20.6995 20.0057 20.9585C18.4836 21.248 16.9492 21.3717 15.4165 21.3293C15.386 21.3284 15.3567 21.3403 15.3355 21.3621C15.1179 21.5854 13.9083 22.8273 13.9083 22.8273L12.3903 24.3853C12.2793 24.501 12.0843 24.4222 12.0843 24.2625V21.0665C12.0843 21.0137 12.0466 20.9689 11.9947 20.9586C11.9944 20.9585 11.9942 20.9585 11.9939 20.9585C10.8311 20.6995 9.36824 19.2977 9.0823 18.1701C8.60662 15.9885 8.60662 13.7769 9.0823 11.5953C9.36824 10.4677 10.8311 9.06595 11.9939 8.80695C14.6524 8.30133 17.3479 8.30133 20.0058 8.80695C21.1691 9.06595 22.6319 10.4677 22.9174 11.5953C23.3936 13.777 23.3936 15.9886 22.9173 18.1702Z" fill="white"/>
<path d="M18.5294 19.6456C18.3507 19.5913 18.1803 19.5548 18.022 19.4893C16.3826 18.8091 14.8738 17.9316 13.6788 16.5865C12.9992 15.8216 12.4672 14.9581 12.0176 14.0442C11.8043 13.6108 11.6247 13.1605 11.4415 12.713C11.2745 12.305 11.5205 11.8835 11.7795 11.576C12.0225 11.2874 12.3353 11.0667 12.6741 10.9039C12.9385 10.7769 13.1992 10.8501 13.3923 11.0742C13.8097 11.5587 14.1932 12.0679 14.5036 12.6296C14.6945 12.975 14.6422 13.3973 14.2961 13.6323C14.212 13.6894 14.1353 13.7566 14.057 13.8211C13.9883 13.8776 13.9237 13.9348 13.8765 14.0113C13.7905 14.1514 13.7863 14.3167 13.8417 14.469C14.2684 15.6416 14.9876 16.5534 16.1679 17.0446C16.3568 17.1232 16.5464 17.2146 16.764 17.1893C17.1284 17.1468 17.2464 16.747 17.5018 16.5382C17.7513 16.3341 18.0703 16.3314 18.3392 16.5016C18.6081 16.6718 18.8687 16.8544 19.1278 17.0391C19.3822 17.2204 19.6354 17.3976 19.87 17.6043C20.0956 17.8029 20.1733 18.0636 20.0462 18.3331C19.8137 18.8269 19.4753 19.2376 18.9872 19.4999C18.8494 19.5738 18.6848 19.5977 18.5294 19.6456C18.6848 19.5977 18.3507 19.5913 18.5294 19.6456Z" fill="white"/>
<path d="M16.0045 10.3392C18.1489 10.3994 19.9102 11.8224 20.2876 13.9424C20.3519 14.3037 20.3748 14.6729 20.4034 15.0396C20.4155 15.1938 20.3281 15.3403 20.1617 15.3424C19.9899 15.3444 19.9126 15.2005 19.9013 15.0465C19.8792 14.7414 19.8639 14.4348 19.8219 14.1323C19.5999 12.5349 18.3262 11.2133 16.7362 10.9297C16.4969 10.887 16.2521 10.8759 16.0097 10.8504C15.8565 10.8344 15.6559 10.8251 15.6219 10.6346C15.5935 10.4749 15.7282 10.3478 15.8803 10.3396C15.9215 10.3372 15.963 10.3391 16.0045 10.3392C15.963 10.3391 18.149 10.3994 16.0045 10.3392Z" fill="white"/>
<path d="M19.2634 14.5638C19.2598 14.5906 19.258 14.6535 19.2423 14.7128C19.1854 14.928 18.8589 14.9549 18.7838 14.7378C18.7615 14.6733 18.7582 14.5999 18.7581 14.5306C18.7573 14.0764 18.6586 13.6227 18.4296 13.2275C18.1941 12.8213 17.8344 12.48 17.4126 12.2733C17.1574 12.1484 16.8816 12.0708 16.602 12.0246C16.4798 12.0043 16.3563 11.9921 16.2335 11.975C16.0847 11.9543 16.0052 11.8595 16.0123 11.7129C16.0189 11.5755 16.1193 11.4766 16.2691 11.4851C16.7611 11.513 17.2365 11.6195 17.6741 11.8511C18.5637 12.3223 19.0719 13.0659 19.2203 14.059C19.227 14.1041 19.2378 14.1486 19.2412 14.1937C19.2496 14.3051 19.2549 14.4166 19.2634 14.5638C19.2549 14.4166 19.2598 14.5904 19.2634 14.5638Z" fill="white"/>
<path d="M17.9296 14.5117C17.7502 14.515 17.6542 14.4156 17.6356 14.2512C17.6228 14.1366 17.6126 14.0204 17.5852 13.9087C17.5313 13.6889 17.4145 13.4853 17.2296 13.3506C17.1424 13.287 17.0434 13.2407 16.9399 13.2107C16.8083 13.1727 16.6716 13.1832 16.5404 13.151C16.3978 13.1161 16.3189 13.0006 16.3414 12.8669C16.3617 12.7452 16.4801 12.6502 16.6132 12.6599C17.4446 12.7199 18.0387 13.1497 18.1236 14.1284C18.1296 14.1975 18.1366 14.2704 18.1213 14.3366C18.0949 14.4495 18.0112 14.5062 17.9296 14.5117C18.0112 14.5062 17.7501 14.5149 17.9296 14.5117Z" fill="white"/>
<path d="M16.01 10.3393C16.0082 10.3393 16.0064 10.3392 16.0046 10.3392C16.0029 10.339 16.0051 10.3392 16.01 10.3393Z" fill="white"/>
<path d="M16.0049 10.3391C16.0068 10.3391 16.0085 10.3393 16.0103 10.3393C16.1293 10.3435 18.0648 10.3969 16.0049 10.3391Z" fill="white"/>
<path d="M19.0803 11.6147L18.7029 11.9492C19.2959 12.5261 19.7048 13.2906 19.8216 14.132C19.8636 14.4346 19.8791 14.7411 19.9011 15.0462C19.9123 15.2004 19.9896 15.3442 20.1616 15.3422C20.328 15.3401 20.4153 15.1937 20.4033 15.0394C20.3746 14.6728 20.3518 14.3034 20.2874 13.9422C20.1223 13.0142 19.6918 12.2198 19.0803 11.6147Z" fill="#D1D1D1"/>
<path d="M19.2201 14.0587C19.112 13.3351 18.8118 12.7446 18.3132 12.2947L17.937 12.6281C18.1315 12.8008 18.2998 13.0036 18.4295 13.2273C18.6585 13.6225 18.7572 14.0762 18.758 14.5304C18.7581 14.5997 18.7614 14.6731 18.7837 14.7377C18.8589 14.955 19.1853 14.9281 19.2421 14.7127C19.2579 14.6533 19.2597 14.5904 19.2633 14.5637C19.2597 14.5905 19.2546 14.4166 19.2633 14.5637C19.2546 14.4166 19.2494 14.305 19.241 14.1935C19.2376 14.1482 19.2268 14.1037 19.2201 14.0587Z" fill="#D1D1D1"/>
<path d="M19.2632 14.5638C19.2547 14.4166 19.2596 14.5904 19.2632 14.5638V14.5638Z" fill="white"/>
<path d="M17.9294 14.5117C17.9322 14.5115 17.9349 14.5101 17.9376 14.5098C17.9301 14.5098 17.9184 14.51 17.9065 14.5104C17.9142 14.5106 17.9213 14.5118 17.9294 14.5117Z" fill="white"/>
<path d="M17.9295 14.5118C17.9214 14.5119 17.9143 14.5107 17.9065 14.5105C17.8677 14.5116 17.8276 14.5136 17.9295 14.5118Z" fill="white"/>
<path d="M17.9377 14.5098C17.9348 14.5101 17.9322 14.5115 17.9295 14.5117C17.9505 14.5103 17.9487 14.5098 17.9377 14.5098Z" fill="white"/>
<path d="M17.5508 12.9705L17.1678 13.31C17.189 13.3228 17.2097 13.3361 17.2297 13.3507C17.4146 13.4854 17.5314 13.689 17.5853 13.9088C17.6127 14.0205 17.6228 14.1366 17.6357 14.2513C17.6534 14.4084 17.7426 14.505 17.9067 14.5106C17.9187 14.5103 17.9304 14.51 17.9379 14.51C18.0169 14.5012 18.096 14.4458 18.1214 14.3366C18.1367 14.2705 18.1297 14.1975 18.1236 14.1284C18.076 13.5812 17.8691 13.2058 17.5508 12.9705Z" fill="#D1D1D1"/>
</svg>
