<svg width="85" height="89" viewBox="0 0 85 89" fill="none" xmlns="http://www.w3.org/2000/svg">
<path opacity="0.2" d="M75.3796 49.8091C75.2796 49.6091 75.1796 49.4091 74.9796 49.2091C74.6796 48.8091 74.4796 48.4091 74.1796 48.0091C73.5796 47.2091 72.8796 46.6091 72.2796 46.1091C71.8796 45.8091 71.4796 45.5091 71.0796 45.3091C67.6796 43.3091 63.5796 42.7091 60.0796 38.7091C59.9796 38.6091 59.8796 38.4091 59.7796 38.3091C59.6796 38.2091 59.5796 38.0091 59.4796 37.9091C59.2796 37.6091 58.9796 37.3091 58.7796 37.0091C58.2796 36.3091 57.9796 35.7091 57.6796 35.1091C57.4796 34.7091 57.2796 34.4091 57.1796 34.0091C55.1796 28.9091 56.9796 24.9091 54.0796 20.0091C53.8796 19.6091 53.5796 19.2091 53.2796 18.8091C53.0796 18.6091 52.9796 18.3091 52.7796 18.1091C52.5796 17.9091 52.4796 17.7091 52.2796 17.5091C45.3796 9.80912 29.8796 7.30912 18.5796 13.0091C17.4796 13.6091 16.3796 14.2091 15.3796 14.9091C14.9796 15.2091 14.5796 15.4091 14.2796 15.7091C13.3796 16.4091 12.5796 17.1091 11.7796 17.8091C11.4796 18.1091 11.0796 18.4091 10.7796 18.8091C8.27963 21.4091 6.17963 24.6091 4.57963 28.0091C4.17963 28.9091 3.77963 29.9091 3.37963 30.8091C2.27963 33.6091 1.47963 36.5091 0.879632 39.5091C0.779631 40.0091 0.679632 40.4091 0.679632 40.9091C-0.620368 48.8091 -0.0203686 57.1091 2.17963 64.1091C3.07963 66.9091 5.57963 74.3091 12.1796 80.2091C30.2796 96.5091 64.7796 89.4091 74.0796 70.7091C75.0796 68.8091 75.9796 66.3091 76.4796 63.7091C76.5796 63.1091 76.7796 62.5091 76.7796 61.9091C77.3796 57.8091 77.1796 53.4091 75.3796 49.8091ZM23.5796 63.1091C23.5796 65.3091 22.7796 66.6091 21.4796 66.6091H18.7796C17.4796 66.6091 16.6796 65.3091 16.6796 63.1091V59.4091L18.1796 59.6091C18.9796 59.7091 19.5796 59.7091 20.0796 59.7091C20.6796 59.7091 21.2796 59.7091 21.9796 59.6091L22.6796 59.5091L23.4796 59.4091V63.1091H23.5796ZM28.2796 13.6091C29.4796 13.6091 30.3796 14.5091 30.3796 15.7091C30.3796 16.9091 29.4796 17.8091 28.2796 17.8091C27.0796 17.8091 26.1796 16.8091 26.1796 15.7091C26.1796 14.5091 27.0796 13.6091 28.2796 13.6091ZM7.27963 40.7091V41.6091C7.37963 47.2091 11.0796 52.0091 16.3796 53.6091C19.1796 54.5091 22.1796 54.5091 25.0796 53.6091C30.4796 52.0091 34.1796 47.2091 34.2796 41.6091V40.7091H38.4796V41.6091C38.4796 49.5091 32.3796 56.4091 24.0796 58.1091C22.7796 58.4091 21.4796 58.5091 20.0796 58.5091C19.3796 58.5091 18.7796 58.5091 18.0796 58.4091C17.4796 58.3091 16.7796 58.2091 16.0796 58.1091C7.77963 56.4091 1.77963 49.5091 1.77963 41.6091V40.7091H7.27963Z" fill="#5BCEAE"/>
<g opacity="0.5">
<path opacity="0.5" d="M7.58027 6.70902C7.48027 6.70902 7.38027 6.70902 7.28027 6.60902L0.680273 0.909017C0.480273 0.709017 0.480273 0.409017 0.680273 0.209017C0.880273 0.00901699 1.18027 -0.090983 1.38027 0.109017L7.88027 5.90902C8.08027 6.10902 8.08027 6.40902 7.88027 6.60902C7.78027 6.70902 7.68027 6.70902 7.58027 6.70902Z" fill="#95C53D"/>
</g>
<path d="M67.6799 22.9092C67.4799 22.9092 67.2799 22.8092 67.1799 22.6092C67.0799 22.4092 67.1799 22.1092 67.3799 21.9092L75.1799 18.2092C75.3799 18.1092 75.6799 18.2092 75.8799 18.4092C75.9799 18.6092 75.8799 18.9092 75.6799 19.1092L67.8799 22.9092C67.8799 22.9092 67.7799 22.9092 67.6799 22.9092Z" fill="#5BCEAE"/>
<path d="M65.6803 27.109C65.4803 27.009 65.3803 26.909 65.2803 26.709C65.2803 26.409 65.3803 26.209 65.6803 26.109L74.2803 24.709C74.5803 24.709 74.7803 24.809 74.8803 25.109C74.8803 25.409 74.7803 25.609 74.4803 25.709L65.8803 27.109C65.8803 27.109 65.7803 27.109 65.6803 27.109Z" fill="#5BCEAE"/>
<g opacity="0.5">
<path opacity="0.5" d="M62.4801 21.509C61.1801 21.509 60.0801 20.409 60.0801 19.109C60.0801 17.809 61.1801 16.709 62.4801 16.709C63.7801 16.709 64.8801 17.809 64.8801 19.109C64.8801 20.409 63.7801 21.509 62.4801 21.509ZM62.4801 17.809C61.6801 17.809 61.0801 18.409 61.0801 19.209C61.0801 20.009 61.6801 20.609 62.4801 20.609C63.2801 20.609 63.8801 20.009 63.8801 19.209C63.8801 18.409 63.1801 17.809 62.4801 17.809Z" fill="#95C53D"/>
</g>
<g opacity="0.5">
<path opacity="0.5" d="M4.07969 83.7089C2.77969 83.7089 1.67969 82.6089 1.67969 81.3089C1.67969 80.0089 2.77969 78.9089 4.07969 78.9089C5.37969 78.9089 6.47969 80.0089 6.47969 81.3089C6.47969 82.6089 5.37969 83.7089 4.07969 83.7089ZM4.07969 79.9089C3.27969 79.9089 2.67969 80.5089 2.67969 81.3089C2.67969 82.1089 3.27969 82.7089 4.07969 82.7089C4.87969 82.7089 5.47969 82.1089 5.47969 81.3089C5.47969 80.5089 4.77969 79.9089 4.07969 79.9089Z" fill="#95C53D"/>
</g>
<g opacity="0.5">
<path opacity="0.5" d="M65.3795 9.50898C64.0795 9.50898 62.9795 8.40898 62.9795 7.10898C62.9795 5.80898 64.0795 4.70898 65.3795 4.70898C66.6795 4.70898 67.7795 5.80898 67.7795 7.10898C67.7795 8.40898 66.6795 9.50898 65.3795 9.50898ZM65.3795 5.70898C64.5795 5.70898 63.9795 6.30898 63.9795 7.10898C63.9795 7.90898 64.5795 8.50898 65.3795 8.50898C66.1795 8.50898 66.7795 7.90898 66.7795 7.10898C66.7795 6.30898 66.0795 5.70898 65.3795 5.70898Z" fill="#95C53D"/>
</g>
<path opacity="0.6" d="M80.4801 47.509C79.0801 46.009 77.1801 44.909 75.2801 44.409C74.2801 44.109 73.1801 44.009 72.0801 44.009C68.5801 44.009 65.1801 45.309 62.4801 47.609C59.4801 44.909 56.5801 43.509 53.9801 43.509C50.3801 43.509 46.9801 44.909 44.4801 47.509C39.2801 52.909 39.2801 61.509 44.4801 67.009L60.5801 82.409C61.6801 83.509 63.4801 83.509 64.5801 82.409L80.6801 67.009C81.3801 66.309 81.8801 65.609 82.3801 64.809C85.6801 59.409 85.0801 52.309 80.4801 47.509Z" fill="#95C53D"/>
<path d="M80.2801 55.109C79.9801 53.209 79.0801 51.509 77.7801 50.209C76.7801 49.209 75.5801 48.409 74.1801 48.009C73.7801 47.909 73.2801 47.809 72.8801 47.709L72.2801 47.609V44.509C72.2801 38.109 67.4801 32.909 61.4801 32.909C59.8801 32.909 58.3801 33.309 57.0801 33.909C53.4801 35.709 50.8801 39.609 50.7801 44.109V70.809C50.7801 79.709 44.0801 87.009 35.7801 87.009C27.4801 87.009 20.7801 79.709 20.7801 70.809V67.709H21.5801C23.6801 67.709 24.8801 66.009 24.8801 63.009V59.009L25.4801 58.909C33.8801 56.709 39.7801 49.609 39.7801 41.509V39.409H37.0801L36.8801 21.109C36.8801 18.209 34.7801 15.709 31.8801 15.209L31.4801 15.109L31.3801 14.709C30.7801 13.009 28.9801 12.009 27.1801 12.609C25.4801 13.209 24.4801 15.009 25.0801 16.809C25.6801 18.509 27.4801 19.509 29.2801 18.909C30.1801 18.609 30.9801 17.909 31.2801 17.009L31.5801 16.409L32.2801 16.609C34.2801 17.209 35.7801 19.109 35.7801 21.209L35.8801 39.609H33.1801V41.709C33.0801 46.809 29.6801 51.109 24.8801 52.509C22.2801 53.309 19.5801 53.309 16.9801 52.509C12.1801 51.109 8.78008 46.709 8.68008 41.709V39.609H4.48008V21.109C4.48008 19.009 5.88008 17.009 7.98008 16.509L8.58008 16.309L8.88008 16.909C9.18008 17.709 9.78008 18.409 10.5801 18.709C11.3801 19.109 12.2801 19.109 13.0801 18.809C13.8801 18.509 14.5801 17.809 14.8801 17.009C15.1801 16.309 15.2801 15.509 15.0801 14.809C15.0801 14.709 14.9801 14.609 14.9801 14.509C14.6801 13.709 13.9801 13.009 13.1801 12.709C12.3801 12.409 11.4801 12.309 10.5801 12.709C9.88008 13.009 9.18008 13.709 8.88008 14.709L8.78008 15.109L8.28008 15.209C5.38008 15.709 3.28008 18.209 3.28008 21.109V39.509H0.580078V41.609C0.580078 49.709 6.38008 56.809 14.8801 59.009L15.4801 59.109V63.109C15.4801 66.009 16.7801 67.809 18.7801 67.809H19.5801V70.909C19.5801 80.509 26.8801 88.3091 35.7801 88.3091C44.6801 88.3091 51.9801 80.509 51.9801 70.909V44.209C52.0801 40.209 54.3801 36.709 57.5801 35.109C58.7801 34.509 60.0801 34.209 61.4801 34.209C66.7801 34.209 71.0801 38.909 71.0801 44.609V47.709L70.3801 47.809C65.5801 48.509 62.2801 52.909 62.9801 57.709C63.2801 60.009 64.4801 62.009 66.3801 63.509C68.2801 65.009 70.5801 65.509 72.8801 65.209C74.1801 65.009 75.3801 64.609 76.3801 63.809C77.1801 63.309 77.9801 62.609 78.5801 61.709C79.9801 59.709 80.5801 57.409 80.2801 55.109ZM28.2801 17.809C27.0801 17.809 26.1801 16.809 26.1801 15.709C26.1801 14.509 27.1801 13.609 28.2801 13.609C29.4801 13.609 30.3801 14.509 30.3801 15.709C30.3801 16.909 29.3801 17.809 28.2801 17.809ZM11.9801 13.609C13.0801 13.609 14.0801 14.509 14.0801 15.609V15.709C14.0801 16.909 13.1801 17.809 11.9801 17.809C11.8801 17.809 11.6801 17.809 11.5801 17.809C10.5801 17.609 9.88008 16.809 9.88008 15.709C9.88008 14.509 10.7801 13.609 11.9801 13.609ZM1.78008 41.609V40.709H7.38008V41.609C7.48008 47.209 11.1801 52.009 16.4801 53.609C19.2801 54.509 22.2801 54.509 25.1801 53.609C30.5801 52.009 34.2801 47.209 34.3801 41.609V40.709H38.5801V41.609C38.5801 49.509 32.4801 56.409 24.1801 58.109C22.8801 58.409 21.5801 58.509 20.1801 58.509C19.4801 58.509 18.8801 58.509 18.1801 58.409C17.5801 58.309 16.8801 58.209 16.1801 58.109C7.78008 56.409 1.78008 49.509 1.78008 41.609ZM18.7801 66.609C17.4801 66.609 16.6801 65.309 16.6801 63.109V59.409L18.1801 59.609C18.9801 59.709 19.5801 59.709 20.0801 59.709C20.6801 59.709 21.2801 59.709 21.9801 59.609L22.6801 59.509L23.4801 59.409V63.109C23.4801 65.309 22.6801 66.609 21.3801 66.609H18.7801ZM76.7801 61.809C75.4801 63.109 73.5801 63.809 71.6801 63.909C67.5801 63.909 64.1801 60.509 64.1801 56.409C64.1801 52.309 67.5801 48.909 71.6801 48.909C73.0801 48.909 74.2801 49.309 75.3801 49.909C77.6801 51.209 79.1801 53.609 79.1801 56.409C79.1801 58.509 78.1801 60.509 76.7801 61.809ZM50.0801 44.109H50.4801H50.0801Z" fill="#5BCEAE"/>
<path d="M71.5801 51.9089C69.0801 51.9089 67.0801 53.9089 67.0801 56.4089C67.0801 58.9089 69.0801 60.9089 71.5801 60.9089C74.0801 60.9089 76.0801 58.9089 76.0801 56.4089C76.0801 53.9089 74.0801 51.9089 71.5801 51.9089ZM71.5801 57.9089C70.7801 57.9089 70.0801 57.2089 70.0801 56.4089C70.0801 55.6089 70.7801 54.9089 71.5801 54.9089C72.3801 54.9089 73.0801 55.6089 73.0801 56.4089C73.0801 57.2089 72.4801 57.9089 71.5801 57.9089Z" fill="#5BCEAE"/>
</svg>
