<svg width="90" height="83" viewBox="0 0 90 83" fill="none" xmlns="http://www.w3.org/2000/svg">
<path opacity="0.2" d="M79.8533 42.8501C76.1533 36.7501 69.8533 37.9501 64.8533 32.3501C64.7533 32.2501 64.6533 32.0501 64.5533 31.9501C64.4533 31.8501 64.3533 31.6501 64.2533 31.5501C64.0533 31.2501 63.7533 30.9501 63.5533 30.6501C59.0533 24.0501 62.2533 19.4501 58.8533 13.5501C58.6533 13.1501 58.3533 12.7501 58.0533 12.3501C57.8533 12.1501 57.7533 11.8501 57.5533 11.6501C57.3533 11.4501 57.2533 11.2501 57.0533 11.0501C50.1533 3.15006 34.6533 0.750058 23.2533 6.45006C6.35328 14.9501 1.35328 40.3501 6.95328 57.8501C7.85328 60.6501 10.3533 68.0501 16.9533 74.0501C35.0533 90.4501 69.5533 83.3501 78.8533 64.4501C81.5533 59.0501 83.7533 49.3501 79.8533 42.8501ZM52.5533 26.3501V29.5501H46.3533V35.6501H43.0533V29.5501H36.9533V26.3501H43.1533V20.2501H46.4533V26.3501H52.5533Z" fill="#5BCEAE"/>
<path opacity="0.6" d="M62.7535 14.75C61.3535 13.25 59.4535 12.15 57.5535 11.65C56.5535 11.35 55.4535 11.25 54.3535 11.25C50.8535 11.25 47.4535 12.55 44.7535 14.85C41.7535 12.15 38.8535 10.75 36.2535 10.75C32.6535 10.75 29.2535 12.15 26.7535 14.75C21.5535 20.15 21.5535 28.75 26.7535 34.25L42.8535 49.65C43.9535 50.75 45.7535 50.75 46.8535 49.65L62.9535 34.25C63.6535 33.55 64.1535 32.85 64.6535 32.05C67.9535 26.55 67.3535 19.45 62.7535 14.75ZM36.4535 30.05V25.85H42.6535V19.75H46.9535V25.85H53.1535V30.05H46.9535V36.15H42.6535V30.05H36.4535Z" fill="#95C53D"/>
<path d="M47.3529 25.3499V19.2499H42.0529V25.3499H35.9529V30.5499H42.1529V36.6499H47.4529V30.5499H53.6529V25.3499H47.3529ZM52.5529 29.5499H46.3529V35.6499H43.0529V29.5499H36.9529V26.3499H43.1529V20.2499H46.4529V26.3499H52.6529V29.5499H52.5529ZM47.3529 25.3499V19.2499H42.0529V25.3499H35.9529V30.5499H42.1529V36.6499H47.4529V30.5499H53.6529V25.3499H47.3529ZM52.5529 29.5499H46.3529V35.6499H43.0529V29.5499H36.9529V26.3499H43.1529V20.2499H46.4529V26.3499H52.6529V29.5499H52.5529ZM63.1529 14.3499C61.4529 12.6499 59.3529 11.4499 57.0529 10.9499C56.1529 10.7499 55.2529 10.6499 54.3529 10.6499C50.8529 10.6499 47.4529 11.8499 44.7529 14.0499C41.7529 11.4499 38.8529 10.1499 36.1529 10.1499C32.4529 10.1499 28.8529 11.6499 26.2529 14.3499C20.7529 19.9499 20.7529 28.8499 26.2529 34.4499L42.3529 49.9499C43.0529 50.5499 43.8529 50.9499 44.6529 50.9499C45.4529 50.9499 46.3529 50.6499 46.9529 49.9499L63.0529 34.4499C63.6529 33.7499 64.2529 33.0499 64.7529 32.3499C66.3529 29.9499 67.1529 27.1499 67.1529 24.4499C67.2529 20.7499 65.8529 17.1499 63.1529 14.3499ZM43.0529 49.2499L27.0529 33.8499C21.9529 28.5499 21.9529 20.3499 27.0529 15.0499C29.4529 12.5499 32.7529 11.1499 36.1529 11.1499C38.6529 11.1499 41.4529 12.4499 44.3529 15.0499L44.6529 15.3499L44.9529 15.0499C47.5529 12.8499 50.8529 11.6499 54.2529 11.5499C55.5529 11.5499 56.7529 11.7499 57.9529 12.1499C59.5529 12.7499 61.0529 13.6499 62.2529 14.9499C66.6529 19.4499 67.2529 26.2499 64.0529 31.4499C63.5529 32.2499 62.9529 32.9499 62.3529 33.6499L46.3529 49.2499C45.4529 50.1499 43.9529 50.1499 43.0529 49.2499ZM47.3529 19.2499H42.0529V25.3499H35.9529V30.5499H42.1529V36.6499H47.4529V30.5499H53.6529V25.3499H47.4529V19.2499H47.3529ZM52.5529 29.5499H46.3529V35.6499H43.0529V29.5499H36.9529V26.3499H43.1529V20.2499H46.4529V26.3499H52.6529V29.5499H52.5529Z" fill="#5BCEAE"/>
<path d="M25.2529 83.3501L23.2529 72.8501L5.05288 60.0501C4.25288 59.4501 3.65288 58.6501 3.45288 57.7501L0.0528837 36.8501C-0.247116 35.2501 0.752884 33.6501 2.45288 33.2501C4.05288 32.8501 5.75288 33.8501 6.15288 35.4501L10.2529 51.9501L20.4529 58.9501L23.0529 57.6501L16.6529 50.9501C15.5529 49.4501 15.6529 47.4501 16.9529 46.2501C18.2529 44.9501 20.3529 44.8501 21.8529 46.0501L33.5529 56.0501C34.5529 56.9501 35.2529 58.0501 35.6529 59.2501L41.3529 79.9501L40.3529 80.2501L34.6529 59.5501C34.3529 58.4501 33.7529 57.5501 32.9529 56.8501L21.2529 46.8501C20.2529 45.9501 18.6529 46.0501 17.7529 46.9501C16.8529 47.8501 16.7529 49.2501 17.5529 50.3501L24.8529 57.9501L20.5529 60.0501L9.55288 52.5501L5.15288 35.7501C4.85288 34.6501 3.75288 34.0501 2.65288 34.2501C1.55288 34.5501 0.852884 35.5501 1.05288 36.7501L4.55288 57.5501C4.75288 58.2501 5.15288 58.8501 5.75288 59.2501L24.2529 72.2501L26.3529 83.1501L25.2529 83.3501Z" fill="#5BCEAE"/>
<path d="M63.6529 83.3499L62.6529 83.1499L64.7529 72.2499L64.9529 72.1499L83.2529 59.3499C83.8529 58.9499 84.2529 58.3499 84.4529 57.6499L87.9529 36.7499C88.1529 35.6499 87.4529 34.5499 86.3529 34.2499C85.2529 33.9499 84.1529 34.6499 83.8529 35.7499L79.5529 52.5499L68.5529 60.0499L64.2529 57.9499L71.6529 50.2499C72.3529 49.2499 72.2529 47.8499 71.3529 46.9499C70.4529 46.0499 68.8529 45.9499 67.8529 46.8499L56.1529 56.8499C55.3529 57.5499 54.7529 58.5499 54.4529 59.5499L48.7529 80.2499L47.7529 79.9499L53.4529 59.2499C53.7529 57.9499 54.5529 56.8499 55.5529 56.0499L67.2529 46.0499C68.6529 44.8499 70.7529 44.9499 72.1529 46.2499C73.3529 47.4499 73.5529 49.5499 72.4529 50.9499L65.9529 57.6499L68.5529 58.9499L78.7529 51.9499L82.9529 35.5499C83.4529 33.9499 85.0529 32.9499 86.6529 33.3499C88.2529 33.7499 89.3529 35.3499 89.0529 36.9499L85.5529 57.7499C85.3529 58.7499 84.7529 59.5499 83.9529 60.1499L65.6529 72.7499L63.6529 83.3499Z" fill="#5BCEAE"/>
<path d="M11.9532 23.65C11.8532 23.65 11.7532 23.65 11.6532 23.55L4.45316 18.65C4.25316 18.45 4.15316 18.15 4.35316 17.95C4.55316 17.75 4.85316 17.65 5.05316 17.85L12.2532 22.75C12.4532 22.95 12.5532 23.25 12.3532 23.45C12.2532 23.55 12.0532 23.65 11.9532 23.65Z" fill="#5BCEAE"/>
<g opacity="0.5">
<path opacity="0.5" d="M9.95299 6.65C9.85299 6.65 9.75299 6.65 9.65299 6.55L3.15299 0.85C2.95299 0.65 2.95299 0.35 3.05299 0.15C3.25299 -0.05 3.55299 -0.05 3.75299 0.15L10.253 5.85C10.453 6.05 10.453 6.35 10.253 6.55C10.253 6.65 10.153 6.65 9.95299 6.65Z" fill="#95C53D"/>
</g>
<path d="M71.6535 25.55C71.4535 25.55 71.2535 25.45 71.1535 25.25C71.0535 25.05 71.1535 24.75 71.3535 24.55L79.1535 20.85C79.3535 20.75 79.6535 20.85 79.8535 21.05C79.9535 21.25 79.8535 21.55 79.6535 21.75L71.8535 25.45C71.8535 25.55 71.7535 25.55 71.6535 25.55Z" fill="#5BCEAE"/>
<g opacity="0.5">
<path opacity="0.5" d="M16.6531 6.34995C15.1531 6.34995 13.9531 5.14995 13.9531 3.64995C13.9531 2.14995 15.1531 0.949951 16.6531 0.949951C18.1531 0.949951 19.3531 2.14995 19.3531 3.64995C19.3531 5.14995 18.1531 6.34995 16.6531 6.34995ZM16.6531 2.04995C15.7531 2.04995 14.9531 2.84995 14.9531 3.74995C14.9531 4.64995 15.7531 5.44995 16.6531 5.44995C17.5531 5.44995 18.3531 4.64995 18.3531 3.74995C18.3531 2.84995 17.5531 2.04995 16.6531 2.04995Z" fill="#95C53D"/>
</g>
<g opacity="0.5">
<path opacity="0.5" d="M73.0533 31.05C71.7533 31.05 70.6533 29.95 70.6533 28.65C70.6533 27.35 71.7533 26.25 73.0533 26.25C74.3533 26.25 75.4533 27.35 75.4533 28.65C75.4533 29.95 74.3533 31.05 73.0533 31.05ZM73.0533 27.25C72.2533 27.25 71.6533 27.85 71.6533 28.65C71.6533 29.45 72.2533 30.05 73.0533 30.05C73.8533 30.05 74.4533 29.45 74.4533 28.65C74.4533 27.85 73.8533 27.25 73.0533 27.25Z" fill="#95C53D"/>
</g>
</svg>
