<svg width="88" height="90" viewBox="0 0 88 90" fill="none" xmlns="http://www.w3.org/2000/svg">
<path opacity="0.2" d="M85.7756 50.7C85.6756 50.5 85.5756 50.3 85.3756 50.1C85.0756 49.7 84.8756 49.3 84.5756 48.9C83.9756 48.1 83.2756 47.5 82.6756 47C82.2756 46.7 81.8756 46.4 81.4756 46.2C80.6756 45.7 79.8756 45.3 78.9756 44.9C78.6756 44.7 78.2756 44.6 77.9756 44.4C75.4756 43.3 72.7756 42.2 70.4756 39.5C70.3756 39.4 70.2756 39.2 70.1756 39.1C70.0756 39 69.9756 38.8 69.8756 38.7C69.6756 38.4 69.3756 38.1 69.1756 37.8C68.6756 37.1 68.3756 36.5 68.0756 35.9C67.8756 35.5 67.7756 35.2 67.5756 34.8C67.4756 34.6 67.3756 34.4 67.3756 34.2C67.2756 33.9 67.1756 33.5 67.0756 33.2C65.8756 28.9 67.0756 25.2 64.5756 20.8C64.3756 20.4 64.0756 20 63.7756 19.6C63.5756 19.4 63.4756 19.1 63.2756 18.9C63.0756 18.7 62.9756 18.5 62.7756 18.3C56.4756 11.2 42.7756 8.5 31.7756 12.6C31.6756 12.6 31.5756 12.7 31.5756 12.7C30.8756 13 30.0756 13.3 29.3756 13.6C29.2756 13.6 29.2756 13.7 29.1756 13.7H29.0756C28.8756 13.8 28.7756 13.9 28.5756 13.9C28.2756 14.1 27.9756 14.2 27.6756 14.4C27.0756 14.8 26.4756 15.1 25.8756 15.5C25.4756 15.8 25.0756 16 24.7756 16.3C23.8756 17 23.0756 17.7 22.2756 18.4C21.9756 18.7 21.5756 19 21.2756 19.4C20.9756 19.7 20.6756 20.1 20.3756 20.4C20.0756 20.7 19.8756 21 19.5756 21.4C18.0756 23.3 16.6756 25.4 15.5756 27.7C15.3756 28 15.2756 28.3 15.0756 28.6C14.8756 28.9 14.7756 29.3 14.5756 29.6C14.2756 30.2 14.0756 30.8 13.7756 31.4C12.6756 34.2 11.8756 37.1 11.2756 40.1C11.1756 40.6 11.0756 41 11.0756 41.5C9.67563 49.7 10.1756 58 12.4756 65C12.6756 65.5 12.8756 66.2 13.1756 67C13.2756 67.4 13.4756 67.7 13.5756 68.2C13.7756 68.8 14.0756 69.5 14.3756 70.2C14.5756 70.5 14.6756 70.8 14.8756 71.2C14.9756 71.5 15.1756 71.8 15.2756 72.1C16.8756 75 19.0756 78.4 22.4756 81.4C22.7756 81.7 23.0756 81.9 23.4756 82.2C23.7756 82.5 24.0756 82.7 24.3756 82.9C24.4756 83 24.5756 83.1 24.6756 83.1C25.7756 83.9 26.8756 84.6 27.9756 85.3C28.5756 85.6 29.0756 85.9 29.6756 86.2C40.1756 91.5 53.2756 91.5 64.3756 87.7H64.4756C64.5756 87.7 64.7756 87.6 64.8756 87.6C65.0756 87.5 65.1756 87.5 65.3756 87.4C73.7756 84.3 80.8756 78.9 84.3756 71.8C85.3756 69.9 86.2756 67.4 86.7756 64.8C86.8756 64.5 86.8756 64.2 86.9756 64C87.0756 63.7 87.0756 63.3 87.1756 63C87.7756 58.6 87.5756 54.3 85.7756 50.7ZM51.6756 77C51.6756 77.8 51.0756 78.4 50.2756 78.4C49.4756 78.4 48.8756 77.8 48.8756 77C48.8756 76.2 49.4756 75.6 50.2756 75.6C51.0756 75.6 51.6756 76.2 51.6756 77ZM47.9756 64.3C47.9756 65.2 47.2756 65.9 46.3756 65.9C45.4756 65.9 44.7756 65.2 44.7756 64.3C44.7756 63.4 45.4756 62.7 46.3756 62.7C47.1756 62.7 47.9756 63.4 47.9756 64.3ZM27.5756 79C28.0756 79 28.4756 79.4 28.4756 79.9C28.4756 80.4 28.0756 80.8 27.5756 80.8C27.0756 80.8 26.6756 80.4 26.6756 79.9C26.5756 79.5 27.0756 79 27.5756 79ZM26.4756 62.1C26.4756 61.6 26.8756 61.3 27.2756 61.3C27.7756 61.3 28.0756 61.6 28.0756 62.1C28.0756 62.5 27.7756 62.9 27.2756 62.9C26.7756 62.9 26.4756 62.5 26.4756 62.1ZM31.7756 61.3C32.9756 61.3 33.9756 62.3 33.9756 63.5C33.9756 64.7 32.9756 65.7 31.7756 65.7C30.5756 65.7 29.5756 64.7 29.5756 63.5C29.5756 62.3 30.5756 61.3 31.7756 61.3ZM36.5756 53.5C37.2756 53.5 37.7756 54 37.7756 54.7C37.7756 55.3 37.2756 55.9 36.5756 55.9C35.8756 55.9 35.3756 55.4 35.3756 54.7C35.3756 54 35.8756 53.5 36.5756 53.5ZM38.8756 70.7C40.1756 70.7 41.2756 71.8 41.2756 73.1C41.2756 74.4 40.1756 75.5 38.8756 75.5C37.5756 75.5 36.4756 74.4 36.4756 73.1C36.4756 71.8 37.5756 70.7 38.8756 70.7ZM21.9756 74.7C21.0756 74.7 20.3756 74 20.3756 73.1C20.3756 72.2 21.0756 71.5 21.9756 71.5C22.8756 71.5 23.5756 72.2 23.5756 73.1C23.5756 74 22.8756 74.7 21.9756 74.7Z" fill="#5BCEAE"/>
<path d="M23.9756 9.3C23.8756 9.5 23.7756 9.6 23.5756 9.6C23.2756 9.6 23.0756 9.4 22.9756 9.2L21.9756 0.6C21.9756 0.3 22.1756 0.1 22.3756 0C22.6756 0 22.8756 0.2 22.9756 0.4L23.9756 9C23.9756 9.1 23.9756 9.2 23.9756 9.3Z" fill="#5BCEAE"/>
<g opacity="0.5">
<path opacity="0.5" d="M3.47566 45.9C2.27566 46.5 0.875659 46.1 0.275659 44.9C-0.324341 43.7 0.0756586 42.3 1.27566 41.7C2.47566 41.1 3.87566 41.5 4.47566 42.7C5.07566 43.8 4.67566 45.2 3.47566 45.9ZM1.67566 42.5C0.975659 42.9 0.775659 43.7 1.07566 44.4C1.37566 45.1 2.37566 45.3 2.97566 45C3.57566 44.7 3.87566 43.8 3.57566 43.1C3.17566 42.4 2.37566 42.2 1.67566 42.5Z" fill="#95C53D"/>
</g>
<path d="M67.1754 17.8999C66.9754 17.8999 66.7754 17.8999 66.6754 17.6999C66.4754 17.4999 66.5754 17.1999 66.7754 16.9999L73.7754 11.7999C73.9754 11.5999 74.2754 11.6999 74.4754 11.8999C74.6754 12.0999 74.5754 12.3999 74.3754 12.5999L67.3754 17.7999C67.2754 17.8999 67.2754 17.8999 67.1754 17.8999Z" fill="#5BCEAE"/>
<path d="M66.9758 21.2C66.7758 21.2 66.6758 21 66.5758 20.8C66.4758 20.5 66.6758 20.3 66.9758 20.2L75.3758 18.1C75.6758 18 75.8758 18.2 75.9758 18.5C76.0758 18.8 75.8758 19 75.5758 19.1L67.1758 21.2C67.1758 21.2 67.0758 21.2 66.9758 21.2Z" fill="#5BCEAE"/>
<g opacity="0.5">
<path opacity="0.5" d="M63.8756 17.6999C62.5756 17.6999 61.4756 16.5999 61.4756 15.2999C61.4756 13.9999 62.5756 12.8999 63.8756 12.8999C65.1756 12.8999 66.2756 13.9999 66.2756 15.2999C66.2756 16.5999 65.1756 17.6999 63.8756 17.6999ZM63.8756 13.9999C63.0756 13.9999 62.4756 14.5999 62.4756 15.3999C62.4756 16.1999 63.0756 16.7999 63.8756 16.7999C64.6756 16.7999 65.2756 16.1999 65.2756 15.3999C65.2756 14.5999 64.6756 13.9999 63.8756 13.9999Z" fill="#95C53D"/>
</g>
<path d="M22.2758 12.2999C22.3758 12.4999 22.2758 12.6999 22.1758 12.7999C21.9758 12.9999 21.6758 12.9999 21.4758 12.7999L15.0758 6.9999C14.8758 6.7999 14.8758 6.4999 15.0758 6.2999C15.2758 6.0999 15.5758 6.0999 15.7758 6.2999L22.1758 12.1999L22.2758 12.2999Z" fill="#5BCEAE"/>
<g opacity="0.5">
<path opacity="0.5" d="M19.9758 15.4C19.8758 16.7 18.7758 17.7 17.3758 17.6C16.0758 17.5 15.0758 16.4 15.1758 15C15.2758 13.6 16.3758 12.7 17.7758 12.8C19.0758 12.9 20.0758 14.1 19.9758 15.4ZM16.1758 15.1C16.0758 15.9 16.6758 16.5 17.4758 16.6C18.2758 16.7 18.8758 16.1 18.9758 15.3C19.0758 14.5 18.4758 13.9 17.6758 13.8C16.9758 13.8 16.2758 14.3 16.1758 15.1Z" fill="#95C53D"/>
</g>
<g opacity="0.5">
<path opacity="0.5" d="M34.076 7.79995C33.976 9.09995 32.876 9.99995 31.576 9.99995C30.276 9.89995 29.276 8.79995 29.376 7.39995C29.476 5.99995 30.576 5.09995 31.976 5.19995C33.176 5.29995 34.176 6.39995 34.076 7.79995ZM30.376 7.49995C30.276 8.29995 30.876 8.89995 31.676 8.99995C32.476 9.09995 33.076 8.49995 33.176 7.69995C33.276 6.89995 32.676 6.29995 31.876 6.19995C31.076 6.09995 30.376 6.69995 30.376 7.49995Z" fill="#95C53D"/>
</g>
<path d="M62.876 76.6999L43.276 40.7V12.7H27.376V40.5999L13.076 66.9L7.77598 76.6999C6.07598 79.7 6.57598 81.7 7.27598 82.9C8.47598 84.9 11.276 86 14.876 86H55.676C59.376 86 62.176 84.9 63.276 82.9C64.076 81.7 64.476 79.7 62.876 76.6999ZM62.576 82.4C61.576 84.1 59.076 85.1 55.776 85.1H14.976C11.676 85.1 9.17598 84.1 8.17598 82.4C7.37598 81 7.57598 79.2 8.67598 77.1L13.576 68L28.376 40.7999V13.7H42.376V40.9L62.076 77.2C63.176 79.2 63.376 81 62.576 82.4Z" fill="#5BCEAE"/>
<path opacity="0.6" d="M59.776 78.2L44.576 51C36.976 49.3 33.676 53.4 26.076 51L14.876 71L10.776 78.2C10.376 79 9.77596 80.5 10.276 81.3C10.976 82.5 13.676 82.7 14.876 82.7H55.676C56.876 82.7 59.576 82.5 60.276 81.3C60.776 80.4 60.176 78.9 59.776 78.2ZM21.976 71.5C22.876 71.5 23.576 72.2 23.576 73.1C23.576 74 22.876 74.7 21.976 74.7C21.076 74.7 20.376 74 20.376 73.1C20.376 72.2 21.076 71.5 21.976 71.5ZM27.276 61.3C27.776 61.3 28.076 61.6 28.076 62.1C28.076 62.5 27.776 62.9 27.276 62.9C26.776 62.9 26.476 62.5 26.476 62.1C26.476 61.6 26.876 61.3 27.276 61.3ZM27.576 80.9C27.076 80.9 26.676 80.5 26.676 80C26.676 79.5 27.076 79.1 27.576 79.1C28.076 79.1 28.476 79.5 28.476 80C28.476 80.5 28.076 80.9 27.576 80.9ZM31.776 65.7C30.576 65.7 29.576 64.7 29.576 63.5C29.576 62.3 30.576 61.3 31.776 61.3C32.976 61.3 33.976 62.3 33.976 63.5C34.076 64.7 33.076 65.7 31.776 65.7ZM35.376 54.7C35.376 54.1 35.876 53.5 36.576 53.5C37.276 53.5 37.776 54 37.776 54.7C37.776 55.3 37.276 55.9 36.576 55.9C35.876 55.8 35.376 55.3 35.376 54.7ZM38.876 75.5C37.576 75.5 36.476 74.4 36.476 73.1C36.476 71.8 37.576 70.7 38.876 70.7C40.176 70.7 41.276 71.8 41.276 73.1C41.276 74.5 40.276 75.5 38.876 75.5ZM46.276 65.9C45.376 65.9 44.676 65.2 44.676 64.3C44.676 63.4 45.376 62.7 46.276 62.7C47.176 62.7 47.876 63.4 47.876 64.3C47.876 65.2 47.176 65.9 46.276 65.9ZM50.276 78.4C49.476 78.4 48.876 77.8 48.876 77C48.876 76.2 49.476 75.6 50.276 75.6C51.076 75.6 51.676 76.2 51.676 77C51.676 77.8 51.076 78.4 50.276 78.4Z" fill="#95C53D"/>
<path d="M63.7754 33.2V71.6999C63.7754 75.7999 67.1754 79.1999 71.3754 79.1999C75.5754 79.1999 78.9754 75.7999 78.9754 71.6999V33.2H63.7754ZM77.8754 71.6999C77.8754 75.2999 74.8754 78.1999 71.2754 78.1999C67.6754 78.1999 64.6754 75.2999 64.6754 71.6999V34.2H77.7754V71.6999H77.8754Z" fill="#5BCEAE"/>
<path opacity="0.6" d="M66.376 50.2V71.6999C66.376 74.3999 68.576 76.5999 71.276 76.5999C73.976 76.5999 76.176 74.3999 76.176 71.6999V50.2H66.376Z" fill="#95C53D"/>
<path d="M66.376 39.1001V40.0001H68.876V39.2001H66.376V39.1001ZM66.376 71.4001V72.2001H67.576V71.4001H66.376ZM66.376 69.5001V70.3001H68.876V69.5001H66.376ZM66.376 67.6001V68.4001H67.576V67.6001H66.376ZM66.376 65.7001V66.5001H68.876V65.7001H66.376ZM66.376 63.8001V64.6001H67.576V63.8001H66.376ZM66.376 61.9001V62.7001H68.876V61.9001H66.376ZM66.376 60.0001V60.8001H67.576V60.0001H66.376ZM66.376 58.1001V59.0001H68.876V58.2001H66.376V58.1001ZM66.376 56.2001V57.0001H67.576V56.2001H66.376ZM66.376 54.3001V55.1001H68.876V54.3001H66.376ZM66.376 52.4001V53.2001H67.576V52.4001H66.376ZM66.376 50.5001V51.3001H68.876V50.5001H66.376ZM66.376 48.6001V49.4001H67.576V48.6001H66.376ZM66.376 46.7001V47.5001H68.876V46.7001H66.376ZM66.376 44.8001V45.6001H67.576V44.8001H66.376ZM66.376 42.9001V43.7001H68.876V42.9001H66.376ZM66.376 41.0001V41.8001H67.576V41.0001H66.376Z" fill="#5BCEAE"/>
<path opacity="0.6" d="M35.1758 25.5C35.7758 25.5 36.1758 25.9 36.1758 26.5C36.1758 27.1 35.7758 27.5 35.1758 27.5C34.5758 27.5 34.1758 27.1 34.1758 26.5C34.1758 26 34.5758 25.5 35.1758 25.5Z" fill="#95C53D"/>
<path opacity="0.6" d="M34.2754 31.3C35.3754 31.3 36.2754 32.2001 36.2754 33.2001C36.2754 34.3001 35.3754 35.1 34.2754 35.1C33.1754 35.1 32.2754 34.2001 32.2754 33.2001C32.2754 32.1001 33.1754 31.3 34.2754 31.3Z" fill="#95C53D"/>
<path d="M29.6754 12.6001H27.2754C25.2754 12.6001 25.2754 13.7001 27.2754 13.7001H29.6754H40.9754H43.3754C45.3754 13.7001 45.3754 12.6001 43.3754 12.6001H40.9754H29.6754Z" fill="#5BCEAE"/>
<path opacity="0.6" d="M38.0754 38.3999C38.7754 38.3999 39.3754 38.9999 39.3754 39.5999C39.3754 40.2999 38.7754 40.7999 38.0754 40.7999C37.3754 40.7999 36.7754 40.1999 36.7754 39.5999C36.8754 38.8999 37.3754 38.3999 38.0754 38.3999Z" fill="#95C53D"/>
<path opacity="0.6" d="M33.3758 42.8999C34.8758 42.8999 36.0758 44.0999 36.0758 45.5999C36.0758 47.0999 34.8758 48.2999 33.3758 48.2999C31.8758 48.2999 30.6758 47.0999 30.6758 45.5999C30.6758 44.0999 31.8758 42.8999 33.3758 42.8999Z" fill="#95C53D"/>
<path opacity="0.6" d="M39.6752 46.3C40.0752 46.3 40.2752 46.6001 40.2752 46.9001C40.2752 47.3001 39.9752 47.5 39.6752 47.5C39.2752 47.5 39.0752 47.2001 39.0752 46.9001C39.0752 46.6001 39.3752 46.3 39.6752 46.3Z" fill="#95C53D"/>
</svg>
