<svg width="98" height="98" viewBox="0 0 98 98" fill="none" xmlns="http://www.w3.org/2000/svg">
<g clip-path="url(#clip0)">
<path opacity="0.2" d="M83.2995 56.8089C83.1995 56.6089 83.0995 56.4089 82.9995 56.2089C82.7995 55.8089 82.4995 55.4089 82.1995 55.1089C81.6995 54.4089 80.9995 53.8089 80.3995 53.3089C79.9995 53.0089 79.6995 52.8089 79.2995 52.5089C76.8995 51.1089 74.1995 50.4089 71.5995 48.6089C71.2995 48.4089 70.8995 48.1089 70.5995 47.8089C70.0995 47.4089 69.5995 46.9089 69.1995 46.4089C69.0995 46.3089 68.9995 46.2089 68.8995 46.0089C68.7995 45.9089 68.6995 45.8089 68.5995 45.6089C68.3995 45.3089 68.1995 45.1089 67.9995 44.8089C67.5995 44.2089 67.1995 43.6089 66.9995 43.0089C66.7995 42.7089 66.6995 42.3089 66.5995 42.0089C65.0995 38.3089 65.8995 35.2089 64.8995 31.7089C64.6995 30.9089 64.3995 30.1089 63.8995 29.2089C63.8995 29.1089 63.7995 29.0089 63.7995 28.9089C63.5995 28.5089 63.2995 28.2089 63.0995 27.8089C62.8995 27.6089 62.7995 27.4089 62.5995 27.2089C62.3995 27.0089 62.2995 26.8089 62.0995 26.6089C55.3995 19.7089 40.9995 17.4089 30.4995 22.7089C29.4995 23.2089 28.4995 23.8089 27.4995 24.5089C27.0995 24.8089 26.7995 25.0089 26.3995 25.3089C25.5995 25.9089 24.7995 26.6089 24.0995 27.3089C23.7995 27.6089 23.4995 27.9089 23.1995 28.2089C20.8995 30.6089 18.9995 33.5089 17.4995 36.7089C17.0995 37.5089 16.6995 38.4089 16.3995 39.3089C15.3995 41.9089 14.5995 44.6089 14.0995 47.4089C13.9995 47.8089 13.8995 48.3089 13.8995 48.7089C12.6995 56.0089 13.1995 63.7089 15.2995 70.2089C16.0995 72.8089 18.3995 79.6089 24.5995 85.2089C41.3995 100.309 73.2995 93.7089 81.8995 76.4089C82.7995 74.6089 83.5995 72.4089 84.1995 69.9089C84.2995 69.4089 84.3995 68.8089 84.4995 68.2089C85.1995 64.2089 84.9995 60.1089 83.2995 56.8089ZM48.9995 58.3089C42.6995 58.3089 37.4995 53.2089 37.4995 46.8089C37.4995 40.4089 42.5995 35.3089 48.9995 35.3089C55.2995 35.3089 60.4995 40.4089 60.4995 46.8089C60.4995 53.1089 55.3995 58.3089 48.9995 58.3089Z" fill="#5BCEAE"/>
<g opacity="0.5">
<path opacity="0.5" d="M23.2004 18.709C23.1004 18.709 23.0004 18.709 22.9004 18.609L16.3004 12.909C16.1004 12.709 16.1004 12.409 16.3004 12.209C16.5004 12.009 16.8004 11.909 17.0004 12.109L23.5004 17.809C23.7004 18.009 23.7004 18.309 23.5004 18.509C23.4004 18.709 23.3004 18.709 23.2004 18.709Z" fill="#95C53D"/>
</g>
<g opacity="0.5">
<path opacity="0.5" d="M13.4 80.809C12.1 80.809 11 79.709 11 78.409C11 77.109 12.1 76.009 13.4 76.009C14.7 76.009 15.8 77.109 15.8 78.409C15.8 79.709 14.7 80.809 13.4 80.809ZM13.4 77.009C12.6 77.009 12 77.609 12 78.409C12 79.209 12.6 79.809 13.4 79.809C14.2 79.809 14.8 79.209 14.8 78.409C14.8 77.609 14.1 77.009 13.4 77.009Z" fill="#95C53D"/>
</g>
<g opacity="0.5">
<path opacity="0.5" d="M81.6998 49.2089C80.3998 49.2089 79.2998 48.1089 79.2998 46.8089C79.2998 45.5089 80.3998 44.4089 81.6998 44.4089C82.9998 44.4089 84.0998 45.5089 84.0998 46.8089C84.0998 48.1089 82.9998 49.2089 81.6998 49.2089ZM81.6998 45.4089C80.8998 45.4089 80.2998 46.0089 80.2998 46.8089C80.2998 47.6089 80.8998 48.2089 81.6998 48.2089C82.4998 48.2089 83.0998 47.6089 83.0998 46.8089C83.0998 46.0089 82.4998 45.4089 81.6998 45.4089Z" fill="#95C53D"/>
</g>
<path d="M79.3 32.209C79.1 32.209 78.9 32.109 78.8 31.909C78.7 31.709 78.8 31.409 79 31.209L86.8 27.509C87 27.409 87.3 27.509 87.5 27.709C87.6 27.909 87.5 28.209 87.3 28.409L79.5 32.109C79.4 32.209 79.4 32.209 79.3 32.209Z" fill="#5BCEAE"/>
<path d="M77.3004 36.3089C77.1004 36.2089 77.0004 36.1089 76.9004 35.9089C76.9004 35.6089 77.0004 35.4089 77.3004 35.3089L85.9004 33.9089C86.2004 33.9089 86.4004 34.0089 86.5004 34.3089C86.5004 34.6089 86.4004 34.8089 86.1004 34.9089L77.5004 36.3089C77.4004 36.4089 77.4004 36.4089 77.3004 36.3089Z" fill="#5BCEAE"/>
<g opacity="0.5">
<path opacity="0.5" d="M73.9996 30.809C72.6996 30.809 71.5996 29.709 71.5996 28.409C71.5996 27.109 72.6996 26.009 73.9996 26.009C75.2996 26.009 76.3996 27.109 76.3996 28.409C76.3996 29.709 75.2996 30.809 73.9996 30.809ZM73.9996 27.109C73.1996 27.109 72.5996 27.709 72.5996 28.509C72.5996 29.309 73.1996 29.909 73.9996 29.909C74.7996 29.909 75.3996 29.309 75.3996 28.509C75.3996 27.709 74.7996 27.109 73.9996 27.109Z" fill="#95C53D"/>
</g>
<g opacity="0.5">
<path opacity="0.5" d="M18.4996 25.4091C17.1996 25.4091 16.0996 24.3091 16.0996 23.0091C16.0996 21.7091 17.1996 20.6091 18.4996 20.6091C19.7996 20.6091 20.8996 21.7091 20.8996 23.0091C20.8996 24.3091 19.8996 25.4091 18.4996 25.4091ZM18.4996 21.7091C17.6996 21.7091 17.0996 22.3091 17.0996 23.1091C17.0996 23.9091 17.6996 24.5091 18.4996 24.5091C19.2996 24.5091 19.8996 23.9091 19.8996 23.1091C19.8996 22.3091 19.2996 21.7091 18.4996 21.7091Z" fill="#95C53D"/>
</g>
<path d="M54.1004 45.5089H50.5004V41.9089H48.0004V45.5089H44.4004V48.0089H48.0004V51.6089H50.5004V48.0089H54.1004V45.5089Z" fill="#95C53D"/>
<path d="M73.9002 76.009H57.9002C57.7002 76.309 57.4002 76.709 57.2002 77.009H73.2002L80.5002 97.409H17.6002L24.9002 77.009H41.0002C40.8002 76.709 40.5002 76.309 40.3002 76.009H24.2002L16.2002 98.409H82.0002L73.9002 76.009Z" fill="#5BCEAE"/>
<path opacity="0.6" d="M64.5997 31.909C60.6997 27.809 55.1997 25.309 49.0997 25.409C37.3997 25.309 27.8997 34.609 27.6997 46.309C27.7997 49.209 28.2997 52.109 29.1997 54.809C31.3997 61.109 34.3997 67.109 38.0997 72.609C38.7997 73.709 39.5997 74.909 40.2997 76.009L44.3997 81.809L49.0997 88.409L54.9997 79.909C55.0997 79.809 55.0997 79.709 55.1997 79.609L57.7997 75.909C63.4997 67.509 69.5997 56.609 70.2997 47.809C70.2997 47.309 70.3997 46.709 70.3997 46.209C70.4997 40.709 68.1997 35.609 64.5997 31.909ZM48.9997 58.309C42.6997 58.309 37.4997 53.209 37.4997 46.809C37.4997 40.409 42.5997 35.309 48.9997 35.309C55.2997 35.309 60.4997 40.409 60.4997 46.809C60.4997 53.109 55.3997 58.309 48.9997 58.309Z" fill="#95C53D"/>
<path d="M63.5996 29.409C59.6996 26.109 54.5996 24.209 49.0996 24.209C36.7996 24.109 26.6996 33.909 26.5996 46.209C26.5996 46.609 26.5996 47.009 26.5996 47.309C26.6996 49.409 27.0996 51.609 27.7996 53.909C27.8996 54.209 27.9996 54.609 28.0996 55.009C30.3996 62.209 34.7996 69.809 38.9996 76.009C39.1996 76.309 39.3996 76.709 39.6996 77.009C44.6996 84.309 49.1996 89.509 49.1996 89.509C49.1996 89.509 53.6996 84.309 58.6996 77.009C58.8996 76.709 59.1996 76.309 59.3996 76.009C64.8996 67.809 70.6996 57.409 71.5996 48.709C71.6996 47.909 71.6996 47.109 71.6996 46.309C71.5996 39.509 68.3996 33.409 63.5996 29.409ZM57.8996 76.009C57.6996 76.309 57.3996 76.709 57.1996 77.009C56.4996 77.909 55.8996 78.809 55.2996 79.709C55.1996 79.809 55.1996 79.909 55.0996 80.009C52.4996 83.609 50.2996 86.409 49.0996 87.809C47.4996 85.909 45.9996 83.909 44.4996 81.909C43.2996 80.309 42.1996 78.709 40.9996 77.109C40.7996 76.809 40.4996 76.409 40.2996 76.109C39.4996 75.009 38.7996 73.809 38.0996 72.709C34.3996 67.109 31.4996 61.109 29.1996 54.909C28.2996 52.109 27.7996 49.309 27.6996 46.409C27.8996 34.709 37.3996 25.409 49.0996 25.509C55.1996 25.409 60.6996 27.909 64.5996 32.009C68.1996 35.709 70.4996 40.809 70.4996 46.409C70.4996 46.909 70.4996 47.509 70.3996 48.009C69.7996 56.709 63.5996 67.609 57.8996 76.009Z" fill="#5BCEAE"/>
<path d="M38.4158 80.7314L37.3496 86.636L38.3337 86.8137L39.3999 80.9091L38.4158 80.7314Z" fill="#5BCEAE"/>
<path d="M36.7312 90.0495L35.665 95.9541L36.6491 96.1318L37.7153 90.2272L36.7312 90.0495Z" fill="#5BCEAE"/>
<path d="M59.653 80.6763L58.6689 80.854L59.7351 86.7586L60.7192 86.5809L59.653 80.6763Z" fill="#5BCEAE"/>
<path d="M61.353 89.9732L60.3689 90.1509L61.4351 96.0555L62.4192 95.8778L61.353 89.9732Z" fill="#5BCEAE"/>
</g>
<defs>
<clipPath id="clip0">
<rect width="98" height="98" fill="white"/>
</clipPath>
</defs>
</svg>
