<svg width="98" height="98" viewBox="0 0 98 98" fill="none" xmlns="http://www.w3.org/2000/svg">
<path opacity="0.2" d="M88.5499 55.5C88.4499 55.3 88.3499 55.1 88.1499 54.8C87.8499 54.4 87.6499 54 87.3499 53.6C86.7499 52.8 86.0499 52.2 85.3499 51.7C84.9499 51.4 84.5499 51.1 84.1499 50.9C80.7499 48.9 76.6499 48.3 73.1499 44.3C73.0499 44.2 72.9499 44 72.8499 43.9C72.7499 43.8 72.6499 43.6 72.5499 43.5C72.3499 43.2 72.0499 42.9 71.8499 42.6C71.3499 41.9 71.0499 41.3 70.7499 40.7C70.5499 40.3 70.3499 40 70.2499 39.6C68.2499 34.5 70.0499 30.5 67.1499 25.5C66.9499 25.1 66.6499 24.7 66.3499 24.3C66.1499 24.1 66.0499 23.8 65.8499 23.6C65.6499 23.4 65.4499 23.2 65.3499 23C58.4499 15.4 42.9499 13 31.6499 18.6C30.5499 19.2 29.4499 19.8 28.4499 20.5C28.0499 20.8 27.6499 21 27.3499 21.3C26.4499 22 25.6499 22.7 24.8499 23.4C24.5499 23.7 24.1499 24 23.8499 24.4C23.5499 24.7 23.2499 25.1 22.9499 25.4C22.6499 25.7 22.4499 26 22.1499 26.4C20.6499 28.3 19.2499 30.4 18.1499 32.7C17.9499 33 17.8499 33.3 17.7499 33.6C17.5499 33.9 17.4499 34.3 17.2499 34.6C16.9499 35.2 16.7499 35.8 16.4499 36.4C15.3499 39.2 14.5499 42.1 13.9499 45.1C13.8499 45.6 13.7499 46 13.7499 46.5C12.4499 54.4 13.0499 62.7 15.2499 69.7C15.5499 70.8 16.2499 72.6 17.1499 74.7C17.4499 75.3 17.7499 75.9 18.0499 76.5C19.6499 79.4 21.8499 82.8 25.2499 85.8C25.5499 86.1 25.8499 86.3 26.1499 86.6C26.5499 86.9 26.9499 87.2 27.3499 87.6C38.3499 95.9 54.1499 96.7 67.0499 92.3H67.1499C67.2499 92.3 67.4499 92.2 67.5499 92.2C67.7499 92.1 67.8499 92.1 68.0499 92C76.4499 88.9 83.5499 83.5 87.0499 76.4C88.0499 74.5 88.8499 72 89.4499 69.4C89.5499 69.1 89.5499 68.8 89.6499 68.6C89.7499 68.3 89.7499 67.9 89.8499 67.6C90.6499 63.4 90.4499 59.1 88.5499 55.5ZM68.1499 60.5C68.4499 60.5 68.7499 60.5 68.9499 60.6C69.1499 60.6 69.4499 60.6 69.6499 60.7H69.7499C76.0499 61.7 80.8499 67.1 80.8499 73.5C80.8499 80.5 75.1499 86.2 68.1499 86.5V60.5Z" fill="#5BCEAE"/>
<path d="M79.2498 37.8C79.0498 37.8 78.9498 37.6 78.8498 37.4C78.7498 37.1 78.9498 36.9 79.1498 36.8L87.5498 34.5C87.8498 34.4 88.0498 34.6 88.1498 34.8C88.2498 35.1 88.0498 35.3 87.8498 35.4L79.4498 37.7C79.4498 37.8 79.3498 37.8 79.2498 37.8Z" fill="#5BCEAE"/>
<g opacity="0.5">
<path opacity="0.5" d="M86.0504 45.1999C84.7504 45.1999 83.6504 44.0999 83.6504 42.7999C83.6504 41.4999 84.7504 40.3999 86.0504 40.3999C87.3504 40.3999 88.4504 41.4999 88.4504 42.7999C88.4504 44.0999 87.3504 45.1999 86.0504 45.1999ZM86.0504 41.3999C85.2504 41.3999 84.6504 41.9999 84.6504 42.7999C84.6504 43.5999 85.2504 44.1999 86.0504 44.1999C86.8504 44.1999 87.4504 43.5999 87.4504 42.7999C87.4504 41.9999 86.8504 41.3999 86.0504 41.3999Z" fill="#95C53D"/>
</g>
<path d="M80.9502 33.9001C80.7502 34.0001 80.5502 34.0001 80.4502 33.8001C80.2502 33.6001 80.1502 33.3001 80.3502 33.1001L85.7502 26.3001C85.9502 26.1001 86.2502 26.0001 86.4502 26.2001C86.6502 26.4001 86.7502 26.7001 86.5502 26.9001L81.1502 33.7001C81.0502 33.9001 80.9502 33.9001 80.9502 33.9001Z" fill="#5BCEAE"/>
<g opacity="0.5">
<path opacity="0.5" d="M76.7506 33C75.4506 33 74.3506 31.9 74.3506 30.6C74.3506 29.3 75.4506 28.2 76.7506 28.2C78.0506 28.2 79.1506 29.3 79.1506 30.6C79.1506 31.9 78.0506 33 76.7506 33ZM76.7506 29.2C75.9506 29.2 75.3506 29.8 75.3506 30.6C75.3506 31.4 75.9506 32 76.7506 32C77.5506 32 78.1506 31.4 78.1506 30.6C78.1506 29.8 77.4506 29.2 76.7506 29.2Z" fill="#95C53D"/>
</g>
<g opacity="0.5">
<path opacity="0.5" d="M61.3502 14.8C60.0502 14.8 58.9502 13.7 58.9502 12.4C58.9502 11.1 60.0502 10 61.3502 10C62.6502 10 63.7502 11.1 63.7502 12.4C63.7502 13.7 62.6502 14.8 61.3502 14.8ZM61.3502 11C60.5502 11 59.9502 11.6 59.9502 12.4C59.9502 13.2 60.5502 13.8 61.3502 13.8C62.1502 13.8 62.7502 13.2 62.7502 12.4C62.7502 11.6 62.1502 11 61.3502 11Z" fill="#95C53D"/>
</g>
<g opacity="0.5">
<path opacity="0.5" d="M12.95 29.2C12.85 29.2 12.75 29.2 12.65 29.1L6.15 23.4C5.95 23.2 5.95 22.9 6.15 22.7C6.35 22.5 6.65 22.5 6.85 22.7L13.35 28.4C13.55 28.6 13.55 28.9 13.35 29.1C13.25 29.2 13.05 29.2 12.95 29.2Z" fill="#95C53D"/>
</g>
<g opacity="0.5">
<path opacity="0.5" d="M10.7506 36.1999C9.45059 36.1999 8.35059 35.0999 8.35059 33.7999C8.35059 32.4999 9.45059 31.3999 10.7506 31.3999C12.0506 31.3999 13.1506 32.4999 13.1506 33.7999C13.1506 35.0999 12.0506 36.1999 10.7506 36.1999ZM10.7506 32.3999C9.95059 32.3999 9.35059 32.9999 9.35059 33.7999C9.35059 34.5999 9.95059 35.1999 10.7506 35.1999C11.5506 35.1999 12.1506 34.5999 12.1506 33.7999C12.1506 32.9999 11.4506 32.3999 10.7506 32.3999Z" fill="#95C53D"/>
</g>
<path d="M31.45 36.1H27.85V32.5H25.35V36.1H21.75V38.6H25.35V42.2H27.85V38.6H31.45V36.1Z" fill="#95C53D"/>
<path d="M50.85 25.6L50.75 25.5H17.25V97.6H68.15V43.8L50.85 25.6ZM67.25 96.7H18.15V26.4H50.45L67.35 44.2V96.7H67.25Z" fill="#5BCEAE"/>
<path d="M67.7498 44.5H50.5498L50.0498 44V26L50.8498 25.7L68.0498 43.7999L67.7498 44.5ZM50.9498 43.5H66.5498L50.9498 27.1V43.5Z" fill="#5BCEAE"/>
<path d="M24.5498 54L22.0498 51.1L23.1498 50.1L24.2498 51.3C25.0498 50 26.8498 47.8 29.2498 47.8V49.3C26.7498 49.4 25.0498 52.9 25.0498 53L24.5498 54Z" fill="#5BCEAE"/>
<path d="M24.5498 66.9L22.0498 64L23.1498 63L24.2498 64.2C25.0498 62.9 26.8498 60.7 29.2498 60.7V62.2C26.7498 62.3 25.0498 65.8 25.0498 65.9L24.5498 66.9Z" fill="#5BCEAE"/>
<path d="M24.5498 79.9L22.0498 77L23.1498 76L24.2498 77.1999C25.0498 75.8999 26.8498 73.7 29.2498 73.7V75.1999C26.7498 75.2999 25.0498 78.8 25.0498 78.9L24.5498 79.9Z" fill="#5BCEAE"/>
<path d="M24.5498 91.8001L22.0498 88.9001L23.1498 87.9001L24.2498 89.1001C25.0498 87.8001 26.8498 85.6001 29.2498 85.6001V87.1001C26.7498 87.2001 25.0498 90.7001 25.0498 90.8001L24.5498 91.8001Z" fill="#5BCEAE"/>
<path opacity="0.6" d="M86.7498 79.4999C86.3498 80.8999 85.7498 82.1999 85.0498 83.4999L88.5498 86.8999L80.6498 94.5999L77.1498 91.1999C75.8498 91.8999 74.5498 92.4999 73.1498 92.7999V97.5999H67.5498V87.4999C67.7498 87.4999 67.8498 87.4999 68.0498 87.4999C68.1498 87.4999 68.2498 87.4999 68.3498 87.4999C68.5498 87.4999 68.7498 87.4999 68.9498 87.4999H69.0498C69.2498 87.4999 69.4498 87.4999 69.6498 87.3999C69.9498 87.3999 70.2498 87.2999 70.4498 87.1999C70.6498 87.1999 70.7498 87.0999 70.9498 87.0999C76.8498 85.5999 81.2498 80.2999 81.2498 74.0999C81.2498 67.3999 76.2498 61.7999 69.6498 60.7999C69.6498 60.7999 69.6498 60.7999 69.5498 60.7999C69.3498 60.7999 69.1498 60.6999 68.8498 60.6999C68.5498 60.6999 68.2498 60.6999 68.0498 60.5999C67.8498 60.5999 67.7498 60.5999 67.5498 60.5999V50.3999H73.1498V55.1999C74.5498 55.5999 75.9498 56.0999 77.1498 56.7999L80.6498 53.3999L88.5498 61.0999L85.0498 64.4999C85.7498 65.7999 86.3498 67.0999 86.7498 68.4999H91.6498V79.4999H86.7498Z" fill="#95C53D"/>
<path d="M68.1504 59.4999V60.4999C68.4504 60.4999 68.7504 60.4999 68.9504 60.5999C69.1504 60.5999 69.4504 60.5999 69.6504 60.6999H69.7504C76.3504 61.6999 81.3504 67.2999 81.3504 73.9999C81.3504 80.2999 76.9504 85.4999 71.0504 86.9999C77.2504 85.4999 81.8504 79.9999 81.8504 73.4999C81.8504 65.9999 75.7504 59.7999 68.1504 59.4999ZM87.1504 67.4999C86.7504 66.3999 86.3504 65.1999 85.7504 64.0999L89.3504 60.5999L80.7504 52.1999L77.2504 55.6999C76.1504 55.0999 75.0504 54.6999 73.7504 54.2999V49.3999H67.1504V60.4999H67.6504C67.8504 60.4999 67.9504 60.4999 68.1504 60.4999C68.4504 60.4999 68.7504 60.4999 68.9504 60.5999C69.1504 60.5999 69.4504 60.5999 69.6504 60.6999H69.7504C76.0504 61.6999 80.8504 67.0999 80.8504 73.4999C80.8504 80.4999 75.1504 86.1999 68.1504 86.4999C67.9504 86.4999 67.8504 86.4999 67.6504 86.4999H67.1504V97.6999H73.7504V92.7999C74.9504 92.3999 76.0504 91.9999 77.1504 91.3999L80.6504 94.8999L89.2504 86.4999L85.7504 82.9999C86.3504 81.9999 86.7504 80.7999 87.1504 79.5999H92.1504V67.5999H87.1504V67.4999ZM91.1504 78.4999H86.2504V78.9999C85.8504 80.3999 85.3504 81.5999 84.6504 82.7999L84.4504 82.9999L87.8504 86.2999L80.6504 93.2999L77.2504 89.9999L76.9504 90.1999C75.6504 90.8999 74.3504 91.3999 73.0504 91.7999L72.7504 91.9999V96.6999H68.1504V87.4999C68.2504 87.4999 68.3504 87.4999 68.4504 87.4999C68.6504 87.4999 68.8504 87.4999 69.0504 87.4999H69.1504C69.3504 87.4999 69.5504 87.4999 69.7504 87.3999C70.0504 87.3999 70.3504 87.2999 70.5504 87.1999C70.7504 87.1999 70.8504 87.0999 71.0504 87.0999C77.2504 85.5999 81.8504 80.0999 81.8504 73.5999C81.8504 66.0999 75.7504 59.8999 68.1504 59.5999V50.3999H72.7504V55.0999L73.1504 55.1999C74.5504 55.5999 75.9504 56.1999 77.0504 56.7999L77.3504 56.9999L80.7504 53.6999L87.9504 60.6999L84.4504 63.9999L84.6504 64.2999C85.3504 65.5999 85.8504 66.7999 86.2504 68.1999L86.3504 68.4999H91.1504V78.4999Z" fill="#5BCEAE"/>
<path d="M61.3506 51.2H34.8506V52.2H61.3506V51.2Z" fill="#5BCEAE"/>
<path d="M61.3506 63.7H34.8506V64.7H61.3506V63.7Z" fill="#5BCEAE"/>
<path d="M61.3506 76.1001H34.8506V77.1001H61.3506V76.1001Z" fill="#5BCEAE"/>
<path d="M61.3506 88.6001H34.8506V89.6001H61.3506V88.6001Z" fill="#5BCEAE"/>
</svg>
