<svg width="90" height="89" viewBox="0 0 90 89" fill="none" xmlns="http://www.w3.org/2000/svg">
<path opacity="0.2" d="M83.7003 49.3089C83.6003 49.1089 83.5003 48.9089 83.3003 48.6089C83.0003 48.2089 82.8003 47.8089 82.5003 47.4089C82.2003 47.0089 81.8003 46.6089 81.4003 46.2089C81.1003 45.9089 80.8003 45.7089 80.5003 45.4089C80.2003 45.2089 79.9003 45.0089 79.7003 44.8089C79.6003 44.7089 79.5003 44.6089 79.3003 44.6089C77.7003 43.6089 75.9003 43.0089 74.2003 42.2089C73.9003 42.1089 73.7003 42.0089 73.4003 41.8089C73.1003 41.7089 72.9003 41.6089 72.7003 41.4089C71.2003 40.6089 69.7003 39.6089 68.3003 38.0089C68.2003 37.9089 68.1003 37.7089 68.0003 37.6089C67.9003 37.5089 67.8003 37.3089 67.7003 37.2089C67.5003 36.9089 67.2003 36.6089 67.0003 36.3089C66.5003 35.6089 66.2003 35.0089 65.9003 34.4089C65.7003 34.0089 65.5003 33.7089 65.4003 33.3089C64.1003 30.1089 64.4003 27.4089 64.0003 24.5089C64.0003 24.3089 64.0003 24.1089 63.9003 24.0089C63.9003 23.8089 63.9003 23.7089 63.8003 23.5089C63.6003 22.1089 63.1003 20.7089 62.3003 19.3089C62.1003 18.9089 61.8003 18.5089 61.5003 18.1089C61.3003 17.9089 61.2003 17.6089 61.0003 17.4089C60.8003 17.2089 60.6003 17.0089 60.5003 16.8089C53.6003 9.10892 38.1003 6.60892 26.8003 12.3089C25.7003 12.9089 24.6003 13.5089 23.6003 14.2089C23.2003 14.5089 22.8003 14.7089 22.5003 15.0089C21.6003 15.7089 20.8003 16.4089 20.0003 17.1089C19.7003 17.4089 19.3003 17.7089 19.0003 18.1089C18.7003 18.5089 18.4003 18.8089 18.1003 19.1089C17.8003 19.4089 17.6003 19.7089 17.3003 20.0089C15.8003 21.9089 14.4003 24.0089 13.3003 26.3089C13.1003 26.6089 13.0003 26.9089 12.9003 27.2089C12.7003 27.5089 12.6003 27.9089 12.4003 28.2089C12.1003 28.8089 11.9003 29.4089 11.6003 30.0089C10.5003 32.8089 9.70034 35.7089 9.10034 38.7089C9.00034 39.2089 8.90033 39.6089 8.90033 40.1089C7.60033 48.0089 8.20033 56.3089 10.4003 63.3089C10.7003 64.4089 11.4003 66.2089 12.3003 68.3089C12.4003 68.6089 12.6003 68.9089 12.7003 69.2089C12.8003 69.5089 13.0003 69.8089 13.2003 70.1089C13.4003 70.5089 13.7003 71.0089 13.9003 71.4089C14.1003 71.7089 14.2003 72.0089 14.4003 72.3089C15.9003 74.7089 17.8003 77.1089 20.3003 79.4089C20.6003 79.7089 20.9003 79.9089 21.2003 80.2089C21.6003 80.5089 22.0003 80.8089 22.4003 81.2089C33.4003 89.5089 49.2003 90.3089 62.1003 85.9089H62.2003C62.3003 85.9089 62.5003 85.8089 62.6003 85.8089C62.8003 85.7089 62.9003 85.7089 63.1003 85.6089C71.5003 82.5089 78.6003 77.1089 82.1003 70.0089C83.1003 68.1089 83.9003 65.6089 84.5003 62.9089C84.6003 62.6089 84.6003 62.3089 84.7003 62.1089C84.8003 61.8089 84.8003 61.4089 84.9003 61.1089C85.8003 57.2089 85.6003 52.8089 83.7003 49.3089ZM56.6003 48.4089L51.7003 50.7089C50.7003 51.2089 49.5003 50.7089 49.1003 49.7089C48.6003 48.7089 49.1003 47.5089 50.1003 47.1089L55.0003 44.8089C56.0003 44.3089 57.2003 44.8089 57.6003 45.8089C58.0003 46.8089 57.6003 48.0089 56.6003 48.4089Z" fill="#5BCEAE"/>
<path opacity="0.6" d="M78.7001 53.0091L73.5001 41.9091L65.6001 25.1091C65.2001 24.6091 64.6001 24.2091 64.0001 24.1091C63.5001 24.0091 63.0001 24.1091 62.5001 24.3091L54.9001 27.8091C51.6001 29.4091 49.0001 31.8091 47.2001 34.7091C45.1001 38.2091 41.9001 41.0091 38.2001 42.7091L30.7001 46.2091C28.6001 47.2091 27.8001 49.6091 28.7001 51.6091L34.5001 63.9091C35.5001 65.9091 37.9001 66.8091 39.9001 65.9091L46.9001 62.7091C50.7001 60.9091 55.0001 60.3091 59.2001 61.0091C62.7001 61.6091 66.4001 61.3091 69.9001 59.7091L77.5001 56.2091C78.6001 55.6091 79.2001 54.2091 78.7001 53.0091ZM56.6001 48.4091L51.7001 50.7091C50.7001 51.2091 49.5001 50.7091 49.1001 49.7091C48.6001 48.7091 49.1001 47.5091 50.1001 47.1091L55.0001 44.8091C56.0001 44.3091 57.2001 44.8091 57.6001 45.8091C58.0001 46.8091 57.6001 48.0091 56.6001 48.4091Z" fill="#95C53D"/>
<path opacity="0.6" d="M81.8999 40.3089C81.1999 38.3089 79.5999 34.4089 77.3999 30.7089C76.9999 30.1089 77.2999 29.3089 77.8999 29.0089C78.4999 28.7089 79.0999 28.9089 79.4999 29.5089C80.4999 31.0089 82.3999 34.4089 84.1999 39.6089C84.3999 40.2089 84.0999 40.8089 83.5999 41.1089C82.8999 41.3089 82.0999 41.0089 81.8999 40.3089Z" fill="#95C53D"/>
<path opacity="0.6" d="M87.1001 38.0091C86.4001 36.0091 84.8001 32.1091 82.6001 28.4091C82.2001 27.8091 82.5001 27.0091 83.1001 26.7091C83.7001 26.4091 84.3001 26.6091 84.7001 27.2091C85.7001 28.7091 87.6001 32.1091 89.4001 37.3091C89.6001 37.9091 89.3001 38.5091 88.8001 38.8091C88.1001 39.0091 87.4001 38.6091 87.1001 38.0091Z" fill="#95C53D"/>
<path d="M76.8997 78.809C76.7997 78.609 76.7997 78.409 76.9997 78.309C77.1997 78.109 77.4997 78.109 77.6997 78.209L84.3997 83.709C84.5997 83.909 84.5997 84.209 84.4997 84.409C84.2997 84.609 83.9997 84.609 83.7997 84.509L77.0997 79.009C76.9997 78.909 76.9997 78.909 76.8997 78.809Z" fill="#5BCEAE"/>
<g opacity="0.5">
<path opacity="0.5" d="M66.7999 19.5091C65.5999 20.1091 64.1999 19.7091 63.5999 18.5091C62.9999 17.3091 63.3999 15.9091 64.5999 15.3091C65.7999 14.7091 67.1999 15.1091 67.7999 16.3091C68.3999 17.4091 67.8999 18.9091 66.7999 19.5091ZM64.9999 16.2091C64.2999 16.6091 64.0999 17.4091 64.3999 18.1091C64.7999 18.8091 65.5999 19.0091 66.2999 18.7091C66.9999 18.4091 67.1999 17.5091 66.8999 16.8091C66.5999 16.1091 65.6999 15.8091 64.9999 16.2091Z" fill="#95C53D"/>
</g>
<path d="M62.0996 7.90902C61.9996 8.00902 61.7996 8.00902 61.5996 7.90902C61.3996 7.70902 61.2996 7.40902 61.4996 7.20902L66.6996 0.209017C66.8996 0.00901699 67.1996 -0.090983 67.3996 0.109017C67.5996 0.309017 67.6996 0.609017 67.4996 0.809017L62.2996 7.80902C62.2996 7.80902 62.1996 7.90902 62.0996 7.90902Z" fill="#5BCEAE"/>
<path d="M62.3004 12.509C62.1004 12.509 61.9004 12.509 61.8004 12.309C61.6004 12.109 61.7004 11.809 61.9004 11.609L68.8004 6.30897C69.0004 6.10897 69.3004 6.20897 69.5004 6.40897C69.7004 6.60897 69.6004 6.90897 69.4004 7.10897L62.5004 12.409C62.5004 12.509 62.4004 12.509 62.3004 12.509Z" fill="#5BCEAE"/>
<g opacity="0.5">
<path opacity="0.5" d="M54.5001 7.80915C53.3001 8.40915 51.9001 8.00916 51.3001 6.80915C50.7001 5.60915 51.1001 4.20915 52.3001 3.60915C53.5001 3.00915 54.9001 3.40915 55.5001 4.60915C56.1001 5.80915 55.6001 7.20916 54.5001 7.80915ZM52.7001 4.50915C52.0001 4.90915 51.8001 5.70915 52.1001 6.40915C52.4001 7.10915 53.3001 7.30915 54.0001 7.00915C54.7001 6.60915 54.9001 5.80915 54.6001 5.10915C54.3001 4.40915 53.4001 4.10915 52.7001 4.50915Z" fill="#95C53D"/>
</g>
<path d="M17.3002 12.209C17.4002 12.409 17.3002 12.609 17.2002 12.709C17.0002 12.909 16.7002 12.909 16.5002 12.709L10.1002 6.80898C9.9002 6.60898 9.9002 6.30898 10.1002 6.10898C10.3002 5.90898 10.6002 5.90898 10.8002 6.10898L17.2002 12.009C17.2002 12.009 17.3002 12.109 17.3002 12.209Z" fill="#5BCEAE"/>
<g opacity="0.5">
<path opacity="0.5" d="M12.2998 15.609C12.1998 16.909 11.0998 17.909 9.69975 17.809C8.29975 17.709 7.39975 16.609 7.49975 15.209C7.59975 13.809 8.69975 12.909 10.0998 13.009C11.3998 13.209 12.3998 14.309 12.2998 15.609ZM8.59975 15.309C8.49975 16.109 9.09975 16.709 9.89975 16.809C10.6998 16.909 11.2998 16.309 11.3998 15.509C11.4998 14.709 10.8998 14.109 10.0998 14.009C9.29975 13.909 8.59975 14.609 8.59975 15.309Z" fill="#95C53D"/>
</g>
<g opacity="0.5">
<path opacity="0.5" d="M84.8001 77.7089C84.7001 79.0089 83.6001 80.0089 82.2001 79.9089C80.9001 79.8089 79.9001 78.709 80.0001 77.309C80.1001 76.009 81.2001 75.0089 82.6001 75.1089C83.9001 75.3089 84.9001 76.4089 84.8001 77.7089ZM81.0001 77.4089C80.9001 78.2089 81.5001 78.8089 82.3001 78.9089C83.1001 79.0089 83.7001 78.4089 83.8001 77.6089C83.9001 76.8089 83.3001 76.2089 82.5001 76.1089C81.8001 76.1089 81.1001 76.7089 81.0001 77.4089Z" fill="#95C53D"/>
</g>
<path d="M27.4998 28.609H23.8998V25.009H21.3998V28.609H17.7998V31.109H21.3998V34.709H23.8998V31.109H27.4998V28.609Z" fill="#95C53D"/>
<path d="M82.4 48.209L81.5 46.309L71.6 25.409C70.8 23.809 68.9 23.109 67.2 23.809L65.6 24.509C65.1 24.009 64.5 23.709 63.8 23.609C63.2 23.509 62.7 23.609 62.1 23.909L54.5 27.409C51.2 28.909 48.4 31.409 46.6 34.509C44.6 37.809 41.6 40.509 37.8 42.309L30.3 45.809C29.2 46.309 28.3 47.209 27.9 48.409C27.5 49.609 27.5 50.809 28.1 51.909L29 53.709L26.3 54.909C25.2 55.409 24.5 56.609 24.6 57.809L19.8 59.909L20.3 61.109C18.5 62.109 16.6 64.309 14.5 67.709C14 68.509 13.4 69.109 12.8 69.509C8.7 72.209 1.6 69.009 1.5 68.909L1 69.809C1.1 69.809 8.6 73.309 13.3 70.409C14.1 69.909 14.8 69.209 15.4 68.209C18.1 63.809 20 62.309 21.2 61.809L21.7 61.609L21.2 60.509L25.8 58.509L25.7 58.009C25.5 57.109 26 56.209 26.8 55.809L29.5 54.609L32.8 61.609L30 62.809C29.2 63.209 28.3 63.009 27.7 62.309L27.5 62.009L22.9 64.009L22.3 62.809L21.9 63.009C21.1 63.409 19.4 64.609 16.7 68.909C16 70.109 15.1 71.009 14.1 71.609C10.1 74.109 4.6 72.609 2 71.609C1.1 71.309 0.6 71.009 0.5 71.009L0 72.009C0.1 72.009 0.7 72.309 1.6 72.709C3.2 73.209 5.9 74.009 8.8 74.009C10.8 74.009 12.8 73.609 14.6 72.509C15.7 71.809 16.7 70.809 17.6 69.509C19.7 66.109 21.2 64.709 21.9 64.209L22.4 65.309L27.2 63.209C28.1 64.009 29.4 64.209 30.4 63.709L33.1 62.409L33.9 64.109C34.7 65.809 36.3 66.709 38.1 66.709C38.8 66.709 39.4 66.609 40 66.309L47 63.109C50.8 61.309 55.1 60.809 59 61.509C62.7 62.209 66.5 61.709 70 60.109L77.6 56.609C78.9 56.009 79.6 54.609 79.3 53.309L80.8 52.609C81.6 52.209 82.2 51.609 82.5 50.809C82.8 49.909 82.8 49.009 82.4 48.209ZM59.2 60.509C55.1 59.709 50.6 60.309 46.6 62.209L39.6 65.409C37.8 66.209 35.7 65.509 34.8 63.709L34 62.009L29.8 53.209L29 51.409C28.6 50.509 28.5 49.609 28.9 48.709C29.2 47.809 29.9 47.109 30.8 46.709L38.3 43.209C42.3 41.409 45.4 38.509 47.5 35.009C49.2 32.109 51.8 29.709 55 28.309L62.6 24.809C62.9 24.709 63.2 24.609 63.5 24.609C63.7 24.609 63.9 24.609 64 24.709C64.4 24.809 64.8 25.009 65.1 25.409V25.509L72.7 41.609L78.2 53.209C78.6 54.209 78.1 55.309 77.1 55.709L69.5 59.209C66.3 60.709 62.7 61.209 59.2 60.509ZM81.6 50.409C81.4 51.009 81 51.409 80.4 51.709L79 52.309L74.3 42.309L66.3 25.309L67.7 24.609C68.8 24.109 70.2 24.609 70.7 25.709L79.7 44.909L81.4 48.609C81.8 49.209 81.8 49.809 81.6 50.409Z" fill="#5BCEAE"/>
<path d="M34.1004 62.1091L29.9004 53.3091L34.1004 62.1091Z" fill="#5BCEAE"/>
<path d="M83.0004 41.609C82.8004 41.609 82.5004 41.609 82.3004 41.509C81.9004 41.309 81.5004 41.009 81.4004 40.509C80.8004 38.909 79.2004 34.909 76.9004 31.009C76.7004 30.609 76.6004 30.109 76.7004 29.609C76.8004 29.109 77.2004 28.809 77.6004 28.509C78.4004 28.109 79.3004 28.409 79.8004 29.109C80.8004 30.709 82.8004 34.009 84.6004 39.309C84.9004 40.109 84.5004 41.109 83.7004 41.409C83.5004 41.609 83.3004 41.609 83.0004 41.609ZM78.4004 29.409C78.3004 29.409 78.2004 29.409 78.1004 29.509C77.9004 29.609 77.8004 29.809 77.7004 30.009C77.6004 30.209 77.7004 30.409 77.8004 30.609C80.2004 34.609 81.8004 38.709 82.4004 40.309C82.5004 40.509 82.6004 40.609 82.8004 40.709C83.0004 40.809 83.2004 40.809 83.4004 40.709C83.7004 40.609 83.9004 40.209 83.8004 39.809C82.0004 34.609 80.1004 31.309 79.1004 29.809C78.9004 29.509 78.7004 29.409 78.4004 29.409Z" fill="#5BCEAE"/>
<path d="M88.3002 39.3089C88.1002 39.3089 87.9002 39.3089 87.7002 39.2089C87.2002 39.0089 86.9002 38.6089 86.7002 38.2089C86.1002 36.6089 84.5002 32.6089 82.2002 28.7089C82.0002 28.3089 81.9002 27.8089 82.0002 27.3089C82.1002 26.8089 82.5002 26.5089 82.9002 26.2089C83.7002 25.8089 84.6002 26.1089 85.1002 26.8089C86.1002 28.3089 88.1002 31.7089 89.9002 37.0089C90.2002 37.8089 89.8002 38.8089 89.0002 39.1089C88.8002 39.2089 88.5002 39.3089 88.3002 39.3089ZM83.7002 27.0089C83.6002 27.0089 83.5002 27.0089 83.4002 27.1089C83.2002 27.2089 83.1002 27.4089 83.0002 27.6089C82.9002 27.8089 83.0002 28.0089 83.1002 28.2089C85.5002 32.2089 87.1002 36.3089 87.7002 37.9089C87.8002 38.1089 87.9002 38.3089 88.1002 38.3089C88.3002 38.4089 88.5002 38.4089 88.7002 38.3089C89.1002 38.1089 89.2002 37.8089 89.1002 37.4089C87.3002 32.2089 85.4002 28.9089 84.4002 27.4089C84.1002 27.1089 83.9002 27.0089 83.7002 27.0089Z" fill="#5BCEAE"/>
<path d="M29.5 54.6091L32.8 61.6091L29.5 54.6091Z" fill="#5BCEAE"/>
</svg>
