<svg width="130" height="130" viewBox="0 0 130 130" fill="none" xmlns="http://www.w3.org/2000/svg">
<path opacity="0.2" d="M115.142 65.3981C115.01 65.1328 114.877 64.8674 114.612 64.6021C114.214 64.0715 113.949 63.5409 113.551 63.0103C112.755 61.9491 111.826 61.1532 110.898 60.4899C110.367 60.0919 109.836 59.694 109.306 59.4287C104.796 56.7756 99.3568 55.9797 94.7139 50.6736C94.5813 50.5409 94.4486 50.2756 94.3159 50.143C94.1833 50.0103 94.0506 49.745 93.918 49.6123C93.6527 49.2144 93.2547 48.8164 92.9894 48.4185C92.4588 47.4899 91.9282 46.694 91.5302 45.8981C91.2649 45.3674 91.1323 44.9695 90.867 44.4389C88.2139 37.6736 90.6017 32.3674 86.7547 25.8674C86.4894 25.3368 86.0915 24.8062 85.6935 24.2756C85.4282 24.0103 85.2955 23.6123 85.0302 23.347C84.7649 23.0817 84.4996 22.8164 84.367 22.5511C75.2139 12.3368 54.6527 9.0205 39.6629 16.5817C38.2037 17.3776 36.7445 18.1736 35.418 19.1021C34.8874 19.5001 34.3568 19.7654 33.9588 20.1634C32.7649 21.0919 31.7037 22.0205 30.6425 22.9491C30.2445 23.347 29.7139 23.745 29.316 24.2756C28.918 24.6736 28.52 25.2042 28.1221 25.6021C27.7241 26.0001 27.4588 26.3981 27.0608 26.9287C25.0711 29.4491 23.2139 32.2348 21.7547 35.2858C21.4894 35.6838 21.3568 36.0817 21.0915 36.4797C20.9588 36.8776 20.6935 37.4083 20.4282 37.8062C20.0302 38.6021 19.7649 39.3981 19.367 40.194C17.9078 43.9083 16.8466 47.7552 16.0506 51.7348C15.918 52.3981 15.7853 52.9287 15.7853 53.5919C14.0609 64.0715 14.8568 75.0817 17.7751 84.3674C18.3057 85.8266 19.1017 88.2144 20.2955 91.0001C20.5609 91.5307 20.8262 92.194 21.2241 92.8572C21.3568 93.1226 21.3568 93.2552 21.4894 93.5205C21.8874 94.1838 22.1527 94.7144 22.5506 95.3777C24.5404 98.8266 27.3262 102.408 31.0404 105.857C31.4384 106.255 31.8364 106.521 32.367 106.918C32.8976 107.316 33.4282 107.714 33.9588 108.245C34.7547 108.908 35.6833 109.439 36.6119 110.102C37.4078 110.633 38.0711 111.031 38.867 111.429C53.0608 119.388 71.367 119.786 86.6221 114.48H86.7547C86.8874 114.48 87.1527 114.347 87.2853 114.347C87.5506 114.214 87.6833 114.214 87.9486 114.082C99.0915 109.969 108.51 102.806 113.153 93.3879C114.479 90.8674 115.54 87.5511 116.336 84.1021C116.469 83.7042 116.469 83.3062 116.602 83.0409C116.734 82.643 116.734 82.1123 116.867 81.7144C117.796 75.8776 117.663 70.0409 115.142 65.3981Z" fill="#5BCEAE"/>
<path d="M30.3777 18.1734C30.245 18.4387 30.1124 18.5714 29.8471 18.5714C29.4491 18.5714 29.1838 18.3061 29.0511 18.0408L27.7246 6.63259C27.7246 6.23463 27.9899 5.96932 28.2552 5.83667C28.6532 5.83667 28.9185 6.10198 29.0511 6.36728L30.3777 17.7754C30.3777 17.9081 30.3777 18.0408 30.3777 18.1734Z" fill="#5BCEAE"/>
<path d="M28.1221 22.153C28.2547 22.4183 28.1221 22.6837 27.9894 22.8163C27.7241 23.0816 27.3262 23.0816 27.0608 22.8163L18.571 15.1224C18.3057 14.8571 18.3057 14.4592 18.571 14.1939C18.8364 13.9285 19.2343 13.9285 19.4996 14.1939L27.9894 22.0204L28.1221 22.153Z" fill="#5BCEAE"/>
<g opacity="0.5">
<path opacity="0.5" d="M25.0717 26.2654C24.9391 27.9899 23.4799 29.3164 21.6227 29.1838C19.7656 29.0511 18.5717 27.5919 18.7044 25.7348C18.837 23.8777 20.2962 22.6838 22.1533 22.8164C23.8778 22.9491 25.2044 24.5409 25.0717 26.2654ZM20.1636 25.8675C20.0309 26.9287 20.8268 27.7246 21.888 27.8572C22.9493 27.9899 23.7452 27.194 23.8778 26.1328C24.0105 25.0715 23.2146 24.2756 22.1533 24.143C21.0921 24.143 20.1636 24.8062 20.1636 25.8675Z" fill="#95C53D"/>
</g>
<g opacity="0.5">
<path opacity="0.5" d="M43.7759 16.1839C43.6433 17.9084 42.1841 19.2349 40.3269 19.1022C38.6024 18.9696 37.2759 17.5104 37.4086 15.6533C37.5412 13.7961 39.0004 12.6022 40.8575 12.7349C42.582 12.8675 43.9086 14.3267 43.7759 16.1839ZM38.8677 15.7859C38.7351 16.8471 39.531 17.643 40.5922 17.7757C41.6535 17.9084 42.4494 17.1124 42.582 16.0512C42.7147 14.99 41.9188 14.1941 40.8575 14.0614C39.7963 13.9288 38.8677 14.7247 38.8677 15.7859Z" fill="#95C53D"/>
</g>
<path d="M90.0714 23.8775C89.8061 23.8775 89.5408 23.7449 89.4081 23.4796C89.2755 23.0816 89.4081 22.6836 89.8061 22.551L101.214 18.3061C101.612 18.1734 102.01 18.3061 102.143 18.7041C102.275 19.102 102.143 19.5 101.745 19.6326L90.3367 23.8775C90.3367 23.8775 90.2041 23.8775 90.0714 23.8775Z" fill="#5BCEAE"/>
<path d="M101.612 104.265C101.612 104 101.878 103.735 102.143 103.735C102.541 103.602 102.939 103.867 102.939 104.265L105.592 116.204C105.725 116.602 105.459 117 105.061 117C104.663 117.133 104.265 116.867 104.265 116.469L101.612 104.531C101.612 104.398 101.612 104.265 101.612 104.265Z" fill="#5BCEAE"/>
<path d="M102.938 101.214C102.806 100.949 102.806 100.684 102.938 100.551C103.071 100.286 103.469 100.153 103.867 100.286L113.683 106.255C113.949 106.388 114.081 106.786 113.949 107.184C113.816 107.449 113.418 107.582 113.02 107.449L103.204 101.48C103.071 101.347 103.071 101.214 102.938 101.214Z" fill="#5BCEAE"/>
<g opacity="0.5">
<path opacity="0.5" d="M96.9692 28.1224C96.8365 29.8469 95.3773 31.1735 93.5202 31.0408C91.6631 30.9081 90.4692 29.449 90.6018 27.5918C90.7345 25.8673 92.1937 24.5408 94.0508 24.6735C95.908 24.8061 97.1018 26.3979 96.9692 28.1224ZM92.061 27.7245C91.9284 28.7857 92.7243 29.5816 93.7855 29.7143C94.8467 29.8469 95.6426 29.051 95.7753 27.9898C95.9079 26.9286 95.112 26.1326 94.0508 26C92.9896 26 92.061 26.6632 92.061 27.7245Z" fill="#95C53D"/>
</g>
<path d="M63.8061 82.2449H59.4286C58.5 82.2449 57.5714 83.0408 57.5714 83.9694V88.3469C57.5714 89.2755 58.3673 90.0714 59.4286 90.0714H63.8061C64.7347 90.0714 65.5306 89.2755 65.5306 88.3469V83.9694C65.5306 83.0408 64.7347 82.2449 63.8061 82.2449ZM63.6735 88.3469H59.4286V84.102H63.6735V88.3469ZM63.8061 93.7857H59.4286C58.5 93.7857 57.5714 94.5816 57.5714 95.6428V100.02C57.5714 100.949 58.3673 101.745 59.4286 101.745H63.8061C64.7347 101.745 65.5306 100.949 65.5306 100.02V95.6428C65.5306 94.7143 64.7347 93.7857 63.8061 93.7857ZM63.6735 100.02H59.4286V95.7755H63.6735V100.02ZM51.3367 82.2449H46.9592C46.0306 82.2449 45.2347 83.0408 45.2347 83.9694V88.3469C45.2347 89.2755 46.0306 90.0714 46.9592 90.0714H51.3367C52.2653 90.0714 53.0612 89.2755 53.0612 88.3469V83.9694C53.0612 83.0408 52.2653 82.2449 51.3367 82.2449ZM51.3367 88.3469H47.0918V84.102H51.3367V88.3469ZM26.3979 104.929H22.0204C21.0918 104.929 20.2959 105.724 20.2959 106.653V111.031C20.2959 111.959 21.0918 112.755 22.0204 112.755H26.3979C27.3265 112.755 28.2551 111.959 28.2551 111.031V106.653C28.2551 105.724 27.4592 104.929 26.3979 104.929ZM26.3979 111.031H22.153V106.786H26.3979V111.031ZM26.3979 82.2449H22.0204C21.0918 82.2449 20.2959 83.0408 20.2959 83.9694V88.3469C20.2959 89.2755 21.0918 90.0714 22.0204 90.0714H26.3979C27.3265 90.0714 28.2551 89.2755 28.2551 88.3469V83.9694C28.2551 83.0408 27.4592 82.2449 26.3979 82.2449ZM26.3979 88.3469H22.153V84.102H26.3979V88.3469ZM51.3367 93.5204H46.9592C46.0306 93.5204 45.2347 94.3163 45.2347 95.3775V99.7551C45.2347 100.684 46.0306 101.612 46.9592 101.612H51.3367C52.2653 101.612 53.0612 100.816 53.0612 99.7551V95.3775C53.0612 94.449 52.2653 93.5204 51.3367 93.5204ZM51.3367 99.6224H47.0918V95.3775H51.3367V99.6224ZM26.3979 82.2449H22.0204C21.0918 82.2449 20.2959 83.0408 20.2959 83.9694V88.3469C20.2959 89.2755 21.0918 90.0714 22.0204 90.0714H26.3979C27.3265 90.0714 28.2551 89.2755 28.2551 88.3469V83.9694C28.2551 83.0408 27.4592 82.2449 26.3979 82.2449ZM26.3979 88.3469H22.153V84.102H26.3979V88.3469ZM26.3979 93.5204H22.0204C21.0918 93.5204 20.2959 94.3163 20.2959 95.3775V99.7551C20.2959 100.684 21.0918 101.612 22.0204 101.612H26.3979C27.3265 101.612 28.2551 100.816 28.2551 99.7551V95.3775C28.2551 94.449 27.4592 93.5204 26.3979 93.5204ZM26.3979 99.6224H22.153V95.3775H26.3979V99.6224ZM26.3979 104.929H22.0204C21.0918 104.929 20.2959 105.724 20.2959 106.653V111.031C20.2959 111.959 21.0918 112.755 22.0204 112.755H26.3979C27.3265 112.755 28.2551 111.959 28.2551 111.031V106.653C28.2551 105.724 27.4592 104.929 26.3979 104.929ZM26.3979 111.031H22.153V106.786H26.3979V111.031ZM38.8673 82.2449H34.4898C33.4286 82.2449 32.7653 83.0408 32.7653 83.9694V88.3469C32.7653 89.2755 33.5612 90.0714 34.4898 90.0714H38.8673C39.7959 90.0714 40.5918 89.2755 40.5918 88.3469V83.9694C40.7245 83.0408 39.9286 82.2449 38.8673 82.2449ZM38.8673 88.3469H34.6224V84.102H38.8673V88.3469ZM38.8673 93.5204H34.4898C33.4286 93.5204 32.7653 94.3163 32.7653 95.3775V99.7551C32.7653 100.684 33.5612 101.612 34.4898 101.612H38.8673C39.7959 101.612 40.5918 100.816 40.5918 99.7551V95.3775C40.7245 94.449 39.9286 93.5204 38.8673 93.5204ZM38.8673 99.6224H34.6224V95.3775H38.8673V99.6224ZM38.8673 104.929H34.4898C33.4286 104.929 32.7653 105.724 32.7653 106.653V111.031C32.7653 111.959 33.5612 112.755 34.4898 112.755H38.8673C39.7959 112.755 40.5918 111.959 40.5918 111.031V106.653C40.7245 105.724 39.9286 104.929 38.8673 104.929ZM38.8673 111.031H34.6224V106.786H38.8673V111.031ZM51.3367 82.2449H46.9592C46.0306 82.2449 45.2347 83.0408 45.2347 83.9694V88.3469C45.2347 89.2755 46.0306 90.0714 46.9592 90.0714H51.3367C52.2653 90.0714 53.0612 89.2755 53.0612 88.3469V83.9694C53.0612 83.0408 52.2653 82.2449 51.3367 82.2449ZM51.3367 88.3469H47.0918V84.102H51.3367V88.3469ZM51.3367 93.5204H46.9592C46.0306 93.5204 45.2347 94.3163 45.2347 95.3775V99.7551C45.2347 100.684 46.0306 101.612 46.9592 101.612H51.3367C52.2653 101.612 53.0612 100.816 53.0612 99.7551V95.3775C53.0612 94.449 52.2653 93.5204 51.3367 93.5204ZM51.3367 99.6224H47.0918V95.3775H51.3367V99.6224ZM51.3367 104.929H46.9592C46.0306 104.929 45.2347 105.724 45.2347 106.653V107.98C45.2347 108.51 45.6326 108.908 46.1632 108.908C46.6939 108.908 47.0918 108.51 47.0918 107.98V106.786H51.3367V111.031H47.0918C47.0918 110.5 46.6939 110.102 46.1632 110.102C45.6326 110.102 45.2347 110.5 45.2347 111.031C45.2347 111.959 46.0306 112.755 46.9592 112.755H51.3367C52.2653 112.755 53.0612 111.959 53.0612 111.031V106.653C53.0612 105.724 52.2653 104.929 51.3367 104.929ZM63.8061 82.2449H59.4286C58.5 82.2449 57.5714 83.0408 57.5714 83.9694V88.3469C57.5714 89.2755 58.3673 90.0714 59.4286 90.0714H63.8061C64.7347 90.0714 65.5306 89.2755 65.5306 88.3469V83.9694C65.5306 83.0408 64.7347 82.2449 63.8061 82.2449ZM63.6735 88.3469H59.4286V84.102H63.6735V88.3469ZM63.8061 93.7857H59.4286C58.5 93.7857 57.5714 94.5816 57.5714 95.6428V100.02C57.5714 100.949 58.3673 101.745 59.4286 101.745H63.8061C64.7347 101.745 65.5306 100.949 65.5306 100.02V95.6428C65.5306 94.7143 64.7347 93.7857 63.8061 93.7857ZM63.6735 100.02H59.4286V95.7755H63.6735V100.02ZM26.3979 82.2449H22.0204C21.0918 82.2449 20.2959 83.0408 20.2959 83.9694V88.3469C20.2959 89.2755 21.0918 90.0714 22.0204 90.0714H26.3979C27.3265 90.0714 28.2551 89.2755 28.2551 88.3469V83.9694C28.2551 83.0408 27.4592 82.2449 26.3979 82.2449ZM26.3979 88.3469H22.153V84.102H26.3979V88.3469ZM26.3979 93.5204H22.0204C21.0918 93.5204 20.2959 94.3163 20.2959 95.3775V99.7551C20.2959 100.684 21.0918 101.612 22.0204 101.612H26.3979C27.3265 101.612 28.2551 100.816 28.2551 99.7551V95.3775C28.2551 94.449 27.4592 93.5204 26.3979 93.5204ZM26.3979 99.6224H22.153V95.3775H26.3979V99.6224ZM26.3979 104.929H22.0204C21.0918 104.929 20.2959 105.724 20.2959 106.653V111.031C20.2959 111.959 21.0918 112.755 22.0204 112.755H26.3979C27.3265 112.755 28.2551 111.959 28.2551 111.031V106.653C28.2551 105.724 27.4592 104.929 26.3979 104.929ZM26.3979 111.031H22.153V106.786H26.3979V111.031ZM38.8673 82.2449H34.4898C33.4286 82.2449 32.7653 83.0408 32.7653 83.9694V88.3469C32.7653 89.2755 33.5612 90.0714 34.4898 90.0714H38.8673C39.7959 90.0714 40.5918 89.2755 40.5918 88.3469V83.9694C40.7245 83.0408 39.9286 82.2449 38.8673 82.2449ZM38.8673 88.3469H34.6224V84.102H38.8673V88.3469ZM38.8673 93.5204H34.4898C33.4286 93.5204 32.7653 94.3163 32.7653 95.3775V99.7551C32.7653 100.684 33.5612 101.612 34.4898 101.612H38.8673C39.7959 101.612 40.5918 100.816 40.5918 99.7551V95.3775C40.7245 94.449 39.9286 93.5204 38.8673 93.5204ZM38.8673 99.6224H34.6224V95.3775H38.8673V99.6224ZM38.8673 104.929H34.4898C33.4286 104.929 32.7653 105.724 32.7653 106.653V111.031C32.7653 111.959 33.5612 112.755 34.4898 112.755H38.8673C39.7959 112.755 40.5918 111.959 40.5918 111.031V106.653C40.7245 105.724 39.9286 104.929 38.8673 104.929ZM38.8673 111.031H34.6224V106.786H38.8673V111.031ZM51.3367 82.2449H46.9592C46.0306 82.2449 45.2347 83.0408 45.2347 83.9694V88.3469C45.2347 89.2755 46.0306 90.0714 46.9592 90.0714H51.3367C52.2653 90.0714 53.0612 89.2755 53.0612 88.3469V83.9694C53.0612 83.0408 52.2653 82.2449 51.3367 82.2449ZM51.3367 88.3469H47.0918V84.102H51.3367V88.3469ZM51.3367 93.5204H46.9592C46.0306 93.5204 45.2347 94.3163 45.2347 95.3775V99.7551C45.2347 100.684 46.0306 101.612 46.9592 101.612H51.3367C52.2653 101.612 53.0612 100.816 53.0612 99.7551V95.3775C53.0612 94.449 52.2653 93.5204 51.3367 93.5204ZM51.3367 99.6224H47.0918V95.3775H51.3367V99.6224ZM51.3367 104.929H46.9592C46.0306 104.929 45.2347 105.724 45.2347 106.653V107.98C45.2347 108.51 45.6326 108.908 46.1632 108.908C46.6939 108.908 47.0918 108.51 47.0918 107.98V106.786H51.3367V111.031H47.0918C47.0918 110.5 46.6939 110.102 46.1632 110.102C45.6326 110.102 45.2347 110.5 45.2347 111.031C45.2347 111.959 46.0306 112.755 46.9592 112.755H51.3367C52.2653 112.755 53.0612 111.959 53.0612 111.031V106.653C53.0612 105.724 52.2653 104.929 51.3367 104.929ZM63.8061 82.2449H59.4286C58.5 82.2449 57.5714 83.0408 57.5714 83.9694V88.3469C57.5714 89.2755 58.3673 90.0714 59.4286 90.0714H63.8061C64.7347 90.0714 65.5306 89.2755 65.5306 88.3469V83.9694C65.5306 83.0408 64.7347 82.2449 63.8061 82.2449ZM63.6735 88.3469H59.4286V84.102H63.6735V88.3469ZM63.8061 93.7857H59.4286C58.5 93.7857 57.5714 94.5816 57.5714 95.6428V100.02C57.5714 100.949 58.3673 101.745 59.4286 101.745H63.8061C64.7347 101.745 65.5306 100.949 65.5306 100.02V95.6428C65.5306 94.7143 64.7347 93.7857 63.8061 93.7857ZM63.6735 100.02H59.4286V95.7755H63.6735V100.02ZM26.3979 93.5204H22.0204C21.0918 93.5204 20.2959 94.3163 20.2959 95.3775V99.7551C20.2959 100.684 21.0918 101.612 22.0204 101.612H26.3979C27.3265 101.612 28.2551 100.816 28.2551 99.7551V95.3775C28.2551 94.449 27.4592 93.5204 26.3979 93.5204ZM26.3979 99.6224H22.153V95.3775H26.3979V99.6224ZM38.8673 82.2449H34.4898C33.4286 82.2449 32.7653 83.0408 32.7653 83.9694V88.3469C32.7653 89.2755 33.5612 90.0714 34.4898 90.0714H38.8673C39.7959 90.0714 40.5918 89.2755 40.5918 88.3469V83.9694C40.7245 83.0408 39.9286 82.2449 38.8673 82.2449ZM38.8673 88.3469H34.6224V84.102H38.8673V88.3469ZM51.3367 104.929H46.9592C46.0306 104.929 45.2347 105.724 45.2347 106.653V107.98C45.2347 108.51 45.6326 108.908 46.1632 108.908C46.6939 108.908 47.0918 108.51 47.0918 107.98V106.786H51.3367V111.031H47.0918C47.0918 110.5 46.6939 110.102 46.1632 110.102C45.6326 110.102 45.2347 110.5 45.2347 111.031C45.2347 111.959 46.0306 112.755 46.9592 112.755H51.3367C52.2653 112.755 53.0612 111.959 53.0612 111.031V106.653C53.0612 105.724 52.2653 104.929 51.3367 104.929ZM38.8673 93.5204H34.4898C33.4286 93.5204 32.7653 94.3163 32.7653 95.3775V99.7551C32.7653 100.684 33.5612 101.612 34.4898 101.612H38.8673C39.7959 101.612 40.5918 100.816 40.5918 99.7551V95.3775C40.7245 94.449 39.9286 93.5204 38.8673 93.5204ZM38.8673 99.6224H34.6224V95.3775H38.8673V99.6224ZM38.8673 104.929H34.4898C33.4286 104.929 32.7653 105.724 32.7653 106.653V111.031C32.7653 111.959 33.5612 112.755 34.4898 112.755H38.8673C39.7959 112.755 40.5918 111.959 40.5918 111.031V106.653C40.7245 105.724 39.9286 104.929 38.8673 104.929ZM38.8673 111.031H34.6224V106.786H38.8673V111.031ZM39 111.163H34.3571V106.52H39V111.163ZM34.7551 110.765H38.602V106.918H34.7551V110.765Z" fill="#5BCEAE"/>
<path d="M66.4588 63.9387H62.3466V62.3469C62.3466 60.8877 61.1527 59.6938 59.8261 59.6938H59.4282C57.969 59.6938 56.9078 60.8877 56.9078 62.3469V63.9387H29.0506V62.3469C29.0506 60.8877 27.8568 59.6938 26.5302 59.6938H26.1323C24.6731 59.6938 23.6119 60.8877 23.6119 62.3469V63.9387H19.4996C17.1119 63.9387 15.1221 65.9285 15.1221 68.3163V117.531C15.1221 119.918 17.1119 121.908 19.4996 121.908H66.5915C68.9792 121.908 70.969 119.918 70.969 117.531V68.3163C70.8364 65.7959 68.8466 63.9387 66.4588 63.9387ZM58.2343 62.2143C58.2343 61.551 58.7649 61.0204 59.4282 61.0204H59.8261C60.4894 61.0204 61.02 61.551 61.02 62.2143V63.8061H58.2343V62.2143ZM24.9384 62.2143C24.9384 61.551 25.469 61.0204 26.1323 61.0204H26.5302C27.1935 61.0204 27.7241 61.551 27.7241 62.2143V63.8061H24.9384V62.2143ZM69.3772 117.398C69.3772 118.99 68.0506 120.316 66.4588 120.316H19.367C17.7751 120.316 16.4486 118.99 16.4486 117.398V117L16.7139 117.265C17.5098 117.796 18.4384 118.194 19.367 118.194H56.5098C57.7037 118.194 58.7649 117.796 59.5608 116.867L69.3772 107.051V117.398ZM58.4996 115.939L58.6323 115.275C58.7649 115.01 58.7649 114.745 58.7649 114.347V108.245C58.7649 106.918 59.8262 105.99 61.02 105.99H67.1221C67.3874 105.99 67.7853 105.99 68.0506 105.857L68.7139 105.724L58.4996 115.939ZM69.3772 102.275C69.3772 103.602 68.3159 104.531 67.1221 104.531H61.02C59.0302 104.531 57.3057 106.255 57.3057 108.245V114.347C57.3057 115.673 56.2445 116.602 55.0506 116.602H19.367C17.7751 116.602 16.4486 115.275 16.4486 113.684V78.3979H69.5098V102.275H69.3772ZM69.3772 76.9387H16.3159V68.1836C16.3159 66.5918 17.6425 65.2653 19.2343 65.2653H23.3466V68.1836C23.3466 69.6428 24.5404 70.704 25.867 70.704C26.2649 70.704 26.5302 70.4387 26.5302 70.0408C26.5302 69.6428 26.2649 69.3775 25.867 69.3775C25.2037 69.3775 24.6731 68.8469 24.6731 68.1836V65.2653H56.5098V68.1836C56.5098 69.6428 57.7037 70.704 59.0302 70.704C59.4282 70.704 59.6935 70.4387 59.6935 70.0408C59.6935 69.6428 59.4282 69.3775 59.0302 69.3775C58.367 69.3775 57.8364 68.8469 57.8364 68.1836V65.2653H66.0609C67.6527 65.2653 68.9792 66.5918 68.9792 68.1836V76.9387H69.3772Z" fill="#5BCEAE"/>
<g opacity="0.6">
<path opacity="0.6" d="M66.0614 95.6429H49.6124V58.6327L40.3267 68.7144L31.041 57.9695L51.8675 35.4185H66.0614V95.6429Z" fill="#95C53D"/>
<path opacity="0.6" d="M95.9081 96.7041C86.3571 96.7041 78.7959 93.9184 73.0918 88.2143L81.8469 75.4796C85.6938 78.9286 90.204 80.6531 95.6428 80.6531C98.1632 80.6531 100.153 80.1225 101.347 79.1939C102.673 78.2653 103.204 77.0714 103.204 75.7449C103.204 74.2857 102.541 73.0918 101.347 72.1633C100.153 71.2347 98.2959 70.7041 95.9081 70.7041C91.7959 70.7041 88.4795 72.0306 85.8265 74.8163L74.4183 71.898V35.551H116.071V51.3367H91.2653V59.8265C94.1836 56.7755 97.8979 55.1837 102.541 55.1837C107.316 55.1837 111.561 57.0408 115.01 60.6225C118.459 64.2041 120.184 68.9796 120.184 74.8163C120.184 81.449 118.061 86.7551 113.684 90.7347C109.306 94.7143 103.469 96.7041 95.9081 96.7041Z" fill="#95C53D"/>
</g>
</svg>
