<svg width="130" height="130" viewBox="0 0 130 130" fill="none" xmlns="http://www.w3.org/2000/svg">
<path opacity="0.2" d="M117 74.0204C116.867 73.7551 116.735 73.4898 116.469 73.2245C116.071 72.6938 115.806 72.1632 115.408 71.6326C114.745 70.704 113.949 70.0408 113.153 69.3775C113.02 69.2449 112.888 69.1122 112.755 69.1122C112.357 68.8469 112.092 68.5816 111.694 68.3163C108.908 70.8367 105.194 72.2959 101.214 72.2959C93.3877 72.2959 86.6224 66.4591 85.4285 58.7653L85.1632 57.3061H86.357C87.153 58.6326 88.0815 59.8265 89.1428 60.8877C92.3264 64.0714 96.5713 65.9285 101.214 65.9285C102.673 65.9285 104.133 65.7959 105.592 65.3979C102.541 64.0714 99.3571 62.4796 96.5713 59.2959C96.4387 59.1632 96.306 58.8979 96.1734 58.7653C96.0407 58.6326 95.9081 58.3673 95.7754 58.2347C95.5101 57.9694 95.3775 57.704 95.1121 57.3061C94.9795 57.1734 94.9795 57.0408 94.8468 56.9081C94.4489 56.3775 94.1836 55.9796 93.9183 55.4489C93.653 55.051 93.5203 54.653 93.255 54.2551C92.9897 53.7245 92.8571 53.3265 92.5917 52.7959C91.7958 50.9387 91.5305 49.2142 91.2652 47.4898C91.1326 46.2959 90.9999 45.102 90.9999 44.0408C90.8672 41.5204 90.6019 39 89.5407 36.2142C89.2754 35.551 88.8774 34.8877 88.4795 34.0918C88.2142 33.5612 87.8162 33.0306 87.4183 32.5C87.153 32.2347 87.0203 31.8367 86.755 31.5714C86.4897 31.3061 86.2244 31.0408 86.0917 30.7755C85.2958 29.9796 84.4999 29.1836 83.704 28.3877C83.1734 27.8571 82.5101 27.4591 81.8468 27.0612C71.4999 19.8979 54.3877 18.3061 41.255 24.8061C39.7958 25.602 38.3366 26.3979 37.0101 27.3265C36.4795 27.7245 35.9489 27.9898 35.5509 28.3877C34.357 29.3163 33.2958 30.2449 32.2346 31.1734C31.8366 31.5714 31.306 31.9693 30.9081 32.5C30.5101 32.8979 30.1121 33.4285 29.7142 33.8265C29.4489 34.2245 29.0509 34.6224 28.7856 34.8877L28.653 35.0204C27.9897 35.9489 27.1938 36.8775 26.6632 37.8061C25.9999 38.8673 25.3366 39.7959 24.806 40.8571C24.2754 41.653 23.8775 42.5816 23.4795 43.3775C23.2142 43.7755 23.0815 44.1734 22.9489 44.5714C22.6836 44.9693 22.5509 45.5 22.2856 45.8979C22.2856 45.8979 22.2856 45.8979 22.2856 46.0306C21.8877 46.8265 21.6223 47.6224 21.357 48.4183C19.8979 52.1326 18.8366 55.9796 18.0407 59.9591C17.9081 60.6224 17.7754 61.153 17.7754 61.8163C17.7754 61.9489 17.7754 62.2142 17.7754 62.3469V62.4796C17.7754 62.7449 17.6428 63.0102 17.6428 63.2755C17.3775 65.3979 17.1121 67.3877 17.1121 69.5102C17.1121 70.0408 17.1121 70.5714 16.9795 70.9693C16.9795 71.3673 16.9795 71.8979 16.9795 72.2959V72.9591H17.3775L27.3264 82.5102C28.3877 83.5714 29.9795 83.5714 31.0407 82.5102L40.9897 72.9591H45.1019L44.8366 74.4183C43.7754 82.2449 37.0101 88.0816 29.1836 88.0816C24.6734 88.0816 20.5611 86.2244 17.6428 83.0408C17.7754 83.9693 17.9081 84.8979 18.0407 85.8265C18.4387 88.2142 19.1019 90.602 19.7652 92.8571C20.2958 94.3163 21.0917 96.704 22.2856 99.6224C22.5509 100.153 22.8162 100.816 23.2142 101.48C23.3468 101.612 23.3468 101.878 23.4795 102.143C23.8775 102.806 24.1428 103.337 24.5407 104C26.5305 107.449 29.3162 111.031 33.0305 114.48C33.4285 114.878 33.8264 115.143 34.357 115.541C34.8877 115.939 35.4183 116.337 35.9489 116.867C36.7448 117.531 37.6734 118.061 38.6019 118.724C39.3979 119.255 40.0611 119.653 40.857 120.051C55.0509 128.01 73.3571 128.408 88.6122 123.102H88.7448C88.8775 123.102 89.1428 122.969 89.2754 122.969C89.5407 122.837 89.6734 122.837 89.9387 122.704C101.082 118.592 110.5 111.429 115.143 102.01C116.469 99.4898 117.531 96.1734 118.326 92.7245C118.459 92.3265 118.459 91.9285 118.592 91.6632C118.724 91.2653 118.724 90.7347 118.857 90.3367C119.786 84.5 119.52 78.6632 117 74.0204ZM19.6326 62.6122H20.6938L24.0101 56.3775C24.1428 56.2449 24.2754 56.1122 24.4081 56.1122C24.5407 56.1122 24.806 56.2449 24.806 56.3775L29.0509 66.8571L33.1632 53.5918C33.1632 53.3265 33.4285 53.1938 33.5611 53.1938C33.8264 53.1938 33.9591 53.3265 33.9591 53.5918L36.2142 61.0204L37.1428 59.6938C37.2754 59.9591 37.4081 60.3571 37.5407 60.6224L36.3468 62.3469C36.2142 62.4796 36.0815 62.6122 35.9489 62.6122C35.8162 62.6122 35.8162 62.4796 35.8162 62.3469L33.6938 55.4489L29.5815 68.4489C29.5815 68.7142 29.3162 68.7142 29.1836 68.8469C29.0509 68.8469 28.7856 68.7142 28.7856 68.5816L24.4081 57.8367L21.4897 63.4081C21.357 63.5408 21.2244 63.6734 21.0917 63.6734H19.2346C19.3672 63.2755 19.4999 62.8775 19.6326 62.6122Z" fill="#5BCEAE"/>
<path d="M31.1736 16.5816C31.0409 16.8469 30.9083 16.9796 30.643 16.9796C30.245 16.9796 29.9797 16.7143 29.847 16.449L28.5205 5.04079C28.5205 4.64283 28.7858 4.37753 29.0511 4.24487C29.4491 4.24487 29.7144 4.51018 29.847 4.77549L31.1736 16.1836C31.1736 16.449 31.1736 16.5816 31.1736 16.5816Z" fill="#5BCEAE"/>
<path d="M28.918 20.6936C29.0506 20.959 28.918 21.2243 28.7853 21.3569C28.52 21.6222 28.122 21.6222 27.8567 21.3569L19.3669 13.5304C19.1016 13.2651 19.1016 12.8671 19.3669 12.6018C19.6323 12.3365 20.0302 12.3365 20.2955 12.6018L28.7853 20.4283C28.918 20.561 28.918 20.561 28.918 20.6936Z" fill="#5BCEAE"/>
<g opacity="0.5">
<path opacity="0.5" d="M25.8677 24.6735C25.7351 26.3979 24.2759 27.7245 22.4187 27.5918C20.6942 27.4592 19.3677 26 19.5004 24.1428C19.633 22.4184 21.0922 21.0918 22.9493 21.2245C24.8065 21.4898 26.0004 22.949 25.8677 24.6735ZM20.9595 24.2755C20.8269 25.3367 21.6228 26.1326 22.684 26.2653C23.7453 26.3979 24.5412 25.602 24.6738 24.5408C24.8065 23.4796 24.0106 22.6837 22.9493 22.551C21.8881 22.4184 20.9595 23.3469 20.9595 24.2755Z" fill="#95C53D"/>
</g>
<g opacity="0.5">
<path opacity="0.5" d="M44.5718 14.5918C44.4391 16.3163 42.98 17.6428 41.1228 17.5102C39.3983 17.3775 38.0718 15.9184 38.2045 14.0612C38.3371 12.2041 39.7963 11.0102 41.6534 11.1428C43.5106 11.2755 44.7045 12.8673 44.5718 14.5918ZM39.6636 14.1939C39.531 15.2551 40.3269 16.051 41.3881 16.1837C42.4494 16.3163 43.2453 15.5204 43.3779 14.4592C43.5106 13.3979 42.7147 12.602 41.6534 12.4694C40.5922 12.4694 39.6636 13.2653 39.6636 14.1939Z" fill="#95C53D"/>
</g>
<path d="M112.225 110.102C112.092 109.837 112.092 109.571 112.357 109.439C112.623 109.173 113.021 109.173 113.286 109.306L122.174 116.602C122.439 116.867 122.439 117.265 122.306 117.531C122.041 117.796 121.643 117.796 121.378 117.663L112.49 110.367C112.357 110.235 112.225 110.102 112.225 110.102Z" fill="#5BCEAE"/>
<path d="M114.613 123.235C114.613 123.5 114.347 123.765 114.215 123.765C113.817 123.898 113.551 123.633 113.419 123.367L109.837 112.49C109.704 112.092 109.97 111.827 110.235 111.694C110.633 111.561 110.898 111.827 111.031 112.092L114.613 122.969C114.613 122.969 114.613 123.102 114.613 123.235Z" fill="#5BCEAE"/>
<g opacity="0.5">
<path opacity="0.5" d="M124.827 109.969C124.694 111.694 123.235 113.02 121.378 112.888C119.653 112.755 118.327 111.296 118.459 109.439C118.592 107.714 120.051 106.388 121.908 106.52C123.633 106.786 124.959 108.245 124.827 109.969ZM119.919 109.704C119.786 110.765 120.582 111.561 121.643 111.694C122.704 111.826 123.5 111.031 123.633 109.969C123.765 108.908 122.97 108.112 121.908 107.98C120.847 107.847 119.919 108.643 119.919 109.704Z" fill="#95C53D"/>
</g>
<path opacity="0.6" d="M46.03 50.01C44.7035 48.5508 42.979 47.6223 41.1218 47.0917C40.1932 46.8264 39.132 46.6937 38.0708 46.6937C36.2137 46.6937 34.4892 47.0917 32.7647 47.7549C32.2341 48.0202 31.7035 48.1529 31.1728 48.5508C30.3769 48.9488 29.7137 49.4794 29.0504 50.01C28.3871 49.3468 27.7239 48.8161 26.9279 48.4182C26.3973 48.0202 25.9994 47.7549 25.4688 47.4896C24.2749 46.8264 23.2137 46.4284 22.1524 46.2957C21.7545 46.1631 21.3565 46.1631 20.9586 46.1631C17.6422 46.1631 14.4586 47.4896 12.0708 49.8774C8.75447 53.3264 7.69325 58.1019 8.88713 62.4794H20.5606L23.8769 56.2447C24.0096 56.1121 24.1422 55.9794 24.2749 55.9794C24.4075 55.9794 24.6728 56.1121 24.6728 56.2447L28.9177 66.7243L33.03 53.459C33.03 53.1937 33.2953 53.061 33.4279 53.061C33.6933 53.061 33.8259 53.1937 33.8259 53.459L36.081 60.8876L37.0096 59.5611L37.6728 58.4998C37.8055 58.3672 37.9381 58.3672 38.0708 58.3672C38.2035 58.3672 38.3361 58.3672 38.3361 58.4998C38.3361 58.4998 38.4688 58.4998 38.4688 58.6325L40.3259 61.6835H48.9484C50.2749 57.7039 49.2137 53.3264 46.03 50.01ZM40.4586 62.8774C40.3259 62.8774 40.1933 62.7447 40.0606 62.6121L38.4688 59.959L37.8055 60.7549L36.6116 62.4794C36.479 62.6121 36.3463 62.7447 36.2137 62.7447C36.081 62.7447 35.8157 62.4794 35.8157 62.3468L33.6932 55.4488L29.581 68.4488C29.581 68.7141 29.3157 68.7141 29.183 68.8468C29.0504 68.8468 28.7851 68.7141 28.7851 68.5815L24.4075 57.8366L21.4892 63.408C21.3565 63.5406 21.2239 63.6733 21.0912 63.6733H9.41774C10.081 65.3978 11.0096 66.9896 12.3361 68.3162L15.1218 70.9692L16.979 72.8264L17.3769 73.2243L27.3259 82.7753C28.3871 83.8366 29.979 83.8366 31.0402 82.7753L40.9892 73.2243L43.2443 70.9692L46.03 68.3162C46.6933 67.6529 47.2239 66.9896 47.6218 66.1937C48.2851 65.1325 48.8157 64.0713 49.081 63.01H40.4586V62.8774Z" fill="#95C53D"/>
<path opacity="0.6" d="M85.4004 27.7C83.7004 26 81.5004 24.8 79.2004 24.3C78.6004 24.2 78.1004 24.1 77.5004 24C77.1004 24 76.7004 24 76.3004 24C75.9004 24 75.5004 24 75.1004 24C74.5004 24.1 74.0004 24.1 73.4004 24.3C71.2004 24.8 69.2004 25.9 67.5004 27.5C67.4004 27.6 67.3004 27.7 67.2004 27.8C64.8004 30.2 63.4004 33.4 63.4004 36.9C63.4004 38.7 63.7004 40.4 64.4004 42C64.6004 42.5 64.8004 42.9 65.0004 43.3C65.6004 44.3 66.3004 45.2 67.1004 46C69.5004 48.4 72.7004 49.8 76.2004 49.8C77.3004 49.8 78.4004 49.7 79.5004 49.4C81.7004 48.8 83.7004 47.7 85.3004 46.1C86.1004 45.3 86.8004 44.4 87.4004 43.4C87.6004 43 87.9004 42.5 88.0004 42.1C88.7004 40.5 89.0004 38.8 89.0004 37C89.2004 33.4 87.9004 30.1 85.4004 27.7ZM77.1004 44C77.1004 44.4 76.8004 44.8 76.3004 44.8C75.9004 44.8 75.5004 44.5 75.5004 44V42.3H73.8004C73.5004 42.3 73.2004 42.1 73.1004 41.8C73.1004 41.7 73.0004 41.6 73.0004 41.6C73.0004 41.2 73.3004 40.8 73.8004 40.8H77.0004C77.9004 40.8 78.7004 40 78.7004 39.1C78.7004 38.2 77.9004 37.4 77.0004 37.4H75.4004C73.6004 37.4 72.2004 36 72.2004 34.2C72.2004 32.4 73.6004 31 75.4004 31V29.3C75.4004 28.9 75.7004 28.5 76.2004 28.5C76.6004 28.5 77.0004 28.8 77.0004 29.3V31H78.7004C79.1004 31 79.5004 31.3 79.5004 31.8C79.5004 32.2 79.2004 32.6 78.7004 32.6H75.5004C74.6004 32.6 73.8004 33.3 73.8004 34.3C73.8004 35.2 74.6004 36 75.5004 36H77.1004C78.8004 36 80.3004 37.4 80.3004 39.2C80.3004 40.3 79.7004 41.3 78.8004 41.9C78.3004 42.2 77.7004 42.4 77.1004 42.4H77.0004V44H77.1004Z" fill="#95C53D"/>
<path d="M118.061 55.5815H115.541L115.276 54.3876C114.082 48.4182 108.643 38.2039 105.061 32.1019C104.398 31.0407 103.867 30.1121 103.469 29.3162L102.806 28.2549L103.867 27.5917C105.061 26.7958 105.857 25.3366 105.857 23.8774C105.857 21.357 103.867 19.3672 101.347 19.3672C99.0919 19.3672 97.2347 21.0917 96.9694 23.3468L96.8368 24.6733L95.5102 24.5407H95.3776L82.2449 27.3264L72.1633 29.4488L71.6327 28.5202C70.4388 26.1325 68.0511 24.806 65.398 24.806C61.6837 24.806 58.6327 27.7243 58.3674 31.4386L58.2347 32.4998L33.296 37.9386L32.7653 37.2754C31.9694 36.0815 30.6429 35.4182 29.1837 35.4182H29.0511C26.6633 35.4182 24.6735 37.408 24.6735 39.9284C24.6735 40.459 24.8062 40.9896 24.9388 41.3876C25.2041 42.3162 25.8674 42.9794 26.6633 43.6427L27.7245 44.306L27.0613 45.1019C26.6633 45.7651 26.1327 46.5611 25.7347 47.4896C23.4796 51.4692 20.1633 57.306 17.9082 62.6121V62.7447C17.7755 63.01 17.6429 63.2754 17.5102 63.5407C16.449 66.0611 15.6531 68.3162 15.2551 70.1733L15.1225 70.7039L14.9898 71.2345H12.3368C11.8062 71.2345 11.4082 71.6325 11.4082 72.0304C11.4082 77.6019 13.9286 82.51 17.9082 85.6937C20.9592 88.2141 24.8062 89.6733 29.0511 89.6733C38.7347 89.6733 46.6939 81.7141 46.6939 72.0304C46.6939 71.4998 46.296 71.2345 45.7653 71.2345H43.2449L43.1123 70.7039L42.9796 70.1733C42.5817 68.0509 41.6531 65.5304 40.4592 62.7447C39.9286 61.4182 39.2653 59.959 38.6021 58.6325C36.6123 54.6529 34.3572 50.6733 32.6327 47.6223C32.1021 46.5611 31.5715 45.7651 31.0409 44.9692L30.3776 43.908L31.4388 43.2447C32.5 42.5815 33.1633 41.3876 33.296 40.1937L33.4286 39.2651L58.3674 33.959L58.898 34.8876C59.296 35.5509 59.6939 36.2141 60.2245 36.6121L60.6225 37.01V100.153H53.7245C53.1939 100.153 52.796 100.551 52.796 101.081V107.979H45.6327C45.1021 107.979 44.7041 108.377 44.7041 108.908V117.132C44.7041 117.663 45.1021 117.928 45.6327 117.928H84.5C85.0306 117.928 85.4286 117.53 85.4286 117.132V108.908C85.4286 108.377 85.0306 107.979 84.5 107.979H77.3368V101.081C77.3368 100.551 76.9388 100.153 76.4082 100.153H69.5102V37.1427L69.9082 36.7447C71.1021 35.5509 71.898 33.8264 72.0306 32.1019L72.1633 31.0407L83.5715 28.6529L95.2449 26.2651C95.3776 26.2651 95.3776 26.2651 95.5102 26.1325L96.5715 25.4692L97.3674 26.5305C97.6327 27.0611 98.0307 27.3264 98.5613 27.7243L99.6225 28.3876L98.9592 29.4488C98.5613 30.2447 97.898 31.1733 97.3674 32.2345C95.5102 35.4182 92.9898 39.9284 91 44.1733C89.2756 47.8876 87.6837 51.6019 87.1531 54.5202L86.8878 55.5815H84.3674C83.8368 55.5815 83.4388 55.9794 83.4388 56.3774C83.4388 66.0611 91.398 74.0202 101.082 74.0202C105.725 74.0202 109.969 72.2958 113.02 69.3774C116.469 66.1937 118.725 61.5509 118.725 56.3774C118.99 55.8468 118.592 55.5815 118.061 55.5815ZM45.1021 72.959L44.8368 74.4182C43.7755 82.2447 37.0102 88.0815 29.1837 88.0815C24.6735 88.0815 20.5613 86.2243 17.6429 83.0407C15.5204 80.7856 13.9286 77.8672 13.5307 74.5509L13.1327 72.959H45.1021ZM31.3062 48.5509C32.898 51.2039 35.2858 55.5815 37.4082 59.8264C37.5409 60.0917 37.6735 60.4896 37.8062 60.7549C39.398 63.9386 40.7245 67.1223 41.2551 69.6427L41.6531 71.2345H16.5817L16.9796 69.7753V69.6427C17.3776 67.9182 18.1735 65.7958 19.2347 63.5407C19.3674 63.2754 19.5 62.8774 19.6327 62.6121C21.6225 58.1019 24.4082 52.9284 27.0613 48.4182C27.3266 47.8876 27.7245 47.357 27.9898 46.8264L29.1837 44.8366L30.3776 46.8264C30.5102 47.357 30.9082 47.8876 31.3062 48.5509ZM29.1837 42.4488C27.7245 42.4488 26.398 41.2549 26.398 39.6631C26.398 39.1325 26.5307 38.6019 26.9286 38.0713C27.4592 37.408 28.2551 36.8774 29.1837 36.8774C30.7755 36.8774 31.9694 38.0713 31.9694 39.6631C31.9694 41.2549 30.6429 42.4488 29.1837 42.4488ZM83.8368 109.704V116.204H46.8266V109.704H83.8368ZM75.8776 102.01V107.979H54.7857V102.01H75.8776ZM62.6123 100.286V38.3366L64.2041 38.6019C65.1327 38.7345 65.796 38.7345 66.7245 38.6019L68.3164 38.3366V100.153H62.6123V100.286ZM65.398 37.01C62.4796 37.01 60.0919 34.6223 60.0919 31.7039C60.0919 28.7856 62.4796 26.3978 65.398 26.3978C68.3164 26.3978 70.7041 28.7856 70.7041 31.7039C70.5715 34.6223 68.1837 37.01 65.398 37.01ZM98.5613 23.8774C98.5613 22.4182 99.7551 21.0917 101.347 21.0917C102.806 21.0917 104.133 22.2856 104.133 23.8774C104.133 25.3366 102.939 26.6631 101.347 26.6631C99.7551 26.6631 98.5613 25.4692 98.5613 23.8774ZM89.1429 53.857C89.5409 52.1325 90.3368 50.01 91.398 47.6223C93.5204 42.7141 96.8368 36.7447 99.7551 31.8366C99.8878 31.5713 100.02 31.306 100.153 31.0407L101.347 29.1835L102.541 31.0407C102.674 31.306 102.806 31.5713 102.939 31.8366C105.459 36.2141 111.959 47.6223 113.551 53.857L113.949 55.4488H88.7449L89.1429 53.857ZM117 58.7651C116.469 62.4794 114.48 65.7958 111.827 68.3162C109.041 70.8366 105.327 72.2958 101.347 72.2958C93.5204 72.2958 86.7551 66.459 85.5613 58.7651L85.296 57.306H117.265L117 58.7651Z" fill="#5BCEAE"/>
</svg>
