<svg width="790" height="593" viewBox="0 0 790 593" fill="none" xmlns="http://www.w3.org/2000/svg">
<circle cx="101.5" cy="144.5" r="9.5" fill="#95C53D" fill-opacity="0.4"/>
<circle cx="763.5" cy="153.5" r="9.5" fill="#95C53D" fill-opacity="0.4"/>
<circle cx="513" cy="325" r="9" fill="#95C53D" fill-opacity="0.4"/>
<circle cx="434" cy="382" r="9" fill="#95C53D" fill-opacity="0.4"/>
<circle cx="9" cy="373" r="9" fill="#95C53D" fill-opacity="0.4"/>
<circle cx="264" cy="363" r="9" fill="#95C53D" fill-opacity="0.4"/>
<circle cx="417" cy="387" r="3" fill="#95C53D" fill-opacity="0.4"/>
<circle cx="291" cy="364" r="3" fill="#95C53D" fill-opacity="0.4"/>
<circle cx="31" cy="382" r="3" fill="#95C53D" fill-opacity="0.4"/>
<circle cx="387" cy="526" r="3" fill="#95C53D" fill-opacity="0.4"/>
<circle cx="373" cy="535" r="3" fill="#95C53D" fill-opacity="0.4"/>
<circle cx="363" cy="23" r="3" fill="#95C53D" fill-opacity="0.4"/>
<circle cx="750" cy="169" r="3" fill="#95C53D" fill-opacity="0.4"/>
<circle cx="739" cy="449" r="3" fill="#95C53D" fill-opacity="0.4"/>
<circle cx="136.5" cy="66.5" r="4.5" fill="#95C53D" fill-opacity="0.4"/>
<circle cx="353.5" cy="36.5" r="4.5" fill="#95C53D" fill-opacity="0.4"/>
<circle cx="443.5" cy="4.5" r="4.5" fill="#95C53D" fill-opacity="0.4"/>
<circle cx="750.5" cy="443.5" r="4.5" fill="#95C53D" fill-opacity="0.4"/>
<circle cx="785.5" cy="158.5" r="4.5" fill="#95C53D" fill-opacity="0.4"/>
<circle cx="456.5" cy="396.5" r="4.5" fill="#95C53D" fill-opacity="0.4"/>
<circle cx="308.5" cy="180.5" r="4.5" fill="#95C53D" fill-opacity="0.4"/>
<circle cx="161.5" cy="560.5" r="4.5" fill="#95C53D" fill-opacity="0.4"/>
<circle cx="637.5" cy="588.5" r="4.5" fill="#95C53D" fill-opacity="0.4"/>
<circle cx="85.5" cy="156.5" r="4.5" fill="#95C53D" fill-opacity="0.4"/>
<circle cx="503.5" cy="299.5" r="4.5" fill="#95C53D" fill-opacity="0.4"/>
</svg>
