<svg width="98" height="98" viewBox="0 0 98 98" fill="none" xmlns="http://www.w3.org/2000/svg">
<path opacity="0.6" d="M70.0999 61.9L68.3999 48.6L64.5999 51.6V47.9L57.7999 51.6V42.2L48.2999 44.5L49.8999 37C47.0999 37.9 44.5999 39.3 42.2999 41.2C37.8999 37.3 33.7999 35.3 29.8999 35.3C24.6999 35.3 19.6999 37.4 16.0999 41.1C15.0999 42.1 14.2999 43.1 13.5999 44.2C8.79995 51.7 9.39995 61.6 15.2999 68.5C15.4999 68.8 15.7999 69.1 16.0999 69.3L39.0999 91.3L39.3999 91.6C40.6999 92.9 42.5999 93.1 44.0999 92.4C44.4999 92.2 44.8999 92 45.1999 91.6L68.4999 69.2C69.4999 68.2 70.2999 67.1 70.9999 66C72.7999 63.2 73.7999 60.1 74.0999 56.9L70.0999 61.9ZM53.2999 74.9L42.2999 64L31.3999 74.9L29.2999 72.9L40.2999 61.9L29.2999 50.9L31.3999 48.8L42.3999 59.8L53.3999 48.8L55.3999 50.9L44.3999 61.9L55.2999 72.9L53.2999 74.9Z" fill="#95C53D"/>
<path d="M83.9998 75.7C83.8998 75.5 83.8998 75.3 84.0998 75.2C84.2998 75 84.5998 75 84.7998 75.1L91.4998 80.6C91.6998 80.8 91.6998 81.1 91.5998 81.3C91.3998 81.5 91.0998 81.5 90.8998 81.4L84.1998 75.9C84.0998 75.8 83.9998 75.7 83.9998 75.7Z" fill="#5BCEAE"/>
<path d="M25.6001 12.8C25.5001 13 25.4001 13.1 25.2001 13.1C24.9001 13.1 24.7001 12.9 24.6001 12.7L23.6001 4.1C23.6001 3.8 23.8001 3.6 24.0001 3.5C24.3001 3.5 24.5001 3.7 24.6001 3.9L25.6001 12.5C25.6001 12.6 25.6001 12.7 25.6001 12.8Z" fill="#5BCEAE"/>
<path d="M85.7999 85.5C85.7999 85.7 85.5999 85.9 85.4999 85.9C85.1999 86 84.9999 85.8 84.8999 85.6L82.1999 77.4C82.0999 77.1 82.2999 76.9 82.4999 76.8C82.7999 76.7 82.9999 76.9 83.0999 77.1L85.7999 85.3C85.7999 85.4 85.7999 85.5 85.7999 85.5Z" fill="#5BCEAE"/>
<path d="M23.8998 15.8C23.9998 16 23.8998 16.2 23.7998 16.3C23.5998 16.5 23.2998 16.5 23.0998 16.3L16.6998 10.4C16.4998 10.2 16.4998 9.89999 16.6998 9.69999C16.8998 9.49999 17.1998 9.49999 17.3998 9.69999L23.7998 15.6C23.7998 15.7 23.7998 15.8 23.8998 15.8Z" fill="#5BCEAE"/>
<g opacity="0.5">
<path opacity="0.5" d="M21.6 18.9C21.5 20.2 20.4 21.2 19 21.1C17.6 21 16.7 19.9 16.8 18.5C16.9 17.2 18 16.2 19.4 16.3C20.7 16.4 21.7 17.6 21.6 18.9ZM17.8 18.6C17.7 19.4 18.3 20 19.1 20.1C19.9 20.2 20.5 19.6 20.6 18.8C20.7 18 20.1 17.4 19.3 17.3C18.5 17.2 17.9 17.8 17.8 18.6Z" fill="#95C53D"/>
</g>
<g opacity="0.5">
<path opacity="0.5" d="M35.7 11.2C35.6 12.5 34.5 13.5 33.1 13.4C31.8 13.3 30.8 12.2 30.9 10.8C31 9.4 32.1 8.5 33.5 8.6C34.8 8.8 35.8 9.9 35.7 11.2ZM31.9 11C31.8 11.8 32.4 12.4 33.2 12.5C34 12.6 34.6 12 34.7 11.2C34.8 10.4 34.2 9.8 33.4 9.7C32.7 9.6 32 10.2 31.9 11Z" fill="#95C53D"/>
</g>
<g opacity="0.5">
<path opacity="0.5" d="M93.4998 75.6C93.3998 76.9 92.2998 77.9 90.8998 77.8C89.5998 77.7 88.5998 76.6 88.6998 75.2C88.7998 73.9 89.8998 72.9 91.2998 73C92.5998 73.2 93.5998 74.3 93.4998 75.6ZM89.7998 75.3C89.6998 76.1 90.2998 76.7 91.0998 76.8C91.8998 76.9 92.4998 76.3 92.5998 75.5C92.6998 74.7 92.0998 74.1 91.2998 74C90.4998 74 89.7998 74.6 89.7998 75.3Z" fill="#95C53D"/>
</g>
<g opacity="0.5">
<path opacity="0.5" d="M86.8002 39.9C86.7002 41.2 85.6002 42.2 84.2002 42.1C83.0002 42 82.0002 40.8 82.1002 39.5C82.2002 38.2 83.3002 37.2 84.7002 37.3C86.1002 37.4 86.9002 38.5 86.8002 39.9ZM83.1002 39.6C83.0002 40.4 83.6002 41 84.4002 41.1C85.2002 41.2 85.8002 40.6 85.9002 39.8C86.0002 39 85.4002 38.4 84.6002 38.3C83.8002 38.2 83.1002 38.8 83.1002 39.6Z" fill="#95C53D"/>
</g>
<path opacity="0.2" d="M88.4002 53.6C88.3002 53.4 88.2002 53.2 88.0002 52.9C87.7002 52.5 87.5002 52.1 87.2002 51.7C86.6002 50.9 85.9002 50.3 85.3002 49.8C84.9002 49.5 84.5002 49.2 84.1002 49C80.7002 47 76.6002 46.4 73.1002 42.4C73.0002 42.3 72.9002 42.1 72.8002 42C72.7002 41.9 72.6002 41.7 72.5002 41.6C72.3002 41.3 72.0002 41 71.8002 40.7C71.4002 40 71.0002 39.4 70.7002 38.8C70.5002 38.4 70.3002 38.1 70.2002 37.7C68.2002 32.6 70.0002 28.6 67.1002 23.7C66.9002 23.3 66.6002 22.9 66.3002 22.5C66.1002 22.3 66.0002 22 65.8002 21.8C65.6002 21.6 65.4002 21.4 65.3002 21.2C58.4002 13.5 42.9002 11 31.6002 16.7C30.5002 17.3 29.4002 17.9 28.4002 18.6C28.0002 18.9 27.6002 19.1 27.3002 19.4C26.4002 20.1 25.6002 20.8 24.8002 21.5C24.5002 21.8 24.1002 22.1 23.8002 22.5C23.5002 22.8 23.2002 23.2 22.9002 23.5C22.6002 23.8 22.4002 24.1 22.1002 24.4C20.6002 26.3 19.2002 28.4 18.1002 30.7C17.9002 31 17.8002 31.3 17.7002 31.6C17.5002 31.9 17.4002 32.3 17.3002 32.6C17.0002 33.2 16.8002 33.8 16.5002 34.4C15.4002 37.2 14.6002 40.1 14.0002 43.1C13.9002 43.5 13.9002 43.8 13.8002 44.2C13.8002 44.3 13.8002 44.4 13.8002 44.5C12.5002 52.4 13.1002 60.7 15.3002 67.7C15.4002 67.9 15.5002 68.2 15.6002 68.5C16.0002 69.6 16.5002 71.1 17.3002 72.8C17.5002 73.2 17.7002 73.7 18.0002 74.2C18.1002 74.4 18.2002 74.5 18.2002 74.7C18.5002 75.2 18.7002 75.6 19.0002 76.1C20.5002 78.7 22.6002 81.4 25.4002 84C25.7002 84.3 26.0002 84.5 26.3002 84.8C26.7002 85.1 27.1002 85.4 27.5002 85.8C28.1002 86.3 28.8002 86.7 29.5002 87.2C30.1002 87.6 30.6002 87.9 31.2002 88.2C33.8002 89.6 36.5002 90.7 39.4002 91.5C41.1002 92 42.8002 92.3 44.5002 92.6C52.1002 93.8 60.2002 92.9 67.3002 90.4H67.4002C67.5002 90.4 67.7002 90.3 67.8002 90.3C68.0002 90.2 68.1002 90.2 68.3002 90.1C76.7002 87 83.8002 81.6 87.3002 74.5C88.2002 72.6 89.1002 70.1 89.7002 67.4C89.8002 67.1 89.8002 66.8 89.9002 66.6C90.0002 66.3 90.0002 65.9 90.1002 65.6C90.5002 61.5 90.3002 57.1 88.4002 53.6ZM42.3002 63.9L31.4002 74.9L29.3002 72.9L40.3002 61.9L29.3002 50.9L31.4002 48.8L42.4002 59.8L53.4002 48.8L55.4002 50.9L44.4002 61.9L55.3002 72.9L53.2002 74.9L42.3002 63.9Z" fill="#5BCEAE"/>
<path d="M79 34.9C78.8 34.9 78.6 34.8 78.6 34.6C78.5 34.3 78.6 34.1 78.9 34L87 31C87.3 30.9 87.5 31 87.6 31.3C87.7 31.6 87.6 31.8 87.3 31.9L79.2 34.9C79.1 34.9 79.1 34.9 79 34.9Z" fill="#5BCEAE"/>
<path d="M75.6001 34C75.4001 34.1 75.2001 34.1 75.1001 34C74.9001 33.9 74.8001 33.6 74.9001 33.3L79.1001 25.7C79.2001 25.5 79.5001 25.4 79.8001 25.5C80.0001 25.6 80.1001 25.9 80.0001 26.2L75.8001 33.8C75.7001 33.9 75.7001 33.9 75.6001 34Z" fill="#5BCEAE"/>
</svg>
