<svg width="98" height="98" viewBox="0 0 98 98" fill="none" xmlns="http://www.w3.org/2000/svg">
<path opacity="0.2" d="M84.0998 54.8C83.9998 54.6 83.8998 54.4 83.6998 54.1C83.3998 53.7 83.1999 53.3 82.8998 52.9C82.2999 52.1 81.5998 51.5 80.9998 51C80.5998 50.7 80.1999 50.4 79.7999 50.2C79.1999 49.9 78.5998 49.6 77.9998 49.3C74.9998 47.9 71.5998 46.9 68.6998 43.7C68.5998 43.6 68.4998 43.4 68.3998 43.3C68.2998 43.2 68.1998 43 68.0998 42.9C67.9998 42.8 67.8998 42.7 67.8998 42.6L47.9998 62.4L36.9998 51.4L39.1998 49.2L47.9998 58L66.0998 39.8C65.9998 39.5 65.7998 39.2 65.6998 38.9C64.2998 35.5 64.6998 32.6 64.1998 29.5C63.9998 28 63.4998 26.5 62.5998 24.8C62.3998 24.4 62.0998 24 61.7998 23.6C61.5998 23.4 61.4998 23.1 61.2998 22.9C61.0998 22.7 60.9998 22.5 60.7998 22.3C53.8998 14.6 38.3998 12.1 27.0998 17.8C25.9998 18.4 24.8998 19 23.8998 19.7C23.4998 20 23.0998 20.2 22.7998 20.5C21.8998 21.2 21.0998 21.9 20.2998 22.6C19.9998 22.9 19.5998 23.2 19.2998 23.6C18.9998 23.9 18.6998 24.3 18.3998 24.6C18.0998 24.9 17.8998 25.2 17.5998 25.6C16.0998 27.5 14.6998 29.6 13.5998 31.9C13.3998 32.2 13.2998 32.5 13.1998 32.8C13.0998 33.1 12.8998 33.5 12.7998 33.8C12.4998 34.4 12.2998 35 11.9998 35.6C10.8998 38.4 10.0998 41.3 9.49984 44.3C9.39984 44.8 9.29984 45.2 9.29984 45.7C8.09984 53.8 8.59984 62 10.7998 69C11.0998 70.1 11.6998 71.9 12.6998 74C12.8998 74.4 13.0998 74.9 13.3998 75.4C13.4998 75.6 13.5998 75.7 13.5998 75.9C13.8998 76.4 14.0998 76.8 14.3998 77.3C15.8998 79.9 17.9998 82.6 20.7998 85.2C21.0998 85.5 21.3998 85.8 21.7998 86C22.1998 86.3 22.5998 86.6 22.9998 87C23.5998 87.5 24.2998 87.9 24.9998 88.4C25.5998 88.8 26.0998 89.1 26.6998 89.4C37.3998 95.4 51.1998 95.7 62.6998 91.7H62.7998C62.8998 91.7 63.0998 91.6 63.1998 91.6C63.3998 91.5 63.4998 91.5 63.6998 91.4C72.0998 88.3 79.1998 82.9 82.6998 75.8C83.5998 73.9 84.4998 71.4 85.0998 68.8C85.1998 68.5 85.1999 68.2 85.2999 68C85.3998 67.7 85.3998 67.3 85.4998 67C86.1998 62.7 85.9998 58.3 84.0998 54.8Z" fill="#5BCEAE"/>
<path opacity="0.6" d="M73.3998 33.9C71.5998 32 69.3998 30.7 66.8998 30C66.0998 29.8 65.1998 29.6 64.2998 29.5C63.7998 29.5 63.2998 29.4 62.8998 29.4C58.4998 29.4 54.2998 31 50.8998 33.9C47.0998 30.5 43.5998 28.8 40.1998 28.8C35.6998 28.8 31.3998 30.6 28.2998 33.8C21.7998 40.6 21.7998 51.3 28.2998 58.1L48.2998 77.3C49.6998 78.7 51.8998 78.7 53.2998 77.3L73.3998 58C74.1998 57.2 74.8998 56.2 75.5998 55.3C76.7998 53.4 77.5998 51.3 77.9998 49.2C79.0998 43.9 77.4998 38.2 73.3998 33.9ZM47.9998 62.4L36.9998 51.4L39.1998 49.2L47.9998 58L67.9998 38L70.1998 40.2L67.8998 42.6L47.9998 62.4Z" fill="#95C53D"/>
<path d="M73.0999 66.8C72.9999 66.6 72.9999 66.4 73.1999 66.3C73.3999 66.1 73.6999 66.1 73.8999 66.2L80.5999 71.7C80.7999 71.9 80.7999 72.2 80.6999 72.4C80.4999 72.6 80.1999 72.6 79.9999 72.5L73.1999 67C73.0999 66.9 73.0999 66.9 73.0999 66.8Z" fill="#5BCEAE"/>
<path d="M24.1001 14.9C24.0001 15.1 23.9001 15.2 23.7001 15.2C23.4001 15.2 23.2001 15 23.1001 14.8L22.1001 6.2C22.1001 5.9 22.3001 5.7 22.5001 5.6C22.8001 5.6 23.0001 5.8 23.0001 6L24.0001 14.6C24.1001 14.7 24.1001 14.8 24.1001 14.9Z" fill="#5BCEAE"/>
<path d="M74.9 76.7C74.9 76.9 74.7 77.1 74.6 77.1C74.3 77.2 74.1 77 74 76.8L71.3 68.6C71.2 68.3 71.4 68.1 71.6 68C71.9 67.9 72.1 68.1 72.2 68.3L74.9 76.5C74.9 76.5 74.9 76.6 74.9 76.7Z" fill="#5BCEAE"/>
<path d="M22.3998 17.9C22.4998 18.1 22.3998 18.3 22.2998 18.4C22.0998 18.6 21.7998 18.6 21.5998 18.4L15.1998 12.5C14.9998 12.3 14.9998 12 15.1998 11.8C15.3998 11.6 15.6998 11.6 15.8998 11.8L22.2998 17.7C22.2998 17.8 22.3998 17.9 22.3998 17.9Z" fill="#5BCEAE"/>
<path d="M80.5 28.2C80.3 28.2 80.1 28.1 80.1 27.9C80 27.6 80.1 27.4 80.4 27.3L88.5 24.3C88.8 24.2 89 24.3 89.1 24.6C89.2 24.9 89.1 25.1 88.8 25.2L80.7 28.2C80.6 28.2 80.5 28.3 80.5 28.2Z" fill="#5BCEAE"/>
<path d="M77.1001 27.3C76.9001 27.4 76.7001 27.4 76.6001 27.3C76.4001 27.2 76.3001 26.9 76.4001 26.6L80.6001 19C80.7001 18.8 81.0001 18.7 81.3001 18.8C81.5001 18.9 81.6001 19.2 81.5001 19.5L77.3001 27.1C77.2001 27.2 77.1001 27.3 77.1001 27.3Z" fill="#5BCEAE"/>
<g opacity="0.5">
<path opacity="0.5" d="M20.0999 21C19.9999 22.3 18.8999 23.3 17.4999 23.2C16.1999 23.1 15.1999 22 15.2999 20.6C15.3999 19.3 16.4999 18.3 17.8999 18.4C19.1999 18.5 20.1999 19.7 20.0999 21ZM16.2999 20.7C16.1999 21.5 16.7999 22.1 17.5999 22.2C18.3999 22.3 18.9999 21.7 19.0999 20.9C19.1999 20.1 18.5999 19.5 17.7999 19.4C17.0999 19.4 16.3999 19.9 16.2999 20.7Z" fill="#95C53D"/>
</g>
<g opacity="0.5">
<path opacity="0.5" d="M34.2 13.3C34.1 14.6 33 15.6 31.6 15.5C30.3 15.4 29.3 14.3 29.4 12.9C29.5 11.5 30.6 10.6 32 10.7C33.3 10.9 34.3 12 34.2 13.3ZM30.4 13.1C30.3 13.9 30.9 14.5 31.7 14.6C32.5 14.7 33.1 14.1 33.2 13.3C33.3 12.5 32.7 11.9 31.9 11.8C31.2 11.7 30.5 12.3 30.4 13.1Z" fill="#95C53D"/>
</g>
<g opacity="0.5">
<path opacity="0.5" d="M82.5999 66.8C82.4999 68.1 81.3999 69.1 79.9999 69C78.6999 68.9 77.6999 67.8 77.7999 66.4C77.8999 65.1 78.9999 64.1 80.3999 64.2C81.6999 64.3 82.6999 65.5 82.5999 66.8ZM78.7999 66.5C78.6999 67.3 79.2999 67.9 80.0999 68C80.8999 68.1 81.4999 67.5 81.5999 66.7C81.6999 65.9 81.0999 65.3 80.2999 65.2C79.5999 65.2 78.8999 65.7 78.7999 66.5Z" fill="#95C53D"/>
</g>
<g opacity="0.5">
<path opacity="0.5" d="M87.4999 32.6C87.3999 33.9 86.3 34.9 84.9 34.8C83.5 34.7 82.5999 33.6 82.6999 32.2C82.7999 30.9 83.9 29.9 85.3 30C86.6 30.2 87.5999 31.3 87.4999 32.6ZM83.6999 32.3C83.5999 33.1 84.1999 33.7 84.9999 33.8C85.7999 33.9 86.3999 33.3 86.4999 32.5C86.5999 31.7 85.9999 31.1 85.1999 31C84.3999 30.9 83.7999 31.6 83.6999 32.3Z" fill="#95C53D"/>
</g>
<path opacity="0.6" d="M31.3002 72.2C30.6002 71.4 29.6002 70.9 28.6002 70.6C28.1002 70.5 27.5002 70.4 26.9002 70.4C25.1002 70.4 23.3002 71.1 21.9002 72.3C20.3002 70.9 18.9002 70.2 17.5002 70.2C15.6002 70.2 13.9002 70.9 12.6002 72.3C10.8002 74.2 10.2002 76.9 10.8002 79.3H17.3002L19.1002 75.9C19.1002 75.8 19.2002 75.8 19.3002 75.8C19.4002 75.8 19.5002 75.9 19.5002 76L21.8002 81.8L24.1002 74.5C24.1002 74.4 24.2002 74.3 24.3002 74.3C24.4002 74.3 24.5002 74.4 24.5002 74.5L25.8002 78.6L26.7002 77.3C26.9002 77 27.0002 77 27.1002 77C27.2002 77 27.3002 77.1 27.3002 77.1L28.3002 78.8H33.1002C33.6002 76.5 33.0002 74 31.3002 72.2ZM28.2002 79.3C28.1002 79.3 28.0002 79.3 28.0002 79.2L27.0002 77.7L26.0002 79.1C25.9002 79.2 25.8002 79.2 25.8002 79.2C25.7002 79.2 25.6002 79.1 25.6002 79L24.4002 75.2L22.2002 82.4C22.2002 82.5 22.1002 82.6 22.0002 82.6C21.9002 82.6 21.8002 82.5 21.8002 82.4L19.4002 76.4L17.8002 79.5C17.8002 79.6 17.7002 79.6 17.6002 79.6H11.0002C11.3002 80.5 11.9002 81.4 12.6002 82.2L20.9002 90.2C21.5002 90.8 22.4002 90.8 23.0002 90.2L31.3002 82.2C31.6002 81.8 31.9002 81.5 32.2002 81.1C32.6002 80.5 32.8002 79.9 33.0002 79.3H28.2002Z" fill="#95C53D"/>
</svg>
