<svg width="370" height="80" viewBox="0 0 370 80" fill="none" xmlns="http://www.w3.org/2000/svg">
<path d="M63.1164 2.42023H0V66.1145C6.69034 34.2674 31.5582 9.17182 63.1164 2.42023Z" fill="#57596B"/>
<path d="M70.9427 59.7451H56.8047V73.8852H70.9427V59.7451Z" fill="#95C53D"/>
<path d="M54.1539 50.5731L50.9981 54.0126L47.2111 45.3502L42.5405 50.5731H26.6352V43.5667H40.647V29.2992H56.8048V43.4394H70.9429V6.87885C36.1026 11.0827 8.58389 38.8534 4.41821 74.0126H40.647V59.7451H26.6352V52.7387H43.5504L46.58 49.4266L50.3669 57.9617L55.1638 52.7387H70.9429V50.4457H54.1539V50.5731Z" fill="#95C53D"/>
<path d="M4.9231 20.7642V19.9999C5.42803 19.9999 5.80672 19.8725 5.93296 19.7451C6.05919 19.6177 6.18542 19.2355 6.18542 18.726V10.4457C6.18542 9.93616 6.05919 9.554 5.93296 9.42661C5.80672 9.29922 5.42803 9.17183 4.9231 9.17183V8.4075H10.0986C13.002 8.4075 14.3906 9.42661 14.3906 11.5922C14.3906 12.9935 13.6332 13.8852 11.9921 14.2674V14.3948C13.002 14.5222 13.7594 14.9043 14.2643 15.4139C14.7693 15.9234 15.0217 16.6878 15.0217 17.5795C15.0217 18.5986 14.643 19.4903 13.8856 19.9999C13.1282 20.5094 12.1184 20.8916 10.7298 20.8916H4.9231V20.7642ZM8.45761 13.8852H9.84617C10.6036 13.8852 11.1085 13.7578 11.4872 13.3757C11.7397 12.9935 11.9921 12.4839 11.9921 11.7196C11.9921 10.9553 11.8659 10.3183 11.4872 9.93616C11.2347 9.68139 10.6036 9.42661 9.84617 9.42661H8.45761V13.8852ZM8.45761 19.6177H10.2249C11.1085 19.6177 11.6134 19.4903 11.9921 19.1081C12.3708 18.726 12.4971 18.089 12.4971 17.1973C12.4971 16.3056 12.3708 15.796 11.9921 15.4139C11.6134 15.0317 10.9823 14.9043 10.0986 14.9043H8.45761V19.6177Z" fill="white"/>
<path d="M19.8185 10.7005L17.2939 13.6304L20.7022 19.1081C20.9546 19.4903 21.0809 19.6177 21.3333 19.7451C21.5858 19.8725 21.8383 19.8725 22.217 19.9999V20.7642H19.0612L15.2742 14.5222L18.5562 10.4457C18.8087 10.0636 18.9349 9.80878 18.9349 9.68139C18.9349 9.29922 18.6825 9.17183 18.0513 9.17183V8.4075H21.9645V9.17183C21.5858 9.17183 21.2071 9.29922 20.9546 9.554C20.7022 9.68139 20.3235 10.0636 19.8185 10.7005Z" fill="white"/>
<path d="M111.59 6.87891V8.28018C110.454 8.40757 109.696 8.53496 109.318 8.91712C108.939 9.29929 108.813 9.93623 108.939 10.9553L110.327 27.0063C110.454 28.1528 110.58 28.7897 110.959 29.1719C111.211 29.5541 111.842 29.8088 112.852 29.8088V31.2101H103.511V29.8088C104.647 29.8088 105.404 29.5541 105.657 29.2993C105.909 28.9171 106.036 28.2802 105.909 27.2611L104.899 15.1592C104.773 14.14 104.773 12.9936 104.773 11.7197V10.9553H104.647C104.395 12.484 104.142 13.7579 103.763 14.9044L98.9665 31.3375H96.1894L91.3925 15.7961C90.8876 14.3948 90.6351 12.7388 90.3827 10.9553H90.1302C90.1302 11.4649 90.004 13.1209 89.8777 15.6687L89.2466 27.2611C89.2466 28.2802 89.2466 28.9171 89.499 29.2993C89.7515 29.6814 90.5089 29.8088 91.645 29.8088V31.2101H84.1973V29.8088C85.2071 29.8088 85.8383 29.5541 86.0908 29.1719C86.3432 28.7897 86.5957 28.0254 86.5957 27.0063L87.7318 10.9553C87.858 9.93623 87.7318 9.29929 87.3531 8.91712C87.1006 8.53496 86.217 8.28018 85.0809 8.28018V6.87891H93.0336L97.4517 20.8916C97.9566 22.2929 98.2091 23.8216 98.3353 25.3502H98.4616C98.714 23.5668 98.9665 22.1655 99.3452 20.8916L103.385 6.87891H111.59V6.87891Z" fill="#57596B"/>
<path d="M114.872 31.2101V29.8088C115.882 29.8088 116.639 29.5541 116.892 29.2993C117.27 28.9171 117.396 28.2802 117.396 27.2611V10.9553C117.396 9.93623 117.27 9.29929 116.892 8.91712C116.513 8.53496 115.882 8.40757 114.872 8.40757V6.87891H131.913L132.292 12.484H130.146C129.767 11.0827 129.389 10.191 128.884 9.68145C128.379 9.1719 127.874 8.91712 126.738 8.91712H122.067V17.5795H124.718C125.854 17.5795 126.611 17.4522 126.99 17.07C127.369 16.6878 127.621 16.0509 127.748 15.0318H129.641V22.1655H127.748C127.621 21.1464 127.495 20.5095 126.99 20.1273C126.611 19.7451 125.854 19.6178 124.844 19.6178H122.193V29.0445H127.243C128.505 29.0445 129.389 28.7897 129.894 28.1528C130.398 27.6432 130.651 26.4967 130.777 24.8407H132.923V31.0827H114.872V31.2101Z" fill="#57596B"/>
<path d="M136.963 37.5795H134.438V29.0445H135.827C136.71 28.535 137.468 27.6432 138.225 26.3694C138.982 24.9681 139.614 23.0572 139.866 20.7643C140.245 18.4713 140.371 15.1592 140.371 10.828C140.371 9.80884 140.245 9.1719 139.866 8.78973C139.487 8.40757 138.856 8.28018 137.846 8.28018V6.87891H157.16V8.40757C156.15 8.40757 155.393 8.66235 155.14 8.91712C154.761 9.29929 154.635 9.93623 154.635 10.9553V27.2611C154.635 28.0254 154.761 28.535 155.14 28.7897C155.393 29.0445 156.024 29.1719 157.034 29.1719H157.917V31.3375L157.034 37.7069H154.635C154.635 35.1592 154.509 33.3757 154.383 32.6114C154.257 31.7197 153.752 31.3375 153.12 31.3375H139.361C138.73 31.3375 138.099 31.8471 137.72 32.9936C137.215 34.1401 136.963 35.6687 136.963 37.5795ZM139.866 28.9171V29.1719H150.091V8.91712H142.896C142.896 16.5604 142.517 21.7834 141.633 24.5859C141.255 26.3694 140.623 27.7706 139.866 28.9171Z" fill="#57596B"/>
<path d="M176.095 12.7388H175.969C175.59 13.8853 174.706 15.6687 173.318 18.0891L167.637 28.1528C167.259 28.7897 167.132 29.8088 167.132 31.2101H159.937V29.8088C160.947 29.8088 161.704 29.5541 161.957 29.2993C162.335 28.9171 162.462 28.2802 162.462 27.2611V10.9553C162.462 9.93623 162.335 9.29929 161.957 8.91712C161.578 8.53496 160.947 8.40757 159.937 8.40757V6.87891H169.531V8.40757C168.521 8.40757 167.89 8.66234 167.511 8.91712C167.132 9.29929 167.006 9.93623 167.006 10.9553V19.6178C167.006 21.656 166.88 23.5668 166.754 25.3502H166.88C167.259 24.3311 168.142 22.5477 169.657 19.9999L175.337 10.0636C175.716 9.42668 175.842 8.40757 175.842 7.00629H183.038V8.53496C182.028 8.53496 181.27 8.78973 181.018 9.04451C180.639 9.42668 180.513 10.0636 180.513 11.0827V27.3885C180.513 28.4076 180.639 29.0445 181.018 29.4267C181.397 29.8088 182.028 29.9362 183.038 29.9362V31.3375H173.444V29.9362C174.454 29.9362 175.085 29.6814 175.464 29.4267C175.842 29.0445 175.969 28.4076 175.969 27.3885V18.5986C175.716 16.5604 175.842 14.6496 176.095 12.7388Z" fill="#57596B"/>
<path d="M186.951 10.9553C186.951 9.93623 186.824 9.29929 186.446 8.91712C186.067 8.53496 185.436 8.40757 184.426 8.40757V6.87891H194.02V8.40757C193.01 8.40757 192.379 8.66235 192 8.91712C191.621 9.1719 191.495 9.93623 191.495 10.9553V17.3248C191.495 19.8725 192.757 21.1464 195.156 21.1464C196.923 21.1464 198.69 20.6369 200.458 19.7451V10.9553C200.458 9.93623 200.331 9.29929 199.953 8.91712C199.574 8.53496 198.943 8.40757 197.933 8.40757V6.87891H207.4V8.40757C206.391 8.40757 205.633 8.66235 205.381 8.91712C205.002 9.29929 204.876 9.93623 204.876 10.9553V27.2611C204.876 28.2802 205.002 28.9171 205.381 29.2993C205.759 29.6815 206.391 29.8088 207.4 29.8088V31.2101H197.68V29.8088C198.69 29.8088 199.448 29.5541 199.7 29.2993C200.079 28.9171 200.205 28.2802 200.205 27.2611V21.9108C197.933 23.4394 195.787 24.2037 193.515 24.2037C191.369 24.2037 189.602 23.6942 188.465 22.5477C187.329 21.4012 186.698 19.8725 186.698 17.8343V10.9553H186.951Z" fill="#57596B"/>
<path d="M225.957 27.2611V19.6178H216.868V27.2611C216.868 28.2802 216.994 28.9171 217.373 29.2993C217.751 29.6815 218.383 29.8088 219.393 29.8088V31.2101H209.673V29.8088C210.682 29.8088 211.44 29.5541 211.692 29.2993C212.071 28.9171 212.197 28.2802 212.197 27.2611V10.9553C212.197 9.93623 212.071 9.29929 211.692 8.91712C211.314 8.53496 210.682 8.40757 209.673 8.40757V6.87891H219.393V8.40757C218.383 8.40757 217.625 8.66235 217.373 8.91712C216.994 9.29929 216.868 9.93623 216.868 10.9553V17.4522H225.957V10.9553C225.957 9.93623 225.83 9.29929 225.452 8.91712C225.073 8.53496 224.442 8.40757 223.432 8.40757V6.87891H233.152V8.40757C232.142 8.40757 231.385 8.66235 231.132 8.91712C230.753 9.29929 230.627 9.93623 230.627 10.9553V27.2611C230.627 28.2802 230.753 28.9171 231.132 29.2993C231.511 29.6815 232.142 29.8088 233.152 29.8088V31.2101H223.432V29.8088C224.442 29.8088 225.199 29.5541 225.452 29.2993C225.704 28.9171 225.957 28.2802 225.957 27.2611Z" fill="#57596B"/>
<path d="M251.582 12.7388H251.456C251.077 13.8853 250.193 15.6687 248.805 18.0891L243.124 28.1528C242.746 28.7897 242.619 29.8088 242.619 31.2101H235.424V29.8088C236.434 29.8088 237.191 29.5541 237.444 29.2993C237.822 28.9171 237.949 28.2802 237.949 27.2611V10.9553C237.949 9.93623 237.822 9.29929 237.444 8.91712C237.065 8.53496 236.434 8.40757 235.424 8.40757V6.87891H245.018V8.40757C244.008 8.40757 243.377 8.66234 242.998 8.91712C242.619 9.29929 242.493 9.93623 242.493 10.9553V19.6178C242.493 21.656 242.367 23.5668 242.241 25.3502H242.367C242.746 24.3311 243.629 22.5477 245.144 19.9999L250.824 10.0636C251.203 9.42668 251.329 8.40757 251.329 7.00629H258.525V8.53496C257.515 8.53496 256.757 8.78973 256.505 9.04451C256.126 9.42668 256 10.0636 256 11.0827V27.3885C256 28.4076 256.126 29.0445 256.505 29.4267C256.884 29.8088 257.515 29.9362 258.525 29.9362V31.3375H248.678V29.9362C249.688 29.9362 250.32 29.6814 250.698 29.4267C251.077 29.0445 251.203 28.4076 251.203 27.3885V18.5986C251.203 16.5604 251.329 14.6496 251.582 12.7388Z" fill="#57596B"/>
<path d="M276.828 12.7389H276.702C276.323 13.8854 275.44 15.6688 274.051 18.0892L268.371 28.1529C267.992 28.7898 267.866 29.8089 267.866 31.2102H260.671V29.8089C261.681 29.8089 262.438 29.5541 262.69 29.2994C263.069 28.9172 263.195 28.2803 263.195 27.2611V10.9554C263.195 9.93631 263.069 9.29936 262.69 8.9172C262.312 8.53503 261.681 8.40764 260.671 8.40764V6.87898H270.264V8.40764C269.254 8.40764 268.623 8.66242 268.245 8.9172C267.866 9.29936 267.74 9.93631 267.74 10.9554V19.6178C267.74 21.6561 267.613 23.5669 267.487 25.3503H267.613C267.992 24.3312 268.876 22.5478 270.391 20L276.071 10.0637C276.45 9.42675 276.576 8.40764 276.576 7.00637H283.771V8.53503C282.761 8.53503 282.004 8.78981 281.751 9.04459C281.373 9.42675 281.247 10.0637 281.247 11.0828V27.3885C281.247 28.4076 281.373 29.0446 281.751 29.4268C282.13 29.8089 282.761 29.9363 283.771 29.9363V31.3376H274.178V29.9363C275.187 29.9363 275.819 29.6815 276.197 29.4268C276.576 29.0446 276.702 28.4076 276.702 27.3885V18.5987C276.576 16.5605 276.576 14.6497 276.828 12.7389ZM275.692 4.07643C274.682 4.96815 273.42 5.47771 272.032 5.47771C270.643 5.47771 269.381 4.96815 268.371 4.07643C267.235 3.18471 266.604 2.03822 266.225 0.764331L267.361 0C268.371 1.52866 269.886 2.29299 272.032 2.29299C274.051 2.29299 275.692 1.52866 276.702 0L277.965 0.764331C277.586 2.03822 276.828 3.18471 275.692 4.07643Z" fill="#57596B"/>
<path d="M107.677 80.0001H105.278C105.278 77.4523 105.152 75.6689 105.026 74.9045C104.899 74.0128 104.394 73.6307 103.763 73.6307H84.8284V72.2294C85.8382 72.2294 86.5956 71.9746 86.8481 71.7198C87.2268 71.3377 87.353 70.7007 87.353 69.6816V53.2485C87.353 52.2294 87.2268 51.5924 86.8481 51.2103C86.4694 50.8281 85.8382 50.7007 84.8284 50.7007V49.1721H94.5483V50.7007C93.5384 50.7007 92.781 50.9555 92.5286 51.2103C92.1499 51.5924 92.0236 52.2294 92.0236 53.2485V71.465H100.86V53.2485C100.86 52.2294 100.734 51.5924 100.355 51.2103C99.9763 50.8281 99.3451 50.7007 98.3353 50.7007V49.1721H108.055V50.7007C107.045 50.7007 106.288 50.9555 106.035 51.2103C105.783 51.4651 105.531 52.2294 105.531 53.2485V69.5542C105.531 70.3186 105.657 70.8281 105.909 71.0829C106.162 71.3377 106.793 71.465 107.677 71.465H108.56V73.6307L107.677 80.0001Z" fill="#57596B"/>
<path d="M110.454 73.6306V72.2294C111.463 72.2294 112.221 71.9746 112.473 71.7198C112.852 71.3377 112.978 70.7007 112.978 69.6816V53.2485C112.978 52.2294 112.852 51.5924 112.473 51.2103C112.095 50.8281 111.463 50.7007 110.454 50.7007V49.1721H127.495L127.874 54.7772H125.728C125.349 53.3759 124.97 52.4842 124.465 51.9746C123.96 51.4651 123.329 51.3377 122.193 51.3377H117.523V60.0001H120.174C121.31 60.0001 122.067 59.8727 122.446 59.4905C122.824 59.1084 123.077 58.4714 123.203 57.4523H125.097V64.5861H123.203C123.077 63.567 122.951 62.93 122.446 62.5478C122.067 62.1657 121.31 62.0383 120.3 62.0383H117.649V71.465H122.698C123.96 71.465 124.844 71.2103 125.349 70.5733C125.854 70.0638 126.106 68.9173 126.233 67.2612H128.379V73.5033H110.454V73.6306Z" fill="#57596B"/>
<path d="M146.935 69.6816V62.0383H137.846V69.6816C137.846 70.7007 137.973 71.3377 138.351 71.7198C138.73 72.102 139.361 72.2294 140.371 72.2294V73.6306H130.651V72.2294C131.661 72.2294 132.418 71.9746 132.671 71.7198C133.05 71.3377 133.176 70.7007 133.176 69.6816V53.2485C133.176 52.2294 133.05 51.5924 132.671 51.2103C132.292 50.8281 131.661 50.7007 130.651 50.7007V49.1721H140.371V50.7007C139.361 50.7007 138.604 50.9555 138.351 51.2103C137.973 51.5924 137.846 52.2294 137.846 53.2485V59.7453H146.935V53.2485C146.935 52.2294 146.809 51.5924 146.43 51.2103C146.052 50.8281 145.42 50.7007 144.41 50.7007V49.1721H154.13V50.7007C153.121 50.7007 152.363 50.9555 152.111 51.2103C151.732 51.5924 151.606 52.2294 151.606 53.2485V69.5542C151.606 70.5733 151.732 71.2103 152.111 71.5924C152.489 71.9746 153.121 72.102 154.13 72.102V73.5033H144.41V72.102C145.42 72.102 146.178 71.8472 146.43 71.5924C146.809 71.3377 146.935 70.5733 146.935 69.6816Z" fill="#57596B"/>
<path d="M156.15 49.1721H174.58L174.832 55.2867H172.686C172.308 53.6307 172.055 52.6116 171.677 52.102C171.298 51.5924 170.667 51.3377 169.657 51.3377H167.637V69.5542C167.637 70.5733 167.89 71.3377 168.268 71.5924C168.647 71.9746 169.404 72.102 170.54 72.102V73.5033H160.189V72.102C161.325 72.102 162.083 71.8472 162.462 71.5924C162.84 71.2103 163.093 70.5733 163.093 69.5542V51.3377H161.073C160.063 51.3377 159.306 51.5924 159.053 52.102C158.675 52.6116 158.422 53.6307 158.043 55.2867H155.897L156.15 49.1721Z" fill="#57596B"/>
<path d="M183.795 63.9491V69.5542C183.795 70.5733 184.047 71.3377 184.426 71.5924C184.805 71.9746 185.688 72.102 186.824 72.102V73.5033H176.726V72.102C177.736 72.102 178.493 71.8472 178.746 71.5924C179.124 71.2103 179.25 70.5733 179.25 69.5542V53.2485C179.25 52.2294 179.124 51.5924 178.746 51.2103C178.367 50.8281 177.736 50.7007 176.726 50.7007V49.1721H186.824C192.757 49.1721 195.661 51.5924 195.661 56.4332C195.661 58.7262 195.03 60.5096 193.641 61.9109C192.252 63.3122 190.107 63.9491 187.329 63.9491H183.795V63.9491ZM190.864 56.688C190.864 54.6498 190.485 53.2485 189.854 52.4842C189.223 51.7198 187.961 51.3377 186.193 51.3377H183.795V61.6561H186.572C188.087 61.6561 189.223 61.274 189.854 60.5096C190.485 59.8727 190.864 58.4714 190.864 56.688Z" fill="#57596B"/>
<path d="M212.197 61.9107H210.178V59.7451H212.702C214.217 59.7451 215.227 59.3629 215.984 58.4712C216.616 57.5795 216.994 56.433 216.994 55.0317C216.994 53.7578 216.616 52.8661 215.984 52.1018C215.353 51.3374 214.343 50.9553 213.081 50.9553C211.692 50.9553 210.683 51.3374 210.051 51.9744C209.42 52.6113 209.042 53.6304 208.789 55.0317H205.76V50.8279C206.517 50.3183 207.527 49.8088 208.915 49.4266C210.304 49.0444 211.566 48.9171 212.955 48.9171C215.732 48.9171 217.878 49.4266 219.393 50.4457C220.907 51.4648 221.665 52.9935 221.665 54.9043C221.665 56.3056 221.16 57.5795 220.276 58.5986C219.266 59.6177 218.004 60.2546 216.237 60.6368V60.7642C220.529 61.2737 222.801 63.312 222.801 66.7515C222.801 69.0444 221.917 70.8279 220.276 72.2292C218.635 73.503 216.363 74.14 213.333 74.14C211.692 74.14 210.178 73.8852 208.789 73.503C207.401 73.1209 206.264 72.6113 205.507 72.1018V67.3884H208.537C208.789 69.0444 209.168 70.1909 209.925 70.9553C210.556 71.7196 211.692 72.1018 213.333 72.1018C214.848 72.1018 216.111 71.5922 216.742 70.7005C217.373 69.8088 217.878 68.5349 217.878 67.1336C217.878 65.4776 217.499 64.2037 216.616 63.312C215.858 62.2928 214.343 61.9107 212.197 61.9107Z" fill="#57596B"/>
<path d="M225.83 80.0001H223.306V71.465H224.694C225.578 70.9555 226.335 70.0638 227.093 68.7899C227.85 67.3886 228.481 65.4778 228.734 63.1848C229.112 60.8918 229.239 57.5797 229.239 53.2485C229.239 52.2294 229.112 51.5924 228.734 51.2103C228.355 50.8281 227.724 50.7007 226.714 50.7007V49.1721H246.028V50.7007C245.018 50.7007 244.26 50.9555 244.008 51.2103C243.629 51.5924 243.503 52.2294 243.503 53.2485V69.5542C243.503 70.3186 243.629 70.8281 244.008 71.0829C244.26 71.3377 244.891 71.465 245.901 71.465H246.785V73.6307L245.901 80.0001H243.503C243.503 77.4523 243.377 75.6689 243.25 74.9045C243.124 74.0128 242.619 73.6307 241.988 73.6307H228.229C227.598 73.6307 226.966 74.1402 226.588 75.2867C225.957 76.4332 225.83 78.0893 225.83 80.0001ZM228.607 71.3377V71.5924H238.832V51.3377H231.637C231.637 58.981 231.258 64.2039 230.375 67.0064C229.996 68.7899 229.365 70.1912 228.607 71.3377Z" fill="#57596B"/>
<path d="M259.661 74.0127C256.253 74.0127 253.602 72.8663 251.708 70.7006C249.815 68.4077 248.931 65.4777 248.931 61.5287C248.931 57.3249 249.941 54.2675 251.835 52.1019C253.728 49.9363 256.379 48.7898 259.535 48.7898C262.943 48.7898 265.594 49.9363 267.487 52.2293C269.381 54.5223 270.265 57.707 270.265 61.6561C270.265 65.4777 269.381 68.535 267.487 70.7006C265.468 72.9936 262.943 74.0127 259.661 74.0127ZM259.535 50.9554C257.515 50.9554 256.126 51.7198 255.243 53.3758C254.359 55.0319 253.854 57.5796 253.854 61.2739C253.854 65.0956 254.359 67.7707 255.243 69.5542C256.126 71.3376 257.641 72.2293 259.661 72.2293C261.428 72.2293 262.817 71.465 263.827 69.9363C264.71 68.4077 265.215 65.7325 265.215 61.9108C265.215 58.0892 264.71 55.414 263.827 53.6306C262.943 51.7198 261.554 50.9554 259.535 50.9554Z" fill="#57596B"/>
<path d="M279.858 63.9491V69.5542C279.858 70.5733 280.11 71.3377 280.489 71.5924C280.868 71.9746 281.751 72.102 282.887 72.102V73.5033H272.789V72.102C273.799 72.102 274.556 71.8472 274.809 71.5924C275.187 71.2103 275.313 70.5733 275.313 69.5542V53.2485C275.313 52.2294 275.187 51.5924 274.809 51.2103C274.43 50.8281 273.799 50.7007 272.789 50.7007V49.1721H282.887C288.82 49.1721 291.724 51.5924 291.724 56.4332C291.724 58.7262 291.093 60.5096 289.704 61.9109C288.315 63.3122 286.169 63.9491 283.392 63.9491H279.858V63.9491ZM286.927 56.688C286.927 54.6498 286.548 53.2485 285.917 52.4842C285.286 51.7198 284.024 51.3377 282.256 51.3377H279.858V61.6561H282.635C284.15 61.6561 285.286 61.274 285.917 60.5096C286.548 59.8727 286.927 58.4714 286.927 56.688Z" fill="#57596B"/>
<path d="M305.105 74.0127C301.696 74.0127 299.045 72.8663 297.152 70.7006C295.258 68.4077 294.375 65.4777 294.375 61.5287C294.375 57.3249 295.385 54.2675 297.278 52.1019C299.172 49.9363 301.822 48.7898 304.978 48.7898C308.387 48.7898 311.037 49.9363 312.931 52.2293C314.824 54.5223 315.708 57.707 315.708 61.6561C315.708 65.4777 314.824 68.535 312.931 70.7006C310.911 72.9936 308.387 74.0127 305.105 74.0127ZM304.978 50.9554C302.959 50.9554 301.57 51.7198 300.686 53.3758C299.803 55.0319 299.298 57.5796 299.298 61.2739C299.298 65.0956 299.803 67.7707 300.686 69.5542C301.57 71.3376 303.085 72.2293 305.105 72.2293C306.872 72.2293 308.26 71.465 309.27 69.9363C310.154 68.4077 310.659 65.7325 310.659 61.9108C310.659 58.0892 310.154 55.414 309.27 53.6306C308.387 51.7198 306.998 50.9554 304.978 50.9554Z" fill="#57596B"/>
<path d="M318.233 73.6306V72.2294C319.243 72.2294 320 71.9746 320.252 71.7198C320.631 71.3377 320.757 70.7007 320.757 69.6816V53.2485C320.757 52.2294 320.631 51.5924 320.252 51.2103C319.874 50.8281 319.243 50.7007 318.233 50.7007V49.1721H328.331C334.012 49.1721 336.789 51.2103 336.789 55.4141C336.789 58.344 335.148 60.1275 331.992 60.7644V60.8918C334.012 61.1466 335.4 61.7835 336.41 62.93C337.42 64.0765 337.925 65.3504 337.925 67.1338C337.925 69.2994 337.168 70.9555 335.653 71.9746C334.138 73.1211 332.118 73.6306 329.467 73.6306H318.233V73.6306ZM325.302 60.0001H328.079C329.594 60.0001 330.603 59.7453 331.235 59.1084C331.866 58.4714 332.118 57.3249 332.118 55.7963C332.118 54.1402 331.866 52.9937 331.108 52.3568C330.477 51.7198 329.341 51.3377 327.826 51.3377H325.175V60.0001H325.302ZM325.302 71.5924H328.836C330.477 71.5924 331.613 71.2103 332.245 70.5733C332.876 69.809 333.254 68.6625 333.254 66.8791C333.254 65.223 332.876 63.9491 332.245 63.3122C331.613 62.5479 330.351 62.2931 328.584 62.2931H325.302V71.5924Z" fill="#57596B"/>
<path d="M346.257 52.484C346.257 54.1401 345.752 55.4139 344.868 56.5604C343.985 57.7069 342.596 58.4713 340.829 58.8534L339.945 57.7069C342.091 56.9426 343.227 56.0509 343.227 54.9044C343.227 54.5222 343.101 54.3948 342.975 54.1401C342.848 54.0127 342.47 53.7579 342.091 53.6305C340.955 53.1209 340.45 52.3566 340.45 51.3375C340.45 50.5732 340.702 49.9362 341.207 49.4267C341.712 48.9171 342.47 48.6624 343.227 48.6624C344.111 48.6624 344.868 49.0445 345.499 49.6815C345.878 50.4458 346.257 51.3375 346.257 52.484Z" fill="#57596B"/>
<path d="M356.607 62.4205V62.2931C354.84 62.1657 353.325 61.6561 352.189 60.637C350.927 59.6179 350.422 58.0893 350.422 56.051C350.422 51.4651 353.325 49.1721 359.132 49.1721H369.357V50.7007C368.347 50.7007 367.59 50.9555 367.337 51.2103C366.959 51.5924 366.832 52.2294 366.832 53.2485V69.5542C366.832 70.5733 366.959 71.2103 367.337 71.5924C367.716 71.9746 368.347 72.102 369.357 72.102V73.5033H359.763V72.102C360.647 72.102 361.278 71.8472 361.657 71.465C362.036 71.0829 362.162 70.4459 362.162 69.5542V62.6752C360.521 62.6752 359.511 62.93 358.88 63.567C358.249 64.0765 357.617 65.4778 356.986 67.3886C356.103 70.0638 355.093 71.8472 353.957 72.7389C352.821 73.5033 351.053 74.0128 348.655 74.0128L348.276 71.0829C349.412 70.9555 350.296 70.5733 350.801 70.0638C351.306 69.5542 351.811 68.7899 352.189 67.8982C352.442 67.0065 352.694 66.3695 352.947 65.86C353.073 65.3504 353.452 64.9682 353.704 64.3313C354.083 63.8217 354.462 63.3122 354.966 63.0574C355.219 62.8026 355.85 62.5479 356.607 62.4205ZM355.093 56.051C355.093 59.2358 356.355 60.7644 359.006 60.7644H362.288V51.3377H359.511C357.996 51.3377 356.86 51.7198 356.229 52.3568C355.345 53.1211 355.093 54.2676 355.093 56.051Z" fill="#57596B"/>
</svg>
