<svg width="406" height="110" viewBox="0 0 406 110" fill="none" xmlns="http://www.w3.org/2000/svg">
<g clip-path="url(#clip0_603_1464)">
<path d="M99.1164 32.4202H36V96.1144C42.6903 64.2673 67.5582 39.1718 99.1164 32.4202Z" fill="#57596B"/>
<path d="M106.943 89.745H92.8048V103.885H106.943V89.745Z" fill="#95C53D"/>
<path d="M90.1538 80.5731L86.998 84.0126L83.211 75.3501L78.5404 80.5731H62.6351V73.5667H76.6469V59.2992H92.8047V73.4393H106.943V36.8788C72.1025 41.0826 44.5838 68.8533 40.4181 104.013H76.6469V89.745H62.6351V82.7387H79.5502L82.5798 79.4266L86.3668 87.9616L91.1637 82.7387H106.943V80.4457H90.1538V80.5731Z" fill="#95C53D"/>
<path d="M147.59 36.8789V38.2802C146.454 38.4075 145.696 38.5349 145.318 38.9171C144.939 39.2993 144.813 39.9362 144.939 40.9553L146.327 57.0063C146.454 58.1528 146.58 58.7897 146.959 59.1719C147.211 59.554 147.842 59.8088 148.852 59.8088V61.2101H139.511V59.8088C140.647 59.8088 141.404 59.554 141.657 59.2993C141.909 58.9171 142.036 58.2801 141.909 57.261L140.899 45.1591C140.773 44.14 140.773 42.9935 140.773 41.7196V40.9553H140.647C140.394 42.484 140.142 43.7579 139.763 44.9044L134.966 61.3375H132.189L127.393 45.7961C126.888 44.3948 126.635 42.7388 126.383 40.9553H126.13C126.13 41.4649 126.004 43.1209 125.878 45.6687L125.247 57.261C125.247 58.2801 125.247 58.9171 125.499 59.2993C125.751 59.6814 126.509 59.8088 127.645 59.8088V61.2101H120.197V59.8088C121.207 59.8088 121.838 59.554 122.091 59.1719C122.343 58.7897 122.596 58.0254 122.596 57.0063L123.732 40.9553C123.858 39.9362 123.732 39.2993 123.353 38.9171C123.101 38.5349 122.217 38.2802 121.081 38.2802V36.8789H129.034L133.452 50.8916C133.957 52.2929 134.209 53.8216 134.335 55.3502H134.462C134.714 53.5668 134.966 52.1655 135.345 50.8916L139.385 36.8789H147.59Z" fill="#57596B"/>
<path d="M150.872 61.2101V59.8088C151.882 59.8088 152.639 59.554 152.892 59.2993C153.27 58.9171 153.397 58.2802 153.397 57.261V40.9553C153.397 39.9362 153.27 39.2993 152.892 38.9171C152.513 38.5349 151.882 38.4075 150.872 38.4075V36.8789H167.913L168.292 42.484H166.146C165.767 41.0827 165.389 40.191 164.884 39.6814C164.379 39.1719 163.874 38.9171 162.738 38.9171H158.067V47.5795H160.718C161.854 47.5795 162.611 47.4521 162.99 47.07C163.369 46.6878 163.621 46.0509 163.748 45.0317H165.641V52.1655H163.748C163.621 51.1464 163.495 50.5095 162.99 50.1273C162.611 49.7451 161.854 49.6177 160.844 49.6177H158.193V59.0445H163.243C164.505 59.0445 165.389 58.7897 165.894 58.1528C166.398 57.6432 166.651 56.4967 166.777 54.8407H168.923V61.0827H150.872V61.2101Z" fill="#57596B"/>
<path d="M172.963 67.5795H170.438V59.0445H171.826C172.71 58.5349 173.467 57.6432 174.225 56.3693C174.982 54.9681 175.613 53.0572 175.866 50.7642C176.245 48.4712 176.371 45.1591 176.371 40.8279C176.371 39.8088 176.245 39.1719 175.866 38.7897C175.487 38.4075 174.856 38.2802 173.846 38.2802V36.8789H193.16V38.4075C192.15 38.4075 191.392 38.6623 191.14 38.9171C190.761 39.2993 190.635 39.9362 190.635 40.9553V57.261C190.635 58.0254 190.761 58.5349 191.14 58.7897C191.392 59.0445 192.024 59.1719 193.034 59.1719H193.917V61.3375L193.034 67.7069H190.635C190.635 65.1591 190.509 63.3757 190.383 62.6114C190.256 61.7196 189.751 61.3375 189.12 61.3375H175.361C174.73 61.3375 174.099 61.847 173.72 62.9935C173.215 64.14 172.963 65.6687 172.963 67.5795ZM175.866 58.9171V59.1719H186.091V38.9171H178.895C178.895 46.5604 178.517 51.7833 177.633 54.5859C177.254 56.3693 176.623 57.7706 175.866 58.9171Z" fill="#57596B"/>
<path d="M212.095 42.7388H211.968C211.59 43.8852 210.706 45.6687 209.318 48.0891L203.637 58.1528C203.258 58.7897 203.132 59.8088 203.132 61.2101H195.937V59.8088C196.947 59.8088 197.704 59.554 197.957 59.2993C198.335 58.9171 198.462 58.2801 198.462 57.261V40.9553C198.462 39.9362 198.335 39.2993 197.957 38.9171C197.578 38.5349 196.947 38.4075 195.937 38.4075V36.8789H205.531V38.4075C204.521 38.4075 203.89 38.6623 203.511 38.9171C203.132 39.2993 203.006 39.9362 203.006 40.9553V49.6177C203.006 51.6559 202.88 53.5668 202.754 55.3502H202.88C203.258 54.3311 204.142 52.5477 205.657 49.9999L211.337 40.0636C211.716 39.4267 211.842 38.4075 211.842 37.0063H219.038V38.5349C218.028 38.5349 217.27 38.7897 217.018 39.0445C216.639 39.4267 216.513 40.0636 216.513 41.0827V57.3884C216.513 58.4075 216.639 59.0445 217.018 59.4266C217.397 59.8088 218.028 59.9362 219.038 59.9362V61.3375H209.444V59.9362C210.454 59.9362 211.085 59.6814 211.464 59.4266C211.842 59.0445 211.968 58.4075 211.968 57.3884V48.5986C211.716 46.5604 211.842 44.6496 212.095 42.7388Z" fill="#57596B"/>
<path d="M222.951 40.9553C222.951 39.9362 222.824 39.2993 222.446 38.9171C222.067 38.5349 221.436 38.4075 220.426 38.4075V36.8789H230.02V38.4075C229.01 38.4075 228.379 38.6623 228 38.9171C227.621 39.1719 227.495 39.9362 227.495 40.9553V47.3247C227.495 49.8725 228.757 51.1464 231.156 51.1464C232.923 51.1464 234.69 50.6368 236.458 49.7451V40.9553C236.458 39.9362 236.331 39.2993 235.953 38.9171C235.574 38.5349 234.943 38.4075 233.933 38.4075V36.8789H243.4V38.4075C242.391 38.4075 241.633 38.6623 241.381 38.9171C241.002 39.2993 240.876 39.9362 240.876 40.9553V57.261C240.876 58.2802 241.002 58.9171 241.381 59.2993C241.759 59.6814 242.391 59.8088 243.4 59.8088V61.2101H233.68V59.8088C234.69 59.8088 235.448 59.554 235.7 59.2993C236.079 58.9171 236.205 58.2802 236.205 57.261V51.9107C233.933 53.4394 231.787 54.2037 229.515 54.2037C227.369 54.2037 225.602 53.6942 224.465 52.5477C223.329 51.4012 222.698 49.8725 222.698 47.8343V40.9553H222.951Z" fill="#57596B"/>
<path d="M261.957 57.261V49.6177H252.868V57.261C252.868 58.2802 252.994 58.9171 253.373 59.2993C253.751 59.6814 254.383 59.8088 255.392 59.8088V61.2101H245.673V59.8088C246.682 59.8088 247.44 59.554 247.692 59.2993C248.071 58.9171 248.197 58.2802 248.197 57.261V40.9553C248.197 39.9362 248.071 39.2993 247.692 38.9171C247.314 38.5349 246.682 38.4075 245.673 38.4075V36.8789H255.392V38.4075C254.383 38.4075 253.625 38.6623 253.373 38.9171C252.994 39.2993 252.868 39.9362 252.868 40.9553V47.4521H261.957V40.9553C261.957 39.9362 261.83 39.2993 261.452 38.9171C261.073 38.5349 260.442 38.4075 259.432 38.4075V36.8789H269.152V38.4075C268.142 38.4075 267.385 38.6623 267.132 38.9171C266.753 39.2993 266.627 39.9362 266.627 40.9553V57.261C266.627 58.2802 266.753 58.9171 267.132 59.2993C267.511 59.6814 268.142 59.8088 269.152 59.8088V61.2101H259.432V59.8088C260.442 59.8088 261.199 59.554 261.452 59.2993C261.704 58.9171 261.957 58.2802 261.957 57.261Z" fill="#57596B"/>
<path d="M287.582 42.7388H287.456C287.077 43.8852 286.193 45.6687 284.805 48.0891L279.124 58.1528C278.746 58.7897 278.619 59.8088 278.619 61.2101H271.424V59.8088C272.434 59.8088 273.191 59.554 273.444 59.2993C273.823 58.9171 273.949 58.2801 273.949 57.261V40.9553C273.949 39.9362 273.823 39.2993 273.444 38.9171C273.065 38.5349 272.434 38.4075 271.424 38.4075V36.8789H281.018V38.4075C280.008 38.4075 279.377 38.6623 278.998 38.9171C278.619 39.2993 278.493 39.9362 278.493 40.9553V49.6177C278.493 51.6559 278.367 53.5668 278.241 55.3502H278.367C278.746 54.3311 279.629 52.5477 281.144 49.9999L286.825 40.0636C287.203 39.4267 287.329 38.4075 287.329 37.0063H294.525V38.5349C293.515 38.5349 292.757 38.7897 292.505 39.0445C292.126 39.4267 292 40.0636 292 41.0827V57.3884C292 58.4075 292.126 59.0445 292.505 59.4266C292.884 59.8088 293.515 59.9362 294.525 59.9362V61.3375H284.679V59.9362C285.688 59.9362 286.32 59.6814 286.698 59.4266C287.077 59.0445 287.203 58.4075 287.203 57.3884V48.5986C287.203 46.5604 287.329 44.6496 287.582 42.7388Z" fill="#57596B"/>
<path d="M312.828 42.7388H312.702C312.323 43.8853 311.44 45.6688 310.051 48.0891L304.371 58.1528C303.992 58.7898 303.866 59.8089 303.866 61.2102H296.671V59.8089C297.681 59.8089 298.438 59.5541 298.69 59.2993C299.069 58.9172 299.195 58.2802 299.195 57.2611V40.9554C299.195 39.9363 299.069 39.2993 298.69 38.9172C298.312 38.535 297.681 38.4076 296.671 38.4076V36.879H306.264V38.4076C305.254 38.4076 304.623 38.6624 304.245 38.9172C303.866 39.2993 303.74 39.9363 303.74 40.9554V49.6178C303.74 51.656 303.613 53.5669 303.487 55.3503H303.613C303.992 54.3312 304.876 52.5477 306.391 50L312.071 40.0637C312.45 39.4267 312.576 38.4076 312.576 37.0063H319.771V38.535C318.761 38.535 318.004 38.7898 317.751 39.0446C317.373 39.4267 317.247 40.0637 317.247 41.0828V57.3885C317.247 58.4076 317.373 59.0446 317.751 59.4267C318.13 59.8089 318.761 59.9363 319.771 59.9363V61.3376H310.178V59.9363C311.187 59.9363 311.819 59.6815 312.197 59.4267C312.576 59.0446 312.702 58.4076 312.702 57.3885V48.5987C312.576 46.5605 312.576 44.6497 312.828 42.7388ZM311.692 34.0764C310.682 34.9681 309.42 35.4777 308.032 35.4777C306.643 35.4777 305.381 34.9681 304.371 34.0764C303.235 33.1847 302.604 32.0382 302.225 30.7643L303.361 30C304.371 31.5286 305.886 32.293 308.032 32.293C310.051 32.293 311.692 31.5286 312.702 30L313.965 30.7643C313.586 32.0382 312.828 33.1847 311.692 34.0764Z" fill="#57596B"/>
<path d="M143.677 110H141.278C141.278 107.452 141.152 105.669 141.026 104.905C140.899 104.013 140.395 103.631 139.763 103.631H120.828V102.229C121.838 102.229 122.596 101.975 122.848 101.72C123.227 101.338 123.353 100.701 123.353 99.6816V83.2485C123.353 82.2293 123.227 81.5924 122.848 81.2102C122.469 80.8281 121.838 80.7007 120.828 80.7007V79.172H130.548V80.7007C129.538 80.7007 128.781 80.9555 128.529 81.2102C128.15 81.5924 128.024 82.2293 128.024 83.2485V101.465H136.86V83.2485C136.86 82.2293 136.734 81.5924 136.355 81.2102C135.976 80.8281 135.345 80.7007 134.335 80.7007V79.172H144.055V80.7007C143.045 80.7007 142.288 80.9555 142.036 81.2102C141.783 81.465 141.531 82.2293 141.531 83.2485V99.5542C141.531 100.319 141.657 100.828 141.909 101.083C142.162 101.338 142.793 101.465 143.677 101.465H144.56V103.631L143.677 110Z" fill="#57596B"/>
<path d="M146.454 103.631V102.229C147.464 102.229 148.221 101.975 148.473 101.72C148.852 101.338 148.978 100.701 148.978 99.6816V83.2485C148.978 82.2293 148.852 81.5924 148.473 81.2102C148.095 80.8281 147.464 80.7007 146.454 80.7007V79.172H163.495L163.874 84.7771H161.728C161.349 83.3758 160.97 82.4841 160.465 81.9746C159.961 81.465 159.329 81.3376 158.193 81.3376H153.523V90H156.174C157.31 90 158.067 89.8727 158.446 89.4905C158.824 89.1083 159.077 88.4714 159.203 87.4523H161.097V94.586H159.203C159.077 93.5669 158.951 92.93 158.446 92.5478C158.067 92.1656 157.31 92.0383 156.3 92.0383H153.649V101.465H158.698C159.961 101.465 160.844 101.21 161.349 100.573C161.854 100.064 162.107 98.9172 162.233 97.2612H164.379V103.503H146.454V103.631Z" fill="#57596B"/>
<path d="M182.935 99.6816V92.0383H173.846V99.6816C173.846 100.701 173.972 101.338 174.351 101.72C174.73 102.102 175.361 102.229 176.371 102.229V103.631H166.651V102.229C167.661 102.229 168.418 101.975 168.671 101.72C169.049 101.338 169.176 100.701 169.176 99.6816V83.2485C169.176 82.2293 169.049 81.5924 168.671 81.2102C168.292 80.8281 167.661 80.7007 166.651 80.7007V79.172H176.371V80.7007C175.361 80.7007 174.604 80.9555 174.351 81.2102C173.972 81.5924 173.846 82.2293 173.846 83.2485V89.7453H182.935V83.2485C182.935 82.2293 182.809 81.5924 182.43 81.2102C182.051 80.8281 181.42 80.7007 180.41 80.7007V79.172H190.13V80.7007C189.12 80.7007 188.363 80.9555 188.111 81.2102C187.732 81.5924 187.606 82.2293 187.606 83.2485V99.5542C187.606 100.573 187.732 101.21 188.111 101.592C188.489 101.975 189.12 102.102 190.13 102.102V103.503H180.41V102.102C181.42 102.102 182.178 101.847 182.43 101.592C182.809 101.338 182.935 100.573 182.935 99.6816Z" fill="#57596B"/>
<path d="M192.15 79.172H210.58L210.832 85.2867H208.686C208.308 83.6306 208.055 82.6115 207.677 82.102C207.298 81.5924 206.667 81.3376 205.657 81.3376H203.637V99.5542C203.637 100.573 203.89 101.338 204.268 101.592C204.647 101.975 205.404 102.102 206.54 102.102V103.503H196.189V102.102C197.325 102.102 198.083 101.847 198.462 101.592C198.84 101.21 199.093 100.573 199.093 99.5542V81.3376H197.073C196.063 81.3376 195.306 81.5924 195.053 82.102C194.675 82.6115 194.422 83.6306 194.043 85.2867H191.897L192.15 79.172Z" fill="#57596B"/>
<path d="M219.795 93.9491V99.5542C219.795 100.573 220.047 101.338 220.426 101.592C220.805 101.975 221.688 102.102 222.825 102.102V103.503H212.726V102.102C213.736 102.102 214.493 101.847 214.746 101.592C215.124 101.21 215.251 100.573 215.251 99.5542V83.2485C215.251 82.2293 215.124 81.5924 214.746 81.2102C214.367 80.8281 213.736 80.7007 212.726 80.7007V79.172H222.825C228.757 79.172 231.661 81.5924 231.661 86.4332C231.661 88.7262 231.03 90.5096 229.641 91.9109C228.253 93.3121 226.107 93.9491 223.329 93.9491H219.795ZM226.864 86.6879C226.864 84.6497 226.485 83.2485 225.854 82.4841C225.223 81.7198 223.961 81.3376 222.193 81.3376H219.795V91.6561H222.572C224.087 91.6561 225.223 91.2739 225.854 90.5096C226.485 89.8727 226.864 88.4714 226.864 86.6879Z" fill="#57596B"/>
<path d="M248.197 91.9107H246.178V89.745H248.702C250.217 89.745 251.227 89.3629 251.984 88.4712C252.615 87.5794 252.994 86.4329 252.994 85.0317C252.994 83.7578 252.615 82.8661 251.984 82.1017C251.353 81.3374 250.343 80.9552 249.081 80.9552C247.692 80.9552 246.683 81.3374 246.051 81.9743C245.42 82.6113 245.042 83.6304 244.789 85.0317H241.759V80.8279C242.517 80.3183 243.527 79.8087 244.915 79.4266C246.304 79.0444 247.566 78.917 248.955 78.917C251.732 78.917 253.878 79.4266 255.393 80.4457C256.907 81.4648 257.665 82.9935 257.665 84.9043C257.665 86.3056 257.16 87.5794 256.276 88.5986C255.266 89.6177 254.004 90.2546 252.237 90.6368V90.7642C256.529 91.2737 258.801 93.3119 258.801 96.7514C258.801 99.0444 257.917 100.828 256.276 102.229C254.635 103.503 252.363 104.14 249.333 104.14C247.692 104.14 246.178 103.885 244.789 103.503C243.4 103.121 242.264 102.611 241.507 102.102V97.3884H244.537C244.789 99.0444 245.168 100.191 245.925 100.955C246.556 101.72 247.692 102.102 249.333 102.102C250.848 102.102 252.111 101.592 252.742 100.7C253.373 99.8087 253.878 98.5349 253.878 97.1336C253.878 95.4775 253.499 94.2036 252.615 93.3119C251.858 92.2928 250.343 91.9107 248.197 91.9107Z" fill="#57596B"/>
<path d="M261.83 110H259.306V101.465H260.694C261.578 100.955 262.335 100.064 263.093 98.7899C263.85 97.3886 264.481 95.4777 264.734 93.1848C265.112 90.8918 265.239 87.5797 265.239 83.2485C265.239 82.2293 265.112 81.5924 264.734 81.2102C264.355 80.8281 263.724 80.7007 262.714 80.7007V79.172H282.028V80.7007C281.018 80.7007 280.26 80.9555 280.008 81.2102C279.629 81.5924 279.503 82.2293 279.503 83.2485V99.5542C279.503 100.319 279.629 100.828 280.008 101.083C280.26 101.338 280.891 101.465 281.901 101.465H282.785V103.631L281.901 110H279.503C279.503 107.452 279.377 105.669 279.25 104.905C279.124 104.013 278.619 103.631 277.988 103.631H264.229C263.598 103.631 262.966 104.14 262.588 105.287C261.957 106.433 261.83 108.089 261.83 110ZM264.607 101.338V101.592H274.832V81.3376H267.637C267.637 88.9809 267.258 94.2039 266.375 97.0064C265.996 98.7899 265.365 100.191 264.607 101.338Z" fill="#57596B"/>
<path d="M295.661 104.013C292.253 104.013 289.602 102.866 287.708 100.701C285.815 98.4076 284.931 95.4777 284.931 91.5286C284.931 87.3248 285.941 84.2675 287.834 82.1019C289.728 79.9363 292.379 78.7898 295.535 78.7898C298.943 78.7898 301.594 79.9363 303.487 82.2293C305.381 84.5223 306.264 87.707 306.264 91.656C306.264 95.4777 305.381 98.535 303.487 100.701C301.468 102.994 298.943 104.013 295.661 104.013ZM295.535 80.9554C293.515 80.9554 292.126 81.7197 291.243 83.3758C290.359 85.0318 289.854 87.5796 289.854 91.2739C289.854 95.0955 290.359 97.7707 291.243 99.5541C292.126 101.338 293.641 102.229 295.661 102.229C297.428 102.229 298.817 101.465 299.827 99.9363C300.71 98.4076 301.215 95.7325 301.215 91.9108C301.215 88.0892 300.71 85.414 299.827 83.6306C298.943 81.7197 297.554 80.9554 295.535 80.9554Z" fill="#57596B"/>
<path d="M315.858 93.9491V99.5542C315.858 100.573 316.11 101.338 316.489 101.592C316.868 101.975 317.751 102.102 318.888 102.102V103.503H308.789V102.102C309.799 102.102 310.556 101.847 310.809 101.592C311.187 101.21 311.314 100.573 311.314 99.5542V83.2485C311.314 82.2293 311.187 81.5924 310.809 81.2102C310.43 80.8281 309.799 80.7007 308.789 80.7007V79.172H318.888C324.82 79.172 327.724 81.5924 327.724 86.4332C327.724 88.7262 327.093 90.5096 325.704 91.9109C324.316 93.3121 322.17 93.9491 319.392 93.9491H315.858ZM322.927 86.6879C322.927 84.6497 322.548 83.2485 321.917 82.4841C321.286 81.7198 320.024 81.3376 318.256 81.3376H315.858V91.6561H318.635C320.15 91.6561 321.286 91.2739 321.917 90.5096C322.548 89.8727 322.927 88.4714 322.927 86.6879Z" fill="#57596B"/>
<path d="M341.105 104.013C337.696 104.013 335.045 102.866 333.152 100.701C331.258 98.4076 330.375 95.4777 330.375 91.5286C330.375 87.3248 331.385 84.2675 333.278 82.1019C335.172 79.9363 337.822 78.7898 340.978 78.7898C344.387 78.7898 347.037 79.9363 348.931 82.2293C350.824 84.5223 351.708 87.707 351.708 91.656C351.708 95.4777 350.824 98.535 348.931 100.701C346.911 102.994 344.387 104.013 341.105 104.013ZM340.978 80.9554C338.959 80.9554 337.57 81.7197 336.686 83.3758C335.803 85.0318 335.298 87.5796 335.298 91.2739C335.298 95.0955 335.803 97.7707 336.686 99.5541C337.57 101.338 339.085 102.229 341.105 102.229C342.872 102.229 344.26 101.465 345.27 99.9363C346.154 98.4076 346.659 95.7325 346.659 91.9108C346.659 88.0892 346.154 85.414 345.27 83.6306C344.387 81.7197 342.998 80.9554 340.978 80.9554Z" fill="#57596B"/>
<path d="M354.233 103.631V102.229C355.243 102.229 356 101.975 356.252 101.72C356.631 101.338 356.757 100.701 356.757 99.6816V83.2485C356.757 82.2293 356.631 81.5924 356.252 81.2102C355.874 80.8281 355.243 80.7007 354.233 80.7007V79.172H364.331C370.012 79.172 372.789 81.2102 372.789 85.4141C372.789 88.344 371.148 90.1274 367.992 90.7644V90.8918C370.012 91.1465 371.4 91.7835 372.41 92.93C373.42 94.0765 373.925 95.3504 373.925 97.1338C373.925 99.2994 373.168 100.955 371.653 101.975C370.138 103.121 368.118 103.631 365.467 103.631H354.233ZM361.302 90H364.079C365.594 90 366.603 89.7453 367.235 89.1083C367.866 88.4714 368.118 87.3249 368.118 85.7962C368.118 84.1402 367.866 82.9937 367.108 82.3567C366.477 81.7198 365.341 81.3376 363.826 81.3376H361.175V90H361.302ZM361.302 101.592H364.836C366.477 101.592 367.613 101.21 368.245 100.573C368.876 99.809 369.254 98.6625 369.254 96.879C369.254 95.223 368.876 93.9491 368.245 93.3121C367.613 92.5478 366.351 92.293 364.584 92.293H361.302V101.592Z" fill="#57596B"/>
<path d="M382.257 82.484C382.257 84.14 381.752 85.4139 380.868 86.5604C379.984 87.7069 378.596 88.4712 376.829 88.8534L375.945 87.7069C378.091 86.9426 379.227 86.0508 379.227 84.9043C379.227 84.5222 379.101 84.3948 378.975 84.14C378.848 84.0126 378.47 83.7578 378.091 83.6305C376.955 83.1209 376.45 82.3566 376.45 81.3375C376.45 80.5731 376.702 79.9362 377.207 79.4266C377.712 78.9171 378.47 78.6623 379.227 78.6623C380.111 78.6623 380.868 79.0445 381.499 79.6814C381.878 80.4457 382.257 81.3375 382.257 82.484Z" fill="#57596B"/>
<path d="M392.607 92.4204V92.293C390.84 92.1657 389.325 91.6561 388.189 90.637C386.927 89.6179 386.422 88.0892 386.422 86.051C386.422 81.465 389.325 79.172 395.132 79.172H405.357V80.7007C404.347 80.7007 403.59 80.9555 403.337 81.2102C402.959 81.5924 402.832 82.2293 402.832 83.2485V99.5542C402.832 100.573 402.959 101.21 403.337 101.592C403.716 101.975 404.347 102.102 405.357 102.102V103.503H395.763V102.102C396.647 102.102 397.278 101.847 397.657 101.465C398.036 101.083 398.162 100.446 398.162 99.5542V92.6752C396.521 92.6752 395.511 92.93 394.88 93.5669C394.249 94.0765 393.617 95.4778 392.986 97.3886C392.103 100.064 391.093 101.847 389.957 102.739C388.821 103.503 387.053 104.013 384.655 104.013L384.276 101.083C385.412 100.955 386.296 100.573 386.801 100.064C387.306 99.5542 387.811 98.7899 388.189 97.8981C388.442 97.0064 388.694 96.3695 388.947 95.8599C389.073 95.3504 389.452 94.9682 389.704 94.3313C390.083 93.8217 390.462 93.3121 390.966 93.0574C391.219 92.8026 391.85 92.5478 392.607 92.4204ZM391.093 86.051C391.093 89.2357 392.355 90.7644 395.006 90.7644H398.288V81.3376H395.511C393.996 81.3376 392.86 81.7198 392.229 82.3567C391.345 83.1211 391.093 84.2676 391.093 86.051Z" fill="#57596B"/>
<path d="M11.7865 52.7649C11.8265 52.4523 17.6019 46.2451 17.8312 46.0324L27.4731 36.5932C27.537 42.6189 29.4197 48.5249 32.8727 53.5307L73.5131 26.2643C70.6473 22.4484 62.7722 15.3884 59.3457 12.0972C58.3753 11.1074 57.2948 10.2331 56.1266 9.49228C54.7655 8.75114 53.3178 8.18961 51.8202 7.82196C47.0362 6.4521 42.1883 5.3388 37.2974 4.48684C35.6381 4.19607 33.9242 3.94718 32.3313 4.42479C30.946 4.8472 29.8032 5.78273 28.6694 6.7166C26.6044 8.42335 26.6255 8.41758 24.5613 10.1186C23.9927 10.5868 21.6121 12.818 21.1923 13.4328C20.6602 14.2446 20.2015 15.1036 19.8214 15.9998C16.7725 24.5641 13.9586 32.3998 11.4453 41.1685C11.317 41.6115 8.93175 48.6586 8.99021 49.1252" fill="#ED2F2F"/>
<path d="M35.2572 47.557C35.6856 48.4383 36.1845 49.2844 36.749 50.0869L32.7393 53.5689C29.2893 48.5681 27.4081 42.668 27.3443 36.6483L17.7106 46.0781C17.4962 46.2897 11.451 52.9155 11.451 52.9155C11.451 52.9155 16.3819 46.1551 16.389 46.1444C22.2318 39.3091 24.8606 37.6493 27.4414 33.3931L27.6612 26.1746C27.6636 26.1555 27.6727 26.1381 27.6869 26.1253C27.701 26.1126 27.7193 26.1054 27.7385 26.105C27.7577 26.1046 27.7766 26.111 27.7918 26.1231C27.8071 26.1352 27.8177 26.1522 27.8218 26.1711C28.3944 30.0433 30.8857 37.515 33.2846 43.2326" fill="#DD281F"/>
<path d="M8.547 59.309C9.46587 59.9185 10.529 60.2649 11.6188 60.3098L11.3309 59.2753C11.9143 59.0517 12.5458 58.9733 13.1724 59.047C13.799 59.1206 14.4021 59.344 14.931 59.6984C15.4176 58.3919 15.9132 57.0577 15.9458 55.6519C15.9784 54.2461 15.4672 52.737 14.3122 51.9205C14.6719 51.884 15.0369 51.9218 15.3848 52.0318C15.7327 52.1417 16.0561 52.3215 16.3352 52.56C16.2525 51.9471 16.0419 51.3559 15.7172 50.8251C15.3925 50.2944 14.961 49.8361 14.4512 49.4806C13.9414 49.125 13.3648 48.8802 12.7594 48.7623C12.154 48.6443 11.5335 48.6559 10.9387 48.7963C11.2419 48.1944 11.6653 47.6636 12.183 47.236C11.1324 47.2862 10.1276 47.6499 9.29688 48.2808C8.69915 47.8037 8.03709 47.4153 7.33172 47.128L7.52776 49.0615C6.5527 49.0121 5.58585 49.203 4.71169 49.6175C3.83753 50.032 3.08267 50.6575 2.51309 51.4394L3.89329 51.8536C3.10243 52.976 2.72685 54.3463 2.82967 55.7343C2.93249 57.1223 3.50746 58.4433 4.4579 59.4752C4.57331 58.9483 4.78834 58.4506 5.09144 58.0089C6.08818 58.9143 7.13704 59.7598 8.23232 60.5407L8.46093 59.323" fill="#EDEDED"/>
<path d="M15.9312 55.6441C15.9663 54.241 15.4524 52.728 14.2969 51.9111C14.6567 51.8745 15.0219 51.9124 15.3699 52.0224C15.718 52.1324 16.0415 52.3122 16.3208 52.5508C16.2368 51.938 16.0268 51.3466 15.7042 50.8145C15.3816 50.2823 14.9535 49.8211 14.4473 49.4602C13.6614 48.9254 12.7338 48.648 11.7951 48.6672C12.4679 49.1571 13.0988 49.703 13.6811 50.299C13.0205 50.3409 12.3658 50.4392 11.7243 50.593C12.1873 51.0609 12.6445 51.5281 13.1074 51.996C12.8863 52.014 12.6824 52.1166 12.5377 52.2826C13.357 52.9319 13.9179 53.8545 14.1147 54.8764C14.3053 55.8914 14.3321 56.9269 14.1942 57.9429C12.8924 57.1811 11.2742 57.6164 9.86032 58.0718C9.95006 58.3469 10.0341 58.6212 10.1314 58.9061C9.20669 58.5533 8.24647 58.3095 7.27034 58.1798C7.45289 58.9557 7.80183 59.6859 8.29256 60.3188L8.48769 59.3349L8.55983 59.3159C9.47907 59.9258 10.5426 60.2723 11.6329 60.3173L11.3449 59.2823C11.9285 59.0585 12.5603 58.9802 13.1871 59.0538C13.8139 59.1275 14.4173 59.351 14.9465 59.7055C15.4028 58.3854 15.8986 57.0505 15.9312 55.6441Z" fill="#DDDDDD"/>
<path d="M70.8861 20.931C71.343 21.6374 71.6141 22.4458 71.6734 23.2786C69.4279 21.8683 66.863 21.0748 64.2414 20.9795L64.4282 22.9263C53.6736 20.9129 42.7711 27.2231 39.496 37.3859C39.0703 36.6679 38.6212 35.9261 38.1828 35.1917C38.2764 37.2363 37.0583 38.9721 35.6701 40.2951C34.282 41.6181 32.653 42.7081 31.554 44.3001C29.5451 47.2186 29.6746 51.3259 30.6148 55.0192L32.2881 52.9388C32.2997 53.9751 32.093 55.0798 32.2329 56.1168C32.4309 57.3212 33.0182 58.4351 33.9034 59.2853C34.789 60.124 35.811 60.8032 36.9227 61.2918C36.4836 60.8349 36.4286 60.1403 36.4537 59.5096C36.4597 59.3848 36.4715 59.2608 36.4807 59.1335C38.428 59.5294 40.4356 59.3271 42.24 58.5532C45.2316 57.2676 47.4831 54.7898 49.6486 52.3729L54.9193 46.5032C54.6551 47.0178 54.4961 47.5821 54.4513 48.1636C54.4065 48.7451 54.4768 49.3324 54.6582 49.8917C57.2484 46.6728 59.8649 43.4284 63.0963 40.882C66.3276 38.3357 70.27 36.5128 74.5439 36.4993C74.5541 36.8148 74.498 37.1274 74.3792 37.4168C74.2605 37.7061 74.0818 37.9657 73.8548 38.1786C77.4581 37.9385 81.0205 33.9514 80.0689 29.9116C79.7502 28.5439 79.1434 27.2546 78.2898 26.1314C76.3988 23.5922 74.1837 22.6818 70.8861 20.931Z" fill="#EDEDED"/>
<path d="M71.6731 23.2325C69.5439 21.9037 67.1291 21.1249 64.6494 20.9673C71.3195 23.3841 73.8294 25.8044 74.9998 27.409C75.8186 28.5309 76.056 31.433 74.9804 32.2336C74.7369 31.3087 74.2488 30.4622 73.5684 29.7848C73.5183 31.5643 72.1785 33.0438 70.644 33.8992C69.1094 34.7546 67.3568 35.1347 65.7166 35.7733C62.2411 37.1342 59.3209 39.5952 57.3896 42.7909C57.3899 41.4083 57.7654 40.0605 58.4758 38.8924C54.6449 42.0829 52.4785 46.796 49.7827 51.0012C48.0029 53.7809 45.7407 56.4921 42.9759 58.173C45.5915 56.816 47.6483 54.5815 49.6181 52.3668L54.8903 46.4948C54.6261 47.0096 54.4671 47.5741 54.4222 48.1559C54.3774 48.7376 54.4477 49.3251 54.6292 49.8846C57.2201 46.6645 59.8374 43.4188 63.0697 40.8715C66.302 38.3242 70.2455 36.5005 74.5207 36.487C74.5308 36.8027 74.4747 37.1154 74.3559 37.4049C74.2372 37.6943 74.0584 37.954 73.8314 38.167C77.4357 37.9268 80.9991 33.9382 80.0472 29.8968C79.7284 28.5286 79.1215 27.2388 78.2676 26.1152C76.3967 23.5487 74.1809 22.6379 70.8824 20.8865C71.3402 21.5921 71.6124 22.3999 71.6731 23.2325Z" fill="#DDDDDD"/>
</g>
<defs>
<clipPath id="clip0_603_1464">
<rect width="406" height="110" fill="white"/>
</clipPath>
</defs>
</svg>
