<svg width="36" height="36" viewBox="0 0 36 36" fill="none" xmlns="http://www.w3.org/2000/svg">
<path d="M6.63181 24.0494C7.2508 24.2513 7.78774 24.6471 8.1625 25.178C8.50632 25.6811 8.78124 26.2276 8.97997 26.8032C9.39705 27.9006 9.74114 28.973 10.3334 29.8979C10.9126 30.8191 11.7179 31.578 12.6732 32.103C13.6538 32.6227 14.7088 32.9886 15.8013 33.1878C15.8684 33.2015 15.9321 33.2282 15.9889 33.2664C16.0456 33.3046 16.0943 33.3535 16.132 33.4105C16.1698 33.4674 16.1959 33.5312 16.209 33.5982C16.222 33.6652 16.2216 33.7341 16.208 33.801C16.1943 33.8678 16.1675 33.9313 16.1292 33.9879C16.0908 34.0445 16.0417 34.0929 15.9846 34.1306C15.9275 34.1682 15.8634 34.1943 15.7962 34.2072C15.729 34.2202 15.6599 34.2199 15.5928 34.2062H15.5782C14.3876 33.9508 13.2443 33.5118 12.1894 32.9052C11.1253 32.2762 10.239 31.388 9.61393 30.3239C8.98831 29.2744 8.65465 28.1167 8.28971 27.0464C8.12773 26.5234 7.89777 26.0239 7.60569 25.5604C7.32284 25.1304 6.90808 24.803 6.42327 24.6272C6.34612 24.5997 6.28311 24.5427 6.24811 24.4688C6.2131 24.395 6.20897 24.3103 6.23663 24.2334C6.26428 24.1565 6.32145 24.0937 6.39556 24.0588C6.46967 24.0239 6.55466 24.0198 6.63181 24.0474V24.0494Z" fill="#EABA60"/>
<path d="M6.64643 24.1183C6.70691 24.3407 6.54216 24.4882 6.45874 24.6649C5.53074 25.1907 4.55061 25.1928 3.55587 24.9101C3.30787 24.8284 3.07934 24.6968 2.88438 24.5236C2.72798 24.3926 2.37136 24.2139 2.83641 23.977C2.93234 23.9271 3.0804 23.7691 2.77385 23.6798C2.07767 23.4362 1.46321 23.0045 0.999174 22.4328C0.74267 22.1376 1.01377 22.0296 1.166 21.9755C1.81456 21.7448 2.41724 21.4102 3.14922 21.3978C3.94263 21.3559 4.72324 21.6101 5.33888 22.1106C5.96189 22.6384 6.4164 23.3363 6.64643 24.1183Z" fill="#EE8211"/>
<path d="M4.80514 25.3049C4.36297 25.3008 3.92355 25.2351 3.49968 25.1095C3.22394 25.0241 2.96901 24.8826 2.75103 24.6939C2.73226 24.6772 2.71141 24.6627 2.68847 24.6461C2.56543 24.5525 2.37983 24.4133 2.39859 24.1951C2.41041 24.1253 2.43794 24.0592 2.47911 24.0016C2.52029 23.944 2.57405 23.8964 2.63633 23.8625C1.93454 23.603 1.31527 23.161 0.842884 22.5823C0.782492 22.5263 0.737398 22.4559 0.711859 22.3777C0.68632 22.2995 0.681174 22.2162 0.696903 22.1354C0.730747 22.0502 0.784879 21.9745 0.854632 21.9147C0.924384 21.855 1.00767 21.813 1.09731 21.7925C1.25371 21.7364 1.41012 21.6741 1.56444 21.6117C2.05995 21.374 2.5965 21.2329 3.14517 21.196C3.98775 21.1559 4.8156 21.4267 5.47038 21.9567C6.12323 22.507 6.59963 23.2361 6.84049 24.0537C6.86179 24.1534 6.86069 24.2565 6.83726 24.3557C6.81382 24.4549 6.76862 24.5477 6.70493 24.6274C6.68139 24.6643 6.65981 24.7025 6.64029 24.7417C6.62188 24.7802 6.59203 24.8121 6.55479 24.8331C6.02335 25.141 5.41984 25.3037 4.80514 25.3049ZM2.83652 24.22C2.86973 24.2496 2.90454 24.2774 2.94079 24.3031L3.02004 24.3655C3.19228 24.5199 3.3946 24.6374 3.61438 24.7105C4.6404 25.0015 5.52043 24.937 6.30454 24.5131C6.32122 24.4819 6.33999 24.4507 6.35876 24.4195C6.43384 24.299 6.46303 24.245 6.44635 24.1764C6.2252 23.4334 5.79014 22.7715 5.19511 22.2726C4.61853 21.8017 3.88522 21.5642 3.141 21.6076C2.64453 21.643 2.1592 21.7713 1.71042 21.9858C1.54984 22.0502 1.38926 22.1147 1.2266 22.1729C1.18143 22.1873 1.13805 22.2068 1.09731 22.231C1.11197 22.2553 1.12872 22.2783 1.14736 22.2996C1.58646 22.8414 2.16858 23.2502 2.82819 23.4801C3.0826 23.5633 3.14725 23.7025 3.15559 23.8043C3.15466 23.8801 3.13197 23.9541 3.09021 24.0174C3.04845 24.0808 2.98937 24.1309 2.91994 24.1618C2.89038 24.1786 2.86244 24.1981 2.83652 24.22Z" fill="#A46220"/>
<path d="M9.78501 27.668C10.2501 25.7226 11.3303 25.1386 12.2145 25.3465C13.0987 25.5543 16.6376 26.8969 17.5594 26.98C18.4811 27.0632 19.7261 27.51 21.6759 26.98C23.6258 26.4501 24.5475 25.2509 25.828 25.4774C27.1084 25.7039 28.1219 27.3728 27.9822 29.1373C27.8425 30.9018 28.2366 33.9882 26.0094 34.7114C24.0387 35.3515 22.2974 35.443 19.1464 35.3599C16.5792 35.2913 13.7598 35.2518 12.496 34.8278C11.4929 34.489 8.33357 33.7367 9.78501 27.668Z" fill="#EABA5F"/>
<path d="M20.8585 35.5927C20.3288 35.5927 19.7616 35.5927 19.1422 35.5677L18.5458 35.5511C16.1268 35.4908 13.6264 35.4264 12.4293 35.0232L12.3021 34.9816C11.1635 34.6117 8.14385 33.6287 9.59111 27.6202C10.1104 25.4504 11.3595 24.9308 12.2708 25.1449C12.6233 25.228 13.3553 25.4754 14.204 25.7684C15.4698 26.1966 17.0464 26.7307 17.5865 26.7785C17.7951 26.7972 18.0245 26.8346 18.2643 26.8741C19.3774 27.1118 20.5313 27.0812 21.6301 26.7847C22.3337 26.5763 23.0094 26.2839 23.6425 25.9139C24.4099 25.4982 25.0731 25.1366 25.8739 25.2904C27.2711 25.5356 28.3347 27.3147 28.197 29.1706C28.1762 29.4637 28.1699 29.7941 28.1616 30.1537C28.124 31.8953 28.0719 34.2792 26.0762 34.9338C24.4475 35.4368 22.9564 35.5927 20.8585 35.5927ZM11.8913 25.5169C11.2073 25.5169 10.3898 26.0781 9.99568 27.7158C8.64643 33.3522 11.3032 34.2168 12.4398 34.5868L12.5711 34.6304C13.7077 35.0128 16.1768 35.0752 18.5646 35.1354L19.161 35.1521C22.1848 35.231 23.972 35.1521 25.9531 34.514C27.6611 33.9591 27.707 31.8351 27.7445 30.1287C27.7445 29.7692 27.7591 29.4284 27.782 29.1228C27.903 27.4976 26.9771 25.891 25.8009 25.6811C25.144 25.5668 24.5705 25.8765 23.8427 26.2714C23.1814 26.6591 22.4747 26.9642 21.7385 27.1796C20.5811 27.4905 19.3663 27.524 18.1934 27.2773C17.9598 27.2399 17.7409 27.2045 17.5448 27.1858C16.9547 27.1339 15.4198 26.6143 14.0643 26.1467C13.2614 25.8765 12.5044 25.6188 12.1708 25.5419C12.0763 25.5215 11.9796 25.5132 11.883 25.5169H11.8913Z" fill="#A46220"/>
<path d="M13.0967 25.3631C13.0967 25.3631 12.8881 28.3247 13.3532 30.1723C13.8182 32.02 14.6774 34.6927 15.059 35.0398C15.5096 35.4718 16.1126 35.71 16.7378 35.7028C17.5511 35.7173 18.4645 35.2871 18.6814 34.8465C18.8983 34.4059 19.0776 33.2794 18.3394 31.411C17.6011 29.5426 17.5511 28.0233 17.2675 27.7303C16.9839 27.4373 14.5126 25.7018 14.1206 25.4088C13.1822 24.7084 13.0967 25.3631 13.0967 25.3631Z" fill="#FCC45E"/>
<path d="M16.7837 35.9108H16.7315C16.0564 35.9149 15.406 35.6579 14.9172 35.1937C14.4376 34.7552 13.52 31.6606 13.1509 30.2245C12.6733 28.3643 12.8798 25.4713 12.8881 25.3487V25.3362C12.901 25.2466 12.9362 25.1616 12.9905 25.089C13.0447 25.0164 13.1164 24.9585 13.1989 24.9206C13.4616 24.8104 13.8036 24.9206 14.2416 25.2448C14.3458 25.3238 14.6002 25.5046 14.9214 25.7353C16.1205 26.5936 17.2153 27.3792 17.4239 27.5891C17.5928 27.7616 17.6699 28.1274 17.7992 28.7343C17.9699 29.6214 18.2176 30.492 18.5396 31.3364C19.4029 33.5228 19.015 34.6451 18.8753 34.9381C18.6167 35.4618 17.6512 35.9108 16.7837 35.9108ZM13.3052 25.3903C13.2927 25.5856 13.1113 28.3831 13.5576 30.1205C14.1331 32.3547 14.9151 34.6263 15.2008 34.8861C15.6146 35.2839 16.1692 35.5027 16.744 35.4951C17.5073 35.5076 18.3289 35.1023 18.4937 34.7573C18.5813 34.5765 18.9691 33.5685 18.1475 31.486C17.8174 30.6206 17.5627 29.7285 17.3863 28.8195C17.2967 28.4038 17.2049 27.9632 17.1194 27.8759C16.9275 27.6681 15.4678 26.6289 14.6857 26.0699C14.3604 25.8392 14.1039 25.6542 13.9976 25.5752C13.5617 25.2489 13.397 25.2905 13.3719 25.3009C13.355 25.3101 13.3403 25.3228 13.3287 25.3383C13.3172 25.3537 13.3092 25.3714 13.3052 25.3903Z" fill="#A46220"/>
<path d="M17.8743 35.6321C17.8419 35.6321 17.81 35.6246 17.781 35.6101C17.7521 35.5957 17.7269 35.5747 17.7075 35.5489C17.6911 35.527 17.6793 35.502 17.6727 35.4755C17.6661 35.449 17.6647 35.4214 17.6688 35.3944C17.6729 35.3674 17.6823 35.3414 17.6964 35.318C17.7106 35.2946 17.7292 35.2742 17.7513 35.258C17.895 35.1122 17.9752 34.9158 17.9744 34.7114C17.9516 34.3576 17.8617 34.0113 17.7096 33.6909C17.6908 33.6414 17.6916 33.5867 17.712 33.5378C17.7323 33.4889 17.7705 33.4496 17.8189 33.4279C17.8673 33.4062 17.9222 33.4036 17.9724 33.4208C18.0226 33.438 18.0644 33.4737 18.0891 33.5205C18.1246 33.5953 18.4228 34.2666 18.3894 34.7384C18.3887 34.8999 18.3536 35.0593 18.2864 35.2062C18.2191 35.3532 18.1213 35.4841 17.9994 35.5905C17.9633 35.6175 17.9194 35.6321 17.8743 35.6321Z" fill="#A46220"/>
<path d="M16.4874 35.8836C16.4388 35.8826 16.392 35.8647 16.3552 35.8329C16.3184 35.8011 16.2939 35.7575 16.286 35.7097C16.2781 35.6618 16.2872 35.6127 16.3118 35.5708C16.3364 35.5289 16.3749 35.497 16.4207 35.4804C16.4918 35.4452 16.5543 35.3949 16.604 35.3332C16.6537 35.2715 16.6894 35.1997 16.7085 35.123C16.7423 34.843 16.7131 34.559 16.623 34.2916C16.6139 34.2653 16.6103 34.2374 16.6122 34.2097C16.6142 34.1819 16.6217 34.1548 16.6344 34.13C16.647 34.1052 16.6645 34.0832 16.6859 34.0652C16.7073 34.0473 16.732 34.0338 16.7587 34.0256C16.7854 34.0174 16.8135 34.0146 16.8412 34.0174C16.869 34.0202 16.896 34.0285 16.9204 34.0419C16.9449 34.0553 16.9665 34.0734 16.9838 34.0953C17.0011 34.1171 17.0139 34.1422 17.0213 34.169C17.0422 34.2376 17.2298 34.8507 17.1068 35.2393C17.0681 35.3779 16.9985 35.506 16.9032 35.6139C16.8079 35.7219 16.6893 35.807 16.5563 35.8628C16.5347 35.8737 16.5114 35.8807 16.4874 35.8836Z" fill="#A46220"/>
<path d="M13.6263 32.7868C13.253 31.6396 12.0915 30.4072 11.4742 29.8418C10.8393 29.2139 10.0751 28.731 9.23447 28.4265C7.58075 27.8861 6.25026 29.2578 6.10637 30.3947C5.97916 31.4692 6.2023 32.4314 6.9593 33.242C7.36074 33.685 7.82431 34.068 8.33566 34.3788C9.26575 34.9234 10.1729 35.3577 11.3407 35.4679C12.1436 35.5427 12.861 35.3764 13.4011 34.7613C13.8661 34.2417 13.7869 33.2836 13.6263 32.7868Z" fill="#EABA5F"/>
<path d="M11.6994 35.6925C11.5812 35.6925 11.4582 35.6863 11.3303 35.6738C10.1604 35.5657 9.24488 35.1501 8.23972 34.5577C7.71116 34.2369 7.23209 33.8414 6.81747 33.3835C6.06256 32.575 5.77478 31.5899 5.90824 30.3699C5.97205 29.9876 6.11658 29.6232 6.33229 29.3007C6.54799 28.9783 6.82994 28.7051 7.15948 28.4994C7.47353 28.2967 7.82951 28.1675 8.20077 28.1215C8.57203 28.0754 8.94894 28.1137 9.30326 28.2334C10.1706 28.5473 10.96 29.0435 11.618 29.6882C11.91 29.9542 13.3823 31.3509 13.8286 32.7226C14.0079 33.2754 14.0872 34.3104 13.5721 34.8986C13.34 35.1628 13.051 35.3714 12.7268 35.5089C12.4025 35.6463 12.0513 35.7091 11.6994 35.6925ZM8.49413 28.5119C8.09844 28.5149 7.71194 28.631 7.38053 28.8465C7.10427 29.0206 6.86753 29.2503 6.68547 29.5209C6.50341 29.7914 6.38003 30.0969 6.32324 30.4177C6.19394 31.5109 6.45669 32.388 7.12193 33.0987C7.50996 33.5278 7.95807 33.8988 8.45242 34.2003C9.4117 34.7635 10.2771 35.1584 11.372 35.2602C12.2061 35.3392 12.813 35.1293 13.2488 34.6242C13.6263 34.194 13.5762 33.3274 13.4198 32.8493C13.0028 31.5774 11.6035 30.2473 11.3344 29.9937C10.7207 29.3866 9.98221 28.9193 9.1698 28.6241C8.95209 28.5507 8.72394 28.5128 8.49413 28.5119Z" fill="#A46220"/>
<path d="M10.734 31.0349C9.7017 30.9392 8.87172 31.4505 9.00936 32.5749C9.05348 33.0213 9.24725 33.4399 9.55941 33.763C9.87156 34.0862 10.2839 34.2951 10.7298 34.356C11.7913 34.541 12.4878 33.7679 12.4482 32.9677C12.4377 32.0428 11.6599 31.1201 10.734 31.0349Z" fill="#F28E77"/>
<path d="M9.56399 30.8041C9.63514 30.8087 9.70642 30.7973 9.77255 30.7707C9.83867 30.7442 9.89796 30.7031 9.94602 30.6506C9.99408 30.5981 10.0297 30.5356 10.0502 30.4675C10.0707 30.3994 10.0756 30.3277 10.0645 30.2575C10.024 29.9684 9.90076 29.697 9.70955 29.4758C9.51835 29.2547 9.26726 29.0931 8.98633 29.0105C8.91878 28.9876 8.84694 28.9802 8.77613 28.9888C8.70531 28.9974 8.63734 29.0218 8.57726 29.0601C8.51718 29.0984 8.46651 29.1497 8.42903 29.2102C8.39154 29.2707 8.3682 29.3388 8.36071 29.4095C8.30024 29.9499 9.02805 30.7958 9.56399 30.8041Z" fill="#F28E77"/>
<path d="M8.93835 31.093C8.93565 30.938 8.88302 30.7879 8.78821 30.6649L8.74858 30.6109C8.56801 30.3799 8.34509 30.1853 8.09168 30.0372C7.99911 29.9646 7.88575 29.9233 7.76802 29.9192C7.65029 29.9151 7.5343 29.9484 7.43686 30.0144C7.3406 30.0828 7.27019 30.1814 7.23691 30.2945C7.20363 30.4076 7.20941 30.5285 7.25334 30.6379C7.31847 30.8656 7.44071 31.0731 7.60854 31.2407C7.77637 31.4083 7.98427 31.5306 8.21263 31.596C8.25982 31.6131 8.30879 31.625 8.35861 31.6313C8.40226 31.6364 8.44634 31.6364 8.48998 31.6313H8.50876C8.54568 31.6257 8.58199 31.6167 8.6172 31.6043C8.71764 31.5632 8.80264 31.4918 8.86025 31.4001C8.91785 31.3084 8.94516 31.201 8.93835 31.093Z" fill="#F28E77"/>
<path d="M7.67469 31.4837C7.60888 31.4485 7.53604 31.4283 7.46144 31.4246C7.38685 31.4208 7.31235 31.4337 7.24332 31.4621C7.17429 31.4905 7.11246 31.5339 7.06228 31.589C7.0121 31.6441 6.97482 31.7097 6.95314 31.7809C6.79673 32.3753 7.42652 33.1734 8.04797 33.1713C8.46505 33.1713 8.67359 32.9469 8.58392 32.5478C8.47131 32.0241 8.09177 31.7144 7.67469 31.4837Z" fill="#F28E77"/>
<path d="M24.6519 25.4524C24.6519 25.4524 24.8604 28.414 24.3954 30.2616C23.9303 32.1093 23.0732 34.7757 22.6895 35.1291C22.2416 35.5588 21.6428 35.7967 21.0212 35.7921C20.2058 35.8087 19.2924 35.3868 19.0776 34.9358C18.8628 34.4848 18.6793 33.3687 19.4175 31.5003C20.1558 29.6319 20.2058 28.1126 20.4894 27.8217C20.773 27.5307 23.2442 25.7911 23.6363 25.4981C24.5664 24.7998 24.6519 25.4524 24.6519 25.4524Z" fill="#FCC45E"/>
<path d="M20.967 36C20.0974 36 19.1319 35.551 18.8816 35.0252C18.7419 34.7322 18.354 33.6099 19.2174 31.4256C19.5388 30.581 19.7865 29.7105 19.9577 28.8235C20.087 28.2166 20.1662 27.8488 20.3331 27.6763C20.5416 27.4684 21.6281 26.6807 22.8355 25.8224C23.1567 25.5938 23.4111 25.4067 23.5154 25.3319C23.9554 25.0035 24.2974 24.8975 24.5581 25.0098C24.6409 25.0474 24.713 25.1052 24.7677 25.1778C24.8223 25.2505 24.8578 25.3356 24.8709 25.4254C24.8709 25.5481 25.0794 28.4411 24.6081 30.3012C24.239 31.7332 23.3235 34.8319 22.8418 35.2705C22.354 35.7361 21.703 35.9934 21.0275 35.9875L20.967 36ZM24.3329 25.3839C24.2515 25.3839 24.0784 25.4234 23.7531 25.6644C23.6488 25.7434 23.3903 25.9284 23.067 26.1612C22.2829 26.7223 20.8252 27.7656 20.6313 27.9652C20.5458 28.0524 20.454 28.4889 20.3643 28.9087C20.1887 29.8186 19.9341 30.7114 19.6032 31.5773C18.7815 33.6556 19.1715 34.6657 19.257 34.8465C19.4238 35.1936 20.2413 35.6009 21.0087 35.5843C21.583 35.5925 22.1372 35.3735 22.5498 34.9754C22.8355 34.7156 23.6176 32.4439 24.1931 30.2097C24.6394 28.4723 24.4601 25.6769 24.4455 25.4795C24.4422 25.4609 24.435 25.4433 24.4241 25.4279C24.4133 25.4124 24.3993 25.3995 24.3829 25.3901C24.3666 25.3855 24.3498 25.3834 24.3329 25.3839Z" fill="#A46220"/>
<path d="M19.8722 35.7215C19.8281 35.7216 19.785 35.7078 19.7492 35.682C19.6275 35.575 19.5298 35.4437 19.4626 35.2964C19.3953 35.1492 19.3601 34.9895 19.3592 34.8278C19.3279 34.356 19.6261 33.6847 19.6595 33.6099C19.6696 33.5834 19.685 33.5591 19.7048 33.5388C19.7246 33.5184 19.7484 33.5023 19.7747 33.4914C19.801 33.4806 19.8293 33.4752 19.8577 33.4756C19.8862 33.476 19.9143 33.4823 19.9402 33.4939C19.9662 33.5056 19.9895 33.5224 20.0087 33.5434C20.0278 33.5643 20.0425 33.589 20.0518 33.6158C20.061 33.6427 20.0647 33.6711 20.0625 33.6994C20.0603 33.7277 20.0523 33.7552 20.0391 33.7803C19.8881 34.1012 19.7983 34.4472 19.7742 34.8008C19.7739 34.9027 19.7938 35.0036 19.8328 35.0978C19.8718 35.192 19.9291 35.2775 20.0015 35.3494C20.0448 35.3834 20.0728 35.4331 20.0795 35.4876C20.0861 35.5422 20.0708 35.5971 20.037 35.6404C20.0176 35.6656 19.9926 35.6859 19.9641 35.7C19.9355 35.714 19.9041 35.7214 19.8722 35.7215Z" fill="#A46220"/>
<path d="M21.261 35.9749C21.2376 35.9746 21.2143 35.9704 21.1922 35.9624C21.0594 35.9063 20.9409 35.8212 20.8456 35.7132C20.7503 35.6053 20.6806 35.4774 20.6417 35.3389C20.5249 34.9503 20.7063 34.3372 20.7272 34.2686C20.7435 34.216 20.7801 34.172 20.829 34.1462C20.8779 34.1205 20.935 34.1152 20.9878 34.1314C21.0406 34.1477 21.0848 34.1842 21.1106 34.2329C21.1364 34.2816 21.1418 34.3386 21.1255 34.3912C21.0356 34.6586 21.0064 34.9425 21.04 35.2225C21.0597 35.2997 21.096 35.3716 21.1465 35.4333C21.1969 35.495 21.2602 35.5451 21.3319 35.58C21.378 35.5967 21.4167 35.629 21.4413 35.6713C21.4658 35.7136 21.4747 35.7631 21.4662 35.8113C21.4577 35.8594 21.4325 35.903 21.395 35.9344C21.3575 35.9659 21.3101 35.9832 21.261 35.9832V35.9749Z" fill="#A46220"/>
<path d="M24.0887 34.8114C24.5538 35.4847 25.2482 35.73 26.0553 35.7466C27.2252 35.7716 28.1761 35.4432 29.1646 35.0067C29.7079 34.7569 30.2117 34.4292 30.6598 34.0341C31.5065 33.315 31.8381 32.3839 31.836 31.3011C31.836 30.1642 30.6682 28.6429 28.9644 28.9921C28.0941 29.1986 27.2793 29.5915 26.5766 30.1434C25.8989 30.6339 24.6038 31.7292 24.1013 32.8245C23.8844 33.3004 23.6946 34.244 24.0887 34.8114Z" fill="#EABA5F"/>
<path d="M26.1782 35.9563H26.051C25.0772 35.9376 24.3827 35.6009 23.9156 34.9317C23.4714 34.2895 23.6695 33.269 23.9156 32.7411C24.5162 31.4276 26.1386 30.2076 26.4577 29.9769C27.1859 29.4096 28.028 29.0049 28.9268 28.7902C29.2924 28.7124 29.6709 28.7178 30.0341 28.8059C30.3973 28.8941 30.7359 29.0628 31.0247 29.2994C31.3282 29.5419 31.5765 29.8459 31.753 30.1914C31.9295 30.5368 32.0303 30.9157 32.0486 31.3029C32.0486 32.5312 31.6441 33.4769 30.7974 34.1939C30.3331 34.6019 29.8119 34.9407 29.25 35.1998C28.2178 35.6529 27.2939 35.9563 26.1782 35.9563ZM29.4565 29.1477C29.3051 29.148 29.1541 29.164 29.0061 29.1955C28.1653 29.3968 27.3783 29.7776 26.6996 30.3116C26.3951 30.5319 24.8478 31.6936 24.291 32.9115C24.0824 33.3667 23.9344 34.223 24.2597 34.6927C24.6413 35.2455 25.2294 35.524 26.0594 35.5386C27.1563 35.5593 28.0593 35.2663 29.079 34.8174C29.6044 34.5746 30.0918 34.2575 30.5263 33.8759C31.2687 33.2524 31.6295 32.4024 31.6274 31.3029C31.6079 30.9773 31.5202 30.6593 31.3701 30.3694C31.22 30.0795 31.0107 29.824 30.7557 29.6195C30.391 29.3162 29.9315 29.1494 29.4565 29.1477Z" fill="#A46220"/>
<path d="M27.0251 31.6708C27.9969 31.6937 28.7164 32.2569 28.4682 33.2898C28.3791 33.7012 28.1535 34.0707 27.8276 34.3385C27.5018 34.6062 27.0949 34.7567 26.6727 34.7654C25.6633 34.8257 25.0982 34.0318 25.2129 33.2877C25.3318 32.4273 26.1555 31.6583 27.0251 31.6708Z" fill="#F28E77"/>
<path d="M28.1406 31.5795C28.0732 31.5771 28.0071 31.5596 27.9473 31.5282C27.8876 31.4969 27.8357 31.4524 27.7956 31.3983C27.7555 31.3441 27.7282 31.2816 27.7157 31.2155C27.7032 31.1493 27.7059 31.0812 27.7236 31.0163C27.7942 30.7529 27.9389 30.5152 28.1407 30.331C28.3424 30.1469 28.5927 30.0241 28.8622 29.9771C28.9272 29.9642 28.9944 29.9658 29.0587 29.9819C29.1231 29.998 29.183 30.028 29.2343 30.07C29.2855 30.1119 29.3268 30.1647 29.3552 30.2245C29.3835 30.2842 29.3982 30.3495 29.3981 30.4156C29.4086 30.9186 28.6411 31.6273 28.1406 31.5795Z" fill="#F28E77"/>
<path d="M28.6935 31.916C28.7113 31.771 28.7765 31.6359 28.8791 31.5315L28.9208 31.4858C29.1128 31.2913 29.339 31.1335 29.5881 31.0202C29.6822 30.962 29.7925 30.9355 29.9029 30.9445C30.0133 30.9534 30.1178 30.9975 30.2012 31.0701C30.2845 31.1449 30.34 31.2456 30.3585 31.3558C30.3771 31.466 30.3577 31.5792 30.3034 31.677C30.2183 31.8824 30.0822 32.0629 29.9078 32.2015C29.7334 32.34 29.5265 32.432 29.3066 32.4688C29.2607 32.4791 29.2139 32.4847 29.1669 32.4855C29.1259 32.4887 29.0848 32.4887 29.0438 32.4855H29.0292C28.9944 32.4773 28.9607 32.4647 28.9291 32.448C28.8376 32.3965 28.7652 32.3169 28.7227 32.221C28.6802 32.1251 28.67 32.0181 28.6935 31.916Z" fill="#F28E77"/>
<path d="M29.8362 32.4149C29.9013 32.3891 29.9712 32.3781 30.0411 32.3826C30.1109 32.387 30.1789 32.4069 30.2401 32.4406C30.3014 32.4744 30.3543 32.5213 30.3952 32.578C30.436 32.6346 30.4638 32.6996 30.4764 32.7682C30.5577 33.3397 29.8862 34.0152 29.3065 33.9466C28.9144 33.8988 28.756 33.6702 28.8748 33.3023C29.0271 32.8326 29.4129 32.5832 29.8362 32.4149Z" fill="#F28E77"/>
<path d="M5.58918 12.2698C6.07924 11.3158 7.07815 10.7214 7.11151 10.5593C5.58917 10.4574 5.72472 9.47024 6.28987 8.83635C6.91548 8.1318 8.29185 7.71821 8.3419 7.64963L8.35233 7.63716C8.35301 7.63233 8.35301 7.62743 8.35233 7.62261L8.30228 7.52493C8.0663 7.05163 7.91794 6.53978 7.86434 6.01398C7.80524 5.6072 7.8964 5.19287 8.12085 4.84804C8.95501 3.74029 10.4899 3.98138 11.47 4.46563C11.9058 0.66021 15.6742 2.64293 15.7409 2.97755C15.4698 0.00761459 19.1422 -1.09806 20.6145 2.21896C21.1316 0.140628 24.0324 -0.788385 24.3244 3.08978C24.3244 3.08978 25.1961 1.40425 26.6871 1.42711C27.2773 1.42711 27.759 1.69937 27.9238 2.62215C27.9863 2.97547 27.8466 3.8255 27.8153 4.1809C28.6808 3.653 30.689 3.20616 31.4147 4.28897C32.0841 5.2928 31.6754 6.51902 31.0143 6.6458C32.6055 6.386 34.1716 7.37113 33.3562 8.44771C33.1462 8.70262 32.8884 8.91439 32.5972 9.0712C33.1414 9.3019 34.0715 10.1104 34.2655 10.7339C34.5157 11.5548 34.1487 11.8395 33.9485 12.0079C33.4876 12.3965 32.8349 12.4859 32.8662 12.7623C32.9267 13.2944 34.5345 14.5268 34.743 15.9401C34.8327 16.5636 34.6388 17.2141 33.8463 17.345C33.3604 17.4261 32.7431 17.3201 32.7077 17.3575C32.6722 17.3949 32.7077 17.4095 32.7077 17.4386C32.8412 17.9249 33.0539 18.3509 33.1811 18.8518C33.6774 20.8075 32.8912 21.0611 31.6692 20.6517C31.5545 20.6122 31.6274 20.8595 31.6358 20.953C31.6525 21.1608 31.6587 21.3687 31.6546 21.5765C31.6546 21.7386 31.6399 21.8986 31.6212 22.0566C31.5314 22.8451 31.2641 23.6031 30.8392 24.2742C30.8016 24.3344 30.7641 24.3864 30.7286 24.4342C30.5201 24.7189 30.3428 24.773 30.1635 24.5963C30.0653 24.4873 29.9845 24.3639 29.9237 24.2305C29.7965 23.9749 29.6901 23.7068 29.5712 23.447C29.54 23.3763 29.5358 23.2766 29.4336 23.26C29.3825 23.3558 29.3573 23.4632 29.3606 23.5717C29.3118 23.8982 29.2308 24.2192 29.1187 24.5298L29.0874 24.6109C28.8703 25.1762 28.5484 25.6958 28.1386 26.1426C27.6902 26.6372 27.4254 26.5853 27.1647 25.9701C27.0562 25.7165 26.9562 25.4547 26.8352 25.1388C26.7643 25.3133 26.7163 25.4235 26.6746 25.5357C26.5751 25.8073 26.4574 26.0718 26.3222 26.3276C26.0703 26.8043 25.7623 27.2495 25.4046 27.6535C25.3113 27.7661 25.2049 27.8673 25.0876 27.9549C24.8145 28.1399 24.6476 27.9861 24.4745 27.4623C24.3703 27.1443 24.2931 26.8139 24.1993 26.4751C24.1034 26.5857 24.0323 26.7153 23.9907 26.8555C23.7722 27.327 23.5133 27.779 23.217 28.2064C23.0543 28.4396 22.8789 28.6637 22.6915 28.8777C22.2911 29.3349 22.0993 29.2933 21.8845 28.7363C21.8198 28.5597 21.7614 28.381 21.6968 28.1981C21.5591 28.2646 21.5404 28.3934 21.5008 28.5015C21.3617 28.8701 21.2283 29.24 21.1004 29.6113C20.944 30.0498 20.75 30.106 20.4497 29.7901C20.1634 29.4749 19.9498 29.101 19.8241 28.6948L19.797 28.6179C19.7574 28.4911 19.7595 28.3373 19.6427 28.2479C19.5596 28.3518 19.4967 28.4702 19.4571 28.5971L19.3695 28.7883C19.0893 29.4216 18.7122 30.0077 18.2517 30.5258C17.7449 31.0745 17.5593 31.0225 17.3925 30.266C17.307 29.8836 17.2507 29.4908 17.184 29.0689C17.0028 29.2825 16.7986 29.4755 16.575 29.6446C16.158 29.9168 15.9494 29.8192 15.9056 29.2933C15.8578 28.8356 15.7833 28.3811 15.6825 27.932C15.6408 27.7346 15.6012 27.5351 15.5657 27.3356C15.5553 27.2753 15.5657 27.1963 15.4489 27.2046C15.4031 27.3127 15.3488 27.4291 15.3009 27.5496C15.2407 27.696 15.171 27.8383 15.0923 27.9757C15.0105 28.121 14.9178 28.2599 14.815 28.3913C14.5376 28.7363 14.3624 28.726 14.1497 28.3498C14.0473 28.165 13.9547 27.9749 13.8724 27.7803C13.8453 27.718 13.8202 27.6577 13.7952 27.5953C13.536 26.9568 13.331 26.2977 13.1821 25.6251C13.0257 25.8662 12.9256 26.1093 12.8046 26.3255C12.7581 26.4075 12.7066 26.4866 12.6503 26.5624C12.3229 26.9906 12.0664 26.9781 11.8433 26.498C11.739 26.2708 11.6368 26.0442 11.5367 25.8184C11.2835 25.2561 11.0784 24.6735 10.9236 24.0767C10.909 24.0165 10.9236 23.9333 10.8485 23.9167C10.7735 23.9001 10.7359 23.9874 10.6921 24.0435C10.5776 24.2097 10.4537 24.3693 10.3209 24.5215C10.029 24.8229 9.81836 24.7979 9.59314 24.4446C9.42089 24.1719 9.28556 23.8777 9.19066 23.5696C9.0915 23.2473 9.02512 22.9159 8.99254 22.5803C8.98212 22.4764 8.97169 22.3725 8.96543 22.2686C8.95865 21.8359 8.98165 21.4033 9.03426 20.9738C8.66931 21.3895 8.40863 21.7677 8.09374 22.0795C8.01358 22.1637 7.91983 22.2339 7.81638 22.2873C7.60784 22.385 7.45561 22.2769 7.33674 21.9423C7.33674 21.9215 7.32215 21.8986 7.31589 21.8758C7.13408 21.2918 7.05712 20.6804 7.08858 20.0697C7.10985 19.6143 7.18474 19.163 7.31172 18.725C7.33048 18.6544 7.35342 18.5858 7.37427 18.5172C7.51919 18.0733 7.70271 17.6428 7.92274 17.2307C7.94776 17.1995 7.97487 17.1642 7.93733 17.1289C7.8998 17.0936 7.89145 17.1434 7.86643 17.1517C7.40764 17.3928 6.37745 17.6796 5.97706 17.4386C5.35144 17.0645 6.33157 15.036 7.1991 14.08C7.31518 13.992 7.40701 13.8762 7.46603 13.7433C7.32005 13.6872 6.78828 13.7828 6.67358 13.789C5.26594 13.8534 5.18878 13.0387 5.58918 12.2698Z" fill="#EE8211"/>
<path d="M17.7554 31.1055C17.7217 31.1054 17.6881 31.1012 17.6553 31.0931C17.4051 31.0266 17.2925 30.7335 17.1986 30.3178C17.1402 30.056 17.0964 29.7941 17.0506 29.5198C16.9423 29.6335 16.8221 29.7352 16.6919 29.8232C16.5897 29.8897 16.2748 30.0934 16.012 29.9624C15.7493 29.8315 15.7159 29.5364 15.6992 29.3161C15.6553 28.8856 15.5857 28.4581 15.4907 28.0358L15.4803 27.9797L15.4365 27.7719C15.3888 27.8801 15.3352 27.9855 15.2759 28.0878C15.1893 28.2406 15.091 28.3865 14.9818 28.5242C14.9253 28.6185 14.8465 28.6977 14.7525 28.7549C14.6584 28.8121 14.5517 28.8456 14.4417 28.8526C14.3371 28.8293 14.2397 28.781 14.1579 28.7119C14.0762 28.6427 14.0126 28.5548 13.9725 28.4557C13.862 28.2624 13.764 28.0587 13.6847 27.8675L13.6076 27.6846C13.4102 27.1999 13.2451 26.7028 13.1133 26.1965C13.0716 26.2776 13.032 26.3565 12.9903 26.4314C12.939 26.5218 12.8826 26.6092 12.8214 26.6932C12.74 26.7972 12.494 27.1089 12.1812 27.0798C11.8683 27.0507 11.7099 26.7016 11.6577 26.5872C11.5535 26.3607 11.4492 26.1342 11.3512 25.9056C11.1168 25.3862 10.9223 24.8498 10.7694 24.3011L10.7506 24.326C10.6679 24.4473 10.5758 24.5619 10.4753 24.6689C10.4155 24.7584 10.3322 24.8299 10.2346 24.8757C10.1369 24.9215 10.0286 24.9398 9.92122 24.9287C9.81388 24.9176 9.71163 24.8774 9.62552 24.8126C9.5394 24.7478 9.4727 24.6607 9.43261 24.5609C9.25397 24.2712 9.11378 23.9596 9.01553 23.6339C8.91125 23.2989 8.84138 22.9542 8.80699 22.6052C8.79656 22.4992 8.78822 22.3973 8.78196 22.2851C8.76641 22.0651 8.76641 21.8442 8.78196 21.6242C8.61806 21.8371 8.44117 22.0398 8.25228 22.2311C8.15616 22.3326 8.0433 22.4169 7.91861 22.4805C7.85796 22.5122 7.79117 22.5304 7.72278 22.534C7.6544 22.5376 7.58604 22.5264 7.52239 22.5012C7.42945 22.4519 7.34833 22.383 7.28461 22.2994C7.2209 22.2158 7.17609 22.1195 7.15327 22.017C7.14493 21.9948 7.13659 21.9699 7.12825 21.9422C6.94079 21.3372 6.86104 20.7041 6.89259 20.0717C6.91493 19.6008 6.99262 19.1341 7.12407 18.6813C7.14492 18.6085 7.16578 18.5379 7.18872 18.4734C7.2891 18.1498 7.41102 17.8332 7.55366 17.5257C7.01354 17.7149 6.26072 17.8624 5.87283 17.6276C5.79171 17.5751 5.72389 17.5047 5.67468 17.4218C5.62547 17.3388 5.59622 17.2457 5.58922 17.1496C5.46618 16.3182 6.36499 14.7034 7.049 13.9531L6.87175 13.9759L6.69448 13.9967C6.01047 14.0279 5.54751 13.8658 5.32228 13.5146C5.09706 13.1633 5.13461 12.704 5.40779 12.174C5.73354 11.613 6.16391 11.1192 6.67572 10.7192C6.09598 10.5924 5.85615 10.3035 5.75814 10.077C5.59548 9.67796 5.73937 9.15422 6.13768 8.70738C6.64443 8.13792 7.57869 7.75967 8.02705 7.57677L8.08127 7.55599C7.85589 7.07787 7.71481 6.56465 7.66419 6.03881C7.60213 5.58231 7.71129 5.11904 7.97074 4.73778C8.75694 3.69861 10.1708 3.69861 11.3199 4.17455C11.6139 2.4246 12.6399 2.00685 13.472 1.9736C14.1986 1.9729 14.9122 2.16593 15.5387 2.53267C15.595 1.15682 16.4771 0.315093 17.4155 0.0740074C18.3539 -0.167079 19.7094 0.132201 20.6041 1.69926C21.0212 0.780639 21.8762 0.159219 22.7208 0.23196C23.1691 0.26937 24.1805 0.574884 24.4892 2.50565C24.8896 1.9736 25.6549 1.22124 26.7143 1.22956C27.5214 1.22956 27.9926 1.68679 28.1532 2.5971C28.1809 3.00748 28.1606 3.41968 28.0927 3.82539C29.148 3.34945 30.8997 3.11876 31.6129 4.18494C31.8098 4.46883 31.934 4.79639 31.9747 5.13908C32.0154 5.48177 31.9714 5.82919 31.8465 6.15104C31.809 6.24116 31.7629 6.32747 31.7088 6.40875C32.5597 6.44616 33.3333 6.79324 33.6566 7.32945C33.773 7.52206 33.8253 7.74649 33.8058 7.97052C33.7863 8.19455 33.6961 8.40668 33.5481 8.57645C33.401 8.76335 33.2267 8.92728 33.031 9.06278C33.5919 9.41402 34.3072 10.0895 34.4907 10.6818C34.7764 11.615 34.3364 11.9849 34.1237 12.1636C33.9123 12.3319 33.6795 12.4717 33.4314 12.5793C33.3155 12.6274 33.2056 12.6887 33.1039 12.7622C33.1352 12.9139 33.3959 13.2298 33.6483 13.5374C34.1529 14.1505 34.8432 14.9922 34.9787 15.9192C35.0788 16.6092 34.8515 17.4031 33.9089 17.559C33.6088 17.5983 33.3052 17.6038 33.0038 17.5756C33.0539 17.7294 33.1081 17.8811 33.1665 18.037C33.267 18.2888 33.3526 18.5463 33.423 18.8081C33.6774 19.8077 33.6316 20.4562 33.2583 20.7929C32.9684 21.0589 32.5179 21.1046 31.8819 20.93V20.9446C31.9003 21.1574 31.9073 21.3711 31.9028 21.5847C31.9028 21.7551 31.8861 21.9235 31.8673 22.0835C31.7656 22.9033 31.4798 23.6897 31.0311 24.3842C30.9894 24.4493 30.9497 24.5075 30.9122 24.5588C30.8579 24.6474 30.7858 24.7238 30.7004 24.7832C30.6149 24.8426 30.5181 24.8836 30.4159 24.9038C30.344 24.9074 30.2722 24.8949 30.2058 24.8672C30.1394 24.8395 30.08 24.7973 30.0322 24.7438C29.9168 24.621 29.8217 24.4807 29.7506 24.3281C29.6735 24.1743 29.6047 24.0164 29.5421 23.8605C29.4906 24.1138 29.4209 24.3632 29.3335 24.6066L29.3002 24.6918C29.0731 25.2805 28.7379 25.8218 28.3117 26.288C28.1198 26.4958 27.8633 26.7327 27.5672 26.6849C27.2711 26.6371 27.1043 26.3233 26.9917 26.0614C26.9437 25.9492 26.8978 25.837 26.8519 25.7206C26.7577 25.9657 26.649 26.2051 26.5266 26.4376C26.266 26.9284 25.949 27.3874 25.5819 27.8051C25.4765 27.9315 25.3561 28.0445 25.2232 28.1418C25.1609 28.1916 25.0873 28.2258 25.0089 28.2413C24.9305 28.2569 24.8496 28.2534 24.7728 28.2312C24.5267 28.146 24.3974 27.8509 24.2952 27.5412C24.2431 27.3812 24.1951 27.217 24.1513 27.0528C23.939 27.5012 23.69 27.9315 23.4068 28.3393C23.2392 28.5787 23.0589 28.809 22.8667 29.0293C22.6707 29.2537 22.4497 29.4553 22.1994 29.4096C21.9492 29.3639 21.8094 29.0875 21.7094 28.8235L21.6676 28.7113C21.5467 29.0376 21.432 29.366 21.3152 29.6943C21.2464 29.8876 21.1254 30.1516 20.8793 30.2035C20.6333 30.2555 20.3914 30.0248 20.3184 29.9479C20.0098 29.6115 19.7798 29.2112 19.6448 28.7757V28.757C19.6239 28.8007 19.6031 28.8464 19.5843 28.89C19.2961 29.544 18.9062 30.1486 18.429 30.6816C18.1746 30.933 17.9661 31.1055 17.7554 31.1055ZM17.1861 28.8672C17.2074 28.8674 17.2285 28.8709 17.2487 28.8776C17.2853 28.8888 17.3181 28.9099 17.3435 28.9385C17.3689 28.9671 17.3858 29.0021 17.3926 29.0397C17.4155 29.1727 17.4384 29.3036 17.4593 29.4304C17.5052 29.7089 17.549 29.9708 17.6074 30.2264C17.6271 30.3893 17.6804 30.5463 17.7638 30.6878C17.8974 30.6128 18.0144 30.5117 18.1079 30.3906C18.5546 29.8891 18.9197 29.3211 19.1902 28.7071C19.2194 28.6448 19.2486 28.5824 19.2757 28.518C19.2879 28.4938 19.2983 28.4688 19.307 28.4432C19.3488 28.3195 19.4155 28.2056 19.503 28.1086C19.5384 28.0723 19.586 28.0501 19.6367 28.0463C19.6874 28.0425 19.7377 28.0572 19.7783 28.0878C19.8944 28.1866 19.9688 28.3254 19.9868 28.4764C19.9868 28.5055 19.9993 28.5326 20.0077 28.5596L20.0327 28.6344C20.1486 29.0127 20.3466 29.3611 20.6124 29.6549C20.7271 29.7754 20.7813 29.7879 20.7876 29.7879C20.848 29.7186 20.8909 29.6359 20.9127 29.5468C21.0441 29.1748 21.1776 28.8027 21.3152 28.4349L21.3319 28.3871C21.3495 28.3084 21.3843 28.2345 21.4336 28.1706C21.483 28.1067 21.5458 28.0543 21.6176 28.0171C21.644 28.0044 21.6729 27.9973 21.7023 27.9964C21.7317 27.9956 21.7609 28.0009 21.7881 28.0121C21.8153 28.0233 21.8398 28.0401 21.86 28.0613C21.8802 28.0826 21.8957 28.1079 21.9054 28.1356L21.9638 28.3081C22.0055 28.4307 22.0472 28.5492 22.091 28.6677C22.1994 28.9524 22.262 28.9898 22.2703 28.9939C22.2787 28.9981 22.3412 28.9794 22.5456 28.7466C22.7274 28.5383 22.8979 28.3204 23.0565 28.094C23.3448 27.676 23.5973 27.2345 23.8114 26.7743C23.8239 26.7452 23.8365 26.7161 23.8469 26.687C23.889 26.5539 23.9602 26.4319 24.0554 26.3295C24.0816 26.3049 24.1136 26.2875 24.1485 26.2789C24.1834 26.2703 24.2199 26.2709 24.2545 26.2805C24.2892 26.2901 24.3207 26.3085 24.3461 26.3338C24.3715 26.3592 24.3899 26.3906 24.3995 26.4251C24.4287 26.5332 24.4579 26.633 24.485 26.7473C24.5455 26.9759 24.6039 27.192 24.6727 27.404C24.802 27.7927 24.8812 27.8197 24.8812 27.8197C24.9112 27.8135 24.9392 27.7999 24.9626 27.7802C25.0652 27.7027 25.1583 27.6134 25.2399 27.5142C25.5858 27.1212 25.8846 26.6895 26.1304 26.2277C26.2619 25.9805 26.3755 25.7242 26.4703 25.4608C26.4974 25.386 26.5287 25.3132 26.5662 25.2218L26.633 25.0597C26.6484 25.021 26.6752 24.9878 26.7097 24.9645C26.7443 24.9412 26.7851 24.9287 26.8269 24.9287C26.8683 24.9291 26.9087 24.9418 26.9429 24.9651C26.977 24.9884 27.0034 25.0213 27.0188 25.0597L27.1355 25.3527C27.2085 25.5398 27.2753 25.7123 27.3441 25.8806C27.4859 26.2152 27.5797 26.2547 27.6068 26.2589C27.6339 26.263 27.732 26.2589 27.9718 25.9949C28.3627 25.5664 28.6709 25.0697 28.881 24.5297L28.9019 24.4694C29.0131 24.1656 29.0942 23.8517 29.1438 23.5321V23.4656C29.1425 23.3437 29.1797 23.2245 29.2501 23.1247C29.2738 23.0933 29.306 23.0691 29.3429 23.0551C29.3798 23.0412 29.42 23.0379 29.4587 23.0458C29.5277 23.0588 29.5914 23.0917 29.6418 23.1405C29.6922 23.1893 29.7272 23.2517 29.7423 23.3201C29.7411 23.3312 29.7411 23.3423 29.7423 23.3534C29.7861 23.4469 29.8278 23.5425 29.8674 23.6381C29.9383 23.8023 30.0113 23.9706 30.0905 24.1286C30.143 24.2429 30.2134 24.3481 30.2991 24.4403C30.3304 24.4715 30.3512 24.4819 30.3575 24.4819C30.3575 24.4819 30.42 24.4819 30.5493 24.3011C30.5827 24.2595 30.614 24.2096 30.6494 24.1556C31.0581 23.5111 31.3155 22.7828 31.4023 22.0253C31.419 21.8757 31.4294 21.7198 31.4336 21.5639C31.4377 21.3642 31.4314 21.1644 31.4148 20.9654C31.4148 20.9467 31.4148 20.9238 31.4148 20.8989C31.3918 20.7638 31.3627 20.5975 31.4857 20.4832C31.5193 20.4543 31.56 20.435 31.6037 20.4273C31.6474 20.4196 31.6924 20.4239 31.7338 20.4395C32.3303 20.6474 32.7327 20.6474 32.9329 20.4645C33.1686 20.2567 33.1832 19.7017 32.9767 18.887C32.9099 18.6402 32.8292 18.3974 32.7348 18.1596C32.6535 17.9518 32.5701 17.7169 32.5034 17.4779C32.5024 17.4696 32.5024 17.4613 32.5034 17.453C32.4881 17.4101 32.4842 17.3639 32.4923 17.3191C32.5003 17.2743 32.52 17.2323 32.5492 17.1974C32.6285 17.1142 32.7119 17.1205 32.9663 17.135C33.2484 17.1649 33.5329 17.1649 33.8151 17.135C34.6033 17.0041 34.5846 16.2725 34.5387 15.9628C34.4198 15.1523 33.7984 14.3937 33.2875 13.7868C32.935 13.3566 32.6785 13.0469 32.6493 12.7809C32.6139 12.4754 32.9183 12.3299 33.2145 12.1886C33.4248 12.0984 33.623 11.9825 33.8047 11.8436C34.0132 11.6752 34.2593 11.4591 34.0549 10.7878C33.8797 10.2142 32.9955 9.4639 32.5075 9.25606C32.4716 9.24106 32.4407 9.21636 32.4182 9.18474C32.3956 9.15313 32.3824 9.11586 32.3801 9.07716C32.3777 9.03845 32.3862 8.99986 32.4047 8.96573C32.4231 8.9316 32.4508 8.90331 32.4846 8.88404C32.7513 8.73971 32.9878 8.54569 33.1811 8.3125C33.28 8.20823 33.3418 8.07457 33.3573 7.93196C33.3727 7.78935 33.3408 7.64562 33.2666 7.52274C32.983 7.05511 32.0738 6.67062 31.0394 6.83897C30.9841 6.84861 30.9272 6.83597 30.8813 6.80381C30.8353 6.77166 30.804 6.72263 30.7944 6.6675C30.7847 6.61238 30.7974 6.55569 30.8297 6.50989C30.8619 6.46409 30.9111 6.43295 30.9664 6.4233C31.0753 6.38945 31.1743 6.32979 31.2549 6.24943C31.3355 6.16906 31.3954 6.0704 31.4294 5.96191C31.5276 5.70356 31.5611 5.42523 31.5269 5.15106C31.4927 4.8769 31.392 4.61518 31.2333 4.38862C30.5952 3.43674 28.7059 3.85864 27.9155 4.34082C27.8838 4.35906 27.8478 4.36866 27.8112 4.36866C27.7746 4.36866 27.7387 4.35906 27.707 4.34082C27.674 4.32053 27.6474 4.2915 27.6301 4.257C27.6128 4.2225 27.6055 4.18387 27.6089 4.14545C27.6089 4.05609 27.6319 3.93762 27.6486 3.80253C27.712 3.4194 27.7357 3.03079 27.7195 2.64282C27.563 1.74914 27.1084 1.62236 26.6872 1.61821C25.3442 1.5995 24.5184 3.15617 24.5121 3.1728C24.4914 3.21348 24.4579 3.24625 24.4166 3.26605C24.3754 3.28585 24.3288 3.29158 24.284 3.28236C24.2391 3.27315 24.1986 3.24949 24.1686 3.21504C24.1386 3.18059 24.1208 3.13726 24.118 3.09174C24.0054 1.58911 23.4757 0.687114 22.6582 0.618529C21.8824 0.554101 21.0566 1.28983 20.8147 2.25625C20.8042 2.29804 20.7808 2.33552 20.748 2.36352C20.7151 2.39151 20.6743 2.40863 20.6312 2.41251C20.5882 2.41639 20.545 2.40684 20.5076 2.38518C20.4703 2.36351 20.4406 2.3308 20.4227 2.29158C19.6573 0.570728 18.3665 0.223647 17.4927 0.450185C16.6189 0.676723 15.8243 1.53092 15.9474 2.94418C15.9522 2.99708 15.9366 3.04982 15.9036 3.09157C15.8706 3.13331 15.8229 3.16089 15.7701 3.16864C15.723 3.17543 15.6749 3.16594 15.634 3.14174C15.593 3.11754 15.5616 3.0801 15.5449 3.03563C15.401 2.86105 14.1414 2.1461 13.0633 2.41213C12.2771 2.60957 11.812 3.30165 11.6765 4.46967C11.6728 4.5031 11.6609 4.53513 11.6421 4.563C11.6232 4.59088 11.5978 4.61377 11.5681 4.6297C11.5384 4.64501 11.5055 4.653 11.4721 4.653C11.4387 4.653 11.4058 4.64501 11.3762 4.6297C10.419 4.15792 9.03638 3.9584 8.28564 4.95184C8.08819 5.25324 8.00809 5.61616 8.06041 5.9723C8.11268 6.47191 8.25391 6.95823 8.47749 7.40843L8.52338 7.49987C8.54231 7.53801 8.5523 7.57994 8.55258 7.6225C8.55031 7.65968 8.53806 7.69557 8.51711 7.72641L8.49835 7.75343C8.45247 7.8137 8.39825 7.83449 8.17094 7.92801C7.75386 8.09636 6.878 8.45175 6.43589 8.94847C6.15019 9.27061 6.03132 9.6364 6.13351 9.88372C6.23569 10.131 6.5777 10.2994 7.11782 10.3285C7.1475 10.3305 7.17639 10.3389 7.20255 10.353C7.22872 10.3671 7.25155 10.3866 7.26953 10.4102C7.2875 10.4339 7.30019 10.461 7.30676 10.49C7.31332 10.5189 7.31361 10.5488 7.30759 10.5779C7.28256 10.7005 7.1762 10.7857 6.94055 10.9935C6.46768 11.364 6.06933 11.8203 5.76647 12.3382C5.55794 12.7248 5.52875 13.0615 5.66013 13.2652C5.79151 13.4688 6.14394 13.579 6.66321 13.5561L6.80501 13.5395C7.04661 13.4829 7.29749 13.478 7.54115 13.5249C7.58985 13.5441 7.62955 13.5808 7.65234 13.6278C7.67514 13.6748 7.67937 13.7286 7.66419 13.7785C7.61747 13.9172 7.533 14.0402 7.42021 14.1339C7.39727 14.1547 7.37433 14.1755 7.35347 14.1983C6.66529 14.9569 5.89369 16.4284 5.99796 17.0664C6.01673 17.1974 6.06886 17.2285 6.08555 17.2389C6.37333 17.4135 7.31176 17.187 7.77055 16.948L7.79766 16.9355C7.84032 16.9075 7.89104 16.8944 7.94196 16.8982C7.99288 16.9019 8.04113 16.9223 8.07919 16.9563C8.12983 17.0021 8.1604 17.0658 8.1643 17.1339C8.1682 17.2019 8.14512 17.2687 8.10003 17.32C7.88838 17.7197 7.71186 18.1369 7.57244 18.567C7.55158 18.6335 7.53072 18.7021 7.51195 18.7748C7.39146 19.1974 7.32146 19.6327 7.30341 20.0717C7.27069 20.6585 7.34127 21.2466 7.51195 21.8092C7.51195 21.8299 7.52656 21.8487 7.53281 21.8674C7.6058 22.0752 7.66627 22.1043 7.67044 22.1064C7.69026 22.1073 7.70989 22.1022 7.72675 22.0918C7.80908 22.0489 7.88319 21.9919 7.94572 21.9235C8.13018 21.7333 8.30355 21.5328 8.46498 21.3228C8.59219 21.1628 8.72357 21.0007 8.88206 20.8282C8.91087 20.7947 8.94965 20.7712 8.99277 20.7611C9.03589 20.751 9.08111 20.7548 9.12188 20.7721C9.16193 20.7893 9.19555 20.8187 9.218 20.8559C9.24044 20.8932 9.25058 20.9366 9.247 20.9799C9.247 21.0797 9.23032 21.1753 9.22198 21.2688C9.18534 21.593 9.1714 21.9194 9.18027 22.2456C9.18027 22.3475 9.19488 22.4534 9.20531 22.547C9.23649 22.8691 9.30006 23.1873 9.39507 23.4968C9.48399 23.7894 9.61163 24.069 9.77461 24.3281C9.86012 24.4632 9.92685 24.5131 9.96022 24.5172C9.99358 24.5214 10.0687 24.484 10.1688 24.3717C10.254 24.2781 10.3327 24.1788 10.4044 24.0745C10.4419 24.0205 10.4816 23.9665 10.5212 23.9145L10.54 23.8875C10.5712 23.8247 10.622 23.7735 10.6847 23.7417C10.7475 23.7099 10.8188 23.6991 10.8882 23.7108C10.9529 23.7272 11.0105 23.7644 11.0519 23.8166C11.0934 23.8688 11.1165 23.9332 11.1176 23.9997C11.1176 23.9997 11.1176 24.0164 11.1176 24.0226C11.2692 24.6081 11.4709 25.1797 11.7203 25.731C11.8183 25.9575 11.9288 26.182 12.0248 26.4064C12.1207 26.6309 12.1874 26.6558 12.2145 26.66C12.2416 26.6641 12.3334 26.6184 12.4773 26.4314C12.5274 26.3654 12.5727 26.296 12.6128 26.2235C12.6566 26.1446 12.6983 26.0635 12.74 25.9783C12.8172 25.8287 12.8965 25.6728 12.9986 25.5127C13.0208 25.4781 13.0527 25.4507 13.0905 25.4341C13.1282 25.4175 13.1701 25.4125 13.2107 25.4196C13.2513 25.4267 13.2889 25.4457 13.3187 25.4741C13.3486 25.5025 13.3692 25.5391 13.3782 25.5793C13.5242 26.2404 13.7251 26.8883 13.9788 27.5163C14.0059 27.5807 14.0288 27.6389 14.0559 27.6971C14.1356 27.885 14.2247 28.0688 14.3229 28.2478C14.4125 28.4058 14.4605 28.4307 14.4668 28.4349C14.5354 28.3872 14.5954 28.3282 14.644 28.2603C14.7399 28.1396 14.8264 28.0118 14.9026 27.8779C14.9756 27.7483 15.0403 27.6144 15.0966 27.4768C15.1299 27.3916 15.1674 27.3084 15.2029 27.2294L15.2467 27.1255C15.2619 27.0905 15.2865 27.0604 15.3178 27.0384C15.349 27.0164 15.3858 27.0034 15.4239 27.0008C15.4654 26.9959 15.5074 26.9996 15.5473 27.0118C15.5872 27.024 15.6242 27.0443 15.6558 27.0715C15.6874 27.0987 15.7129 27.1321 15.7308 27.1697C15.7487 27.2073 15.7586 27.2481 15.7597 27.2897C15.7952 27.4976 15.8348 27.7054 15.8765 27.8945L15.8869 27.9506C15.9839 28.3893 16.0535 28.8335 16.0955 29.2808C16.1163 29.5426 16.1768 29.5863 16.1768 29.5883C16.1768 29.5904 16.2435 29.605 16.4437 29.474C16.6039 29.3589 16.7495 29.2249 16.8775 29.075L17.0193 28.9295C17.0407 28.9075 17.0668 28.8905 17.0957 28.8797C17.1245 28.8689 17.1554 28.8646 17.1861 28.8672Z" fill="#A46220"/>
<path d="M9.68714 14.5829C8.77791 19.5043 12.6192 22.1958 17.7952 23.1435C22.9711 24.0912 27.5215 22.9357 28.4307 18.0204C29.3399 13.1052 25.8803 8.34163 20.7147 7.39184C15.5492 6.44204 10.5943 9.66137 9.68714 14.5829Z" fill="#EABA5F"/>
<path d="M20.9294 23.6588C19.8649 23.6516 18.8032 23.5479 17.7575 23.3492C11.6702 22.2331 8.65473 19.0242 9.48263 14.5454C9.70681 13.3363 10.1774 12.186 10.8654 11.1654C11.5534 10.1448 12.4441 9.27567 13.4824 8.61175C15.6267 7.2203 18.228 6.70941 20.7417 7.18602C26.024 8.15659 29.565 13.0324 28.637 18.0577C27.9634 21.7031 25.2107 23.6588 20.9294 23.6588ZM9.68701 14.5828L9.89555 14.6202C9.1177 18.8392 12.0122 21.8715 17.8367 22.9335C23.6612 23.9955 27.4504 22.1957 28.2303 17.9767C29.1166 13.1758 25.7279 8.51614 20.6708 7.58505C18.2622 7.12808 15.7696 7.61658 13.7139 8.94844C12.722 9.58275 11.8711 10.4129 11.2137 11.3877C10.5562 12.3625 10.1062 13.4612 9.89138 14.616L9.68701 14.5828Z" fill="#A46220"/>
<path d="M13.3596 18.4111C13.0676 19.9865 14.5107 21.5722 16.5815 21.9443C18.6523 22.3163 20.5688 21.354 20.8586 19.7786C21.1485 18.2033 19.4739 17.8811 17.4031 17.4925C15.3323 17.1038 13.6515 16.8336 13.3596 18.4111Z" fill="white"/>
<path d="M18.7064 17.4697C18.819 16.8462 18.648 13.9491 17.8013 13.7953C16.9546 13.6415 15.7597 16.2892 15.645 16.9127C15.5303 17.5362 16.1809 17.848 17.0255 18.0039C17.8701 18.1597 18.5917 18.0891 18.7064 17.4697Z" fill="#FCC45E"/>
<path d="M17.9515 20.9112C17.8578 20.9112 17.7642 20.9029 17.672 20.8862C17.3066 20.8298 16.9785 20.6316 16.7593 20.3349C16.5401 20.0381 16.4476 19.667 16.5021 19.3025L16.7857 17.7687C16.7957 17.7136 16.8272 17.6647 16.8733 17.6327C16.9195 17.6008 16.9765 17.5884 17.0318 17.5983C17.0871 17.6082 17.1362 17.6396 17.1683 17.6856C17.2003 17.7316 17.2128 17.7884 17.2028 17.8436L16.9192 19.3774C16.8841 19.6333 16.9522 19.8927 17.1085 20.0987C17.2648 20.3048 17.4967 20.4407 17.7533 20.4768C18.0172 20.5282 18.2908 20.4777 18.5187 20.3355C18.6237 20.2704 18.7141 20.1844 18.7841 20.0828C18.8541 19.9812 18.9022 19.8663 18.9253 19.7452C18.9353 19.6901 18.9668 19.6412 19.013 19.6092C19.0591 19.5773 19.1161 19.5649 19.1714 19.5748C19.2267 19.5847 19.2758 19.6161 19.3079 19.6621C19.34 19.7081 19.3524 19.7649 19.3424 19.82C19.3091 19.9974 19.2391 20.166 19.1368 20.3148C19.0344 20.4637 18.902 20.5897 18.7481 20.6846C18.5104 20.836 18.2335 20.9147 17.9515 20.9112Z" fill="#EABA60"/>
<path d="M15.5866 20.481C15.5034 20.4806 15.4204 20.4729 15.3385 20.4581C14.9861 20.3929 14.674 20.1911 14.4707 19.897C14.2674 19.6028 14.1895 19.2403 14.2541 18.889C14.259 18.8617 14.2693 18.8356 14.2843 18.8123C14.2993 18.7889 14.3188 18.7688 14.3417 18.753C14.3645 18.7371 14.3903 18.7259 14.4175 18.72C14.4447 18.7141 14.4728 18.7136 14.5001 18.7185C14.5275 18.7234 14.5537 18.7337 14.5771 18.7487C14.6005 18.7637 14.6207 18.7831 14.6366 18.8059C14.6525 18.8286 14.6637 18.8543 14.6696 18.8814C14.6756 18.9085 14.6761 18.9365 14.6712 18.9638C14.6483 19.084 14.6495 19.2077 14.6748 19.3274C14.7001 19.4472 14.749 19.5608 14.8186 19.6617C14.8882 19.7626 14.9772 19.8487 15.0804 19.9151C15.1836 19.9815 15.2989 20.0269 15.4198 20.0487C15.6634 20.0936 15.915 20.0402 16.1191 19.9003C16.3233 19.7603 16.4633 19.5453 16.5084 19.3025L16.792 17.7687C16.802 17.7136 16.8335 17.6647 16.8796 17.6327C16.9258 17.6008 16.9828 17.5884 17.0381 17.5983C17.0934 17.6082 17.1425 17.6396 17.1745 17.6856C17.2066 17.7316 17.219 17.7884 17.2091 17.8436L16.9255 19.3774C16.8936 19.5514 16.8274 19.7174 16.7308 19.8658C16.6342 20.0142 16.5089 20.1421 16.3624 20.2419C16.1352 20.4004 15.8639 20.4839 15.5866 20.481Z" fill="#EABA60"/>
<path d="M21.3236 19.2695C21.2569 19.6373 21.6781 20.0218 22.2662 20.1278C22.8543 20.2338 23.3861 20.0281 23.4528 19.6602C23.5195 19.2923 23.1004 18.9099 22.5123 18.8018C21.9242 18.6938 21.3924 18.9037 21.3236 19.2695Z" fill="#F28E77"/>
<path d="M13.1093 17.7627C13.0426 18.1285 12.5108 18.3384 11.9227 18.2303C11.3346 18.1223 10.9134 17.7378 10.9801 17.372C11.0468 17.0062 11.5786 16.7963 12.1667 16.9044C12.7548 17.0124 13.1781 17.3969 13.1093 17.7627Z" fill="#F28E77"/>
<path d="M15.5991 17.1808C15.5178 17.6152 16.0996 18.3114 16.9442 18.4652C17.7888 18.619 18.5792 18.1764 18.6584 17.742C18.7376 17.3076 18.0787 17.0478 17.2341 16.894C16.3895 16.7402 15.6742 16.7465 15.5991 17.1808Z" fill="#A46220"/>
<path d="M29.2023 12.6645C28.6403 11.159 27.7251 9.80926 26.533 8.72816C26.7569 8.33746 27.077 8.01007 27.4632 7.77691C27.8493 7.54374 28.2887 7.4125 28.7399 7.39555C29.191 7.37861 29.6391 7.47653 30.0417 7.68008C30.4444 7.88362 30.7884 8.18606 31.0412 8.55887C31.294 8.93167 31.4473 9.36253 31.4866 9.81077C31.5259 10.259 31.45 10.7099 31.266 11.1207C31.0819 11.5316 30.7959 11.889 30.4348 12.1591C30.0737 12.4292 29.6495 12.6031 29.2023 12.6645Z" fill="#EAA948"/>
<path d="M29.2022 12.8723C29.1596 12.8724 29.1179 12.8595 29.0829 12.8354C29.0478 12.8112 29.0211 12.777 29.0062 12.7372C28.4588 11.2614 27.5624 9.93898 26.3932 8.88188C26.3577 8.85014 26.3342 8.80726 26.3266 8.76037C26.319 8.71348 26.3278 8.66541 26.3515 8.62417C26.5931 8.20286 26.9384 7.84986 27.3549 7.5985C27.7714 7.34714 28.2453 7.2057 28.7319 7.18755C29.2185 7.16939 29.7017 7.27511 30.1359 7.49473C30.5701 7.71435 30.941 8.04062 31.2135 8.44275C31.4861 8.84488 31.6513 9.30959 31.6936 9.79302C31.7359 10.2765 31.6539 10.7627 31.4554 11.2057C31.2568 11.6488 30.9482 12.0342 30.5587 12.3254C30.1692 12.6166 29.7117 12.8041 29.2293 12.8702L29.2022 12.8723ZM26.8019 8.69068C27.9155 9.73402 28.7812 11.0122 29.3356 12.4317C29.7294 12.3506 30.097 12.1741 30.4061 11.9178C30.7152 11.6616 30.9562 11.3334 31.1078 10.9623C31.2594 10.5911 31.317 10.1885 31.2754 9.78997C31.2338 9.39142 31.0944 9.00921 30.8695 8.67709C30.6446 8.34498 30.341 8.07318 29.9857 7.88572C29.6303 7.69826 29.2341 7.6009 28.8321 7.60224C28.43 7.60358 28.0345 7.70359 27.6804 7.89342C27.3263 8.08325 27.0246 8.35707 26.8019 8.69068Z" fill="#A46220"/>
<path d="M28.7372 11.6087C28.3597 10.8688 27.8925 10.1777 27.3462 9.55117C27.4385 9.27247 27.6074 9.02516 27.8337 8.83733C28.0599 8.6495 28.3345 8.52868 28.6262 8.48859C28.918 8.4485 29.2151 8.49075 29.484 8.61054C29.7528 8.73033 29.9826 8.92286 30.1471 9.16625C30.3116 9.40965 30.4044 9.69416 30.4148 9.98746C30.4252 10.2808 30.3529 10.5711 30.2061 10.8255C30.0592 11.0799 29.8437 11.2881 29.5841 11.4266C29.3244 11.565 29.031 11.6281 28.7372 11.6087Z" fill="#FCC45E"/>
<path d="M28.8416 11.8186C28.802 11.8206 28.7623 11.8206 28.7227 11.8186C28.6866 11.8164 28.6516 11.805 28.6213 11.7853C28.5909 11.7656 28.5662 11.7384 28.5496 11.7063C28.1797 10.9811 27.7217 10.304 27.1858 9.69035C27.1611 9.66241 27.1444 9.62839 27.1375 9.59183C27.1305 9.55527 27.1335 9.51752 27.1462 9.48251C27.2811 9.07495 27.5593 8.72973 27.9295 8.5105C28.2997 8.29126 28.737 8.21279 29.1607 8.28955C29.6098 8.35732 30.016 8.59335 30.2964 8.94946C30.5768 9.30558 30.7103 9.75493 30.6696 10.2058C30.6289 10.6566 30.417 11.075 30.0773 11.3755C29.7376 11.676 29.2956 11.836 28.8416 11.8227V11.8186ZM27.5904 9.50745C28.087 10.0899 28.5172 10.7257 28.8729 11.4029C29.1185 11.3982 29.3582 11.3276 29.5669 11.1985C29.7756 11.0694 29.9455 10.8867 30.0588 10.6694C30.172 10.4522 30.2244 10.2086 30.2104 9.96418C30.1963 9.71979 30.1165 9.48369 29.9791 9.28073C29.8418 9.07778 29.6521 8.91548 29.43 8.81093C29.2079 8.70639 28.9617 8.66346 28.7172 8.68666C28.4726 8.70987 28.2389 8.79836 28.0406 8.9428C27.8423 9.08725 27.6868 9.28231 27.5904 9.50745Z" fill="#A46220"/>
<path d="M11.1301 9.34947C12.1111 8.23288 13.347 7.36756 14.7337 6.82638C14.6693 6.41564 14.501 6.02801 14.2446 5.70009C13.9882 5.37218 13.6522 5.11479 13.2683 4.95223C12.8844 4.78967 12.4653 4.7273 12.0504 4.77101C11.6356 4.81471 11.2388 4.96306 10.8975 5.20204C10.5562 5.44102 10.2816 5.76274 10.0997 6.13684C9.91779 6.51094 9.83455 6.92507 9.85783 7.34014C9.88111 7.75521 10.0101 8.15752 10.2327 8.50908C10.4553 8.86065 10.7642 9.14988 11.1301 9.34947Z" fill="#EAA948"/>
<path d="M11.1301 9.55737C11.0953 9.55696 11.061 9.54842 11.03 9.53243C10.6332 9.31582 10.2983 9.00203 10.0569 8.62066C9.81553 8.23929 9.67562 7.80292 9.65039 7.35271C9.62515 6.90251 9.71543 6.45332 9.91269 6.04753C10.11 5.64174 10.4077 5.29272 10.7778 5.03342C11.148 4.77412 11.5783 4.61307 12.0282 4.56548C12.4781 4.51789 12.9328 4.58533 13.3493 4.76142C13.7658 4.93752 14.1305 5.21647 14.4088 5.57196C14.6871 5.92744 14.87 6.34774 14.9401 6.79319C14.9476 6.84024 14.9386 6.88841 14.9147 6.92965C14.8908 6.97089 14.8534 7.00269 14.8088 7.01973C13.4536 7.5484 12.2462 8.39459 11.2886 9.48671C11.2688 9.50914 11.2444 9.52706 11.2171 9.53926C11.1897 9.55145 11.1601 9.55763 11.1301 9.55737ZM12.3084 4.96426C11.8234 4.96421 11.3515 5.12058 10.9631 5.41001C10.5747 5.69944 10.2908 6.10638 10.1537 6.56998C10.0166 7.03358 10.0338 7.52894 10.2027 7.98201C10.3715 8.43507 10.683 8.8215 11.0905 9.08351C12.0346 8.04645 13.1977 7.23089 14.496 6.69551C14.3969 6.27132 14.1759 5.88512 13.86 5.58426C13.544 5.2834 13.1468 5.08093 12.7171 5.00167C12.5823 4.97696 12.4455 4.96443 12.3084 4.96426Z" fill="#A46220"/>
<path d="M11.883 8.58893C12.1545 8.34203 12.4407 8.11161 12.7401 7.89893L12.7818 7.86983C13.0962 7.65044 13.4235 7.44987 13.7619 7.26919C13.7758 6.99668 13.7125 6.72576 13.5793 6.48738C13.4461 6.24899 13.2483 6.05276 13.0084 5.92108C12.7686 5.7894 12.4965 5.7276 12.2231 5.74271C11.9498 5.75783 11.6862 5.84927 11.4624 6.00658C11.2387 6.16389 11.0639 6.38073 10.958 6.63234C10.852 6.88395 10.8192 7.16018 10.8633 7.42949C10.9073 7.6988 11.0265 7.95033 11.2072 8.15535C11.3879 8.36037 11.6228 8.51062 11.885 8.58893H11.883Z" fill="#FCC45E"/>
<path d="M11.8828 8.79673C11.8621 8.79987 11.841 8.79987 11.8203 8.79673C11.5211 8.70639 11.2534 8.5341 11.0477 8.2995C10.8421 8.0649 10.7067 7.77742 10.657 7.46984C10.6073 7.16226 10.6453 6.84695 10.7667 6.55986C10.8881 6.27277 11.0879 6.02544 11.3435 5.84607C11.5991 5.6667 11.9001 5.56251 12.2123 5.54537C12.5244 5.52822 12.8351 5.59882 13.1089 5.74912C13.3827 5.89941 13.6087 6.12335 13.761 6.39541C13.9133 6.66747 13.9858 6.97671 13.9703 7.28787C13.969 7.32383 13.9583 7.35883 13.9392 7.38943C13.9202 7.42004 13.8936 7.4452 13.8619 7.46245C13.5305 7.63895 13.2101 7.83537 12.9026 8.05061L12.863 8.07971C12.5713 8.28682 12.2927 8.51171 12.0288 8.75309C11.9869 8.78442 11.9352 8.79989 11.8828 8.79673ZM12.3103 5.95982C12.0249 5.9665 11.7504 6.07027 11.5323 6.25389C11.3142 6.43751 11.1657 6.68994 11.1114 6.96928C11.0571 7.24862 11.1002 7.53807 11.2337 7.78958C11.3672 8.04109 11.583 8.23953 11.8453 8.35197C12.0914 8.14414 12.3562 7.93631 12.6294 7.72847L12.6732 7.6973C12.9603 7.49724 13.2575 7.31202 13.5637 7.14238C13.5498 6.86268 13.4419 6.59577 13.2573 6.38464C13.0727 6.17351 12.8221 6.03045 12.546 5.97852C12.4682 5.96521 12.3893 5.95964 12.3103 5.96189V5.95982Z" fill="#A46220"/>
<path d="M21.3152 17.1371C21.2151 17.6837 21.8011 17 22.3579 17.0997C22.9147 17.1995 23.2108 18.0495 23.313 17.5008C23.3614 17.2376 23.3029 16.9661 23.1504 16.7458C22.9979 16.5256 22.7638 16.3748 22.4997 16.3266C22.2356 16.2784 21.9631 16.3367 21.7421 16.4887C21.5212 16.6407 21.3698 16.8739 21.3214 17.1371H21.3152Z" fill="#A46220"/>
<path d="M14.1789 15.7944C14.0788 16.3431 13.7744 15.4951 13.2238 15.3933C12.6733 15.2914 12.0873 15.9773 12.1811 15.4286C12.2052 15.2984 12.2548 15.1742 12.3271 15.0631C12.3993 14.9521 12.4928 14.8562 12.6022 14.7812C12.7116 14.7061 12.8348 14.6532 12.9647 14.6256C13.0946 14.598 13.2287 14.5961 13.3594 14.6201C13.49 14.6441 13.6146 14.6936 13.7261 14.7656C13.8375 14.8376 13.9337 14.9308 14.009 15.0398C14.0843 15.1489 14.1374 15.2716 14.1651 15.4011C14.1928 15.5305 14.1947 15.6642 14.1706 15.7944H14.1789Z" fill="#A46220"/>
</svg>
