<svg width="207" height="127" viewBox="0 0 207 127" fill="none" xmlns="http://www.w3.org/2000/svg">
<path d="M113.098 83.6298L115.936 85.758C113.985 87.5315 111.679 88.9503 109.196 89.837L108.842 89.4823C107.246 88.2409 106.891 85.9353 108.132 84.3392C109.196 82.7431 111.502 82.3884 113.098 83.6298Z" fill="#CCCCCC"/>
<path d="M122.852 69.4413L126.222 68.7319C126.222 71.3922 125.69 74.0524 124.626 76.5353H124.271C122.32 76.89 120.369 75.6485 120.015 73.5203C119.483 71.7468 120.901 69.9734 122.852 69.4413Z" fill="#CCCCCC"/>
<path d="M120.192 50.2871L121.789 47.2722C123.917 48.8684 125.69 50.9965 127.109 53.3021L126.932 53.6568C126.045 55.4303 123.739 56.1397 121.966 55.2529C120.015 54.3662 119.306 52.0606 120.192 50.2871Z" fill="#CCCCCC"/>
<path d="M109.196 38.2278L110.792 35.2129C112.92 36.809 114.694 38.9373 116.112 41.2428L115.935 41.5975C115.048 43.3709 112.743 44.0803 110.969 43.1936C109.018 42.3068 108.309 40.0013 109.196 38.2278Z" fill="#CCCCCC"/>
<path d="M68.9379 108.103C68.9379 108.28 68.9379 108.458 68.9379 108.635L68.7605 113.778C68.7605 116.261 66.6323 118.034 64.1495 118.034C61.8439 118.034 60.0704 116.261 59.8931 114.133C59.8931 113.955 59.8931 113.778 59.8931 113.423L60.0705 109.167C55.282 108.458 51.3804 106.684 48.3654 104.024C46.5919 105.62 44.2864 106.862 41.8035 107.571C34.8869 109.522 27.9703 107.216 23.5366 102.25C20.167 102.073 16.4427 102.782 13.073 105.443C13.2504 106.684 12.8957 107.748 12.0089 108.812C11.2996 109.699 10.2355 110.231 8.99402 110.408C7.92993 110.586 6.68848 110.231 5.62439 109.344L1.72272 105.975C-0.228112 104.379 -0.405466 101.541 1.19067 99.7676C1.90007 98.8808 2.96416 98.3487 4.2056 98.1714C5.26969 97.994 6.51114 98.3487 7.57523 99.2355L10.9449 102.073C13.9598 99.4128 16.9747 97.462 20.167 96.5753C19.9896 96.2206 19.9896 95.8659 19.8123 95.6885L13.2504 73.3426L14.6692 72.9879C14.6692 73.3426 14.8465 73.8746 14.8465 74.2293L29.0344 70.1503C28.8571 69.7956 28.8571 69.4409 28.5024 69.0862L47.3013 63.5884L53.8633 85.9343C55.282 90.5454 54.5726 95.3338 52.4445 99.4128C54.3953 102.25 57.2329 104.733 61.3119 105.62C62.1986 104.911 63.2627 104.379 64.5042 104.379C66.9871 104.201 68.7605 105.797 68.9379 108.103Z" fill="#CCCCCC"/>
<path d="M26.7276 47.8044C26.9049 48.8685 26.3729 49.7553 25.3088 49.9326C24.2447 50.11 23.3579 49.5779 23.1806 48.5138C23.0032 47.4497 23.5353 46.563 24.5994 46.3857C25.4861 46.2083 26.5502 46.7403 26.7276 47.8044Z" fill="#95C53D"/>
<path d="M41.0928 40.8877C38.4326 31.6655 28.6784 26.3451 19.1016 28.828C18.9242 28.828 18.9242 28.828 18.7469 28.828C18.5695 28.828 18.5695 28.8279 18.3922 29.0053C9.52473 32.0202 4.38162 41.4197 6.8645 50.4645C7.2192 49.9325 7.92859 49.7551 8.63799 49.5778C10.4115 49.2231 12.3623 50.2871 12.717 52.0606C13.0717 53.8341 12.0076 55.785 10.0568 56.1397C9.52473 56.317 8.99269 56.317 8.46064 56.1397L13.4264 73.1652L14.8452 72.8104C14.6678 70.8596 15.1999 69.0861 16.264 67.6673C17.1507 66.4259 18.5695 65.3618 20.1657 64.8298C21.7618 64.2977 23.5353 64.4751 24.9541 65.0071C26.5502 65.7165 27.969 66.958 28.8557 68.7314L47.6547 63.2336L41.0928 40.8877ZM24.422 55.2529C21.5844 55.9623 18.7469 54.1888 18.0375 51.3512C17.3281 48.5137 19.1016 45.6761 21.9391 44.9667C24.7767 44.2573 27.6143 46.0308 28.3237 48.8684C29.2104 51.7059 27.2596 54.5435 24.422 55.2529ZM10.0568 50.4645C9.34738 50.6418 8.99268 51.1739 9.17003 51.8833C9.34738 52.5927 9.87943 52.9474 10.5888 52.7701C11.2982 52.5927 11.6529 52.0606 11.4756 51.3512C11.2982 50.8192 10.5888 50.2871 10.0568 50.4645Z" fill="#95C53D"/>
<path d="M18.9245 28.8271C18.7472 28.8271 18.7472 28.8271 18.5698 29.0045L18.9245 28.8271Z" fill="#95C53D"/>
<path d="M26.7276 47.8044C26.9049 48.8685 26.3729 49.7553 25.3088 49.9326C24.2447 50.11 23.3579 49.5779 23.1806 48.5138C23.0032 47.4497 23.5353 46.563 24.5994 46.3857C25.4861 46.2083 26.5502 46.7403 26.7276 47.8044Z" fill="#707E98"/>
<path d="M26.7276 47.8044C26.9049 48.8685 26.3729 49.7553 25.3088 49.9326C24.2447 50.11 23.3579 49.5779 23.1806 48.5138C23.0032 47.4497 23.5353 46.563 24.5994 46.3857C25.4861 46.2083 26.5502 46.7403 26.7276 47.8044Z" fill="#707E98"/>
<path d="M11.4772 51.352C11.6545 52.0613 11.2998 52.5934 10.5905 52.7708C9.88106 52.9481 9.34901 52.5934 9.17166 51.884C8.99431 51.1746 9.34901 50.6426 10.0584 50.4652C10.5904 50.2879 11.2998 50.8199 11.4772 51.352Z" fill="#707E98"/>
<path d="M11.4772 51.352C11.6545 52.0613 11.2998 52.5934 10.5905 52.7708C9.88106 52.9481 9.34901 52.5934 9.17166 51.884C8.99431 51.1746 9.34901 50.6426 10.0584 50.4652C10.5904 50.2879 11.2998 50.8199 11.4772 51.352Z" fill="#707E98"/>
<path d="M29.3901 69.796L15.2022 73.875C15.0248 73.5203 15.0248 72.9882 15.0248 72.6335C14.8475 70.6827 15.3795 68.9092 16.4436 67.4904L25.1337 65.0076C26.7298 65.717 28.1486 66.9584 29.0354 68.7319C29.0354 69.0866 29.2127 69.4413 29.3901 69.796Z" fill="#707E98"/>
<path d="M205.674 67.1354C204.432 68.1995 202.482 68.0222 201.417 66.7808C201.063 66.4261 200.885 66.0714 200.885 65.7167L184.392 66.2487C184.215 68.3769 184.037 70.5051 183.505 72.6332L196.806 76.7123C197.161 76.3576 197.516 76.0029 197.87 75.8256C199.467 75.1162 201.24 75.8255 201.949 77.4217C202.659 79.0178 201.949 80.7913 200.353 81.5007C198.757 82.2101 196.984 81.5007 196.274 79.9046C196.097 79.5499 196.097 79.1951 196.097 78.8404L182.796 75.6482C182.086 78.3084 181.2 80.7913 179.958 83.2742L188.294 88.772C188.648 88.4173 189.18 88.24 189.535 88.24C191.131 88.0626 192.727 89.1267 192.905 90.9002C193.082 92.6737 192.018 94.0925 190.244 94.2698C188.471 94.4472 187.052 93.3831 186.875 91.6096C186.875 91.2549 186.875 90.9002 186.875 90.3681L178.539 85.5797C177.653 87.3532 176.411 89.1267 175.347 90.7228L179.071 95.6886C179.604 95.5112 179.958 95.5112 180.49 95.6886C182.086 96.0433 183.15 97.6394 182.796 99.2356C182.441 100.832 180.845 101.896 179.249 101.541C177.653 101.186 176.589 99.5903 176.943 97.9941C176.943 97.6395 177.121 97.2847 177.475 96.93L173.928 92.851C172.687 94.4471 171.268 96.0433 169.849 97.2847L179.958 110.763C180.49 110.586 180.845 110.586 181.377 110.763C182.973 111.118 184.037 112.714 183.683 114.31C183.328 115.906 181.732 116.97 180.136 116.616C178.539 116.261 177.475 114.665 177.83 113.069C177.83 112.714 178.007 112.359 178.362 112.005L167.544 99.4129C164.706 101.896 161.337 104.024 157.967 105.62L160.627 112.891C161.159 112.891 161.514 113.069 162.046 113.246C163.465 114.133 163.997 115.906 163.287 117.325C162.401 118.744 160.627 119.276 159.208 118.389C157.79 117.503 157.258 115.729 158.144 114.31C158.322 113.955 158.676 113.601 158.854 113.423L155.839 106.507C153.001 107.748 149.986 108.635 146.794 109.344L146.085 121.227C146.439 121.404 146.971 121.759 147.149 122.114C148.213 123.532 148.035 125.306 146.617 126.37C145.375 127.434 143.424 127.079 142.36 125.838C141.296 124.419 141.474 122.646 142.892 121.582C143.247 121.404 143.602 121.227 143.956 121.049L143.779 109.876C141.651 110.231 139.523 110.409 137.395 110.409C136.508 110.409 135.798 110.409 135.089 110.409L133.138 119.453C133.493 119.631 133.848 119.985 134.025 120.517C134.912 121.936 134.38 123.887 132.783 124.596C131.365 125.483 129.414 124.774 128.704 123.355C127.818 121.936 128.527 119.985 129.946 119.276C130.301 119.099 130.655 118.921 131.01 118.921L132.251 110.231C128.35 109.877 124.803 108.99 121.256 107.748L115.226 119.985C115.581 120.34 115.758 120.695 115.935 121.227C116.467 122.823 115.403 124.596 113.807 124.951C112.211 125.483 110.438 124.419 110.083 122.823C109.551 121.227 110.615 119.453 112.211 119.099C112.566 118.921 112.92 118.921 113.452 119.099L118.596 106.684C116.645 105.797 114.694 104.733 112.743 103.669L108.841 109.699C109.196 110.054 109.373 110.586 109.373 110.941C109.551 112.537 108.487 114.133 106.713 114.31C105.117 114.488 103.521 113.423 103.344 111.65C103.166 110.054 104.23 108.458 106.004 108.28C106.358 108.28 106.891 108.28 107.245 108.28L110.792 102.073C106.713 99.2356 102.989 95.6886 99.974 91.7869C116.29 86.8212 127.64 75.8255 127.64 63.2338C127.64 50.4647 116.29 39.6464 99.974 34.6806C101.925 32.0204 104.23 29.7149 106.713 27.5867L99.7966 19.9607C99.4419 20.1381 98.9099 20.138 98.3778 20.138C96.7817 19.9607 95.5402 18.3645 95.7176 16.7684C95.8949 15.1723 97.4911 13.9308 99.0872 14.1082C100.683 14.2855 101.925 15.8816 101.747 17.4778C101.747 17.8325 101.57 18.1872 101.393 18.5419L108.841 25.6358C110.792 24.217 112.743 22.7983 114.871 21.7342L112.388 17.8325C111.856 17.8325 111.502 17.8325 110.97 17.6551C109.373 17.1231 108.487 15.3496 109.019 13.7535C109.551 12.1574 111.324 11.2706 112.92 11.8027C114.517 12.3347 115.403 14.1082 114.871 15.7043C114.694 16.059 114.517 16.4137 114.339 16.7684L116.999 20.6701C119.66 19.4286 122.32 18.3645 125.157 17.6551L122.497 7.90096C121.61 7.90096 120.724 7.54625 120.192 6.83685C119.128 5.59541 119.305 3.64459 120.546 2.5805C121.788 1.5164 123.739 1.69379 124.803 3.11257C125.867 4.35402 125.69 6.12748 124.625 7.19157L128.172 17.1231C129.769 16.7684 131.542 16.5911 133.316 16.4137L133.138 6.12747C132.251 5.95012 131.542 5.24073 131.187 4.35398C130.478 2.75784 131.187 0.984379 132.783 0.274984C134.38 -0.434411 136.153 0.274974 136.862 1.87111C137.572 3.2899 136.862 5.06341 135.621 5.77281L136.33 16.2364C136.862 16.2364 137.395 16.2364 137.749 16.2364C139.523 16.2364 141.296 16.4137 143.07 16.591L143.956 13.2214C143.602 13.0441 143.247 12.6894 143.07 12.1573C142.36 10.5612 142.892 8.78771 144.488 8.07832C145.907 7.36892 147.858 7.90095 148.567 9.49709C149.277 11.0932 148.745 12.8667 147.149 13.5761C146.794 13.7535 146.439 13.9308 146.085 13.9308L145.553 16.9458C148.745 17.4778 151.937 18.3645 154.775 19.4286L156.903 13.3988C156.548 13.0441 156.193 12.6894 156.016 12.3347C155.484 10.7385 156.193 8.96508 157.79 8.43304C159.386 7.90099 161.159 8.61038 161.691 10.2065C162.401 11.8027 161.514 13.5761 159.918 14.1082C159.563 14.2855 159.208 14.2855 158.854 14.2855L157.08 20.4927C159.74 21.7342 162.223 22.9756 164.529 24.5717L169.672 12.8668C168.963 12.3347 168.608 11.4479 168.608 10.5612C168.608 8.7877 170.027 7.54629 171.623 7.54629C173.219 7.54629 174.638 8.96505 174.638 10.5612C174.638 12.1573 173.396 13.3988 171.8 13.5761L167.012 26.5226C168.431 27.5867 169.849 28.8281 171.268 30.2469L181.909 18.0099C181.732 17.6552 181.554 17.1231 181.554 16.591C181.554 14.8175 182.973 13.5761 184.569 13.5761C186.165 13.5761 187.584 14.9949 187.584 16.591C187.584 18.1872 186.165 19.606 184.569 19.606C184.215 19.606 183.86 19.606 183.505 19.4286L173.574 32.5524C174.992 34.1486 176.234 35.7447 177.298 37.5182L183.15 35.39C183.15 34.858 183.328 34.5033 183.505 33.9712C184.392 32.5525 186.165 32.0204 187.584 32.7298C189.003 33.6165 189.535 35.39 188.826 36.8088C187.939 38.2276 186.165 38.7596 184.747 38.0502C184.392 37.8729 184.037 37.6956 183.86 37.3409L178.717 39.6464C179.781 41.5972 180.845 43.5481 181.732 45.6763L195.92 42.3066C195.92 41.7746 196.097 41.4199 196.452 41.0652C197.338 39.6464 199.289 39.2917 200.708 40.3558C202.127 41.2425 202.304 43.1934 201.417 44.6122C200.353 46.031 198.58 46.3856 197.161 45.3216C196.806 45.1442 196.629 44.7895 196.274 44.4348L182.796 48.6912C183.683 51.3514 184.392 54.189 184.924 57.2039L192.018 56.4945C192.195 55.9625 192.373 55.6078 192.727 55.2531C193.969 54.0117 195.92 54.0116 196.984 55.0757C198.225 56.3172 198.225 58.0906 196.984 59.3321C195.742 60.5735 193.791 60.5735 192.727 59.5094C192.373 59.1548 192.195 58.9774 192.018 58.6227L185.101 59.6868C185.279 61.1056 185.279 62.5244 185.279 63.9432L201.772 64.4752C201.949 63.9431 202.304 63.5885 202.659 63.4111C203.9 62.347 205.851 62.5244 206.915 63.9432C207.093 64.1205 206.915 66.0713 205.674 67.1354Z" fill="#CCCCCC"/>
</svg>
