<svg width="598" height="596" viewBox="0 0 598 596" fill="none" xmlns="http://www.w3.org/2000/svg">
<g clip-path="url(#clip0)">
<path opacity="0.18" d="M55.4304 578.29C30.4904 590.36 106.43 597.4 134.04 595.63L255.26 587.89C260.5 587.56 274.41 587.41 270.33 584.09C249.45 567.09 88.3404 562.35 55.4304 578.29Z" fill="#95C53D"/>
<path opacity="0.2" d="M473.878 273.222C473.25 271.964 472.622 270.707 471.365 268.82C469.481 266.305 468.224 263.79 466.34 261.275C462.571 256.244 458.173 252.471 454.404 249.327C451.892 247.441 449.379 245.554 446.866 244.297C443.097 242.41 439.328 240.524 435.559 238.638C416.713 229.834 395.354 223.546 377.137 203.425C376.508 202.796 375.88 201.538 375.252 200.909C374.624 200.281 373.996 199.023 373.368 198.394C372.739 197.765 372.111 197.137 372.111 196.508L247.101 321.011L178 251.843L191.82 238.009L247.101 293.344L360.804 178.901C360.176 177.015 358.919 175.129 358.291 173.242C349.496 151.863 352.009 133.628 348.868 114.135C347.612 104.703 344.471 95.2705 338.817 84.5809C337.561 82.0657 335.676 79.5505 333.791 77.0352C332.535 75.7776 331.907 73.8912 330.65 72.6336C329.394 71.376 328.766 70.1184 327.51 68.8608C284.164 20.443 186.795 4.72288 115.809 40.5647C108.899 44.3375 101.989 48.1103 95.7068 52.5119C93.1941 54.3983 90.6813 55.6559 88.7967 57.5423C83.143 61.944 78.1175 66.3456 73.0919 70.7472C71.2074 72.6336 68.6946 74.52 66.81 77.0352C64.9254 78.9217 63.0409 81.4369 61.1563 83.3233C59.2717 85.2097 58.0153 87.0961 56.1308 89.6113C46.7079 101.559 37.9132 114.763 31.0031 129.226C29.7467 131.112 29.1185 132.999 28.4903 134.885C27.8621 136.772 26.6058 139.287 25.9776 141.173C24.093 144.946 22.8366 148.719 20.952 152.492C14.0419 170.098 9.0164 188.333 5.24725 207.197C4.61905 210.341 3.99086 212.857 3.99086 216.001C-3.54744 266.934 -0.406477 318.496 13.4137 362.512C15.2983 369.429 19.0675 380.747 25.3494 393.952C26.6058 396.467 27.8621 399.611 29.7467 402.755C30.3749 404.013 31.0031 404.642 31.0031 405.899C32.8877 409.043 34.1441 411.559 36.0286 414.703C45.4515 431.051 58.6435 448.029 76.2329 464.378C78.1175 466.264 80.002 468.151 82.5148 469.408C85.0276 471.295 87.5403 473.181 90.0531 475.696C93.8223 478.84 98.2196 481.356 102.617 484.5C106.386 487.015 109.527 488.901 113.296 490.788C180.513 528.516 267.203 530.402 339.445 505.25H340.073C340.702 505.25 341.958 504.621 342.586 504.621C343.843 503.993 344.471 503.993 345.727 503.364C398.495 483.871 443.097 449.915 465.083 405.27C470.737 393.323 476.391 377.603 480.16 361.254C480.788 359.368 480.788 357.481 481.417 356.224C482.045 354.337 482.045 351.822 482.673 349.936C487.07 322.897 485.814 295.23 473.878 273.222Z" fill="#5BCEAE"/>
<path d="M537.74 146.08V419.45C537.74 424.776 535.624 429.883 531.858 433.649C528.093 437.414 522.985 439.53 517.66 439.53H102.66C97.3374 439.546 92.2267 437.448 88.4503 433.698C84.6739 429.948 82.5407 424.852 82.5195 419.53V146.08C82.5222 140.755 84.6386 135.649 88.4038 131.884C92.1689 128.119 97.2748 126.003 102.6 126H517.65C520.286 125.999 522.898 126.517 525.335 127.525C527.771 128.533 529.986 130.011 531.851 131.874C533.717 133.738 535.197 135.951 536.207 138.386C537.218 140.822 537.738 143.433 537.74 146.07V146.08Z" fill="white"/>
<path d="M158.78 514C157.95 519.35 126.92 575.78 126.92 575.78C135.99 577.42 139.29 584.02 139.29 584.02H111.19L133.42 514.02C133.42 514.02 134.42 480.56 128.59 462.43C124.75 450.34 124.98 436.33 125.59 428.33C125.88 424.33 126.25 421.85 126.25 421.85L167.72 440.59C167.72 440.59 159.61 508.67 158.78 514Z" fill="#57596B"/>
<path d="M209.35 584.05H180.88V583.9L175.74 510.32C175.74 510.32 151.68 481 137.68 459.61C123.68 438.22 126.08 424.09 126.08 424.09H164.38C166.32 424.87 168.94 432.47 170.63 436.28C177.76 452.44 193.94 485.87 195.36 492.28C199.91 512.53 193.69 573.39 193.69 573.39C202.35 574.16 209.35 584.05 209.35 584.05Z" fill="#57596B"/>
<path d="M441.81 283.26H137.55V256.35H441.81V283.26ZM138.55 282.26H440.81V257.35H138.55V282.26Z" fill="#95C53D"/>
<path d="M481.9 256.36H441.8V283.26H481.9V256.36Z" fill="url(#paint0_linear)"/>
<path d="M459.7 275.21C463.456 275.21 466.5 272.166 466.5 268.41C466.5 264.654 463.456 261.61 459.7 261.61C455.945 261.61 452.9 264.654 452.9 268.41C452.9 272.166 455.945 275.21 459.7 275.21Z" stroke="white" stroke-width="0.73" stroke-miterlimit="10"/>
<path d="M465.369 271.713L464.078 273.432L471.164 278.751L472.455 277.031L465.369 271.713Z" fill="white"/>
<path d="M537.74 146.08V152.7H82.5098V146.08C82.5124 140.754 84.6302 135.646 88.3975 131.881C92.1648 128.115 97.2733 126 102.6 126H517.65C520.287 125.999 522.898 126.517 525.335 127.525C527.771 128.533 529.986 130.011 531.851 131.874C533.717 133.738 535.197 135.951 536.207 138.386C537.218 140.822 537.738 143.433 537.74 146.07V146.08Z" fill="url(#paint1_linear)"/>
<path d="M105.43 140.78C105.43 141.623 105.18 142.446 104.712 143.147C104.244 143.847 103.579 144.393 102.8 144.716C102.022 145.038 101.165 145.123 100.339 144.958C99.5127 144.794 98.7537 144.388 98.1579 143.792C97.5621 143.197 97.1564 142.437 96.992 141.611C96.8276 140.785 96.912 139.928 97.2344 139.15C97.5569 138.371 98.1029 137.706 98.8034 137.238C99.504 136.77 100.328 136.52 101.17 136.52C101.728 136.519 102.281 136.627 102.797 136.84C103.313 137.052 103.783 137.364 104.178 137.758C104.574 138.151 104.888 138.619 105.103 139.134C105.318 139.65 105.429 140.202 105.43 140.76V140.78Z" fill="#CCCCCC"/>
<path d="M117.68 140.78C117.68 141.623 117.43 142.446 116.962 143.147C116.494 143.847 115.829 144.393 115.05 144.716C114.272 145.038 113.415 145.123 112.589 144.958C111.763 144.794 111.004 144.388 110.408 143.792C109.812 143.197 109.406 142.437 109.242 141.611C109.078 140.785 109.162 139.928 109.484 139.15C109.807 138.371 110.353 137.706 111.053 137.238C111.754 136.77 112.578 136.52 113.42 136.52C113.978 136.519 114.531 136.627 115.047 136.84C115.563 137.052 116.033 137.364 116.428 137.758C116.824 138.151 117.138 138.619 117.353 139.134C117.568 139.65 117.679 140.202 117.68 140.76V140.78Z" fill="white"/>
<path d="M129.92 140.78C129.92 141.623 129.671 142.446 129.202 143.147C128.734 143.847 128.069 144.393 127.291 144.716C126.512 145.038 125.656 145.123 124.829 144.958C124.003 144.794 123.244 144.388 122.648 143.792C122.052 143.197 121.647 142.437 121.482 141.611C121.318 140.785 121.402 139.928 121.725 139.15C122.047 138.371 122.593 137.706 123.294 137.238C123.994 136.77 124.818 136.52 125.66 136.52C126.219 136.519 126.771 136.627 127.288 136.84C127.804 137.052 128.273 137.364 128.669 137.758C129.064 138.151 129.378 138.619 129.593 139.134C129.808 139.65 129.919 140.202 129.92 140.76V140.78Z" fill="white"/>
<path d="M135.19 389.16L125.87 405.85C124.629 404.98 123.452 404.021 122.35 402.98C115.1 396.31 100.35 378.06 114.59 349.19C114.59 349.19 121.14 331.34 124.82 323.7C125.291 322.481 125.968 321.351 126.82 320.36C129 318.85 135.19 389.16 135.19 389.16Z" fill="#95C53D"/>
<path d="M177.675 290.413C182 287.404 180.673 278.019 174.711 269.451C168.75 260.882 160.411 256.376 156.086 259.385C151.761 262.395 153.088 271.78 159.049 280.348C165.011 288.916 173.35 293.423 177.675 290.413Z" stroke="#707E98" stroke-width="2" stroke-miterlimit="10"/>
<path d="M176.5 291.32L182.24 299.26L185.26 297L179.45 289.56L176.5 291.32Z" fill="#707E98"/>
<path d="M181.652 291.001L177.326 294.635L194.126 314.636L198.453 311.002L181.652 291.001Z" fill="#57596B"/>
<path d="M157.56 262.31C157.56 262.31 160.17 268.31 162.37 274.7C162.95 276.35 166.2 277.4 166.67 279.01C167.59 282.19 165.15 283.19 165.03 285.01C164.62 291.19 166.88 297.92 156.48 301.7C147.26 305.05 150.98 320.1 150.98 320.1C150.98 320.1 139.17 325.32 133.98 318.73C133.98 318.73 135.91 298.95 127.67 281.92C119.43 264.89 141.76 246.1 157.56 262.31Z" fill="url(#paint2_linear)"/>
<path d="M132.52 315.89L133.52 311.01C133.52 311.01 149.87 311.91 151.52 313.45C152.638 314.587 153.567 315.897 154.27 317.33L132.52 315.89Z" fill="#57596B"/>
<path d="M164.38 424.5H129.68C124.28 424.33 122.04 423.36 122.18 418.03C122.44 408.3 122.18 341.16 124.79 326.03C126.38 316.72 133.21 314.92 134.72 314.63H135C135 314.63 145.34 315.52 149.63 315.46C154.2 315.39 159.79 322.09 159.79 322.09C159.79 322.09 163.35 335.88 166.53 347.61C168.08 353.35 169.53 358.61 170.45 361.5C172.37 367.63 174.56 395.88 175.72 412.41C175.915 415.413 174.91 418.37 172.926 420.633C170.943 422.896 168.143 424.28 165.14 424.48L164.38 424.5Z" fill="#95C53D"/>
<path d="M164.38 424.5H154.38L150.38 343.12L166.53 347.56C168.08 353.3 169.53 358.56 170.45 361.45C172.37 367.58 174.56 395.83 175.72 412.36C175.932 415.359 174.943 418.32 172.972 420.591C171.001 422.862 168.209 424.257 165.21 424.47L164.38 424.5Z" fill="url(#paint3_linear)"/>
<path d="M157.56 262.31L153.69 261.89C153.622 263.111 153.275 264.301 152.675 265.367C152.075 266.433 151.239 267.348 150.23 268.04C149.747 267.263 149.054 266.638 148.23 266.24C146.81 267.89 148.47 270.34 148.5 272.5C148.429 273.523 148.22 274.532 147.88 275.5C147.306 277.666 147.204 279.931 147.58 282.14C146.12 282.03 145.43 280.07 144.01 279.78C142.59 279.49 141.64 280.78 141.29 282.01C140.945 283.484 141.198 285.036 141.995 286.324C142.792 287.611 144.066 288.531 145.54 288.88H145.74C146.07 288.93 146.46 288.98 146.64 289.26C146.737 289.458 146.772 289.681 146.74 289.9C146.702 292.688 146.209 295.451 145.28 298.08C144.325 300.728 142.378 302.901 139.85 304.14C138.1 304.91 135.65 304.85 134.69 303.14C134.84 304.03 133.76 304.74 132.87 304.55C132.017 304.259 131.304 303.66 130.87 302.87C128.07 298.79 127.35 293.7 125.71 289.03C124.28 284.95 122.12 281.16 120.46 277.16C118.8 273.16 117.6 268.81 118.25 264.54C118.772 261.452 120.205 258.591 122.365 256.323C124.524 254.055 127.312 252.483 130.37 251.81C131.517 251.662 132.644 251.387 133.73 250.99C134.665 250.453 135.573 249.868 136.45 249.24C138.323 248.326 140.367 247.815 142.45 247.74C144.619 247.583 146.799 247.627 148.96 247.87C156.96 248.48 156.65 256.1 157.23 257.74C157.27 258.16 158 262.36 157.56 262.31Z" fill="#57596B"/>
<path d="M184.14 292.63C184.181 291.862 184.368 291.109 184.69 290.41C184.855 290.062 185.118 289.769 185.446 289.567C185.775 289.365 186.154 289.262 186.54 289.27C187.54 289.38 188.1 290.34 188.54 291.2C189.18 292.42 189.81 293.64 190.44 294.87C191.89 294.2 193.54 295.36 194.44 296.69C195.34 298.02 195.85 299.63 197.12 300.58C197.517 300.821 197.874 301.121 198.18 301.47C198.493 302.054 198.596 302.729 198.47 303.38L198.26 305.96C198.13 307.64 197.92 309.49 196.7 310.67C195.549 311.563 194.154 312.086 192.7 312.17C191.437 312.43 190.139 312.48 188.86 312.32C187.102 311.86 185.487 310.97 184.16 309.73C182.23 308.17 176.96 303.07 180.41 301.04C181.75 300.25 182.48 301.16 183.41 299.6C184.34 298.04 184 294.38 184.14 292.63Z" fill="url(#paint4_linear)"/>
<path d="M197.61 347.32C194.89 359.32 186.43 366.32 177.9 367.79C174.041 368.52 170.05 367.961 166.54 366.2C155.74 360.62 144.21 331.28 144.79 322C145.07 317.56 146.97 315.49 149.61 315.44C152.49 315.37 156.26 317.72 159.77 322.04C163.28 326.36 166.17 332.17 169.09 336.5C170.108 338.117 171.339 339.59 172.75 340.88C173.593 341.652 174.63 342.18 175.75 342.41C176.499 342.493 177.258 342.417 177.976 342.188C178.694 341.959 179.357 341.582 179.92 341.08C187.92 334.89 184.7 310.65 184.7 310.65L188.83 310.41L197.29 309.91C197.29 309.91 201.58 329.7 197.61 347.32Z" fill="#95C53D"/>
<path opacity="0.24" d="M128.45 422.92C128.911 423.399 129.332 423.914 129.71 424.46C124.31 424.3 122.07 423.33 122.21 418C122.47 408.27 122.21 341.13 124.82 326C126.41 316.69 133.24 314.89 134.75 314.6H135C131.528 318.892 129.273 324.038 128.47 329.5C127.29 338.28 125.67 420 128.45 422.92Z" fill="white"/>
<path opacity="0.24" d="M177.9 367.79C174.041 368.52 170.05 367.961 166.54 366.2C155.74 360.62 144.21 331.28 144.79 322C145.07 317.56 146.97 315.49 149.61 315.44C149.61 316.44 145.28 327.28 158.32 350.32C167.12 365.88 175.59 366.53 177.9 367.79Z" fill="white"/>
<path d="M172.75 340.88C171.133 339.804 169.862 338.282 169.09 336.5C170.108 338.117 171.339 339.59 172.75 340.88Z" fill="white"/>
<path opacity="0.24" d="M175.76 342.45C176.509 342.533 177.268 342.457 177.986 342.228C178.705 341.999 179.367 341.621 179.93 341.12C187.93 334.93 184.71 310.69 184.71 310.69L188.84 310.45C188.84 310.45 192.9 348.79 175.76 342.45Z" fill="white"/>
<path opacity="0.24" d="M112.7 373.45C110.62 386.65 122.39 398.53 122.39 398.53V403C115.14 396.33 100.39 378.08 114.63 349.21C114.63 349.21 121.18 331.36 124.86 323.72V326C124.86 326 114.79 360.28 112.7 373.45Z" fill="white"/>
<path opacity="0.24" d="M182.19 584.05C182.231 585.096 182.378 586.134 182.63 587.15L180.98 584.05L180.9 583.9L175.76 510.32C175.76 510.32 151.7 481 137.7 459.61C123.7 438.22 126.1 424.09 126.1 424.09H128.89C129.182 424.193 129.466 424.316 129.74 424.46C129.74 424.46 132.51 449.73 175.95 504.06C175.95 504.06 184.51 511.94 182.54 541.81C180.76 568.32 181.81 579.45 182.19 584.05Z" fill="white"/>
<path opacity="0.24" d="M137.79 516.81L114.63 584.05H111.19L133.42 514.05C133.42 514.05 134.42 480.59 128.59 462.46C124.75 450.37 124.98 436.36 125.59 428.36L129.73 444.36C130.491 453.165 132.252 461.854 134.98 470.26C139.33 483 137.79 516.81 137.79 516.81Z" fill="white"/>
</g>
<defs>
<linearGradient id="paint0_linear" x1="442.223" y1="256.36" x2="481.9" y2="256.36" gradientUnits="userSpaceOnUse">
<stop stop-color="#95C53D"/>
<stop offset="1" stop-color="#5BCEAE"/>
</linearGradient>
<linearGradient id="paint1_linear" x1="87.3185" y1="126" x2="537.74" y2="126" gradientUnits="userSpaceOnUse">
<stop stop-color="#95C53D"/>
<stop offset="1" stop-color="#5BCEAE"/>
</linearGradient>
<linearGradient id="paint2_linear" x1="125.9" y1="289.09" x2="166.88" y2="289.09" gradientUnits="userSpaceOnUse">
<stop stop-color="#ECC4D7"/>
<stop offset="0.42" stop-color="#EFD4D1"/>
<stop offset="1" stop-color="#F2EAC9"/>
</linearGradient>
<linearGradient id="paint3_linear" x1="3578.89" y1="14151.7" x2="9864.58" y2="17570" gradientUnits="userSpaceOnUse">
<stop stop-opacity="0"/>
<stop offset="0.91" stop-opacity="0.8"/>
<stop offset="1"/>
</linearGradient>
<linearGradient id="paint4_linear" x1="9100.37" y1="6836.37" x2="9466.57" y2="6788.29" gradientUnits="userSpaceOnUse">
<stop stop-color="#ECC4D7"/>
<stop offset="0.42" stop-color="#EFD4D1"/>
<stop offset="1" stop-color="#F2EAC9"/>
</linearGradient>
<clipPath id="clip0">
<rect width="597.03" height="595.9" fill="white"/>
</clipPath>
</defs>
</svg>
