<svg width="82" height="94" viewBox="0 0 82 94" fill="none" xmlns="http://www.w3.org/2000/svg">
<g clip-path="url(#clip0)">
<path opacity="0.2" d="M32.0998 22.3001C31.0998 22.3001 30.1998 23.2001 30.1998 24.2001C30.1998 25.2001 31.0998 26.1001 32.0998 26.1001C33.0998 26.1001 33.9998 25.2001 33.9998 24.2001C33.9998 23.1001 33.0998 22.3001 32.0998 22.3001ZM32.0998 22.3001C31.0998 22.3001 30.1998 23.2001 30.1998 24.2001C30.1998 25.2001 31.0998 26.1001 32.0998 26.1001C33.0998 26.1001 33.9998 25.2001 33.9998 24.2001C33.9998 23.1001 33.0998 22.3001 32.0998 22.3001ZM32.0998 22.3001C31.0998 22.3001 30.1998 23.2001 30.1998 24.2001C30.1998 25.2001 31.0998 26.1001 32.0998 26.1001C33.0998 26.1001 33.9998 25.2001 33.9998 24.2001C33.9998 23.1001 33.0998 22.3001 32.0998 22.3001ZM32.0998 22.3001C31.0998 22.3001 30.1998 23.2001 30.1998 24.2001C30.1998 25.2001 31.0998 26.1001 32.0998 26.1001C33.0998 26.1001 33.9998 25.2001 33.9998 24.2001C33.9998 23.1001 33.0998 22.3001 32.0998 22.3001ZM78.1998 47.0001C78.0998 46.8001 77.9998 46.6001 77.7999 46.3001C77.4998 45.9001 77.2999 45.5001 76.9998 45.1001C76.3998 44.3001 75.6998 43.7001 74.9998 43.2001C74.5998 42.9001 74.1999 42.6001 73.7999 42.4001C70.3998 40.4001 66.2998 39.8001 62.7998 35.8001C62.6998 35.7001 62.5998 35.5001 62.4998 35.4001C62.3998 35.3001 62.2998 35.1001 62.1998 35.0001C61.9998 34.7001 61.6998 34.4001 61.4998 34.1001C61.0998 33.4001 60.6998 32.8001 60.3998 32.2001C60.1998 31.8001 60.0998 31.5001 59.8998 31.1001C57.8998 26.0001 59.6998 22.0001 56.7998 17.1001C56.5998 16.7001 56.2998 16.3001 55.9998 15.9001C55.7998 15.7001 55.6998 15.4001 55.4998 15.2001C55.2998 15.0001 55.0998 14.8001 54.9998 14.6001C48.0998 6.90006 32.5998 4.40006 21.2998 10.1001C20.1998 10.7001 19.0998 11.3001 18.0998 12.0001C17.6998 12.3001 17.2998 12.5001 16.9998 12.8001C16.0998 13.5001 15.2998 14.2001 14.4998 14.9001C14.1998 15.2001 13.7998 15.5001 13.4998 15.9001C13.1998 16.2001 12.8998 16.6001 12.5998 16.9001C12.2998 17.2001 12.0998 17.5001 11.7998 17.9001C10.2998 19.8001 8.89985 21.9001 7.79985 24.2001C7.59985 24.5001 7.49985 24.8001 7.39985 25.1001C7.19985 25.4001 7.09985 25.8001 6.89985 26.1001C6.59985 26.7001 6.39985 27.3001 6.09985 27.9001C4.99985 30.7001 4.19985 33.6001 3.59985 36.6001C3.49985 37.1001 3.39985 37.5001 3.39985 38.0001C2.09985 46.0001 2.69985 54.2001 4.89985 61.2001C5.29985 62.3001 5.89985 64.1001 6.79985 66.2001C6.99985 66.6001 7.19985 67.1001 7.49985 67.6001C7.59985 67.8001 7.59985 67.9001 7.69985 68.1001C7.99985 68.5001 8.29985 69.0001 8.59985 69.5001C10.0998 72.1001 12.1998 74.8001 14.9998 77.4001C15.2998 77.7001 15.5998 77.9001 15.8998 78.2001C16.2998 78.5001 16.6998 78.8001 17.0998 79.2001C17.6998 79.7001 18.3998 80.1001 19.0998 80.6001C19.6998 81.0001 20.1998 81.3001 20.7998 81.6001C31.4998 87.6001 45.2998 87.9001 56.7998 83.9001H56.8998C56.9998 83.9001 57.1998 83.8001 57.2998 83.8001C57.4998 83.7001 57.5998 83.7001 57.7998 83.6001C66.1998 80.5001 73.2999 75.1001 76.7999 68.0001C77.7999 66.1001 78.5998 63.6001 79.1998 61.0001C79.2998 60.7001 79.2999 60.4001 79.3998 60.2001C79.4998 59.9001 79.4998 59.5001 79.5998 59.2001C80.2998 54.9001 80.0998 50.5001 78.1998 47.0001ZM45.3998 35.0001H18.6998V31.7001C18.6998 29.1001 20.4998 26.9001 22.8998 26.2001C24.6998 25.7001 25.9998 24.4001 26.4998 22.6001C27.1998 20.1001 29.4998 18.4001 32.0998 18.4001C34.6998 18.4001 36.9998 20.1001 37.6998 22.6001C38.1998 24.4001 39.5998 25.7001 41.2998 26.2001C43.7998 26.9001 45.4998 29.2001 45.4998 31.8001V35.0001H45.3998ZM63.5998 46.4001C63.7998 46.4001 63.9998 46.2001 63.9998 46.0001V45.5001L66.4998 49.6001L65.2999 51.1001L63.8998 49.3001C63.8998 49.3001 63.8998 49.3001 63.7998 49.3001H63.6998C63.6998 49.3001 63.6998 49.3001 63.5998 49.3001H63.4998H63.3998H63.2998L61.8998 51.1001L60.6998 49.6001L63.1998 45.5001V46.0001C63.0998 46.2001 63.2998 46.4001 63.5998 46.4001ZM60.5998 69.6001V68.7001H66.6998V69.6001H60.5998ZM66.6998 70.5001V71.4001H60.5998V70.5001H66.6998ZM32.0998 22.3001C31.0998 22.3001 30.1998 23.2001 30.1998 24.2001C30.1998 25.2001 31.0998 26.1001 32.0998 26.1001C33.0998 26.1001 33.9998 25.2001 33.9998 24.2001C33.9998 23.1001 33.0998 22.3001 32.0998 22.3001ZM32.0998 22.3001C31.0998 22.3001 30.1998 23.2001 30.1998 24.2001C30.1998 25.2001 31.0998 26.1001 32.0998 26.1001C33.0998 26.1001 33.9998 25.2001 33.9998 24.2001C33.9998 23.1001 33.0998 22.3001 32.0998 22.3001ZM32.0998 22.3001C31.0998 22.3001 30.1998 23.2001 30.1998 24.2001C30.1998 25.2001 31.0998 26.1001 32.0998 26.1001C33.0998 26.1001 33.9998 25.2001 33.9998 24.2001C33.9998 23.1001 33.0998 22.3001 32.0998 22.3001Z" fill="#5BCEAE"/>
<path d="M72.4002 76.3C72.3002 76.1 72.3002 75.9 72.5002 75.8C72.7002 75.6 73.0002 75.6 73.2002 75.7L79.9002 81.2C80.1002 81.4 80.1002 81.7 80.0002 81.9C79.8002 82.1 79.5002 82.1 79.3002 82L72.6002 76.5C72.5002 76.4 72.4002 76.4 72.4002 76.3Z" fill="#5BCEAE"/>
<path d="M11 9.3C10.9 9.5 10.8 9.6 10.6 9.6C10.3 9.6 10.1 9.4 10 9.2L9 0.6C9 0.3 9.2 0 9.5 0C9.7 0 10 0.2 10 0.4L11 9C11.1 9.1 11.1 9.2 11 9.3Z" fill="#5BCEAE"/>
<path d="M74.2002 86.2C74.2002 86.4 74.0002 86.6 73.9002 86.6C73.6002 86.7 73.4002 86.5 73.3002 86.3L70.5002 78C70.4002 77.7 70.6002 77.5 70.8002 77.4C71.1002 77.3 71.3002 77.5 71.4002 77.7L74.1002 85.9C74.2002 86 74.2002 86.1 74.2002 86.2Z" fill="#5BCEAE"/>
<path d="M9.40023 12.3C9.50023 12.5 9.40023 12.7 9.30023 12.8C9.10023 13 8.80023 13 8.60023 12.8L2.20023 7.00002C2.00023 6.80002 1.90023 6.50002 2.10023 6.30002C2.30023 6.10002 2.60023 6.10002 2.80023 6.30002L9.20023 12.2C9.30023 12.2 9.30023 12.3 9.40023 12.3Z" fill="#5BCEAE"/>
<path d="M65.2998 32C65.0998 32 64.8998 31.9 64.8998 31.7C64.7998 31.4 64.8998 31.2 65.1998 31.1L73.2998 28.1C73.5998 28 73.7998 28.1 73.8998 28.4C73.9998 28.7 73.8998 28.9 73.5998 29L65.4998 32C65.4998 32 65.3998 32 65.2998 32Z" fill="#5BCEAE"/>
<path d="M61.8999 31.1C61.6999 31.2 61.4999 31.2 61.3999 31.1C61.1999 31 61.0999 30.7 61.1999 30.4L65.3999 22.8C65.4999 22.6 65.7999 22.5 66.0999 22.6C66.2999 22.7 66.3999 23 66.2999 23.3L62.0999 30.9C61.9999 31 61.9999 31 61.8999 31.1Z" fill="#5BCEAE"/>
<g opacity="0.5">
<path opacity="0.5" d="M7.10004 15.4C7.00004 16.7 5.90004 17.7 4.50004 17.6C3.10004 17.5 2.20004 16.3 2.30004 15C2.40004 13.7 3.50004 12.7 4.90004 12.8C6.30004 12.9 7.20004 14.1 7.10004 15.4ZM3.30004 15.1C3.20004 15.9 3.80004 16.5 4.60004 16.6C5.40004 16.7 6.00004 16.1 6.10004 15.3C6.20004 14.5 5.60004 13.9 4.80004 13.8C4.00004 13.8 3.40004 14.3 3.30004 15.1Z" fill="#95C53D"/>
</g>
<g opacity="0.5">
<path opacity="0.5" d="M21.2 7.79995C21.1 9.09995 20 10.0999 18.6 9.99995C17.3 9.89995 16.3 8.79995 16.4 7.39995C16.5 5.99995 17.6 5.09995 19 5.19995C20.3 5.29995 21.3 6.39995 21.2 7.79995ZM17.4 7.49995C17.3 8.29995 17.9 8.89995 18.7 8.99995C19.5 9.09995 20.1 8.49995 20.2 7.69995C20.3 6.89995 19.7 6.29995 18.9 6.19995C18.1 6.09995 17.5 6.69995 17.4 7.49995Z" fill="#95C53D"/>
</g>
<g opacity="0.5">
<path opacity="0.5" d="M81.4002 73.7C81.3002 75 80.2002 76 78.8002 75.9C77.5002 75.8 76.5002 74.7 76.6002 73.3C76.7002 72 77.8002 71 79.2002 71.1C80.5002 71.3 81.5002 72.4 81.4002 73.7ZM77.6002 73.5C77.5002 74.3 78.1002 74.9 78.9002 75C79.7002 75.1 80.3002 74.5 80.4002 73.7C80.5002 72.9 79.9002 72.3 79.1002 72.2C78.4002 72.1 77.7002 72.7 77.6002 73.5Z" fill="#95C53D"/>
</g>
<g opacity="0.5">
<path opacity="0.5" d="M72.3001 36.4C72.2001 37.7 71.1001 38.7 69.7001 38.6C68.4001 38.5 67.4001 37.4 67.5001 36C67.6001 34.7 68.7001 33.7 70.1001 33.8C71.4001 33.9 72.4001 35.1 72.3001 36.4ZM68.6001 36.1C68.5001 36.9 69.1001 37.5 69.9001 37.6C70.7001 37.7 71.3001 37.1 71.4001 36.3C71.5001 35.5 70.9001 34.9 70.1001 34.8C69.3001 34.8 68.6001 35.3 68.6001 36.1Z" fill="#95C53D"/>
</g>
<path opacity="0.6" d="M29.8999 66.9C28.7999 65.8 27.4999 65 25.9999 64.6C25.1999 64.4 24.3999 64.3 23.5999 64.3C20.9999 64.3 18.3999 65.3 16.3999 67C14.1999 65 11.9999 64 9.99992 64C7.29992 64 4.79992 65.1 2.89992 67C0.299925 69.6 -0.600076 73.5 0.399924 77H9.69992L12.2999 72.1C12.3999 72 12.4999 71.9 12.6999 71.9C12.7999 71.9 12.9999 72 12.9999 72.1L16.3999 80.5L19.6999 69.9C19.6999 69.7 19.8999 69.6 20.0999 69.6C20.2999 69.6 20.3999 69.7 20.4999 69.9L22.2999 75.8L23.5999 73.9C23.6999 73.8 23.7999 73.7 23.8999 73.7C23.9999 73.7 24.0999 73.8 24.1999 73.9L25.6999 76.3H32.5999C33.2999 73.1 32.3999 69.5 29.8999 66.9ZM25.3999 77.1C25.2999 77.1 25.0999 77 25.0999 76.9L23.7999 74.8L22.3999 76.8C22.2999 77 22.1999 77 21.9999 77C21.8999 77 21.6999 76.9 21.6999 76.7L19.9999 71.2L16.7999 81.6C16.7999 81.7 16.5999 81.9 16.4999 81.9C16.3999 81.9 16.1999 81.8 16.1999 81.7L12.6999 73.1L10.3999 77.5C10.2999 77.6 10.1999 77.7 10.0999 77.7H0.599924C1.09992 79 1.89992 80.3 2.89992 81.4L14.8999 92.9C15.6999 93.7 17.0999 93.7 17.8999 92.9L29.8999 81.4C30.3999 80.9 30.7999 80.3 31.1999 79.8C31.6999 79 32.0999 78.1 32.3999 77.2H25.3999V77.1Z" fill="#95C53D"/>
<path d="M52.2 27.5H44.9L44.7 27.2C43.8 26.2 42.7 25.5 41.5 25.2C40.1 24.8 39 23.7 38.6 22.3C37.8 19.4 35.1 17.4 32 17.4C29 17.4 26.3 19.4 25.4 22.3C25 23.7 23.9 24.8 22.5 25.2C21.3 25.5 20.2 26.2 19.3 27.2L19.1 27.5H11.8C9.4 27.5 7.5 29.4 7.5 31.8V77.3C7.5 79.7 9.4 81.6 11.8 81.6H52.2C54.6 81.6 56.5 79.7 56.5 77.3V31.8C56.5 29.4 54.6 27.5 52.2 27.5ZM18.7 31.8C18.7 29.3 20.5 27 22.9 26.3C24.7 25.8 26 24.5 26.5 22.7C27.2 20.2 29.5 18.5 32.1 18.5C34.7 18.5 37 20.2 37.7 22.7C38.2 24.5 39.6 25.8 41.3 26.3C43.8 27 45.5 29.3 45.5 31.9V35.2H18.7V31.8ZM55.5 77.3C55.5 79.1 54 80.6 52.2 80.6H11.8C10 80.6 8.5 79.1 8.5 77.3V31.8C8.5 30 10 28.5 11.8 28.5H18.3L18 29.5C17.7 30.2 17.6 31 17.6 31.7V36.1H46.4V31.8C46.4 31 46.3 30.3 46 29.5L45.7 28.5H52.2C54 28.5 55.5 30 55.5 31.8V77.3Z" fill="#5BCEAE"/>
<path d="M32.1002 22.3C31.1002 22.3 30.2002 23.2001 30.2002 24.2001C30.2002 25.2001 31.1002 26.1 32.1002 26.1C33.1002 26.1 34.0002 25.2001 34.0002 24.2001C34.0002 23.2001 33.1002 22.3 32.1002 22.3ZM32.1002 25.4C31.5002 25.4 30.9002 24.9001 30.9002 24.2001C30.9002 23.5001 31.4002 23.1 32.1002 23.1C32.7002 23.1 33.2002 23.6001 33.2002 24.2001C33.2002 24.8001 32.7002 25.4 32.1002 25.4Z" fill="#5BCEAE"/>
<path d="M47.4998 46.4H16.2998C15.9998 46.4 15.7998 46.2 15.7998 45.9C15.7998 45.6 15.9998 45.4 16.2998 45.4H47.4998C47.7998 45.4 47.9998 45.6 47.9998 45.9C47.9998 46.2 47.7998 46.4 47.4998 46.4Z" fill="#5BCEAE"/>
<path d="M47.4998 51.3H16.2998C15.9998 51.3 15.7998 51.1 15.7998 50.8C15.7998 50.5 15.9998 50.3 16.2998 50.3H47.4998C47.7998 50.3 47.9998 50.5 47.9998 50.8C47.9998 51.1 47.7998 51.3 47.4998 51.3Z" fill="#5BCEAE"/>
<path d="M47.4998 56.2H16.2998C15.9998 56.2 15.7998 56 15.7998 55.7C15.7998 55.4 15.9998 55.2 16.2998 55.2H47.4998C47.7998 55.2 47.9998 55.4 47.9998 55.7C47.9998 56 47.7998 56.2 47.4998 56.2Z" fill="#5BCEAE"/>
<path d="M47.4998 61.1H16.2998C15.9998 61.1 15.7998 60.9 15.7998 60.6C15.7998 60.3 15.9998 60.1 16.2998 60.1H47.4998C47.7998 60.1 47.9998 60.3 47.9998 60.6C47.9998 60.9 47.7998 61.1 47.4998 61.1Z" fill="#5BCEAE"/>
<path d="M67.5001 49.6C67.5001 49.6 67.5001 49.5 67.5001 49.6C67.5001 49.5 67.5001 49.5 67.4001 49.4L63.9001 43.7C63.9001 43.7 63.9001 43.7 63.8001 43.6L63.7001 43.5C63.6001 43.5 63.6001 43.5 63.5001 43.5C63.4001 43.5 63.4001 43.5 63.3001 43.5C63.3001 43.5 63.2001 43.5 63.2001 43.6C63.2001 43.6 63.2001 43.6 63.1001 43.7L59.6001 49.4V49.5L59.7001 71.7C59.7001 73.9 61.5001 75.6 63.6001 75.6C65.8001 75.6 67.5001 73.8 67.5001 71.7V49.6ZM63.1001 45.4V45.9C63.1001 46.1 63.3001 46.3 63.5001 46.3C63.7001 46.3 63.9001 46.1 63.9001 45.9V45.4L66.4001 49.5L65.2001 51L63.8001 49.2C63.8001 49.2 63.8001 49.2 63.7001 49.2H63.6001C63.6001 49.2 63.6001 49.2 63.5001 49.2H63.4001H63.3001H63.2001L61.8001 51L60.6001 49.5L63.1001 45.4ZM63.6001 74.9C62.1001 74.9 60.8001 73.8 60.6001 72.3H66.6001C66.4001 73.7 65.2001 74.9 63.6001 74.9ZM66.7001 71.4H60.6001V70.5H66.7001V71.4ZM66.7001 69.6H60.6001V68.7H66.7001V69.6ZM60.6001 67.9V50.8L61.5001 51.9V65.7C61.5001 66 61.7001 66.1 61.9001 66.1C62.2001 66.1 62.3001 65.9 62.3001 65.7V51.9L63.6001 50.3L64.9001 51.9V65.7C64.9001 65.9 65.1001 66.1 65.3001 66.1C65.5001 66.1 65.7001 65.9 65.7001 65.7V51.9L66.6001 50.8V67.9H60.6001Z" fill="#5BCEAE"/>
</g>
<defs>
<clipPath id="clip0">
<rect width="81.4" height="93.5" fill="white"/>
</clipPath>
</defs>
</svg>
