<svg width="80" height="94" viewBox="0 0 80 94" fill="none" xmlns="http://www.w3.org/2000/svg">
<g clip-path="url(#clip0)">
<path opacity="0.2" d="M78.2 47C78.1 46.8 78 46.6 77.8 46.4C77.5 46 77.3 45.6 77 45.2C76.4 44.4 75.7 43.8 75 43.3C74.6 43 74.2 42.7 73.8 42.5C70.4 40.5 66.3 39.9 62.8 35.9C62.7 35.8 62.6 35.6 62.5 35.5C62.4 35.4 62.3 35.2 62.2 35.1C62 34.8 61.7 34.5 61.5 34.2C61.1 33.5 60.7 32.9 60.4 32.3C60.2 31.9 60.1 31.6 59.9 31.2C57.9 26.1 59.7 22.1 56.8 17.2C56.6 16.8 56.3 16.4 56 16C55.8 15.8 55.7 15.5 55.5 15.3C55.3 15.1 55.1 14.9 55 14.7C48.1 7.00004 32.6 4.50004 21.3 10.2C20.2 10.8 19.1 11.4 18.1 12.1C17.7 12.4 17.3 12.6 17 12.9C16.1 13.6 15.3 14.3 14.5 15C14.2 15.3 13.8 15.6 13.5 16C13.2 16.3 12.9 16.7 12.6 17C12.3 17.3 12.1 17.6 11.8 18C10.3 19.9 8.9 22 7.8 24.3C7.6 24.6 7.5 24.9 7.3 25.2C7.2 25.5 7 25.9 6.8 26.2C6.5 26.8 6.3 27.4 6 28C4.9 30.8 4.1 33.7 3.5 36.7C3.4 37.2 3.3 37.6 3.3 38.1C2.1 46 2.7 54.2 4.9 61.2C5.3 62.3 5.9 64.1 6.8 66.2C7 66.6 7.2 67.1 7.5 67.6C7.6 67.8 7.6 67.9 7.7 68.1C8 68.5 8.3 69 8.6 69.5C10.1 72.1 12.2 74.8 15 77.4C15.3 77.7 15.6 77.9 16 78.2C16.4 78.5 16.8 78.8 17.2 79.2C17.8 79.7 18.5 80.1 19.2 80.6C19.8 81 20.3 81.3 20.9 81.6C31.6 87.6 45.4 87.9 56.9 83.9H57C57.1 83.9 57.3 83.8 57.4 83.8C57.6 83.7 57.7 83.7 57.9 83.6C66.3 80.5 73.4 75.1 76.9 68C77.9 66.1 78.7 63.6 79.3 61C79.4 60.7 79.4 60.4 79.5 60.2C79.6 59.9 79.6 59.5 79.7 59.2C80.3 54.9 80.1 50.5 78.2 47ZM32 18.4C34.6 18.4 36.9 20.1 37.6 22.6C38.1 24.4 39.5 25.7 41.2 26.2C43.7 26.9 45.4 29.2 45.4 31.8V35H18.7V31.7C18.7 29.1 20.5 26.9 22.9 26.2C24.7 25.7 26 24.4 26.5 22.6C27.2 20.1 29.5 18.4 32 18.4ZM32.1 26.1C33.1 26.1 34 25.2 34 24.2C34 23.2 33.1 22.3 32.1 22.3C31.1 22.3 30.2 23.2 30.2 24.2C30.2 25.2 31 26.1 32.1 26.1Z" fill="#5BCEAE"/>
<path d="M69.4998 72.2C69.3998 72 69.3998 71.8 69.5998 71.7C69.7998 71.5 70.0998 71.5 70.2998 71.6L76.9998 77.1C77.1998 77.3 77.1998 77.6 77.0998 77.8C76.8998 78 76.5998 78 76.3998 77.9L69.6998 72.4C69.5998 72.3 69.4998 72.2 69.4998 72.2Z" fill="#5BCEAE"/>
<path d="M11 9.3C10.9 9.5 10.8 9.6 10.6 9.6C10.3 9.6 10.1 9.4 10 9.2L9 0.6C9 0.3 9.2 0 9.5 0C9.7 0 10 0.2 10 0.4L11 9C11.1 9.1 11.1 9.2 11 9.3Z" fill="#5BCEAE"/>
<path d="M71.2999 82.1C71.2999 82.3 71.0999 82.5 70.9999 82.5C70.6999 82.6 70.4999 82.4 70.3999 82.2L67.6999 74C67.5999 73.7 67.7999 73.5 67.9999 73.4C68.2999 73.3 68.4999 73.5 68.5999 73.7L71.2999 81.9C71.2999 81.9 71.2999 82 71.2999 82.1Z" fill="#5BCEAE"/>
<path d="M9.40023 12.3C9.50023 12.5 9.40023 12.7 9.30023 12.8C9.10023 13 8.80023 13 8.60023 12.8L2.20023 7.00002C2.00023 6.80002 1.90023 6.50002 2.10023 6.30002C2.30023 6.10002 2.60023 6.10002 2.80023 6.30002L9.20023 12.2C9.30023 12.2 9.30023 12.3 9.40023 12.3Z" fill="#5BCEAE"/>
<path d="M65.2998 32C65.0998 32 64.8998 31.9 64.8998 31.7C64.7998 31.4 64.8998 31.2 65.1998 31.1L73.2998 28.1C73.5998 28 73.7998 28.1 73.8998 28.4C73.9998 28.7 73.8998 28.9 73.5998 29L65.4998 32C65.4998 32 65.3998 32 65.2998 32Z" fill="#5BCEAE"/>
<path d="M61.8999 31.1C61.6999 31.2 61.4999 31.2 61.3999 31.1C61.1999 31 61.0999 30.7 61.1999 30.4L65.3999 22.8C65.4999 22.6 65.7999 22.5 66.0999 22.6C66.2999 22.7 66.3999 23 66.2999 23.3L62.0999 30.9C61.9999 31 61.9999 31 61.8999 31.1Z" fill="#5BCEAE"/>
<g opacity="0.5">
<path opacity="0.5" d="M7.10004 15.4C7.00004 16.7 5.90004 17.7 4.50004 17.6C3.10004 17.5 2.20004 16.3 2.30004 15C2.40004 13.7 3.50004 12.7 4.90004 12.8C6.30004 12.9 7.20004 14.1 7.10004 15.4ZM3.30004 15.1C3.20004 15.9 3.80004 16.5 4.60004 16.6C5.40004 16.7 6.00004 16.1 6.10004 15.3C6.20004 14.5 5.60004 13.9 4.80004 13.8C4.00004 13.8 3.40004 14.3 3.30004 15.1Z" fill="#95C53D"/>
</g>
<g opacity="0.5">
<path opacity="0.5" d="M21.2 7.79995C21.1 9.09995 20 10.0999 18.6 9.99995C17.3 9.89995 16.3 8.79995 16.4 7.39995C16.5 5.99995 17.6 5.09995 19 5.19995C20.3 5.29995 21.3 6.39995 21.2 7.79995ZM17.4 7.49995C17.3 8.29995 17.9 8.89995 18.7 8.99995C19.5 9.09995 20.1 8.49995 20.2 7.69995C20.3 6.89995 19.7 6.29995 18.9 6.19995C18.1 6.09995 17.5 6.69995 17.4 7.49995Z" fill="#95C53D"/>
</g>
<g opacity="0.5">
<path opacity="0.5" d="M78.9998 72.1001C78.8998 73.4001 77.7998 74.4001 76.3998 74.3001C75.0998 74.2001 74.0998 73.1001 74.1998 71.7001C74.2998 70.4001 75.3998 69.4001 76.7998 69.5001C78.0998 69.7001 79.0998 70.8001 78.9998 72.1001ZM75.2998 71.9001C75.1998 72.7001 75.7998 73.3001 76.5998 73.4001C77.3998 73.5001 77.9998 72.9001 78.0998 72.1001C78.1998 71.3001 77.5998 70.7001 76.7998 70.6001C75.9998 70.5001 75.2998 71.1001 75.2998 71.9001Z" fill="#95C53D"/>
</g>
<g opacity="0.5">
<path opacity="0.5" d="M72.3001 36.4C72.2001 37.7 71.1001 38.7 69.7001 38.6C68.4001 38.5 67.4001 37.4 67.5001 36C67.6001 34.7 68.7001 33.7 70.1001 33.8C71.4001 33.9 72.4001 35.1 72.3001 36.4ZM68.6001 36.1C68.5001 36.9 69.1001 37.5 69.9001 37.6C70.7001 37.7 71.3001 37.1 71.4001 36.3C71.5001 35.5 70.9001 34.9 70.1001 34.8C69.3001 34.8 68.6001 35.3 68.6001 36.1Z" fill="#95C53D"/>
</g>
<path opacity="0.6" d="M29.8999 66.9C28.7999 65.8 27.4999 65 25.9999 64.6C25.1999 64.4 24.3999 64.3 23.5999 64.3C20.9999 64.3 18.3999 65.3 16.3999 67C14.1999 65 11.9999 64 9.99992 64C7.29992 64 4.79992 65.1 2.89992 67C0.299925 69.6 -0.600076 73.5 0.399924 77H9.69992L12.2999 72.1C12.3999 72 12.4999 71.9 12.6999 71.9C12.7999 71.9 12.9999 72 12.9999 72.1L16.3999 80.5L19.6999 69.9C19.6999 69.7 19.8999 69.6 20.0999 69.6C20.2999 69.6 20.3999 69.7 20.4999 69.9L22.2999 75.8L23.5999 73.9C23.6999 73.8 23.7999 73.7 23.8999 73.7C23.9999 73.7 24.0999 73.8 24.1999 73.9L25.6999 76.3H32.5999C33.2999 73.1 32.3999 69.5 29.8999 66.9ZM25.3999 77.1C25.2999 77.1 25.0999 77 25.0999 76.9L23.7999 74.8L22.3999 76.8C22.2999 77 22.1999 77 21.9999 77C21.8999 77 21.6999 76.9 21.6999 76.7L19.9999 71.2L16.7999 81.6C16.7999 81.7 16.5999 81.9 16.4999 81.9C16.3999 81.9 16.1999 81.8 16.1999 81.7L12.6999 73.1L10.3999 77.5C10.2999 77.6 10.1999 77.7 10.0999 77.7H0.599924C1.09992 79 1.89992 80.3 2.89992 81.4L14.8999 92.9C15.6999 93.7 17.0999 93.7 17.8999 92.9L29.8999 81.4C30.3999 80.9 30.7999 80.3 31.1999 79.8C31.6999 79 32.0999 78.1 32.3999 77.2H25.3999V77.1Z" fill="#95C53D"/>
<path d="M52.2 27.5H44.9L44.7 27.2C43.8 26.2 42.7 25.5 41.5 25.2C40.1 24.8 39 23.7 38.6 22.3C37.8 19.4 35.1 17.4 32 17.4C29 17.4 26.3 19.4 25.4 22.3C25 23.7 23.9 24.8 22.5 25.2C21.3 25.5 20.2 26.2 19.3 27.2L19.1 27.5H11.8C9.4 27.5 7.5 29.4 7.5 31.8V77.3C7.5 79.7 9.4 81.6 11.8 81.6H52.2C54.6 81.6 56.5 79.7 56.5 77.3V31.8C56.5 29.4 54.6 27.5 52.2 27.5ZM18.7 31.8C18.7 29.3 20.5 27 22.9 26.3C24.7 25.8 26 24.5 26.5 22.7C27.2 20.2 29.5 18.5 32.1 18.5C34.7 18.5 37 20.2 37.7 22.7C38.2 24.5 39.6 25.8 41.3 26.3C43.8 27 45.5 29.3 45.5 31.9V35.2H18.7V31.8ZM55.5 77.3C55.5 79.1 54 80.6 52.2 80.6H11.8C10 80.6 8.5 79.1 8.5 77.3V31.8C8.5 30 10 28.5 11.8 28.5H18.3L18 29.5C17.7 30.2 17.6 31 17.6 31.7V36.1H46.4V31.8C46.4 31 46.3 30.3 46 29.5L45.7 28.5H52.2C54 28.5 55.5 30 55.5 31.8V77.3Z" fill="#5BCEAE"/>
<path d="M32.1002 22.3C31.1002 22.3 30.2002 23.2001 30.2002 24.2001C30.2002 25.2001 31.1002 26.1 32.1002 26.1C33.1002 26.1 34.0002 25.2001 34.0002 24.2001C34.0002 23.2001 33.1002 22.3 32.1002 22.3ZM32.1002 25.4C31.5002 25.4 30.9002 24.9001 30.9002 24.2001C30.9002 23.5001 31.4002 23.1 32.1002 23.1C32.7002 23.1 33.2002 23.6001 33.2002 24.2001C33.2002 24.8001 32.7002 25.4 32.1002 25.4Z" fill="#5BCEAE"/>
<path d="M43.5002 46L29.0002 60.5L22.2002 53.7001L22.9002 53L29.0002 59.1L42.8002 45.3L43.5002 46Z" fill="#5BCEAE"/>
</g>
<defs>
<clipPath id="clip0">
<rect width="79.9" height="93.5" fill="white"/>
</clipPath>
</defs>
</svg>
