<svg width="78" height="87" viewBox="0 0 78 87" fill="none" xmlns="http://www.w3.org/2000/svg">
<g clip-path="url(#clip0)">
<path opacity="0.2" d="M75.5002 47C75.4002 46.8 75.3002 46.6 75.1002 46.4C74.8002 46 74.6002 45.6 74.3002 45.2C73.7002 44.4 73.0002 43.8 72.3002 43.3C71.9002 43 71.5002 42.7 71.1002 42.5C67.7002 40.5 63.6002 39.9 60.1002 35.9C60.0002 35.8 59.9002 35.6 59.8002 35.5C59.7002 35.4 59.6002 35.2 59.5002 35.1C59.3002 34.8 59.0002 34.5 58.8002 34.2C58.4002 33.5 58.0002 32.9 57.7002 32.3C57.5002 31.9 57.4002 31.6 57.2002 31.2C55.2002 26.1 57.0002 22.1 54.1002 17.2C53.9002 16.8 53.6002 16.4 53.3002 16C53.1002 15.8 53.0002 15.5 52.8002 15.3C52.6002 15.1 52.4002 14.9 52.3002 14.7C45.4002 7.00004 29.9002 4.50004 18.6002 10.2C17.5002 10.8 16.4002 11.4 15.4002 12.1C15.0002 12.4 14.6002 12.6 14.3002 12.9C13.4002 13.6 12.6002 14.3 11.8002 15C11.5002 15.3 11.1002 15.6 10.8002 16C10.5002 16.3 10.2002 16.7 9.9002 17C9.6002 17.3 9.4002 17.6 9.1002 18C7.6002 19.9 6.2002 22 5.1002 24.3C4.9002 24.6 4.8002 24.9 4.6002 25.2C4.5002 25.5 4.3002 25.9 4.1002 26.2C3.8002 26.8 3.6002 27.4 3.3002 28C2.2002 30.8 1.4002 33.7 0.800203 36.7C0.700203 37.2 0.600203 37.6 0.600203 38.1C-0.599797 46 -0.099797 54.2 2.2002 61.2C2.6002 62.3 3.2002 64.1 4.1002 66.2C4.3002 66.6 4.5002 67.1 4.8002 67.6C4.9002 67.8 4.9002 67.9 5.0002 68.1C5.3002 68.6 5.5002 69 5.8002 69.5C7.3002 72.1 9.4002 74.8 12.2002 77.4C12.5002 77.7 12.8002 77.9 13.2002 78.2C13.6002 78.5 14.0002 78.8 14.4002 79.2C15.0002 79.7 15.7002 80.1 16.4002 80.6C17.0002 81 17.5002 81.3 18.1002 81.6C28.8002 87.6 42.6002 87.9 54.1002 83.9H54.2002C54.3002 83.9 54.5002 83.8 54.6002 83.8C54.8002 83.7 54.9002 83.7 55.1002 83.6C63.5002 80.5 70.6002 75.1 74.1002 68C75.1002 66.1 75.9002 63.6 76.5002 61C76.6002 60.7 76.6002 60.4 76.7002 60.2C76.8002 59.9 76.8002 59.5 76.9002 59.2C77.5002 54.9 77.3002 50.5 75.5002 47ZM29.3002 18.4C31.9002 18.4 34.2002 20.1 34.9002 22.6C35.4002 24.4 36.8002 25.7 38.5002 26.2C41.0002 26.9 42.7002 29.2 42.7002 31.8V35H15.9002V31.7C15.9002 29.1 17.7002 26.9 20.1002 26.2C21.9002 25.7 23.2002 24.4 23.7002 22.6C24.4002 20.1 26.7002 18.4 29.3002 18.4ZM29.3002 26.1C30.3002 26.1 31.2002 25.2 31.2002 24.2C31.2002 23.2 30.3002 22.3 29.3002 22.3C28.3002 22.3 27.4002 23.2 27.4002 24.2C27.4002 25.2 28.3002 26.1 29.3002 26.1Z" fill="#5BCEAE"/>
<path d="M67.8001 72.2C67.7001 72 67.7001 71.8 67.9001 71.7C68.1001 71.5 68.4001 71.5 68.6001 71.6L75.3001 77.1C75.5001 77.3 75.5001 77.6 75.4001 77.8C75.2001 78 74.9001 78 74.7001 77.9L68.0001 72.4C67.8001 72.3 67.8001 72.2 67.8001 72.2Z" fill="#5BCEAE"/>
<path d="M9.2998 9.3C9.1998 9.5 9.0998 9.6 8.8998 9.6C8.5998 9.6 8.3998 9.4 8.2998 9.2L7.2998 0.6C7.2998 0.3 7.3998 0 7.6998 0C7.9998 0 8.1998 0.2 8.2998 0.4L9.2998 9C9.2998 9.1 9.2998 9.2 9.2998 9.3Z" fill="#5BCEAE"/>
<path d="M69.6002 82.1C69.6002 82.3 69.4002 82.5 69.3002 82.5C69.0002 82.6 68.8002 82.4 68.7002 82.2L66.0002 74C65.9002 73.7 66.1002 73.5 66.3002 73.4C66.6002 73.3 66.8002 73.5 66.9002 73.7L69.6002 81.9C69.6002 81.9 69.6002 82 69.6002 82.1Z" fill="#5BCEAE"/>
<path d="M7.6 12.3C7.7 12.5 7.6 12.7 7.5 12.8C7.3 13 7 13 6.8 12.8L0.4 7.00002C0.2 6.80002 0.2 6.50002 0.4 6.30002C0.6 6.10002 0.9 6.10002 1.1 6.30002L7.5 12.2C7.6 12.2 7.6 12.3 7.6 12.3Z" fill="#5BCEAE"/>
<g opacity="0.5">
<path opacity="0.5" d="M5.30018 15.4C5.20018 16.7 4.10018 17.7 2.70018 17.6C1.30018 17.5 0.500182 16.3 0.600182 15C0.700182 13.7 1.80018 12.7 3.20018 12.8C4.60018 12.9 5.40018 14.1 5.30018 15.4ZM1.60018 15.1C1.50018 15.9 2.10018 16.5 2.90018 16.6C3.70018 16.7 4.30018 16.1 4.40018 15.3C4.50018 14.5 3.90018 13.9 3.10018 13.8C2.30018 13.8 1.60018 14.3 1.60018 15.1Z" fill="#95C53D"/>
</g>
<g opacity="0.5">
<path opacity="0.5" d="M19.4002 7.80001C19.3002 9.10001 18.2002 10.1 16.8002 10C15.5002 9.90001 14.5002 8.80001 14.6002 7.40001C14.7002 6.10001 15.8002 5.10001 17.2002 5.20001C18.6002 5.30001 19.5002 6.40001 19.4002 7.80001ZM15.7002 7.50001C15.6002 8.20001 16.2002 8.90001 17.0002 9.00001C17.8002 9.10001 18.4002 8.50001 18.5002 7.70001C18.6002 6.90001 18.0002 6.30001 17.2002 6.20001C16.4002 6.10001 15.7002 6.70001 15.7002 7.50001Z" fill="#95C53D"/>
</g>
<g opacity="0.5">
<path opacity="0.5" d="M77.3001 72.1C77.2001 73.4 76.1001 74.4 74.7001 74.3C73.4001 74.2 72.4001 73.1 72.5001 71.7C72.6001 70.3 73.7001 69.4 75.1001 69.5C76.4001 69.7 77.4001 70.8 77.3001 72.1ZM73.5001 71.9C73.4001 72.7 74.0001 73.3 74.8001 73.4C75.6001 73.5 76.2001 72.9 76.3001 72.1C76.4001 71.3 75.8001 70.7 75.0001 70.6C74.3001 70.5 73.6001 71.1 73.5001 71.9Z" fill="#95C53D"/>
</g>
<g opacity="0.5">
<path opacity="0.5" d="M70.6 36.4C70.5 37.7 69.4 38.7 68 38.6C66.6 38.5 65.7 37.4 65.8 36C65.9 34.7 67 33.7 68.4 33.8C69.7 33.9 70.7 35.1 70.6 36.4ZM66.8 36.1C66.7 36.9 67.3 37.5 68.1 37.6C68.9 37.7 69.5 37.1 69.6 36.3C69.7 35.5 69.1 34.9 68.3 34.8C67.6 34.8 66.9 35.3 66.8 36.1Z" fill="#95C53D"/>
</g>
<path d="M62.7002 31.4C62.5002 31.4 62.3002 31.3 62.3002 31.1C62.2002 30.8 62.3002 30.6 62.6002 30.5L70.7002 27.5C71.0002 27.4 71.2002 27.5 71.3002 27.8C71.4002 28.1 71.3002 28.3 71.0002 28.4L62.9002 31.4C62.9002 31.4 62.8002 31.4 62.7002 31.4Z" fill="#5BCEAE"/>
<path d="M59.3999 30.5C59.1999 30.6 58.9999 30.6 58.8999 30.5C58.6999 30.4 58.5999 30.1 58.6999 29.8L62.8999 22.2C62.9999 22 63.2999 21.9 63.5999 22C63.7999 22.1 63.8999 22.4 63.7999 22.7L59.5999 30.3C59.4999 30.4 59.3999 30.5 59.3999 30.5Z" fill="#5BCEAE"/>
<path d="M29.9998 57.7001L41.3998 69.1001L40.6998 69.8001L29.2998 58.4001L17.9998 69.8001L17.2998 69.1001L28.6998 57.7001L17.2998 46.4001L17.9998 45.7001L29.2998 57.1001L40.6998 45.7001L41.3998 46.4001L29.9998 57.7001Z" fill="#5BCEAE"/>
<path d="M29.2999 22.3C28.2999 22.3 27.3999 23.2001 27.3999 24.2001C27.3999 25.2001 28.2999 26.1 29.2999 26.1C30.2999 26.1 31.1999 25.2001 31.1999 24.2001C31.1999 23.1001 30.3999 22.3 29.2999 22.3ZM29.2999 25.3C28.6999 25.3 28.0999 24.8001 28.0999 24.1C28.0999 23.4 28.5999 23 29.2999 23C29.9999 23 30.3999 23.5 30.3999 24.1C30.3999 24.7 29.9999 25.3 29.2999 25.3Z" fill="#5BCEAE"/>
<path d="M49.4998 27.5H42.1998L41.9998 27.2C41.0998 26.2 39.9998 25.5 38.7998 25.2C37.3998 24.8 36.2998 23.7 35.8998 22.3C35.0998 19.4 32.3998 17.4 29.2998 17.4C26.2998 17.4 23.5998 19.4 22.6998 22.3C22.2998 23.7 21.1998 24.8 19.7998 25.2C18.5998 25.5 17.4998 26.2 16.5998 27.2L16.3998 27.5H9.0998C6.6998 27.5 4.7998 29.4 4.7998 31.8V77.3C4.7998 79.7 6.6998 81.6 9.0998 81.6H49.4998C51.8998 81.6 53.7998 79.7 53.7998 77.3V31.8C53.7998 29.4 51.8998 27.5 49.4998 27.5ZM15.8998 31.7C15.8998 29.1 17.6998 26.9 20.0998 26.2C21.8998 25.7 23.1998 24.4 23.6998 22.6C24.3998 20.1 26.6998 18.4 29.2998 18.4C31.8998 18.4 34.1998 20.1 34.8998 22.6C35.3998 24.4 36.7998 25.7 38.4998 26.2C40.9998 26.9 42.6998 29.2 42.6998 31.8V35H15.8998V31.7ZM52.7998 77.2C52.7998 79 51.2998 80.5 49.4998 80.5H9.0998C7.2998 80.5 5.7998 79 5.7998 77.2V31.8C5.7998 30 7.2998 28.5 9.0998 28.5H15.5998L15.2998 29.5C14.9998 30.2 14.8998 31 14.8998 31.7V36.1H43.6998V31.8C43.6998 31 43.5998 30.3 43.2998 29.5L42.9998 28.5H49.4998C51.2998 28.5 52.7998 30 52.7998 31.8V77.2Z" fill="#5BCEAE"/>
</g>
<defs>
<clipPath id="clip0">
<rect width="77.3" height="86.5" fill="white"/>
</clipPath>
</defs>
</svg>
