<svg width="81" height="87" viewBox="0 0 81 87" fill="none" xmlns="http://www.w3.org/2000/svg">
<g clip-path="url(#clip0)">
<path opacity="0.2" d="M75.4999 47.5C75.3999 47.3 75.2999 47.1 75.0999 46.9C74.7999 46.5 74.6 46.1 74.2999 45.7C73.7 44.9 72.9999 44.3 72.2999 43.8C71.8999 43.5 71.4999 43.2 71.0999 43C67.6999 41 63.5999 40.4 60.0999 36.4C59.9999 36.3 59.8999 36.1 59.7999 36C59.6999 35.9 59.5999 35.7 59.4999 35.6C59.2999 35.3 58.9999 35 58.7999 34.7C58.3999 34 57.9999 33.4 57.6999 32.8C57.4999 32.4 57.3999 32.1 57.1999 31.7C55.1999 26.6 56.9999 22.6 54.0999 17.7C53.8999 17.3 53.5999 16.9 53.2999 16.5C53.0999 16.3 52.9999 16 52.7999 15.8C52.5999 15.6 52.3999 15.4 52.2999 15.2C45.3999 7.39995 29.8999 4.99996 18.4999 10.6C17.3999 11.2 16.2999 11.8 15.2999 12.5C14.8999 12.8 14.4999 13 14.1999 13.3C13.2999 14 12.4999 14.7 11.6999 15.4C11.3999 15.7 10.9999 16 10.6999 16.4C10.3999 16.7 10.0999 17.1 9.79994 17.4C9.49994 17.7 9.29994 18 8.99994 18.4C7.49994 20.3 6.09994 22.4 4.99994 24.7C4.79994 25 4.69994 25.3 4.49994 25.6C4.39994 25.9 4.19994 26.3 3.99994 26.6C3.69994 27.2 3.49994 27.8 3.19994 28.4C2.09994 31.2 1.29994 34.1 0.699944 37.1C0.599944 37.6 0.499944 38 0.499944 38.5C-0.800056 46.4 -0.200056 54.7 1.99994 61.7C2.39994 62.8 2.99994 64.6 3.89994 66.7C4.09994 67.1 4.29994 67.6 4.59994 68.1C4.69994 68.3 4.69994 68.4 4.79994 68.6C5.09994 69.1 5.29994 69.5 5.59994 70C7.09994 72.6 9.19994 75.3 11.9999 77.9C12.2999 78.2 12.5999 78.3999 12.9999 78.7C13.3999 79 13.7999 79.2999 14.1999 79.7C14.7999 80.2 15.4999 80.6 16.1999 81.1C16.7999 81.5 17.2999 81.7999 17.8999 82.1C28.5999 88.1 42.3999 88.4 53.8999 84.4H53.9999C54.0999 84.4 54.2999 84.3 54.3999 84.3C54.5999 84.2 54.6999 84.2 54.8999 84.1C63.2999 81 70.3999 75.6 73.8999 68.5C74.8999 66.6 75.7 64.1 76.2999 61.5C76.3999 61.2 76.3999 60.9 76.4999 60.7C76.5999 60.4 76.5999 60 76.6999 59.7C77.4999 55.4 77.2999 51.1 75.4999 47.5ZM29.2999 18.9C31.8999 18.9 34.1999 20.6 34.8999 23.1C35.3999 24.9 36.7999 26.2 38.4999 26.7C40.9999 27.4 42.6999 29.7 42.6999 32.3V35.6H15.8999V32.3C15.8999 29.7 17.6999 27.5 20.0999 26.8C21.8999 26.3 23.1999 25 23.6999 23.2C24.3999 20.7 26.6999 18.9 29.2999 18.9ZM29.2999 26.6C30.2999 26.6 31.1999 25.7 31.1999 24.7C31.1999 23.7 30.2999 22.8 29.2999 22.8C28.2999 22.8 27.3999 23.7 27.3999 24.7C27.3999 25.8 28.2999 26.6 29.2999 26.6Z" fill="#5BCEAE"/>
<path d="M68.8001 72.7C68.7001 72.5 68.7001 72.3 68.9001 72.2C69.1001 72 69.4001 72 69.6001 72.1L76.3001 77.6C76.5001 77.8 76.5001 78.1 76.4001 78.3C76.2001 78.5 75.9001 78.5 75.7001 78.4L69.0001 72.9C68.8001 72.9 68.8001 72.8 68.8001 72.7Z" fill="#5BCEAE"/>
<path d="M10.2998 9.8C10.1998 10 10.0998 10.1 9.8998 10.1C9.5998 10.1 9.3998 9.9 9.2998 9.7L8.2998 1.1C8.2998 0.8 8.4998 0.6 8.6998 0.5C8.9998 0.5 9.1998 0.7 9.2998 1L10.2998 9.6C10.2998 9.7 10.2998 9.8 10.2998 9.8Z" fill="#5BCEAE"/>
<path d="M70.6002 82.6C70.6002 82.8 70.4002 83 70.3002 83C70.0002 83.1 69.8002 82.9 69.7002 82.7L67.0002 74.5C66.9002 74.2 67.1002 74 67.3002 73.9C67.6002 73.8 67.8002 74 67.9002 74.2L70.6002 82.4C70.6002 82.5 70.6002 82.5 70.6002 82.6Z" fill="#5BCEAE"/>
<path d="M8.6 12.9C8.7 13.1 8.6 13.3 8.5 13.4C8.3 13.6 8 13.6 7.8 13.4L1.4 7.6C1.2 7.4 1.2 7.1 1.4 6.9C1.6 6.7 1.9 6.7 2.1 6.9L8.5 12.8C8.6 12.8 8.6 12.8 8.6 12.9Z" fill="#5BCEAE"/>
<g opacity="0.5">
<path opacity="0.5" d="M6.30024 16C6.20024 17.3 5.10024 18.3 3.70024 18.2C2.30024 18.1 1.40024 17 1.50024 15.6C1.60024 14.3 2.70024 13.3 4.10024 13.4C5.40024 13.5 6.40024 14.6 6.30024 16ZM2.60024 15.7C2.50024 16.5 3.10024 17.1 3.90024 17.2C4.70024 17.3 5.30024 16.7 5.40024 15.9C5.50024 15.1 4.90024 14.5 4.10024 14.4C3.30024 14.3 2.60024 14.9 2.60024 15.7Z" fill="#95C53D"/>
</g>
<g opacity="0.5">
<path opacity="0.5" d="M20.4002 8.30001C20.3002 9.60001 19.2002 10.6 17.8002 10.5C16.5002 10.4 15.5002 9.30001 15.6002 7.90001C15.7002 6.60001 16.8002 5.60001 18.2002 5.70001C19.6002 5.90001 20.5002 7.00001 20.4002 8.30001ZM16.7002 8.00001C16.6002 8.80001 17.2002 9.40001 18.0002 9.50001C18.8002 9.60001 19.4002 9.00001 19.5002 8.20001C19.6002 7.40001 19.0002 6.80001 18.2002 6.70001C17.4002 6.70001 16.7002 7.30001 16.7002 8.00001Z" fill="#95C53D"/>
</g>
<g opacity="0.5">
<path opacity="0.5" d="M78.3001 72.7C78.2001 74 77.0001 75 75.7001 74.9C74.4001 74.8 73.4001 73.7 73.5001 72.3C73.6001 70.9 74.7001 70 76.1001 70.1C77.4001 70.3 78.4001 71.4 78.3001 72.7ZM74.5001 72.4C74.4001 73.2 75.0001 73.8 75.8001 73.9C76.6001 74 77.2001 73.4 77.3001 72.6C77.4001 71.8 76.8001 71.2 76.0001 71.1C75.3001 71.1 74.6001 71.7 74.5001 72.4Z" fill="#95C53D"/>
</g>
<g opacity="0.5">
<path opacity="0.5" d="M71.6 36.9C71.5 38.2 70.4 39.2 69 39.1C67.6 39 66.7 37.9 66.8 36.5C66.9 35.2 68 34.2 69.4 34.3C70.7 34.5 71.7 35.6 71.6 36.9ZM67.8 36.7C67.7 37.5 68.3 38.1 69.1 38.2C69.9 38.3 70.5 37.7 70.6 36.9C70.7 36.1 70.1 35.5 69.3 35.4C68.5 35.3 67.9 35.9 67.8 36.7Z" fill="#95C53D"/>
</g>
<path opacity="0.3" d="M76.4998 4C75.0998 2.5 73.1998 1.4 71.2998 0.9C70.2998 0.6 69.1998 0.5 68.0998 0.5C64.5998 0.5 61.1998 1.8 58.4998 4.1C55.4998 1.4 52.5998 0 49.8998 0C46.2998 0 42.8998 1.4 40.3998 4C36.7998 7.7 35.6998 12.9 36.9998 17.5H49.4998L52.9998 10.9C53.0998 10.7 53.2998 10.6 53.4998 10.6C53.6998 10.6 53.8998 10.7 53.8998 10.9L58.3998 22.2L62.7998 8C62.8998 7.8 63.0998 7.7 63.2998 7.7C63.4998 7.7 63.6998 7.8 63.7998 8L66.2998 15.9L68.0998 13.4C68.1998 13.3 68.2998 13.2 68.4998 13.2C68.6998 13.2 68.7998 13.3 68.8998 13.4L70.8998 16.7H80.1998C80.9998 12.3 79.8998 7.5 76.4998 4ZM70.4998 17.8C70.2998 17.8 70.1998 17.7 70.0998 17.6L68.3998 14.7L66.4998 17.4C66.3998 17.6 66.1998 17.6 65.9998 17.6C65.7998 17.6 65.5998 17.4 65.5998 17.2L63.2998 9.9L58.9998 23.9C58.8998 24.1 58.7998 24.2 58.4998 24.3C58.2998 24.3 58.0998 24.2 57.9998 24L53.3998 12.4L50.2998 18.3C50.1998 18.5 49.9998 18.6 49.8998 18.6H37.2998C37.9998 20.4 38.9998 22.1 40.3998 23.6L56.4998 39C57.5998 40.1 59.3998 40.1 60.4998 39L76.5998 23.6C77.2998 22.9 77.7998 22.2 78.2998 21.4C78.9998 20.3 79.4998 19.1 79.8998 17.9H70.4998V17.8Z" fill="#95C53D"/>
<path d="M49.4998 27.9H42.1998L41.9998 27.6C41.0998 26.6 39.9998 25.9001 38.7998 25.6C37.3998 25.2 36.2998 24.1001 35.8998 22.7001C35.0998 19.8001 32.3998 17.8 29.2998 17.8C26.2998 17.8 23.5998 19.8001 22.6998 22.7001C22.2998 24.1001 21.1998 25.2 19.7998 25.6C18.5998 25.9001 17.4998 26.6 16.5998 27.6L16.3998 27.9H9.0998C6.6998 27.9 4.7998 29.8001 4.7998 32.2001V77.7C4.7998 80.1 6.6998 82 9.0998 82H49.4998C51.8998 82 53.7998 80.1 53.7998 77.7V32.2001C53.7998 29.9001 51.8998 27.9 49.4998 27.9ZM15.8998 32.2001C15.8998 29.7001 17.6998 27.4001 20.0998 26.7001C21.8998 26.2001 23.1998 24.9001 23.6998 23.1C24.3998 20.6 26.6998 18.9 29.2998 18.9C31.8998 18.9 34.1998 20.6 34.8998 23.1C35.3998 24.9001 36.7998 26.2001 38.4998 26.7001C40.9998 27.4001 42.6998 29.7 42.6998 32.3V35.6H15.8998V32.2001ZM52.7998 77.7C52.7998 79.5 51.2998 81 49.4998 81H9.0998C7.2998 81 5.7998 79.5 5.7998 77.7V32.2001C5.7998 30.4001 7.2998 28.9 9.0998 28.9H15.5998L15.2998 29.9C14.9998 30.6 14.8998 31.4 14.8998 32.1V36.5H43.6998V32.2001C43.6998 31.4001 43.5998 30.7 43.2998 29.9L42.9998 28.9H49.4998C51.2998 28.9 52.7998 30.4001 52.7998 32.2001V77.7Z" fill="#5BCEAE"/>
<path d="M29.4 22.8C28.4 22.8 27.5 23.7001 27.5 24.7001C27.5 25.7001 28.4 26.6 29.4 26.6C30.4 26.6 31.3 25.7001 31.3 24.7001C31.2 23.6001 30.4 22.8 29.4 22.8ZM29.4 25.8C28.8 25.8 28.2 25.3001 28.2 24.6C28.2 23.9 28.7 23.5 29.4 23.5C30.1 23.5 30.5 24 30.5 24.6C30.5 25.2 30 25.8 29.4 25.8Z" fill="#5BCEAE"/>
<path d="M43.0002 45.5999C41.5002 44.0999 39.4002 43.2 37.2002 43.2C35.0002 43.2 32.9002 44.0999 31.4002 45.5999C30.0002 46.9999 29.2002 48.7999 29.0002 50.7999C28.9002 52.5999 29.3002 54.4 30.3002 55.9L16.1002 70C15.4002 70.7 15.4002 71.7999 16.1002 72.5C16.4002 72.7999 16.9002 73 17.4002 73C17.9002 73 18.3002 72.7999 18.7002 72.5L20.2002 71L22.1002 72.9C22.4002 73.2 22.9002 73.4 23.4002 73.4C23.9002 73.4 24.3002 73.2 24.7002 72.9C25.4002 72.2 25.4002 71.1 24.7002 70.4L23.7002 69.4L24.8002 68.3L25.8002 69.3C26.1002 69.6 26.6002 69.8 27.1002 69.8C27.6002 69.8 28.0002 69.6 28.4002 69.3C28.7002 69 28.9002 68.5 28.9002 68C28.9002 67.5 28.7002 67.0999 28.4002 66.6999L26.5002 64.8L33.0002 58.2999C34.3002 59.0999 35.8002 59.5999 37.4002 59.5999C39.6002 59.5999 41.7002 58.7 43.2002 57.2C44.7002 55.7 45.6002 53.6 45.6002 51.4C45.4002 49.2 44.6002 47.0999 43.0002 45.5999ZM42.3002 56.5C40.9002 57.9 39.1002 58.5999 37.2002 58.5999C35.7002 58.5999 34.2002 58.0999 33.0002 57.2999C32.8002 57.1999 32.5002 57.2 32.4002 57.4L25.2002 64.5999C25.1002 64.6999 25.1002 64.8 25.1002 64.9C25.1002 65 25.2002 65.1999 25.2002 65.1999L27.5002 67.5C27.7002 67.7 27.7002 67.8999 27.7002 68.0999C27.7002 68.2999 27.6002 68.4999 27.5002 68.6999C27.3002 68.8999 27.1002 68.9 26.9002 68.9C26.7002 68.9 26.5002 68.7999 26.3002 68.6999L25.0002 67.1999C24.8002 66.9999 24.5002 66.9999 24.3002 67.1999L22.5002 69C22.3002 69.2 22.3002 69.4999 22.5002 69.6999L23.9002 71.0999C24.2002 71.3999 24.2002 71.8999 23.9002 72.1999C23.7002 72.3999 23.5002 72.4 23.3002 72.4C23.1002 72.4 22.9002 72.2999 22.7002 72.1999L20.4002 69.9C20.3002 69.8 20.2002 69.8 20.1002 69.8C20.0002 69.8 19.9002 69.8 19.8002 69.9L17.9002 71.8C17.8002 72 17.6002 72 17.3002 72C17.0002 72 16.9002 71.9 16.7002 71.8C16.4002 71.5 16.4002 70.9999 16.7002 70.6999L31.2002 56.2C31.4002 56 31.4002 55.7999 31.3002 55.5999C29.2002 52.6999 29.6002 48.7999 32.1002 46.2999C33.5002 44.8999 35.3002 44.2 37.2002 44.2C39.1002 44.2 41.0002 44.9999 42.3002 46.2999C43.7002 47.6999 44.4002 49.5 44.4002 51.4C44.4002 53.3 43.7002 55.1 42.3002 56.5Z" fill="#5BCEAE"/>
<path d="M42.3998 51.1C42.0998 51.1 41.8998 51.3 41.8998 51.6C41.8998 52.8 41.3998 53.9001 40.4998 54.7001C39.5998 55.6 38.3998 56.1 37.1998 56.1C35.9998 56.1 34.7998 55.6 33.8998 54.7001C32.0998 52.9001 32.0998 49.9 33.8998 48.1C34.7998 47.2 35.9998 46.7001 37.1998 46.7001C38.3998 46.7001 39.5998 47.2 40.4998 48.1C40.9998 48.6 41.3998 49.2 41.5998 49.8C41.6998 50.1 41.9998 50.2 42.1998 50.1C42.4998 50 42.5998 49.7 42.4998 49.5C42.1998 48.7 41.7998 48.0001 41.1998 47.4001C40.0998 46.3001 38.6998 45.8 37.1998 45.8C35.6998 45.8 34.2998 46.4001 33.1998 47.4001C30.9998 49.6001 30.9998 53.2001 33.1998 55.4001C34.2998 56.5001 35.6998 57 37.1998 57C38.6998 57 40.0998 56.4001 41.1998 55.4001C42.1998 54.4001 42.7998 53.1 42.7998 51.6C42.7998 51.3 42.5998 51.1 42.3998 51.1Z" fill="#5BCEAE"/>
</g>
<defs>
<clipPath id="clip0">
<rect width="80.4" height="87" fill="white"/>
</clipPath>
</defs>
</svg>
