<svg width="80" height="94" viewBox="0 0 80 94" fill="none" xmlns="http://www.w3.org/2000/svg">
<g clip-path="url(#clip0)">
<path opacity="0.2" d="M77.5998 40C77.4998 39.8 77.3998 39.6 77.1998 39.3C76.8998 38.9 76.6998 38.5 76.3998 38.1C75.7998 37.3 75.0998 36.7 74.3998 36.2C73.9998 35.9 73.5998 35.6 73.1998 35.4C69.7998 33.4 65.6998 32.8 62.1998 28.8C62.0998 28.7 61.9998 28.5 61.8998 28.4C61.7998 28.3 61.6998 28.1 61.5998 28C61.3998 27.7 61.0998 27.4 60.8998 27.1C60.4998 26.4 60.0998 25.8 59.7998 25.2C59.5998 24.8 59.4998 24.5 59.2998 24.1C57.2998 19 59.0998 15 56.1998 10C55.9998 9.60002 55.6998 9.20002 55.3998 8.80002C55.1998 8.60002 55.0998 8.30002 54.8998 8.10002C54.6998 7.90002 54.4998 7.70002 54.3998 7.50002C47.4998 -0.0999789 31.9998 -2.59998 20.5998 3.10002C19.4998 3.70002 18.3998 4.30002 17.3998 5.00002C16.9998 5.30002 16.5998 5.50002 16.2998 5.80002C15.3998 6.50002 14.5998 7.20002 13.7998 7.90002C13.4998 8.20002 13.0998 8.50002 12.7998 8.90002C12.4998 9.20002 12.1998 9.60002 11.8998 9.90002C11.5998 10.2 11.3998 10.5 11.0998 10.9C9.59981 12.8 8.19981 14.9 7.09981 17.2C6.89981 17.5 6.79981 17.8 6.69981 18.1C6.49981 18.4 6.39981 18.8 6.19981 19.1C5.89981 19.7 5.69981 20.3 5.39981 20.9C4.29981 23.7 3.49981 26.6 2.89981 29.6C2.79981 30.1 2.69981 30.5 2.69981 31C1.49981 39 1.99981 47.2 4.29981 54.2C4.69981 55.3 5.29981 57.1 6.19981 59.2C6.39981 59.6 6.59981 60.1 6.89981 60.6C6.99981 60.8 6.99981 61 7.09981 61.1C7.39981 61.6 7.59981 62 7.89981 62.5C9.39981 65.1 11.4998 67.8 14.2998 70.4C14.5998 70.7 14.8998 70.9 15.2998 71.2C15.3998 71.2 15.3998 71.3 15.4998 71.3H17.7998V65.9H21.5998V71.3H27.0998V75.1H21.5998V75.3C25.7998 77.4 30.4998 78.7 35.2998 79.2C42.2998 80 49.5998 79.1 56.1998 76.8H56.2998C56.3998 76.8 56.5998 76.7 56.6998 76.7C56.8998 76.6 56.9998 76.6 57.1998 76.5C65.5998 73.4 72.6998 68 76.1998 60.9C77.1998 59 77.9998 56.5 78.5998 53.9C78.6998 53.6 78.6998 53.3 78.7998 53.1C78.8998 52.8 78.8998 52.4 78.9998 52.1C79.5998 47.9 79.3998 43.5 77.5998 40ZM54.7998 51.7C55.3998 51.7 55.9998 51.9 56.5998 52.2C57.6998 52.8 58.3998 54 58.3998 55.3C58.3998 56.3 57.9998 57.2 57.2998 57.9C56.5998 58.5 55.7998 58.9 54.8998 58.9C52.8998 58.9 51.2998 57.3 51.2998 55.4C51.1998 53.3 52.7998 51.7 54.7998 51.7ZM20.1998 47.9V47.7H22.5998V48C22.6998 50.9 24.4998 53.3 27.2998 54.1C28.6998 54.6 30.2998 54.6 31.6998 54.1C34.4998 53.3 36.3998 50.8 36.3998 47.9V47.6H38.0998V47.8C38.0998 51.6 35.1998 55 31.0998 55.8C30.0998 56 29.0998 56 28.1998 55.9C27.8998 55.9 27.5998 55.8 27.1998 55.7C23.1998 55.1 20.1998 51.7 20.1998 47.9ZM25.0998 34.2C25.5998 34.2 25.8998 34.6 25.8998 35C25.8998 35.5 25.4998 35.8 25.0998 35.8C24.9998 35.8 24.9998 35.8 24.8998 35.8C24.4998 35.7 24.1998 35.4 24.1998 35C24.2998 34.5 24.6998 34.2 25.0998 34.2ZM33.1998 34.2C33.6998 34.2 33.9998 34.6 33.9998 35C33.9998 35.5 33.5998 35.8 33.1998 35.8C32.6998 35.8 32.3998 35.4 32.3998 35C32.3998 34.5 32.7998 34.2 33.1998 34.2ZM54.7998 57.3C55.8998 57.3 56.7998 56.4 56.7998 55.3C56.7998 54.2 55.8998 53.3 54.7998 53.3C53.6998 53.3 52.7998 54.2 52.7998 55.3C52.7998 56.3 53.6998 57.3 54.7998 57.3Z" fill="#5BCEAE"/>
<path opacity="0.6" d="M35.8001 61.4001C34.5001 60.1001 32.9001 59.1 31.1001 58.6C30.2001 58.3 29.2001 58.2001 28.2001 58.2001C25.1001 58.2001 22.0001 59.3001 19.6001 61.4001C17.0001 59.0001 14.4001 57.8 12.0001 57.8C10.0001 57.8 8.0001 58.3 6.2001 59.3C5.2001 59.8 4.3001 60.6001 3.5001 61.4001C-1.1999 66.2001 -1.1999 73.9001 3.5001 78.8001L17.9001 92.6C18.9001 93.6 20.5001 93.6 21.5001 92.6L35.3001 79.3001L35.8001 78.8001C36.4001 78.2001 36.9001 77.5001 37.3001 76.8001C40.4001 72.0001 39.9001 65.6001 35.8001 61.4001ZM21.6001 80.6H17.8001V75.2H12.3001V71.4001H17.8001V66H21.6001V71.4001H27.1001V75.2H21.6001V80.6Z" fill="#95C53D"/>
<path d="M59.3001 54.6C59.2001 53.6 58.7001 52.7 58.0001 52C57.5001 51.5 56.8001 51.1 56.1001 50.9C55.9001 50.8 55.7001 50.8 55.4001 50.7H55.2001V49.3C55.2001 46 52.7001 43.3 49.6001 43.3C48.8001 43.3 48.0001 43.5 47.3001 43.8C45.4001 44.7 44.2001 46.7 44.0001 48.8H43.7001V49.2H44.0001V62.3C44.0001 66.6 40.7001 70.2 36.7001 70.2C32.7001 70.2 29.4001 66.7 29.4001 62.3V61H29.6001C30.8001 61 31.4001 60.1 31.4001 58.5V56.7H31.5001C35.8001 55.6 38.8001 52 38.8001 47.8V46.6H37.4001V37.7C37.4001 36.2 36.3001 34.8 34.8001 34.6H34.7001V34.5C34.4001 33.5 33.4001 33 32.4001 33.3C31.4001 33.6 30.9001 34.7 31.2001 35.6C31.4001 36.1 31.7001 36.4 32.1001 36.7C32.5001 36.9 33.0001 37 33.5001 36.8C34.0001 36.6 34.4001 36.2 34.6001 35.7L34.7001 35.6H34.9001C35.8001 35.9 36.5001 36.7 36.5001 37.7V46.6H35.2001V47.9C35.1001 50.3 33.5001 52.4 31.2001 53.1C30.0001 53.5 28.6001 53.5 27.4001 53.1C25.1001 52.4 23.5001 50.3 23.4001 47.9V46.6H21.4001V37.7C21.4001 36.7 22.1001 35.9 23.0001 35.6H23.2001L23.3001 35.8C23.5001 36.3 23.8001 36.6 24.3001 36.8C24.7001 37 25.2001 37 25.7001 36.8C26.2001 36.6 26.5001 36.3 26.7001 35.8C26.9001 35.4 26.9001 35 26.8001 34.5C26.8001 34.4 26.8001 34.4 26.7001 34.3C26.5001 33.8 26.2001 33.5 25.7001 33.3C25.2001 33.1 24.7001 33.1 24.3001 33.3C23.8001 33.5 23.4001 33.9 23.2001 34.4V34.5H23.1001C21.6001 34.8 20.4001 36.1 20.4001 37.7V46.6H19.1001V47.8C19.1001 51.9 22.1001 55.6 26.4001 56.7H26.5001V58.5C26.5001 60.1 27.2001 61 28.3001 61H28.5001V62.3C28.5001 67.2 32.2001 71.2 36.8001 71.2C41.4001 71.2 45.1001 67.2 45.1001 62.3V49.2C45.2001 47.3 46.2001 45.6 47.8001 44.8C48.4001 44.5 49.0001 44.4 49.7001 44.4C52.2001 44.4 54.3001 46.6 54.3001 49.4V50.8H54.2001C53.0001 51 51.9001 51.6 51.2001 52.6C50.5001 53.6 50.2001 54.8 50.3001 56C50.5001 57.2 51.1001 58.3 52.1001 59C53.1001 59.7 54.3001 60 55.5001 59.9C56.2001 59.8 56.8001 59.6 57.3001 59.2C57.7001 58.9 58.1001 58.6 58.5001 58.1C59.1001 57.3 59.4001 56.4 59.4001 55.4C59.3001 55 59.3001 54.8 59.3001 54.6ZM33.2001 35.9C32.7001 35.9 32.4001 35.5 32.4001 35.1C32.4001 34.6 32.8001 34.3 33.2001 34.3C33.7001 34.3 34.0001 34.7 34.0001 35.1C34.1001 35.5 33.7001 35.9 33.2001 35.9ZM25.1001 34.2C25.6001 34.2 25.9001 34.6 25.9001 35C25.9001 35.5 25.5001 35.8 25.1001 35.8C25.0001 35.8 25.0001 35.8 24.9001 35.8C24.5001 35.7 24.2001 35.4 24.2001 35C24.3001 34.5 24.7001 34.2 25.1001 34.2ZM27.3001 55.9C23.2001 55.1 20.3001 51.7 20.3001 47.9V47.7H22.7001V48C22.8001 50.9 24.6001 53.3 27.4001 54.1C28.8001 54.6 30.4001 54.6 31.8001 54.1C34.6001 53.3 36.5001 50.8 36.5001 47.9V47.6H38.2001V47.8C38.2001 51.6 35.3001 55 31.2001 55.8C30.2001 56 29.2001 56 28.3001 55.9C27.9001 56 27.6001 55.9 27.3001 55.9ZM28.5001 60.1C27.7001 60.1 27.7001 59 27.7001 58.6V57L28.2001 57.1C29.0001 57.2 29.4001 57.2 30.2001 57.1L30.8001 57V58.6C30.8001 59.1 30.7001 60.1 30.0001 60.1H28.5001ZM44.1001 49.2H44.3001H44.1001ZM57.2001 57.8C56.5001 58.4 55.7001 58.8 54.8001 58.8C52.8001 58.8 51.2001 57.2 51.2001 55.3C51.2001 53.3 52.8001 51.8 54.8001 51.8C55.4001 51.8 56.0001 52 56.6001 52.3C57.7001 52.9 58.4001 54.1 58.4001 55.4C58.3001 56.2 57.9001 57.1 57.2001 57.8Z" fill="#5BCEAE"/>
<path d="M54.8003 53.2001C53.7003 53.2001 52.8003 54.1001 52.8003 55.2001C52.8003 56.3001 53.7003 57.2001 54.8003 57.2001C55.9003 57.2001 56.8003 56.3001 56.8003 55.2001C56.8003 54.1001 55.9003 53.2001 54.8003 53.2001ZM54.8003 56.2001C54.3003 56.2001 53.9003 55.8001 53.9003 55.3001C53.9003 54.8001 54.3003 54.4001 54.8003 54.4001C55.3003 54.4001 55.7003 54.8001 55.7003 55.3001C55.7003 55.7001 55.3003 56.2001 54.8003 56.2001Z" fill="#5BCEAE"/>
<g opacity="0.5">
<path opacity="0.5" d="M14.6 9.29999C14.5 10.6 13.4 11.6 12 11.5C10.6 11.4 9.79999 10.3 9.89999 8.99999C9.99999 7.69999 11.1 6.69999 12.5 6.79999C13.9 6.89999 14.7 7.99999 14.6 9.29999ZM10.8 8.99999C10.7 9.79999 11.3 10.4 12.1 10.5C12.9 10.6 13.5 9.99999 13.6 9.19999C13.7 8.39999 13.1 7.79999 12.3 7.69999C11.6 7.69999 10.9 8.29999 10.8 8.99999Z" fill="#95C53D"/>
</g>
<g opacity="0.5">
<path opacity="0.5" d="M77.7 71.5C77.6 72.8 76.5 73.8 75.1 73.7C73.8 73.6 72.8 72.5 72.9 71.1C73 69.7 74.1 68.8 75.5 68.9C76.8 69 77.8 70.2 77.7 71.5ZM74 71.2C73.9 72 74.5 72.6 75.3 72.7C76.1 72.8 76.7 72.2 76.8 71.4C76.9 70.6 76.3 70 75.5 69.9C74.7 69.9 74 70.4 74 71.2Z" fill="#95C53D"/>
</g>
<path d="M69.2998 15.4C69.0998 15.4 68.8998 15.3 68.8998 15.1C68.7998 14.8 68.8998 14.6 69.1998 14.5L77.2998 11.5C77.5998 11.4 77.7998 11.5 77.8998 11.8C77.9998 12.1 77.8998 12.3 77.5998 12.4L69.4998 15.4C69.4998 15.4 69.3998 15.4 69.2998 15.4Z" fill="#5BCEAE"/>
<path d="M66 14.5C65.8 14.6 65.6 14.6 65.5 14.5C65.3 14.4 65.2 14.1 65.3 13.8L69.5 6.20005C69.6 6.00005 69.9 5.90005 70.1 6.00005C70.3 6.10005 70.4 6.40005 70.3 6.70005L66.1 14.3C66.1 14.4 66 14.4 66 14.5Z" fill="#5BCEAE"/>
<g opacity="0.5">
<path opacity="0.5" d="M76.3002 19.8C76.2002 21.1 75.1002 22.1 73.7002 22C72.3002 21.9 71.4002 20.8 71.5002 19.4C71.6002 18.1 72.7002 17.1 74.1002 17.2C75.5002 17.3 76.4002 18.4 76.3002 19.8ZM72.6002 19.5C72.5002 20.3 73.1002 20.9 73.9002 21C74.7002 21.1 75.3002 20.5 75.4002 19.7C75.5002 18.9 74.9002 18.3 74.1002 18.2C73.3002 18.1 72.6002 18.7 72.6002 19.5Z" fill="#95C53D"/>
</g>
<path d="M38.9 9.09998C37.6 9.09998 36.5 10.2 36.5 11.5C36.5 12.8 37.6 13.9 38.9 13.9C40.2 13.9 41.3 12.8 41.3 11.5C41.3 10.2 40.2 9.09998 38.9 9.09998ZM38.9 12.9C38.2 12.9 37.6 12.3 37.6 11.6C37.6 10.9 38.2 10.3 38.9 10.3C39.6 10.3 40.2 10.9 40.2 11.6C40.2 12.3 39.6 12.9 38.9 12.9Z" fill="#5BCEAE"/>
<path d="M38.9 9.09998C37.6 9.09998 36.5 10.2 36.5 11.5C36.5 12.8 37.6 13.9 38.9 13.9C40.2 13.9 41.3 12.8 41.3 11.5C41.3 10.2 40.2 9.09998 38.9 9.09998ZM38.9 12.9C38.2 12.9 37.6 12.3 37.6 11.6C37.6 10.9 38.2 10.3 38.9 10.3C39.6 10.3 40.2 10.9 40.2 11.6C40.2 12.3 39.6 12.9 38.9 12.9Z" fill="#5BCEAE"/>
<path d="M64.6002 15.8H55.2002L54.9002 15.4C53.8002 14.2 52.4002 13.3 50.9002 12.9C49.1002 12.4 47.6002 11 47.1002 9.1C46.0002 5.5 42.6002 3 38.8002 3C35.0002 3 31.6002 5.5 30.6002 9.2C30.0002 11 28.6002 12.4 26.8002 13C25.3002 13.4 23.9002 14.3 22.8002 15.5L22.5002 15.9H13.1002C10.1002 15.9 7.7002 18.3 7.7002 21.2V79.2C7.7002 82.1 10.1002 84.6 13.1002 84.6H64.6002C67.6002 84.6 70.0002 82.2 70.0002 79.2V21.2C69.9002 18.2 67.5002 15.8 64.6002 15.8ZM21.6002 21.1C21.6002 17.8 23.9002 14.8 27.0002 13.9C29.2002 13.3 30.9002 11.6 31.5002 9.4C32.5002 6.3 35.5002 4 38.8002 4C42.1002 4 45.1002 6.2 46.0002 9.4C46.6002 11.6 48.3002 13.3 50.5002 13.9C53.7002 14.8 55.9002 17.8 55.9002 21.1V25.4H21.6002V21.1ZM68.9002 79.1C68.9002 81.5 67.0002 83.4 64.6002 83.4H13.1002C10.7002 83.4 8.8002 81.5 8.8002 79.1V21.1C8.8002 18.7 10.7002 16.8 13.1002 16.8H21.6002L21.1002 18.2C20.8002 19.1 20.6002 20 20.6002 21V26.4H57.0002V21C57.0002 20 56.8002 19.1 56.5002 18.1L56.0002 16.9H64.5002C66.9002 16.9 68.8002 18.8 68.8002 21.2V79.1H68.9002Z" fill="#5BCEAE"/>
</g>
<defs>
<clipPath id="clip0">
<rect width="79.3" height="93.3" fill="white"/>
</clipPath>
</defs>
</svg>
