<svg width="923" height="590" viewBox="0 0 923 590" fill="none" xmlns="http://www.w3.org/2000/svg">
<path d="M314.769 330.099L275.348 353.289L278.826 269.575L314.769 330.099Z" fill="url(#paint0_linear)"/>
<path d="M324.741 382.275C329.843 384.594 333.553 388.073 336.104 391.783C331.698 395.261 327.292 398.74 322.886 402.682C317.553 398.276 312.915 391.783 311.523 382.507C310.828 376.71 308.509 373.463 305.958 371.84L330.539 357.231L346.307 384.13C344.22 385.522 342.133 387.145 339.814 388.536C337.032 384.826 335.176 380.188 334.249 374.623C331.698 349.81 301.552 371.376 324.741 382.275Z" fill="url(#paint1_linear)"/>
<path d="M440.455 347.49C434.194 348.418 427.933 349.578 421.672 351.201C419.353 345.635 417.962 338.679 419.817 331.026C422.831 334.505 426.31 337.751 430.02 340.766C433.035 343.548 436.745 345.635 440.455 347.49Z" fill="url(#paint2_linear)"/>
<path d="M502.371 266.56C502.371 283.256 499.588 296.706 494.487 306.677C491.936 311.315 488.921 315.025 485.211 317.344C485.443 314.793 485.907 312.243 486.602 309.692C493.791 282.097 465.036 283.72 477.095 310.619C478.486 313.866 479.414 316.88 480.109 320.127C476.863 321.286 473.384 321.982 469.442 321.982C465.268 321.982 461.326 321.286 458.08 319.895C457.848 310.619 458.775 300.648 461.558 290.677C474.08 246.617 432.339 246.849 447.412 291.14C450.427 299.72 451.818 308.532 452.05 316.649C448.804 314.098 446.021 310.851 443.934 306.909C438.601 296.706 435.818 283.488 435.818 266.792C435.818 250.095 438.601 236.878 443.934 226.674C449.268 216.703 457.848 211.601 469.21 211.601C480.573 211.601 489.153 216.703 494.255 226.674C499.588 236.646 502.371 250.095 502.371 266.56Z" fill="url(#paint3_linear)"/>
<path d="M524.633 322.911C521.619 332.65 517.677 341.23 513.734 348.419C509.328 347.723 504.691 347.027 500.053 346.564C502.835 344.94 505.618 343.085 508.169 340.998C514.894 335.665 520.227 329.635 524.633 322.911Z" fill="url(#paint4_linear)"/>
<path d="M661.449 398.971C656.347 408.71 646.608 412.884 639.419 414.508C637.332 412.421 635.245 410.334 633.158 408.247L644.985 388.768L661.449 398.971Z" fill="url(#paint5_linear)"/>
<path d="M667.71 283.026L630.839 343.086L591.881 319.201L667.71 283.026Z" fill="url(#paint6_linear)"/>
<path d="M887.776 310.852C872.471 303.2 853.919 303.431 837.223 307.606C826.556 310.388 816.121 314.562 804.99 314.562C793.859 314.562 781.801 309.229 778.786 298.562C775.54 287.431 782.96 276.068 791.772 268.416C809.628 253.111 833.513 245.458 849.513 228.298C865.05 211.834 871.543 187.253 866.441 165.455C861.108 143.426 844.18 124.642 822.846 116.99C768.351 97.7429 709.218 150.382 653.564 134.846C649.39 133.686 644.984 131.831 642.897 128.353C640.81 124.642 641.274 120.236 642.433 116.062C649.158 93.5688 675.594 79.4234 676.753 56.0023C677.449 43.2482 669.797 31.4217 660.289 22.8416C595.127 -35.5953 500.979 33.9725 434.658 55.7704C325.436 91.9456 214.36 121.86 104.907 157.339C64.5575 170.789 17.2515 191.427 9.59904 233.632C4.7293 261.227 20.7299 289.982 44.8467 304.359C56.6732 311.316 71.0505 316.186 77.3116 328.476C86.8192 347.491 69.6592 369.057 51.5716 380.188C33.484 391.319 11.2223 399.899 3.10605 419.61C-2.22747 432.364 -0.14044 447.437 5.19308 460.423C24.9039 507.729 82.6451 528.599 133.893 526.048C176.562 523.961 217.375 509.816 258.883 499.149C259.579 497.062 260.507 494.743 261.202 492.656C253.782 484.076 241.26 474.104 223.636 476.655C189.779 481.525 207.867 435.378 229.433 461.118C241.26 475.264 257.492 476.655 268.391 475.728C269.55 473.409 270.71 470.858 271.869 468.539C267.463 461.118 259.579 451.843 245.897 451.611C220.389 450.915 239.404 419.146 252.158 440.944C259.115 452.538 270.478 455.785 278.826 456.48C280.681 453.234 282.768 449.987 284.855 446.973C277.203 433.291 261.434 412.189 234.535 404.073C188.852 390.159 219.694 351.433 244.506 390.855C259.347 414.276 283.232 424.943 297.841 429.581C303.87 422.16 310.595 414.972 317.552 408.479C315.465 401.754 311.059 394.565 302.015 390.391C295.522 387.377 293.203 383.666 293.203 380.188L261.202 398.971L246.825 374.622L250.767 249.401L293.435 224.124L345.611 312.243L364.394 301.113L368.568 308.069C371.583 295.315 398.251 295.779 390.134 320.128C384.801 336.36 390.366 350.042 396.627 359.086C401.497 357.23 406.599 355.607 411.7 354.216C414.483 346.563 415.411 336.592 409.15 327.084C404.744 320.36 405.207 315.49 407.99 312.707C407.526 311.548 407.063 310.388 406.599 309.229C401.961 296.475 399.642 282.329 399.642 267.256C399.642 252.183 401.961 238.038 406.599 225.284C411.237 212.53 419.121 201.863 430.02 193.283C440.919 184.703 453.905 180.297 469.442 180.297C484.747 180.297 497.733 184.471 508.631 193.283C519.299 201.863 527.183 212.53 532.053 225.284C536.922 238.038 539.241 251.951 539.241 267.256C539.241 268.879 539.241 270.503 539.241 271.894C547.589 262.387 555.706 275.604 539.705 302.04C529.734 318.504 524.4 336.128 521.849 350.274C525.096 350.969 528.11 351.665 531.357 352.361C533.212 349.346 534.372 345.404 534.14 340.998C533.212 322.91 556.633 334.505 542.024 344.708C538.546 347.259 536.227 350.274 534.835 353.288C541.792 355.143 548.749 357.462 555.474 360.013C555.474 359.318 555.474 358.39 555.474 357.694C554.546 339.607 577.967 351.201 563.358 361.405C562.894 361.868 562.199 362.1 561.735 362.564C577.04 368.825 591.649 376.709 605.099 385.985L614.606 370.68L545.734 328.244L560.575 304.127L673.043 249.169L715.48 275.141L661.912 362.332L680.464 373.695L673.971 384.362C682.319 384.594 689.508 398.971 672.579 403.377C658.666 407.087 652.405 418.218 649.854 426.103C652.869 429.581 655.651 433.059 658.202 436.77C673.507 432.827 697.16 423.32 711.769 400.594C737.509 360.477 766.496 400.826 721.741 413.812C695.305 421.697 678.609 441.407 670.029 454.393C674.435 461.35 678.145 468.539 681.855 475.959C692.754 477.119 706.9 475.728 717.567 463.669C740.292 438.161 756.293 485.003 723.132 479.438C707.827 476.887 695.769 482.916 687.884 489.641C689.276 492.888 690.435 496.134 691.595 499.381C697.392 498.453 703.653 495.67 708.755 489.873C725.451 470.394 737.973 505.178 713.161 501.468C705.276 500.308 698.783 502.163 693.45 504.946C694.145 507.033 694.841 509.352 695.305 511.439C733.799 512.135 772.061 509.816 809.86 501.699C836.759 495.902 863.659 487.09 884.297 469.003C907.718 448.828 920.936 418.218 922.791 387.376C924.646 357.23 914.211 324.302 887.776 310.852ZM59.224 226.443C57.3689 226.443 55.7456 224.82 55.7456 222.965C55.7456 221.11 57.137 219.486 59.224 219.486C61.311 219.486 62.7024 221.11 62.7024 222.965C62.4705 225.052 61.0792 226.443 59.224 226.443ZM126.241 423.784C125.081 423.784 123.922 422.624 123.922 421.465C123.922 420.073 125.081 419.146 126.241 419.146C127.4 419.146 128.56 420.073 128.56 421.465C128.328 422.856 127.4 423.784 126.241 423.784ZM138.067 267.72C133.893 267.72 130.415 264.242 130.415 260.068C130.415 255.894 133.893 252.415 138.067 252.415C142.241 252.415 145.72 255.894 145.72 260.068C145.488 264.242 142.241 267.72 138.067 267.72ZM164.735 447.669C162.416 447.669 160.329 445.813 160.329 443.263C160.329 440.944 162.184 438.857 164.735 438.857C167.054 438.857 169.141 440.712 169.141 443.263C169.141 445.582 167.054 447.669 164.735 447.669ZM372.511 159.658C371.351 159.658 370.192 158.731 370.192 157.339C370.192 156.18 371.119 155.02 372.511 155.02C373.67 155.02 374.83 155.948 374.83 157.339C374.83 158.499 373.902 159.658 372.511 159.658ZM623.882 109.569C625.737 109.569 627.36 111.193 627.36 113.048C627.36 114.903 625.969 116.526 623.882 116.526C622.027 116.526 620.404 114.903 620.404 113.048C620.404 111.193 622.027 109.569 623.882 109.569ZM576.112 53.6833C574.257 53.6833 572.866 52.0601 572.866 50.2049C572.866 48.3498 574.257 46.7266 576.112 46.7266C577.967 46.7266 579.591 48.3498 579.591 50.2049C579.359 52.292 577.967 53.6833 576.112 53.6833ZM624.114 233.632C622.954 233.632 621.795 232.704 621.795 231.313C621.795 230.153 622.954 228.994 624.114 228.994C625.273 228.994 626.433 229.922 626.433 231.313C626.433 232.704 625.505 233.632 624.114 233.632ZM752.582 363.26C750.263 363.26 748.176 361.405 748.176 358.854C748.176 356.535 750.031 354.448 752.582 354.448C754.901 354.448 756.988 356.303 756.988 358.854C756.988 361.173 754.901 363.26 752.582 363.26ZM781.105 364.883C776.931 364.883 773.453 361.405 773.453 357.23C773.453 353.056 776.931 349.578 781.105 349.578C785.279 349.578 788.758 353.056 788.758 357.23C788.758 361.636 785.279 364.883 781.105 364.883ZM821.454 441.871C817.28 441.871 813.802 438.393 813.802 434.219C813.802 430.045 817.048 426.566 821.454 426.566C825.628 426.566 829.107 430.045 829.107 434.219C828.875 438.625 825.396 441.871 821.454 441.871Z" fill="url(#paint7_linear)"/>
<path d="M784.119 244.994C786.041 244.994 787.598 243.437 787.598 241.515C787.598 239.594 786.041 238.037 784.119 238.037C782.198 238.037 780.641 239.594 780.641 241.515C780.641 243.437 782.198 244.994 784.119 244.994Z" fill="white"/>
<path fill-rule="evenodd" clip-rule="evenodd" d="M471.297 497.526C445.093 497.526 423.991 518.86 423.991 544.832C423.991 551.557 425.382 558.05 427.933 563.847C428.397 563.847 428.629 563.847 429.092 563.847C435.585 563.847 441.151 568.717 443.933 575.674C446.716 568.717 452.282 563.847 458.775 563.847C465.268 563.847 470.833 568.717 473.616 575.674C476.398 568.717 481.964 563.847 488.457 563.847C494.95 563.847 500.515 568.717 503.298 575.674C505.385 569.876 509.559 565.702 514.429 564.311C517.211 558.282 518.603 551.789 518.603 544.832C518.603 518.86 497.269 497.526 471.297 497.526ZM506.544 583.326C508.863 582.399 511.414 581.471 513.733 580.543C511.414 581.471 508.863 582.399 506.544 583.326ZM493.327 586.804C492.863 586.804 492.399 587.036 491.935 587.036C492.399 587.036 492.863 587.036 493.327 586.804C494.022 586.804 494.95 586.573 495.645 586.341C494.718 586.573 494.022 586.804 493.327 586.804ZM478.949 588.66C479.413 588.66 479.877 588.66 480.341 588.66C479.181 588.66 478.254 588.892 477.094 588.892C477.79 588.892 478.485 588.66 478.949 588.66ZM461.325 588.196C461.789 588.196 462.021 588.196 462.485 588.196C461.557 588.196 460.63 587.964 459.934 587.964C460.166 588.196 460.63 588.196 461.325 588.196ZM458.311 587.964C458.775 587.964 459.238 588.196 459.934 588.196C459.006 587.964 458.079 587.964 457.151 587.732C457.383 587.732 457.847 587.732 458.311 587.964ZM454.137 587.268C454.832 587.5 455.296 587.5 455.992 587.5C455.064 587.268 454.369 587.268 453.441 587.036C453.673 587.036 453.905 587.268 454.137 587.268ZM447.644 585.877C447.876 585.877 447.876 585.877 448.108 586.109C448.803 586.341 449.499 586.341 450.195 586.573C449.035 586.341 448.108 586.109 446.948 585.877C447.18 585.645 447.412 585.645 447.644 585.877ZM544.343 434.219C544.575 433.987 544.575 433.987 544.807 433.755C544.575 433.987 544.343 434.219 544.343 434.219Z" fill="#707E98"/>
<path fill-rule="evenodd" clip-rule="evenodd" d="M546.43 431.436C545.038 430.276 543.647 429.349 542.256 428.421C541.56 427.957 540.632 427.262 539.937 426.798C539.241 426.334 538.777 426.102 538.082 425.638C536.922 424.943 535.531 424.015 534.371 423.32C533.676 422.856 533.212 422.624 532.516 422.16C531.357 421.464 530.197 421.001 529.038 420.305C528.574 420.073 527.878 419.841 527.415 419.609C526.719 419.377 526.255 418.914 525.559 418.682C524.632 418.218 523.704 417.986 523.009 417.522C519.994 416.363 516.979 415.203 513.733 414.044C513.037 413.812 512.573 413.58 511.878 413.58C509.559 412.884 507.008 412.189 504.689 411.725C503.762 411.493 503.066 411.261 502.138 411.029C501.211 410.797 500.283 410.565 499.124 410.334C498.196 410.102 497.269 409.87 496.109 409.87C495.413 409.638 494.486 409.638 493.79 409.406C493.095 409.174 492.167 409.174 491.471 409.174C490.776 409.174 489.848 408.942 489.152 408.942C488.225 408.942 487.297 408.71 486.37 408.71C482.891 408.247 479.181 408.247 475.703 408.015C474.775 408.015 473.616 408.015 472.688 408.015C471.529 408.015 470.601 408.015 469.673 408.015C468.514 408.015 467.354 408.015 466.195 408.015C465.036 408.015 464.108 408.015 463.18 408.247C460.861 408.478 458.543 408.71 456.224 408.942C455.528 408.942 454.832 409.174 454.137 409.174C453.441 409.174 452.513 409.406 451.818 409.638C450.194 409.87 448.803 410.102 447.18 410.334C445.557 410.565 444.165 411.029 442.542 411.261C441.614 411.493 440.919 411.725 439.991 411.957C439.295 412.189 438.368 412.421 437.672 412.652C437.208 412.652 436.745 412.884 436.281 413.116C435.585 413.348 434.89 413.58 434.194 413.812C433.266 414.044 432.339 414.276 431.411 414.74C430.715 414.971 430.02 415.203 429.324 415.435C427.933 415.899 426.541 416.363 424.918 417.058C424.222 417.29 423.527 417.522 422.831 417.986C421.904 418.45 420.744 418.914 419.817 419.377C419.585 419.609 419.121 419.609 418.889 419.841C417.729 420.305 416.57 421.001 415.179 421.464C414.947 421.464 414.715 421.696 414.483 421.696C413.324 422.392 412.396 422.856 411.236 423.551C408.454 425.175 405.671 426.798 403.12 428.653C402.425 429.117 401.961 429.581 401.265 430.044C400.338 430.74 399.41 431.436 398.714 432.131C379.235 447.9 368.104 471.785 373.438 503.786C378.772 535.324 394.772 558.281 415.642 572.426C416.57 573.122 417.729 573.818 418.889 574.513C420.048 575.209 420.976 575.905 422.135 576.368H422.367C423.527 577.064 424.454 577.528 425.614 577.992C426.773 578.687 427.933 579.151 429.092 579.615C430.02 580.079 430.947 580.543 432.107 581.006C434.658 582.166 437.208 583.093 439.991 584.021C441.151 584.253 442.078 584.717 443.238 584.949C444.165 585.18 445.093 585.412 446.02 585.644C446.252 585.644 446.716 585.876 446.948 585.876C448.107 586.108 449.035 586.34 450.194 586.572C450.426 586.572 450.426 586.572 450.658 586.804C451.354 587.036 452.05 587.036 452.513 587.267C452.977 587.267 453.209 587.499 453.673 587.499C454.6 587.731 455.296 587.731 456.224 587.963C456.455 587.963 456.919 588.195 457.151 588.195C458.079 588.427 459.006 588.427 459.934 588.659C460.861 588.659 461.789 588.891 462.485 588.891C462.485 588.891 462.485 588.891 462.717 588.891C462.948 588.891 463.18 588.891 463.412 588.891C464.108 588.891 464.804 588.891 465.499 589.123H465.731C466.659 589.123 467.586 589.354 468.746 589.354C468.978 589.354 469.21 589.354 469.21 589.354C469.441 589.354 469.673 589.354 469.673 589.354C469.905 589.354 470.137 589.354 470.369 589.354C471.065 589.354 471.76 589.354 472.456 589.354H472.688C473.616 589.354 474.775 589.354 475.703 589.354C475.934 589.354 476.166 589.354 476.398 589.354C476.63 589.354 476.862 589.354 476.862 589.354C478.022 589.354 478.949 589.354 480.109 589.123C480.804 589.123 481.732 588.891 482.427 588.891C482.659 588.891 482.659 588.891 482.891 588.891C483.123 588.891 483.355 588.891 483.587 588.891C483.819 588.891 484.283 588.891 484.514 588.891C485.21 588.891 486.138 588.659 486.833 588.659C487.065 588.659 487.297 588.659 487.761 588.427C487.993 588.427 488.225 588.427 488.225 588.427C488.92 588.427 489.848 588.195 490.776 587.963C491.007 587.963 491.239 587.963 491.703 587.731C492.167 587.731 492.631 587.499 493.095 587.499C493.79 587.267 494.718 587.267 495.413 587.036C495.413 587.036 495.413 587.036 495.645 587.036C496.805 586.804 497.964 586.572 499.124 586.108C499.356 586.108 499.588 586.108 499.588 585.876C500.747 585.644 501.675 585.18 502.834 584.949C503.993 584.485 505.153 584.253 506.544 583.789C508.863 582.862 511.414 581.934 513.733 581.006C514.892 580.543 516.052 579.847 517.211 579.383C518.371 578.919 519.53 578.224 520.458 577.76C520.69 577.528 520.922 577.528 521.153 577.296C522.081 576.832 523.009 576.369 523.936 575.673C524.864 575.209 525.791 574.513 526.719 574.05C527.878 573.354 529.27 572.426 530.429 571.499C550.836 557.353 566.372 534.628 571.706 503.554C577.271 471.089 565.909 447.204 546.43 431.436ZM501.211 581.47C481.036 587.036 459.238 586.572 439.295 579.847C431.643 577.296 424.222 573.818 417.266 569.412C420.048 566.165 423.527 563.846 427.469 563.614C424.918 557.817 423.527 551.324 423.527 544.599C423.527 518.395 444.629 497.293 470.833 497.293C497.037 497.293 518.139 518.627 518.139 544.599C518.139 551.556 516.748 558.049 513.965 564.078C515.124 563.846 516.284 563.614 517.675 563.614C521.849 563.614 525.791 565.701 528.574 568.948C520.458 574.745 510.95 578.919 501.211 581.47ZM544.343 434.218C540.401 438.856 535.299 441.871 529.734 441.871C521.385 441.871 514.197 435.61 510.718 426.798C507.24 435.61 500.051 441.871 491.703 441.871C483.355 441.871 476.166 435.61 472.688 426.798C469.21 435.61 462.021 441.871 453.673 441.871C445.325 441.871 438.136 435.61 434.658 426.798C431.179 435.61 423.991 441.871 415.642 441.871C409.845 441.871 404.744 439.088 401.033 434.45C439.295 406.391 506.08 406.391 544.343 434.218C544.343 433.987 544.575 433.987 544.807 433.755C544.575 433.987 544.575 434.218 544.343 434.218Z" fill="#707E98"/>
<path fill-rule="evenodd" clip-rule="evenodd" d="M477.094 588.891C478.253 588.891 479.181 588.891 480.34 588.659C479.876 588.659 479.413 588.659 478.949 588.659C478.485 588.659 477.789 588.891 477.094 588.891Z" fill="#707E98"/>
<path fill-rule="evenodd" clip-rule="evenodd" d="M493.327 586.805C493.327 586.805 493.095 586.805 493.327 586.805C492.864 587.037 492.4 587.037 491.936 587.037C492.4 587.037 492.864 587.037 493.327 586.805Z" fill="#707E98"/>
<path fill-rule="evenodd" clip-rule="evenodd" d="M518.603 544.832C518.603 551.789 517.211 558.282 514.429 564.311C509.559 565.702 505.385 569.876 503.298 575.674C500.515 568.717 494.95 563.847 488.457 563.847C481.964 563.847 476.398 568.717 473.616 575.674C470.833 568.717 465.268 563.847 458.775 563.847C452.282 563.847 446.716 568.717 443.933 575.674C441.151 568.717 435.585 563.847 429.092 563.847C428.629 563.847 428.397 563.847 427.933 563.847C425.382 558.05 423.991 551.557 423.991 544.832C423.991 518.628 445.093 497.526 471.297 497.526C497.269 497.526 518.603 518.86 518.603 544.832Z" fill="#CCCCCC"/>
<path fill-rule="evenodd" clip-rule="evenodd" d="M446.949 585.646C448.109 585.877 449.036 586.109 450.196 586.341C449.5 586.109 448.804 586.109 448.109 585.877C447.877 585.877 447.877 585.877 447.645 585.646C447.413 585.646 447.181 585.646 446.949 585.646Z" fill="#707E98"/>
<path fill-rule="evenodd" clip-rule="evenodd" d="M453.439 587.035C454.367 587.267 455.062 587.267 455.99 587.499C455.294 587.499 454.83 587.267 454.135 587.267C453.903 587.267 453.671 587.035 453.439 587.035Z" fill="#707E98"/>
<path fill-rule="evenodd" clip-rule="evenodd" d="M456.919 587.731C457.847 587.963 458.775 587.963 459.702 588.195C459.238 588.195 458.775 587.963 458.079 587.963C457.847 587.731 457.383 587.731 456.919 587.731Z" fill="#707E98"/>
<path fill-rule="evenodd" clip-rule="evenodd" d="M462.486 588.427C462.023 588.427 461.791 588.427 461.327 588.427C460.863 588.427 460.399 588.427 459.936 588.195C460.631 588.195 461.559 588.195 462.486 588.427Z" fill="#707E98"/>
<path fill-rule="evenodd" clip-rule="evenodd" d="M446.949 585.646C448.109 585.877 449.036 586.109 450.196 586.341C449.5 586.109 448.804 586.109 448.109 585.877C447.877 585.877 447.877 585.877 447.645 585.646C447.413 585.646 447.181 585.646 446.949 585.646Z" fill="#707E98"/>
<path fill-rule="evenodd" clip-rule="evenodd" d="M453.439 587.035C454.367 587.267 455.062 587.267 455.99 587.499C455.294 587.499 454.83 587.267 454.135 587.267C453.903 587.267 453.671 587.035 453.439 587.035Z" fill="#707E98"/>
<path fill-rule="evenodd" clip-rule="evenodd" d="M456.919 587.731C457.847 587.963 458.775 587.963 459.702 588.195C459.238 588.195 458.775 587.963 458.079 587.963C457.847 587.731 457.383 587.731 456.919 587.731Z" fill="#707E98"/>
<path fill-rule="evenodd" clip-rule="evenodd" d="M462.486 588.427C462.023 588.427 461.791 588.427 461.327 588.427C460.863 588.427 460.399 588.427 459.936 588.195C460.631 588.195 461.559 588.195 462.486 588.427Z" fill="#707E98"/>
<path fill-rule="evenodd" clip-rule="evenodd" d="M544.806 433.755C544.806 433.988 544.574 434.22 544.341 434.22C544.341 434.22 544.574 433.988 544.806 433.755Z" fill="#707E98"/>
<path fill-rule="evenodd" clip-rule="evenodd" d="M553.387 378.101C529.966 380.652 510.255 386.681 494.95 396.421C494.95 396.421 505.849 379.029 522.082 375.551C538.314 372.304 553.387 378.101 553.387 378.101Z" fill="#707E98"/>
<path fill-rule="evenodd" clip-rule="evenodd" d="M388.28 378.101C411.701 380.652 431.412 386.681 446.717 396.421C446.717 396.421 435.818 379.029 419.585 375.551C403.353 372.304 388.28 378.101 388.28 378.101Z" fill="#707E98"/>
<path fill-rule="evenodd" clip-rule="evenodd" d="M333.554 497.526C339.351 497.526 344.221 502.164 344.221 507.961C344.221 513.758 339.583 518.628 333.554 518.628C327.757 518.628 323.119 513.99 323.119 507.961C323.119 502.164 327.757 497.526 333.554 497.526Z" fill="#707E98"/>
<path fill-rule="evenodd" clip-rule="evenodd" d="M324.74 481.524C328.219 481.524 331.002 484.307 331.002 487.786C331.002 491.264 328.219 494.047 324.74 494.047C321.262 494.047 318.479 491.264 318.479 487.786C318.247 484.539 321.262 481.524 324.74 481.524Z" fill="#707E98"/>
<path fill-rule="evenodd" clip-rule="evenodd" d="M349.784 491.729C352.335 491.729 354.19 493.816 354.19 496.134C354.19 498.685 352.103 500.54 349.784 500.54C347.233 500.54 345.378 498.453 345.378 496.134C345.146 493.584 347.233 491.729 349.784 491.729Z" fill="#707E98"/>
<path fill-rule="evenodd" clip-rule="evenodd" d="M604.4 522.106C598.603 522.106 593.733 526.744 593.733 532.773C593.733 538.57 598.371 543.208 604.4 543.208C610.198 543.208 614.836 538.57 614.836 532.773C614.836 526.976 610.198 522.106 604.4 522.106Z" fill="#707E98"/>
<path fill-rule="evenodd" clip-rule="evenodd" d="M613.449 506.337C609.97 506.337 607.188 509.12 607.188 512.598C607.188 516.077 609.97 518.859 613.449 518.859C616.927 518.859 619.71 516.077 619.71 512.598C619.71 509.12 616.927 506.337 613.449 506.337Z" fill="#707E98"/>
<path fill-rule="evenodd" clip-rule="evenodd" d="M588.402 516.54C585.851 516.54 583.996 518.627 583.996 520.946C583.996 523.497 586.083 525.352 588.402 525.352C590.953 525.352 592.808 523.265 592.808 520.946C592.808 518.395 590.953 516.54 588.402 516.54Z" fill="#707E98"/>
<path fill-rule="evenodd" clip-rule="evenodd" d="M363.004 404.305C366.483 404.305 369.265 407.088 369.265 410.566C369.265 414.045 366.483 416.828 363.004 416.828C359.526 416.828 356.743 414.045 356.743 410.566C356.743 407.088 359.526 404.305 363.004 404.305Z" fill="#707E98"/>
<path fill-rule="evenodd" clip-rule="evenodd" d="M376.917 394.334C379.468 394.334 381.323 396.421 381.323 398.74C381.323 401.291 379.236 403.146 376.917 403.146C374.366 403.146 372.511 401.059 372.511 398.74C372.279 396.421 374.366 394.334 376.917 394.334Z" fill="#707E98"/>
<path fill-rule="evenodd" clip-rule="evenodd" d="M559.648 422.393C560.343 418.914 563.59 416.595 567.068 417.291C570.547 417.987 572.865 421.233 572.17 424.712C571.474 428.19 568.228 430.509 564.749 429.813C561.271 429.118 559.184 425.871 559.648 422.393Z" fill="#707E98"/>
<path fill-rule="evenodd" clip-rule="evenodd" d="M552.459 406.855C552.923 404.304 555.242 402.681 557.793 403.144C560.343 403.608 561.735 405.927 561.503 408.246C561.039 410.797 558.72 412.42 556.401 411.956C553.618 411.724 551.995 409.406 552.459 406.855Z" fill="#707E98"/>
<path d="M747.016 551.325C750.986 551.325 754.205 548.107 754.205 544.136C754.205 540.166 750.986 536.948 747.016 536.948C743.046 536.948 739.828 540.166 739.828 544.136C739.828 548.107 743.046 551.325 747.016 551.325Z" fill="#95C53D"/>
<path d="M246.361 535.091C251.483 535.091 255.636 530.938 255.636 525.815C255.636 520.693 251.483 516.54 246.361 516.54C241.238 516.54 237.085 520.693 237.085 525.815C237.085 530.938 241.238 535.091 246.361 535.091Z" fill="#95C53D"/>
<path d="M229.433 552.484C231.994 552.484 234.071 550.407 234.071 547.846C234.071 545.284 231.994 543.208 229.433 543.208C226.871 543.208 224.795 545.284 224.795 547.846C224.795 550.407 226.871 552.484 229.433 552.484Z" fill="#95C53D"/>
<path d="M721.046 582.166C725.016 582.166 728.234 578.948 728.234 574.978C728.234 571.008 725.016 567.789 721.046 567.789C717.075 567.789 713.857 571.008 713.857 574.978C713.857 578.948 717.075 582.166 721.046 582.166Z" fill="#95C53D"/>
<path d="M738.204 586.34C740.51 586.34 742.378 584.471 742.378 582.166C742.378 579.861 740.51 577.992 738.204 577.992C735.899 577.992 734.03 579.861 734.03 582.166C734.03 584.471 735.899 586.34 738.204 586.34Z" fill="#95C53D"/>
<defs>
<linearGradient id="paint0_linear" x1="275.44" y1="311.407" x2="314.676" y2="311.407" gradientUnits="userSpaceOnUse">
<stop offset="0.00591636" stop-color="#95C53D"/>
<stop offset="1" stop-color="#5CC957"/>
</linearGradient>
<linearGradient id="paint1_linear" x1="306.282" y1="379.966" x2="346.654" y2="379.966" gradientUnits="userSpaceOnUse">
<stop offset="0.00591636" stop-color="#95C53D"/>
<stop offset="1" stop-color="#5BCE4B"/>
</linearGradient>
<linearGradient id="paint2_linear" x1="418.799" y1="341.123" x2="440.385" y2="341.123" gradientUnits="userSpaceOnUse">
<stop offset="0.00591636" stop-color="#95C53D"/>
<stop offset="1" stop-color="#5BCE43"/>
</linearGradient>
<linearGradient id="paint3_linear" x1="435.794" y1="266.79" x2="502.278" y2="266.79" gradientUnits="userSpaceOnUse">
<stop stop-color="#5BCE66"/>
<stop offset="1" stop-color="#5BCE96"/>
</linearGradient>
<linearGradient id="paint4_linear" x1="500.191" y1="335.535" x2="524.633" y2="335.535" gradientUnits="userSpaceOnUse">
<stop offset="0.00591636" stop-color="#95C53D"/>
<stop offset="1" stop-color="#5BCEAE"/>
</linearGradient>
<linearGradient id="paint5_linear" x1="632.949" y1="401.728" x2="661.356" y2="401.728" gradientUnits="userSpaceOnUse">
<stop offset="0.00591636" stop-color="#5BCE93"/>
<stop offset="1" stop-color="#5BCEAE"/>
</linearGradient>
<linearGradient id="paint6_linear" x1="591.973" y1="313.077" x2="667.686" y2="313.077" gradientUnits="userSpaceOnUse">
<stop offset="0.00591636" stop-color="#5BCE7C"/>
<stop offset="1" stop-color="#5BCEAE"/>
</linearGradient>
<linearGradient id="paint7_linear" x1="-0.372332" y1="263.122" x2="922.898" y2="263.122" gradientUnits="userSpaceOnUse">
<stop offset="0.00591636" stop-color="#95C53D"/>
<stop offset="1" stop-color="#5BCEAE"/>
</linearGradient>
</defs>
</svg>
